<svg xmlns="http://www.w3.org/2000/svg" width="18" height="14.4" viewBox="0 0 18 14.4">
  <path id="Icon_awesome-crown" data-name="Icon awesome-crown" d="M14.85,12.6H3.15a.451.451,0,0,0-.45.45v.9a.451.451,0,0,0,.45.45h11.7a.451.451,0,0,0,.45-.45v-.9A.451.451,0,0,0,14.85,12.6Zm1.8-9A1.35,1.35,0,0,0,15.3,4.95a1.323,1.323,0,0,0,.124.557L13.387,6.728A.9.9,0,0,1,12.144,6.4L9.852,2.391a1.35,1.35,0,1,0-1.7,0L5.856,6.4a.9.9,0,0,1-1.243.326L2.579,5.507A1.35,1.35,0,1,0,1.35,6.3a1.379,1.379,0,0,0,.217-.023L3.6,11.7H14.4l2.033-5.422a1.379,1.379,0,0,0,.217.023,1.35,1.35,0,1,0,0-2.7Z" fill="#396298"/>
</svg>
