<svg xmlns="http://www.w3.org/2000/svg" width="14.83" height="14.83" viewBox="0 0 14.83 14.83">
  <g id="settings" transform="translate(0.65 0.65)">
    <circle id="타원_341" data-name="타원 341" cx="1.5" cy="1.5" r="1.5" transform="translate(5 5.1)" fill="none" stroke="#aaa" stroke-linecap="round" stroke-linejoin="round" stroke-width="1.3"/>
    <path id="패스_445" data-name="패스 445" d="M12.316,9.61a1.015,1.015,0,0,0,.2,1.119l.037.037a1.231,1.231,0,1,1-1.74,1.74l-.037-.037a1.023,1.023,0,0,0-1.734.726v.1a1.23,1.23,0,1,1-2.46,0v-.055a1.015,1.015,0,0,0-.664-.929,1.015,1.015,0,0,0-1.119.2l-.037.037a1.231,1.231,0,1,1-1.74-1.74l.037-.037a1.023,1.023,0,0,0-.726-1.734h-.1a1.23,1.23,0,1,1,0-2.46h.055a1.015,1.015,0,0,0,.929-.664,1.015,1.015,0,0,0-.2-1.119l-.037-.037a1.231,1.231,0,1,1,1.74-1.74l.037.037a1.015,1.015,0,0,0,1.119.2H5.92a1.015,1.015,0,0,0,.615-.929v-.1A1.23,1.23,0,1,1,9,2.23v.055a1.023,1.023,0,0,0,1.734.726l.037-.037a1.231,1.231,0,1,1,1.74,1.74l-.037.037a1.015,1.015,0,0,0-.2,1.119V5.92a1.015,1.015,0,0,0,.929.615h.1A1.23,1.23,0,1,1,13.3,9h-.055A1.015,1.015,0,0,0,12.316,9.61Z" transform="translate(-1 -1)" fill="none" stroke="#aaa" stroke-linecap="round" stroke-linejoin="round" stroke-width="1.3"/>
  </g>
</svg>
