<svg xmlns="http://www.w3.org/2000/svg" width="25" height="25.659" viewBox="0 0 25 25.659">
  <g id="icon_시설이용" transform="translate(-10 -2071.785)">
    <g id="타원_415" data-name="타원 415" transform="translate(10 2089.444)" fill="none" stroke="#5a514c" stroke-width="2">
      <ellipse cx="12.5" cy="4" rx="12.5" ry="4" stroke="none"/>
      <ellipse cx="12.5" cy="4" rx="11.5" ry="3" fill="none"/>
    </g>
    <g id="패스_553" data-name="패스 553" transform="translate(33.252 2071.785) rotate(90)" fill="none">
      <path d="M6.566.421A.906.906,0,0,1,8.1.421l6.456,10.45c.357.578.067.866-.626.866H1.014c-.694,0-1.261-.288-.9-.866Z" stroke="none"/>
      <path d="M 7.331028461456299 2.987446784973145 L 3.161526679992676 9.736647605895996 L 11.50052452087402 9.736647605895996 L 7.331028461456299 2.987446784973145 M 7.331027507781982 0 C 7.627005100250244 0 7.922982692718506 0.1402721405029297 8.096298217773438 0.4208173751831055 L 14.55208778381348 10.87085723876953 C 14.90898704528809 11.44857692718506 14.61945724487305 11.736647605896 13.92575740814209 11.736647605896 L 1.014177322387695 11.736647605896 C 0.3204774856567383 11.736647605896 -0.2469320297241211 11.44857692718506 0.1099672317504883 10.87085723876953 L 6.565757751464844 0.4208173751831055 C 6.739072322845459 0.1402721405029297 7.035049915313721 0 7.331027507781982 0 Z" stroke="none" fill="#9cc023"/>
    </g>
    <line id="선_145" data-name="선 145" y2="19.444" transform="translate(22.5 2073.5)" fill="none" stroke="#5a514c" stroke-linecap="round" stroke-width="2"/>
  </g>
</svg>
