<svg xmlns="http://www.w3.org/2000/svg" width="29.737" height="26" viewBox="0 0 29.737 26">
  <g id="icon2" transform="translate(1 -1.749)">
    <g id="file-text" transform="translate(0 2.749)">
      <path id="패스_441" data-name="패스 441" d="M11.5,2h10A2.452,2.452,0,0,1,24,4.4V23.6A2.452,2.452,0,0,1,21.5,26H6.5A2.452,2.452,0,0,1,4,23.6V9.2Z" transform="translate(-4 -2)" fill="none" stroke="#5a514c" stroke-linejoin="round" stroke-width="2"/>
      <path id="패스_442" data-name="패스 442" d="M22.118,2V7.647H14" transform="translate(-13.882 -1.059)" fill="none" stroke="#5a514c" stroke-linejoin="round" stroke-width="2"/>
      <line id="선_6" data-name="선 6" x2="10.118" transform="translate(5 13.566)" fill="none" stroke="#9ebb3d" stroke-linejoin="round" stroke-width="2"/>
      <line id="선_7" data-name="선 7" x2="10.118" transform="translate(5 17.959)" fill="none" stroke="#9ebb3d" stroke-linejoin="round" stroke-width="2"/>
      <path id="패스_443" data-name="패스 443" d="M8,9h4" transform="translate(2.353 0.172)" fill="none" stroke="#9ebb3d" stroke-linejoin="round" stroke-width="2"/>
    </g>
    <g id="Icon" transform="translate(10.737 2.6)" fill="#eff1f5" stroke-linecap="square">
      <path d="M 3.325478553771973 17 L 1 17 L 1 14.66427612304688 L 11.05832195281982 4.606378555297852 L 13.39293956756592 6.941612720489502 L 3.325478553771973 17 Z M 15.87737941741943 4.457695484161377 L 13.54247188568115 2.122706413269043 L 14.66279029846191 1.001831293106079 L 16.99754524230957 3.337394952774048 L 15.87737941741943 4.457695484161377 Z" stroke="none"/>
      <path d="M 2.911532402038574 16 L 11.97849941253662 6.941205501556396 L 11.05820846557617 6.020671844482422 L 2 15.07849884033203 L 2 16 L 2.911532402038574 16 M 3.539210081100464 18 L 0.4996300041675568 18 C 0.2194599956274033 18 0 17.78053092956543 0 17.5003604888916 L 0 14.46067047119141 C 0 14.32178020477295 0.05048000067472458 14.20042991638184 0.1500599980354309 14.10000038146973 L 11.05842971801758 3.192090034484863 L 14.80737972259521 6.94202995300293 L 3.889630079269409 17.84993934631348 C 3.803250074386597 17.94528961181641 3.675519943237305 18 3.539210081100464 18 Z M 15.87740993499756 5.871950149536133 L 15.87674045562744 5.87129020690918 L 12.12845039367676 2.122869968414307 L 13.95816993713379 0.2922399938106537 C 14.14661026000977 0.1037900000810623 14.39686965942383 0 14.66285991668701 0 C 14.9288501739502 0 15.17910957336426 0.1037900000810623 15.36754989624023 0.2922399938106537 L 17.70712089538574 2.632760047912598 C 17.89598083496094 2.821209907531738 18 3.07148003578186 18 3.337470054626465 C 18 3.603460073471069 17.89598083496094 3.853729963302612 17.70712089538574 4.042180061340332 L 15.87808036804199 5.87129020690918 L 15.87740993499756 5.871950149536133 Z" stroke="none" fill="#5a514c"/>
    </g>
  </g>
</svg>
