<svg xmlns="http://www.w3.org/2000/svg" width="33.736" height="35.357" viewBox="0 0 33.736 35.357">
  <g id="icon_비" transform="translate(-224.312 -238.09)">
    <path id="패스_66191" data-name="패스 66191" d="M256.548,252.409a7.735,7.735,0,0,0-4.745,2.019,7.828,7.828,0,0,0-10.55.007,7.819,7.819,0,0,0-10.543-.007,7.849,7.849,0,0,0-4.9-2.034,15.608,15.608,0,0,1,12.036-12.418,15.346,15.346,0,0,1,3.325-.361,15.636,15.636,0,0,1,15.375,12.793Z" transform="translate(0 1.906)" fill="none" stroke="#5a514c" stroke-linecap="round" stroke-linejoin="round" stroke-width="3"/>
    <line id="선_315" data-name="선 315" y2="7.269" transform="translate(241.55 259.211)" fill="none" stroke="#5a514c" stroke-linejoin="round" stroke-width="3"/>
    <line id="선_316" data-name="선 316" y2="0.973" transform="translate(241.252 239.59)" fill="none" stroke="#5a514c" stroke-linecap="round" stroke-linejoin="round" stroke-width="3"/>
    <g id="패스_66192" data-name="패스 66192" transform="translate(-3.403 -10.535)" fill="none" stroke-linecap="round" stroke-linejoin="round">
      <path d="M246.485,276.518l-.019,3.464a4.037,4.037,0,0,1-3.579,3.982,3.85,3.85,0,0,1-4.228-3.833v-1.2a1.442,1.442,0,0,1,1.442-1.442h0a1.443,1.443,0,0,1,1.442,1.442v1.2a.966.966,0,1,0,1.932,0l-.038-3.638Z" stroke="none"/>
      <path d="M 243.4362030029297 276.4931335449219 L 246.4847259521484 276.5182495117188 L 246.4653930664063 279.9819030761719 C 246.4661254882813 281.993896484375 244.8880767822266 283.7745361328125 242.8861389160156 283.9642639160156 C 242.7590942382813 283.9763488769531 242.6328735351563 283.9822692871094 242.5083312988281 283.9822692871094 C 240.3806457519531 283.9822692871094 238.6580352783203 282.2589416503906 238.6580352783203 280.1313171386719 L 238.6580352783203 278.9342041015625 C 238.6580352783203 278.1380004882813 239.303466796875 277.4918823242188 240.1003112792969 277.4918823242188 C 240.896484375 277.4918823242188 241.5426635742188 278.1380004882813 241.5426635742188 278.9342041015625 L 241.5426635742188 280.1313171386719 C 241.5426635742188 280.6649475097656 241.974609375 281.09765625 242.5089874267578 281.09765625 C 243.0426483154297 281.09765625 243.474609375 280.6649475097656 243.474609375 280.1313171386719 L 243.4362030029297 276.4931335449219 Z" stroke="none" fill="#9cc023"/>
    </g>
  </g>
</svg>
