<svg xmlns="http://www.w3.org/2000/svg" width="22.192" height="22.259" viewBox="0 0 22.192 22.259">
  <g id="Icon_Smarthome" transform="translate(1 0)">
    <path id="패스_66036" data-name="패스 66036" d="M3,11.907,11.5,4,20,11.907v8.112a1.926,1.926,0,0,1-1.889,1.962H4.889A1.926,1.926,0,0,1,3,20.019Z" transform="translate(-3 -0.722)" fill="none" stroke="#fff" stroke-width="2"/>
    <path id="패스_66037" data-name="패스 66037" d="M15,15.571v4.975" transform="translate(-6.5 -0.012)" fill="none" stroke="#fff" stroke-linejoin="round" stroke-width="2"/>
    <circle id="타원_538" data-name="타원 538" cx="2" cy="2" r="2" transform="translate(6.5 12.56)" fill="none" stroke="#fff" stroke-linecap="round" stroke-linejoin="round" stroke-miterlimit="10" stroke-width="2"/>
    <path id="패스_66038" data-name="패스 66038" d="M7,6.3a.7.7,0,0,1-1.4,0A4.9,4.9,0,0,0,.7,1.4.7.7,0,0,1,.7,0,6.3,6.3,0,0,1,7,6.3Zm-2.8,0a.7.7,0,0,1-1.4,0A2.1,2.1,0,0,0,.7,4.2a.7.7,0,0,1,0-1.4A3.5,3.5,0,0,1,4.2,6.3Z" transform="matrix(0.996, 0.087, -0.087, 0.996, 14.219, 0)" fill="#fff" fill-rule="evenodd"/>
  </g>
</svg>
