<svg xmlns="http://www.w3.org/2000/svg" width="34.001" height="25.25" viewBox="0 0 34.001 25.25">
  <g id="icon_바이크스테이션" transform="translate(-1498.999 -340.75)">
    <path id="패스_66281" data-name="패스 66281" d="M815.017,4580.5h21.75a6.726,6.726,0,0,1,7.188-6.34" transform="translate(684.17 -4221.351)" fill="none" stroke="#5a514c" stroke-width="2"/>
    <g id="사각형_18317" data-name="사각형 18317" transform="translate(1504 345)" fill="#eff1f5" stroke="#9cc023" stroke-width="2">
      <path d="M1.75,0H11.5A3.5,3.5,0,0,1,15,3.5v0A3.5,3.5,0,0,1,11.5,7H0A0,0,0,0,1,0,7V1.75A1.75,1.75,0,0,1,1.75,0Z" stroke="none"/>
      <path d="M1.833,1H11.5A2.5,2.5,0,0,1,14,3.5v0A2.5,2.5,0,0,1,11.5,6H1.833A.833.833,0,0,1,1,5.167V1.833A.833.833,0,0,1,1.833,1Z" fill="none"/>
    </g>
    <g id="빼기_1" data-name="빼기 1" transform="translate(1499 349)" fill="#eff1f5">
      <path d="M 17.92352676391602 9.998900413513184 L 1.074573397636414 9.998900413513184 C 1.024393796920776 9.648049354553223 0.9991001486778259 9.292976379394531 0.9991001486778259 8.937000274658203 C 0.9991001486778259 6.766560077667236 1.893710136413574 4.694340229034424 3.518150091171265 3.102070093154907 C 5.147970199584961 1.504510045051575 7.272190093994141 0.6247000098228455 9.499500274658203 0.6247000098228455 C 11.74734020233154 0.6247000098228455 13.88230037689209 1.517539978027344 15.51107978820801 3.138750076293945 C 17.09218978881836 4.712520122528076 17.99900054931641 6.825900077819824 17.99900054931641 8.937000274658203 C 17.99900054931641 9.293010711669922 17.97371101379395 9.648043632507324 17.92352676391602 9.998900413513184 Z" stroke="none"/>
      <path d="M 16.99870681762695 8.998900413513184 C 16.9989013671875 8.978278160095215 16.99900054931641 8.95763111114502 16.99900054931641 8.937000274658203 C 16.99900054931641 7.090000152587891 16.19954109191895 5.234950065612793 14.80562973022461 3.847500085830688 C 13.36553001403809 2.414109945297241 11.48111057281494 1.624699950218201 9.499500274658203 1.624699950218201 C 7.535530090332031 1.624699950218201 5.659910202026367 2.402990102767944 4.21815013885498 3.816210031509399 C 2.787170171737671 5.218850135803223 1.999100089073181 7.037449836730957 1.999100089073181 8.937000274658203 C 1.999100089073181 8.957637786865234 1.999198436737061 8.978270530700684 1.999394297599792 8.998900413513184 L 16.99870681762695 8.998900413513184 M 18.74485969543457 10.99890041351318 L 18.74407958984375 10.99890041351318 L 0.2532301545143127 10.99890041351318 C 0.08428014069795609 10.3259801864624 -0.0008998596458695829 9.632519721984863 -0.0008998596458695829 8.937000274658203 C -0.0008998596458695829 3.889209985733032 4.34975004196167 -0.3752999901771545 9.499500274658203 -0.3752999901771545 C 12.01358032226563 -0.3752999901771545 14.39906978607178 0.6209800243377686 16.21653938293457 2.430000066757202 C 17.98483085632324 4.190080165863037 18.99900054931641 6.561789989471436 18.99900054931641 8.937000274658203 C 18.99900054931641 9.633310317993164 18.91356086730957 10.32678031921387 18.74505043029785 10.99814033508301 L 18.74485969543457 10.99890041351318 Z" stroke="none" fill="#5a514c"/>
    </g>
    <g id="타원_606" data-name="타원 606" transform="translate(1523 355)" fill="#eff1f5" stroke="#5a514c" stroke-width="2">
      <circle cx="5" cy="5" r="5" stroke="none"/>
      <circle cx="5" cy="5" r="4" fill="none"/>
    </g>
    <g id="타원_607" data-name="타원 607" transform="translate(1501 356)" fill="#eff1f5" stroke="#5a514c" stroke-width="2">
      <circle cx="5" cy="5" r="5" stroke="none"/>
      <circle cx="5" cy="5" r="4" fill="none"/>
    </g>
    <path id="패스_66282" data-name="패스 66282" d="M827.625,4566h5.082l3.608,11.438" transform="translate(691.81 -4224.25)" fill="none" stroke="#5a514c" stroke-linecap="round" stroke-linejoin="round" stroke-width="2"/>
  </g>
</svg>
