<svg xmlns="http://www.w3.org/2000/svg" width="34.998" height="33.885" viewBox="0 0 34.998 33.885">
  <g id="icon_자주묻는질문" transform="translate(-1041.002 -560.002)">
    <g id="합치기_3" data-name="합치기 3" transform="translate(2873 -19820)" fill="none">
      <path d="M-1824.118,20412.176l-.47-3.176H-1828a4,4,0,0,1-4-4v-21a4,4,0,0,1,4-4h27a4,4,0,0,1,4,4v21a4,4,0,0,1-4,4H-1817.3l-3.277,4.129a1.95,1.95,0,0,1-1.551.758A2,2,0,0,1-1824.118,20412.176Z" stroke="none"/>
      <path d="M -1822.13818359375 20411.884765625 L -1818.86181640625 20407.755859375 L -1818.26123046875 20407 L -1817.295288085938 20407 L -1801.00146484375 20407 C -1799.89794921875 20407 -1799.000122070313 20406.1015625 -1799.000122070313 20404.998046875 L -1799.000122070313 20384.001953125 C -1799.000122070313 20382.8984375 -1799.89794921875 20382.001953125 -1801.00146484375 20382.001953125 L -1828.001586914063 20382.001953125 C -1829.102294921875 20382.001953125 -1829.997802734375 20382.8984375 -1829.997802734375 20384.001953125 L -1829.997802734375 20404.998046875 C -1829.997802734375 20406.1015625 -1829.102294921875 20407 -1828.001586914063 20407 L -1824.587768554688 20407 L -1822.86181640625 20407 L -1822.609252929688 20408.70703125 L -1822.1396484375 20411.8828125 C -1822.139526367188 20411.8828125 -1822.139526367188 20411.8828125 -1822.139404296875 20411.884765625 C -1822.139038085938 20411.884765625 -1822.138671875 20411.884765625 -1822.13818359375 20411.884765625 M -1822.12353515625 20413.88671875 C -1823.050048828125 20413.88671875 -1823.958984375 20413.25 -1824.118041992188 20412.17578125 L -1824.587768554688 20409 L -1828.001586914063 20409 C -1830.209716796875 20409 -1831.997802734375 20407.2109375 -1831.997802734375 20404.998046875 L -1831.997802734375 20384.001953125 C -1831.997802734375 20381.7890625 -1830.209716796875 20380.001953125 -1828.001586914063 20380.001953125 L -1801.00146484375 20380.001953125 C -1798.793212890625 20380.001953125 -1797.000122070313 20381.7890625 -1797.000122070313 20384.001953125 L -1797.000122070313 20404.998046875 C -1797.000122070313 20407.2109375 -1798.793212890625 20409 -1801.00146484375 20409 L -1817.295288085938 20409 L -1820.572631835938 20413.12890625 C -1820.984619140625 20413.650390625 -1821.557373046875 20413.88671875 -1822.12353515625 20413.88671875 Z" stroke="none" fill="#5a514c"/>
    </g>
    <text id="FAQ" transform="translate(1059 579)" fill="#9cc023" stroke="#9cc023" stroke-width="0.2" font-size="12" font-family="SegoeUI, Segoe UI" letter-spacing="-0.05em"><tspan x="-10.372" y="0">FAQ</tspan></text>
  </g>
</svg>
