<svg xmlns="http://www.w3.org/2000/svg" width="34.201" height="34.326" viewBox="0 0 34.201 34.326">
  <g id="icon_조선호텔" transform="translate(-268.057 -454.548)">
    <g id="그룹_66777" data-name="그룹 66777" transform="translate(269.057 462.729)">
      <g id="그룹_66772" data-name="그룹 66772" transform="translate(0 7.589)">
        <path id="사각형_18302" data-name="사각형 18302" d="M2,0H6.692a2,2,0,0,1,2,2V17.556a0,0,0,0,1,0,0H2a2,2,0,0,1-2-2V2A2,2,0,0,1,2,0Z" fill="none" stroke="#5a514c" stroke-linecap="round" stroke-linejoin="round" stroke-width="2"/>
      </g>
      <g id="그룹_66773" data-name="그룹 66773" transform="translate(23.508 7.589)">
        <path id="사각형_18304" data-name="사각형 18304" d="M2,0H6.693a2,2,0,0,1,2,2V15.556a2,2,0,0,1-2,2H0a0,0,0,0,1,0,0V2A2,2,0,0,1,2,0Z" fill="none" stroke="#5a514c" stroke-linecap="round" stroke-linejoin="round" stroke-width="2"/>
      </g>
      <g id="그룹_66776" data-name="그룹 66776" transform="translate(8.716)">
        <path id="사각형_18306" data-name="사각형 18306" d="M2,0H12.78a2,2,0,0,1,2,2V25.145a0,0,0,0,1,0,0H0a0,0,0,0,1,0,0V2A2,2,0,0,1,2,0Z" fill="none" stroke="#5a514c" stroke-linecap="round" stroke-linejoin="round" stroke-width="2"/>
        <rect id="사각형_18307" data-name="사각형 18307" width="3.435" height="8.365" transform="translate(5.673 16.78)" fill="none" stroke="#5a514c" stroke-linecap="round" stroke-linejoin="round" stroke-width="2"/>
        <g id="그룹_66775" data-name="그룹 66775" transform="translate(3.211 10.435)">
          <rect id="사각형_18310" data-name="사각형 18310" width="2.94" height="0.262" transform="translate(5.562)" fill="none" stroke="#5a514c" stroke-linecap="round" stroke-linejoin="round" stroke-width="2"/>
          <rect id="사각형_18311" data-name="사각형 18311" width="2.939" height="0.262" fill="none" stroke="#5a514c" stroke-linecap="round" stroke-linejoin="round" stroke-width="2"/>
        </g>
        <g id="그룹_66797" data-name="그룹 66797" transform="translate(3.211 6.435)">
          <rect id="사각형_18310-2" data-name="사각형 18310" width="2.94" height="0.262" transform="translate(5.562)" fill="none" stroke="#5a514c" stroke-linecap="round" stroke-linejoin="round" stroke-width="2"/>
          <rect id="사각형_18311-2" data-name="사각형 18311" width="2.939" height="0.262" fill="none" stroke="#5a514c" stroke-linecap="round" stroke-linejoin="round" stroke-width="2"/>
        </g>
      </g>
    </g>
    <g id="그룹_66778" data-name="그룹 66778" transform="translate(271.823 455.048)">
      <path id="패스_66216" data-name="패스 66216" d="M283.938,454.148l.749,1.518,1.676.243-1.213,1.183.286,1.669-1.5-.788-1.5.788.286-1.669-1.213-1.183,1.676-.243Z" transform="translate(-281.512 -454.148)" fill="#9cc023" stroke="#9cc023" stroke-linecap="round" stroke-linejoin="round" stroke-width="1"/>
      <path id="패스_66217" data-name="패스 66217" d="M295.867,454.148l.75,1.518,1.675.243-1.212,1.183.286,1.669-1.5-.788-1.5.788.286-1.669-1.213-1.183,1.676-.243Z" transform="translate(-287.573 -454.148)" fill="#9cc023" stroke="#9cc023" stroke-linecap="round" stroke-linejoin="round" stroke-width="1"/>
      <path id="패스_66218" data-name="패스 66218" d="M295.867,454.148l.75,1.518,1.675.243-1.212,1.183.286,1.669-1.5-.788-1.5.788.286-1.669-1.213-1.183,1.676-.243Z" transform="translate(-282.01 -454.148)" fill="#9cc023" stroke="#9cc023" stroke-linecap="round" stroke-linejoin="round" stroke-width="1"/>
      <path id="패스_66219" data-name="패스 66219" d="M295.867,454.148l.75,1.518,1.675.243-1.212,1.183.286,1.669-1.5-.788-1.5.788.286-1.669-1.213-1.183,1.676-.243Z" transform="translate(-276.446 -454.148)" fill="#9cc023" stroke="#9cc023" stroke-linecap="round" stroke-linejoin="round" stroke-width="1"/>
      <path id="패스_66220" data-name="패스 66220" d="M295.867,454.148l.75,1.518,1.675.243-1.212,1.183.286,1.669-1.5-.788-1.5.788.286-1.669-1.213-1.183,1.676-.243Z" transform="translate(-270.883 -454.148)" fill="#9cc023" stroke="#9cc023" stroke-linecap="round" stroke-linejoin="round" stroke-width="1"/>
    </g>
  </g>
</svg>
