<svg xmlns="http://www.w3.org/2000/svg" width="27.606" height="34.5" viewBox="0 0 27.606 34.5">
  <g id="icon_코인세탁실" transform="translate(-361.386 -276.023)">
    <path id="사각형_18300" data-name="사각형 18300" d="M0,0H25.606a0,0,0,0,1,0,0V23.867a2.5,2.5,0,0,1-2.5,2.5H2.506A2.506,2.506,0,0,1,0,23.866V0A0,0,0,0,1,0,0Z" transform="translate(362.386 283.151)" fill="none" stroke="#5a514c" stroke-linecap="round" stroke-linejoin="round" stroke-width="2"/>
    <path id="사각형_18301" data-name="사각형 18301" d="M1.976,0H23.631a1.975,1.975,0,0,1,1.975,1.975V6.128a0,0,0,0,1,0,0H0a0,0,0,0,1,0,0V1.976A1.976,1.976,0,0,1,1.976,0Z" transform="translate(362.386 277.023)" fill="none" stroke="#5a514c" stroke-linecap="round" stroke-linejoin="round" stroke-width="2"/>
    <path id="패스_66198" data-name="패스 66198" d="M366.789,297.342a8.551,8.551,0,1,1,8.551,8.552A8.551,8.551,0,0,1,366.789,297.342Z" transform="translate(-0.109 -1.048)" fill="none" stroke="#9cc023" stroke-linecap="round" stroke-linejoin="round" stroke-width="2"/>
    <path id="패스_66199" data-name="패스 66199" d="M366.8,300.712c2.629-.43,3.262,2.246,5.986,1.668,2.788-.591,2.19-3.409,4.978-4,2.77-.589,3.378,2.192,6.123,1.644" transform="translate(-0.111 -4.157)" fill="none" stroke="#9cc023" stroke-linecap="round" stroke-linejoin="round" stroke-width="2"/>
    <line id="선_326" data-name="선 326" x2="2.134" transform="translate(365.839 280.087)" fill="none" stroke="#5a514c" stroke-linecap="round" stroke-linejoin="round" stroke-width="2"/>
    <line id="선_327" data-name="선 327" x2="1.69" transform="translate(382.782 280.087)" fill="none" stroke="#5a514c" stroke-linecap="round" stroke-linejoin="round" stroke-width="2"/>
  </g>
</svg>
