<svg xmlns="http://www.w3.org/2000/svg" width="35" height="35" viewBox="0 0 35 35">
  <g id="icon_신세계2" transform="translate(-996.5 -155.857)">
    <g id="사각형_18315" data-name="사각형 18315" transform="translate(996.5 155.857)" fill="none" stroke="#5a514c" stroke-width="2">
      <rect width="35" height="35" rx="5" stroke="none"/>
      <rect x="1" y="1" width="33" height="33" rx="4" fill="none"/>
    </g>
    <path id="패스_66296" data-name="패스 66296" d="M0,0H28" transform="translate(1000 164.357)" fill="none" stroke="#9cc023" stroke-linecap="square" stroke-width="3"/>
    <path id="패스_66321" data-name="패스 66321" d="M5.616.252c3.078,0,4.9-1.854,4.9-4.032A3.68,3.68,0,0,0,7.83-7.4L6.084-8.136C4.95-8.586,4-8.928,4-9.882c0-.882.756-1.4,1.926-1.4a4.249,4.249,0,0,1,2.826,1.1l1.35-1.674a5.911,5.911,0,0,0-4.176-1.71c-2.7,0-4.608,1.674-4.608,3.852a3.859,3.859,0,0,0,2.7,3.582L5.8-5.382c1.188.5,2,.81,2,1.8,0,.936-.738,1.53-2.124,1.53A5.241,5.241,0,0,1,2.286-3.528L.756-1.692A7.1,7.1,0,0,0,5.616.252Z" transform="translate(1008 182.857)" fill="#4b423c"/>
  </g>
</svg>
