<svg xmlns="http://www.w3.org/2000/svg" width="23" height="23" viewBox="0 0 23 23">
  <g id="icon_mymenu" transform="translate(1 1)">
    <path id="star" d="M11.989,2l3.087,6.253,6.9,1.009-4.995,4.865L18.163,21l-6.174-3.247L5.816,21l1.179-6.873L2,9.262,8.9,8.253Z" transform="translate(-2 -2)" fill="none" stroke="#fff" stroke-linecap="round" stroke-linejoin="round" stroke-width="2"/>
    <path id="패스_164" data-name="패스 164" d="M225,147.833A2.128,2.128,0,0,0,227.167,150h8.667A2.128,2.128,0,0,0,238,147.833v-8.667A2.128,2.128,0,0,0,235.833,137h-8.667A2.128,2.128,0,0,0,225,139.167Z" transform="translate(-216 -128)" fill="#3f3632"/>
    <line id="선_129" data-name="선 129" y2="6" transform="translate(15.5 12.5)" fill="none" stroke="#fff" stroke-linecap="square" stroke-linejoin="round" stroke-miterlimit="10" stroke-width="2"/>
    <line id="선_130" data-name="선 130" x1="6" transform="translate(12.5 15.5)" fill="none" stroke="#fff" stroke-linecap="square" stroke-linejoin="round" stroke-miterlimit="10" stroke-width="2"/>
  </g>
</svg>
