<svg xmlns="http://www.w3.org/2000/svg" width="31.758" height="34.007" viewBox="0 0 31.758 34.007">
  <g id="icon_주민카페" transform="translate(-99.332 -198.841)">
    <g id="그룹_66756" data-name="그룹 66756" transform="translate(108.338 199.841)">
      <path id="패스_66200" data-name="패스 66200" d="M121.123,197.957c0,1.158-1.364,1.158-1.364,2.315s1.364,1.158,1.364,2.315-1.364,1.158-1.364,2.315" transform="translate(-113.621 -197.957)" fill="none" stroke="#9cc023" stroke-linecap="round" stroke-linejoin="round" stroke-width="2"/>
      <path id="패스_66201" data-name="패스 66201" d="M110.809,197.957c0,1.158-1.364,1.158-1.364,2.315s1.364,1.158,1.364,2.315-1.364,1.158-1.364,2.315" transform="translate(-109.445 -197.957)" fill="none" stroke="#9cc023" stroke-linecap="round" stroke-linejoin="round" stroke-width="2"/>
    </g>
    <path id="패스_66202" data-name="패스 66202" d="M110.161,214.342h11.714a1.232,1.232,0,0,1,1.274,1.111c.226,4.1.156,18.129-11.379,17.773-11.536.357-11.607-13.672-11.381-17.773a1.232,1.232,0,0,1,1.274-1.111h11.715" transform="translate(0 -3.891)" fill="none" stroke="#5a514c" stroke-linecap="round" stroke-linejoin="round" stroke-width="2"/>
    <path id="패스_66203" data-name="패스 66203" d="M107.528,233.677a14.572,14.572,0,0,1-3.429-6.746" transform="translate(0.107 -8.88)" fill="none" stroke="#5a514c" stroke-linecap="round" stroke-linejoin="round" stroke-width="2"/>
    <path id="패스_66204" data-name="패스 66204" d="M129.382,216.815a7.372,7.372,0,1,1-2.917,14.311" transform="translate(-6.204 -4.478)" fill="none" stroke="#5a514c" stroke-linecap="round" stroke-linejoin="round" stroke-width="2"/>
    <path id="패스_66205" data-name="패스 66205" d="M129.8,221.075a4.132,4.132,0,1,1-1.465,8.112" transform="translate(-6.648 -5.49)" fill="none" stroke="#5a514c" stroke-linecap="round" stroke-linejoin="round" stroke-width="2"/>
    <path id="패스_66206" data-name="패스 66206" d="M117.266,240.549c1.6.245,2.64.633,2.64,1.071,0,.741-2.975,1.343-6.648,1.343s-6.649-.6-6.649-1.343c0-.437,1.037-.826,2.641-1.071h0" transform="translate(-1.489 -11.114)" fill="none" stroke="#5a514c" stroke-linecap="round" stroke-linejoin="round" stroke-width="2"/>
  </g>
</svg>
