<svg xmlns="http://www.w3.org/2000/svg" width="34.5" height="29.267" viewBox="0 0 34.5 29.267">
  <g id="icon_어린이집" transform="translate(-345.436 -440.498)">
    <path id="패스_66264" data-name="패스 66264" d="M377.044,456.119h0a4.381,4.381,0,0,0,2.579-1.015.924.924,0,0,0,.313-.692,1.144,1.144,0,0,0-.494-.867,7.423,7.423,0,0,1-1.166-1.3c-.179-.245-.32-.457-.456-.661a11.235,11.235,0,0,0-1.211-1.572,3.171,3.171,0,0,0-2.4-1.042,6.866,6.866,0,0,0-3.605,1.358c-.057.006-.112.012-.153.018-.076.01-.338.043-.733.085a2.033,2.033,0,0,0-1.493-.61,3.135,3.135,0,0,0-1.15.241,11.485,11.485,0,0,1-3.016.535c-.243-.01-.486-.026-.73-.052a14.68,14.68,0,0,0-4.5-9.148,3.236,3.236,0,0,0-2.3-.9,6.186,6.186,0,0,0-3.095,1.028,30.762,30.762,0,0,0-3.438-.6l-.085,0a1.673,1.673,0,0,0-1.281,2.749l.411.49-.873.778c-1.556,1.187-3.717,3.8-2.239,6.324a3.715,3.715,0,0,0,3.339,1.865,6.342,6.342,0,0,0,2.2-.444c.019.549.059,1.181.13,1.9a7.888,7.888,0,0,0,.548,1.916,10.378,10.378,0,0,1,.43,1.312l-1.6,6.094a13.8,13.8,0,0,1-1.061-.961.837.837,0,1,0-1.192,1.174c3.48,3.533,9.1,5.642,15.044,5.642a23.491,23.491,0,0,0,10.694-2.5,1.667,1.667,0,0,0,.407-.185l.432-.274a16.662,16.662,0,0,0,3.51-2.683.837.837,0,0,0-1.192-1.174c-.259.262-.535.513-.819.758-.335-1.562-1.112-6.189-1.541-8.224A2.767,2.767,0,0,0,377.044,456.119Zm-1.669-4.979a9.726,9.726,0,0,1,1.052,1.369c.148.223.3.454.5.722a10.38,10.38,0,0,0,.863,1.045,1.951,1.951,0,0,1-.743.169c-.291,0-.728-.081-1.161-.783-.14-.227-.264-.432-.375-.616-.652-1.081-1.045-1.733-1.915-1.733a1.458,1.458,0,0,0-.164.011,3.921,3.921,0,0,0-.5-.393,3.47,3.47,0,0,1,1.274-.289A1.482,1.482,0,0,1,375.375,451.141Zm-14.93.484c.02.008.04.015.06.021a13.369,13.369,0,0,0,2.714.569l0,2.142c0,.942,0,1.606,0,2.09a6.454,6.454,0,0,1-2.789-.417,1.039,1.039,0,0,1-.352-.631l-.434-3.839A.97.97,0,0,1,360.444,451.625Zm4.454,2.732,0-2.142a13.356,13.356,0,0,0,2.714-.569l.06-.021a1.013,1.013,0,0,1,.813-.065l-.449,3.849a1.021,1.021,0,0,1-.351.62,6.455,6.455,0,0,1-2.789.417C364.9,455.963,364.9,455.3,364.9,454.356Zm-8.367-12.185a1.6,1.6,0,0,1,1.148.44,12.955,12.955,0,0,1,3.918,7.605c-.185-.049-.371-.1-.556-.156a3.264,3.264,0,0,0-.971-.231,14.807,14.807,0,0,0-.561-2.125,9.742,9.742,0,0,0-4.06-5.322A3.236,3.236,0,0,1,356.531,442.171Zm-.839,24.443,3.023-3.929a16.048,16.048,0,0,0,5.058.664,18.1,18.1,0,0,0,5.1-.581l3.5,3.642a22.834,22.834,0,0,1-16.678.2Zm18.662-1.186c-.131.074-.261.149-.395.221l-4.669-4.857s-1.22.884-5.517.884-5.566-1.074-5.566-1.074l-4.069,5.29-1.7-1.036L354.276,458c0-1.061-.923-2.689-1.009-3.575a14.79,14.79,0,0,1,0-4.369l-1.722.758a5.341,5.341,0,0,1-2.277.639,2.058,2.058,0,0,1-1.895-1.038c-1.14-1.945,1.858-4.183,1.858-4.183l2.135-1.9-1.454-1.733a33.067,33.067,0,0,1,3.375.61c.01,0,.019.011.03.015a7.554,7.554,0,0,1,4.6,4.992,13.282,13.282,0,0,1,.554,2.163,1.907,1.907,0,0,0-.473.687.836.836,0,0,0-.047.383l.467,4.131a2.672,2.672,0,0,0,1.059,1.827c.873.609,2.284.725,4.583.725s3.709-.116,4.582-.725a2.669,2.669,0,0,0,1.058-1.813l.41-3.518c.374-.041.589-.07.589-.07a1.21,1.21,0,0,1,.216-.016c.545,0,1.972.264,2.52,2.916.415,2.009,1.9,9.908,1.9,9.908Z" fill="#5a514c"/>
    <path id="패스_66265" data-name="패스 66265" d="M361.287,452.9a.965.965,0,1,0,.965.965A.965.965,0,0,0,361.287,452.9Z" transform="translate(-8.658 -7.631)" fill="#5a514c"/>
    <path id="패스_66285" data-name="패스 66285" d="M358.435,451.056a1.374,1.374,0,0,1,1.732-.75c1.183.26,2.049,1.01,3.665.75s3.088-.981,3.867-.75,1.01.606,1.039.981-.087,3.954-.635,4.56a1.872,1.872,0,0,1-1.53.895c-.981.173-5.252.346-6.118,0s-1.356-.577-1.558-1.5A27.222,27.222,0,0,1,358.435,451.056Z" transform="translate(0.427 0.277)" fill="#eff1f5" stroke="#9cc023" stroke-width="2"/>
    <line id="선_357" data-name="선 357" y2="6" transform="translate(363.936 450.998)" fill="none" stroke="#9cc023" stroke-width="2"/>
  </g>
</svg>
