<svg xmlns="http://www.w3.org/2000/svg" width="32.632" height="35" viewBox="0 0 32.632 35">
  <g id="icon_생활" transform="translate(-144.902 -2357.353)">
    <g id="사각형_1997" data-name="사각형 1997" transform="translate(147.722 2381.353)" fill="none" stroke="#5a514c" stroke-linecap="square" stroke-width="2">
      <rect width="26" height="11" stroke="none"/>
      <rect x="1" y="1" width="24" height="9" fill="none"/>
    </g>
    <g id="사각형_1999" data-name="사각형 1999" transform="translate(152.722 2383.353)" fill="#fff" stroke="#5a514c" stroke-width="2">
      <rect width="2" height="9" stroke="none"/>
      <rect x="1" y="1" height="7" fill="none"/>
    </g>
    <g id="사각형_2000" data-name="사각형 2000" transform="translate(157.722 2383.353)" fill="#fff" stroke="#5a514c" stroke-width="2">
      <rect width="2" height="9" stroke="none"/>
      <rect x="1" y="1" height="7" fill="none"/>
    </g>
    <g id="사각형_2001" data-name="사각형 2001" transform="translate(161.722 2383.353)" fill="#fff" stroke="#5a514c" stroke-width="2">
      <rect width="2" height="9" stroke="none"/>
      <rect x="1" y="1" height="7" fill="none"/>
    </g>
    <g id="사각형_18332" data-name="사각형 18332" transform="translate(166.722 2383.353)" fill="#fff" stroke="#5a514c" stroke-width="2">
      <rect width="2" height="9" stroke="none"/>
      <rect x="1" y="1" height="7" fill="none"/>
    </g>
    <g id="사각형_1998" data-name="사각형 1998" transform="translate(156.722 2357.353)" fill="none" stroke="#5a514c" stroke-width="2">
      <path d="M3.5,0h0A3.5,3.5,0,0,1,7,3.5V16a0,0,0,0,1,0,0H0a0,0,0,0,1,0,0V3.5A3.5,3.5,0,0,1,3.5,0Z" stroke="none"/>
      <path d="M3.5,1h0A2.5,2.5,0,0,1,6,3.5V14.375A.625.625,0,0,1,5.375,15H1.625A.625.625,0,0,1,1,14.375V3.5A2.5,2.5,0,0,1,3.5,1Z" fill="none"/>
    </g>
    <g id="그룹_567" data-name="그룹 567" transform="translate(168.989 2359.074)">
      <line id="선_143" data-name="선 143" x2="7.545" transform="translate(0 3.773)" fill="none" stroke="#9ebb3d" stroke-linecap="round" stroke-width="2"/>
      <line id="선_144" data-name="선 144" y2="7.545" transform="translate(3.773 0)" fill="none" stroke="#9ebb3d" stroke-linecap="round" stroke-width="2"/>
    </g>
    <g id="그룹_568" data-name="그룹 568" transform="translate(145.902 2365.634)">
      <line id="선_143-2" data-name="선 143" x2="5.053" transform="translate(0 2.527)" fill="none" stroke="#9ebb3d" stroke-linecap="round" stroke-width="2"/>
      <line id="선_144-2" data-name="선 144" y2="5.053" transform="translate(2.526)" fill="none" stroke="#9ebb3d" stroke-linecap="round" stroke-width="2"/>
    </g>
    <g id="합치기_8" data-name="합치기 8" transform="translate(145.722 2371.353)" fill="none">
      <path d="M0,12V6A2,2,0,0,1,2,4H8.888V2a2,2,0,0,1,2-2h8.221a2,2,0,0,1,2,2V4H28a2,2,0,0,1,2,2v6Z" stroke="none"/>
      <path d="M 27.9997673034668 10.00059986114502 L 27.99990081787109 6.000499725341797 L 21.11129951477051 6.000499725341797 L 19.11129951477051 6.000499725341797 L 19.11129951477051 4.000499725341797 L 19.11059951782227 1.99999988079071 L 10.88840007781982 1.999799966812134 L 10.88840007781982 4.000499725341797 L 10.88840007781982 6.000499725341797 L 8.888400077819824 6.000499725341797 L 2.000000238418579 6.00029993057251 L 2.000000238418579 10.00059986114502 L 27.9997673034668 10.00059986114502 M 29.99970054626465 12.00059986114502 L 2.731323149873788e-07 12.00059986114502 L 2.731323149873788e-07 6.00029993057251 C 2.731323149873788e-07 4.895100116729736 0.8955003023147583 4.000499725341797 1.999800324440002 4.000499725341797 L 8.888400077819824 4.000499725341797 L 8.888400077819824 1.999799966812134 C 8.888400077819824 0.8954999446868896 9.783900260925293 -6.942749308791463e-08 10.88910007476807 -6.942749308791463e-08 L 19.11059951782227 -6.942749308791463e-08 C 20.21579933166504 -6.942749308791463e-08 21.11129951477051 0.8954999446868896 21.11129951477051 1.999799966812134 L 21.11129951477051 4.000499725341797 L 27.99990081787109 4.000499725341797 C 29.10420036315918 4.000499725341797 29.99970054626465 4.895100116729736 29.99970054626465 6.00029993057251 L 29.99970054626465 12.00059986114502 Z" stroke="none" fill="#5a514c"/>
    </g>
  </g>
</svg>
