<svg xmlns="http://www.w3.org/2000/svg" width="35.083" height="30.593" viewBox="0 0 35.083 30.593">
  <g id="icon_문의하기" transform="translate(-1498 -757)">
    <g id="그룹_66794" data-name="그룹 66794">
      <g id="icon_입주민" transform="translate(470 210.749)">
        <g id="합치기_9" data-name="합치기 9" transform="translate(1063.083 580.857) rotate(180)" fill="none">
          <path d="M0,13.708a9.107,9.107,0,0,1,1.553-5.1L.642,7.015A2,2,0,0,1,3.184,4.191L5.619,5.265a9.123,9.123,0,0,1,3.531-.706h3.785a9.1,9.1,0,0,1,9.16,9.4c.014.172-.5.138-1.615.138-.694.044-1.5.039-2.326.034a19.019,19.019,0,0,0-3.951.229,8.926,8.926,0,0,0-2.356.874,9.669,9.669,0,0,0-3.993,4.2,9.533,9.533,0,0,0-.9,3.1A8.9,8.9,0,0,1,0,13.708Z" stroke="none"/>
          <path d="M 5.520452499389648 19.86631011962891 C 5.702167987823486 19.3487377166748 5.891112804412842 18.90441131591797 6.025741577148438 18.62652778625488 C 6.976680278778076 16.40332412719727 9.337154388427734 14.20039463043213 10.99449634552002 13.42356109619141 C 12.4035587310791 12.75300884246826 13.00088024139404 12.56312465667725 13.77809715270996 12.40423488616943 C 14.77829360961914 12.17404270172119 15.95701789855957 12.12660026550293 17.41592025756836 12.12660026550293 C 17.66323089599609 12.12660026550293 17.91152000427246 12.12784957885742 18.15818023681641 12.12909030914307 L 18.16574096679688 12.12913036346436 L 18.21475982666016 12.1294002532959 C 18.45601081848145 12.1307201385498 18.69561004638672 12.13204956054688 18.93106079101563 12.13204956054688 C 19.22405624389648 12.13204956054688 19.57620429992676 12.13021564483643 19.9193058013916 12.11911487579346 C 19.63197135925293 10.81801605224609 19.00186347961426 9.637210845947266 18.07285118103027 8.690179824829102 C 16.7243595123291 7.315549850463867 14.89963054656982 6.558499813079834 12.93480014801025 6.558499813079834 L 9.14940071105957 6.558499813079834 C 8.192500114440918 6.558499813079834 7.264500141143799 6.743859767913818 6.391160488128662 7.109439849853516 L 5.598480224609375 7.441259860992432 L 4.812160491943359 7.094639778137207 L 2.377699613571167 6.021480560302734 L 3.288750171661377 7.613319873809814 L 3.906120300292969 8.692020416259766 L 3.212320327758789 9.723219871520996 C 2.419210195541382 10.90200996398926 2.000000238418579 12.2798900604248 2.000000238418579 13.70790004730225 C 2.000000238418579 15.43367004394531 2.549330234527588 17.00783920288086 3.588610172271729 18.26024055480957 C 4.127508640289307 18.90963745117188 4.785870552062988 19.45380020141602 5.520452499389648 19.86631011962891 M 6.957000255584717 22.53870010375977 C 3.146400213241577 21.68099975585938 2.578735234237683e-07 18.33659934997559 2.578735234237683e-07 13.70790004730225 C 2.578735234237683e-07 11.81933975219727 0.5723402500152588 10.06422996520996 1.552940249443054 8.606769561767578 L 0.641700267791748 7.014599800109863 C -0.1658640801906586 5.603447437286377 0.9389448165893555 4.013236522674561 2.362925291061401 4.013236522674561 C 2.62907075881958 4.013236522674561 2.90613842010498 4.068708896636963 3.184200286865234 4.191299915313721 L 5.618890285491943 5.264559745788574 C 6.705150127410889 4.809849739074707 7.898050308227539 4.558499813079834 9.14940071105957 4.558499813079834 L 12.93480014801025 4.558499813079834 C 17.98740005493164 4.558499813079834 22.19849967956543 8.567999839782715 22.09499931335449 13.957200050354 C 22.10530090332031 14.08016586303711 21.84659767150879 14.09766960144043 21.28935050964355 14.09767055511475 C 21.06759262084961 14.09767150878906 20.79860305786133 14.09490013122559 20.48040008544922 14.09490013122559 C 20.00660514831543 14.1250114440918 19.47993469238281 14.13204479217529 18.93105888366699 14.13204574584961 C 18.67607307434082 14.13204574584961 18.41629981994629 14.13052749633789 18.15480041503906 14.12909984588623 C 17.90929222106934 14.12786197662354 17.66211318969727 14.12659645080566 17.41592025756836 14.12659645080566 C 16.23072814941406 14.12659645080566 15.06674480438232 14.15590476989746 14.20380020141602 14.35859966278076 C 13.58550071716309 14.48369979858398 13.12740039825439 14.62320041656494 11.84759998321533 15.23250007629395 C 10.62900066375732 15.80130004882813 8.610300064086914 17.64179992675781 7.854300022125244 19.43729972839355 C 7.727400302886963 19.64159965515137 6.952500343322754 21.50819969177246 6.957000255584717 22.53870010375977 Z" stroke="none" fill="#5a514c"/>
        </g>
      </g>
    </g>
    <g id="icon_입주민-2" data-name="icon_입주민" transform="translate(457 197)">
      <g id="합치기_3" data-name="합치기 3" transform="translate(1041.002 560.002)" fill="none">
        <path d="M5.721,23.045l.4-1.807A11.234,11.234,0,0,1,11.23,0h7.648a11.232,11.232,0,0,1,0,22.465H13.273a2.048,2.048,0,0,1-.276.2L8.691,25.2a1.985,1.985,0,0,1-1.016.284A2.005,2.005,0,0,1,5.721,23.045Z" stroke="none"/>
        <path d="M 7.673623561859131 23.48007202148438 C 7.673775196075439 23.47998237609863 7.673926830291748 23.47989273071289 7.674080371856689 23.47980117797852 L 11.97916030883789 20.93672180175781 C 11.98305988311768 20.93441200256348 11.98510074615479 20.93284225463867 11.98597049713135 20.93210220336914 L 12.54395008087158 20.46310234069824 L 13.27285003662109 20.46310234069824 L 18.8784008026123 20.46310234069824 C 23.96894073486328 20.46310234069824 28.11040115356445 16.32124137878418 28.11040115356445 11.23020172119141 C 28.11040115356445 6.139662265777588 23.96894073486328 1.998202085494995 18.8784008026123 1.998202085494995 L 11.23020076751709 1.998202085494995 C 6.139660358428955 1.998202085494995 1.998200297355652 6.139662265777588 1.998200297355652 11.23020172119141 C 1.998200297355652 12.96382236480713 2.480770349502563 14.65262222290039 3.393750190734863 16.11402130126953 C 4.283430099487305 17.53813171386719 5.54248046875 18.69418144226074 7.034790515899658 19.45718193054199 L 8.413480758666992 20.1620922088623 L 8.076340675354004 21.67338180541992 L 7.673460483551025 23.47934150695801 C 7.673420906066895 23.47951889038086 7.67338228225708 23.47969436645508 7.673344135284424 23.47986602783203 C 7.673437595367432 23.47993469238281 7.673530101776123 23.48000335693359 7.673623561859131 23.48007202148438 M 7.675180435180664 25.48584175109863 C 6.48058032989502 25.48590278625488 5.424320220947266 24.37775230407715 5.72130012512207 23.04450225830078 L 6.124320507049561 21.23792266845703 C 2.487740278244019 19.37858200073242 -0.001799691817723215 15.59520244598389 -0.001799691817723215 11.23020172119141 C -0.001799691817723215 5.027401924133301 5.027400493621826 -0.001797921722754836 11.23020076751709 -0.001797921722754836 L 18.8784008026123 -0.001797921722754836 C 25.08119964599609 -0.001797921722754836 30.11040115356445 5.027401924133301 30.11040115356445 11.23020172119141 C 30.11040115356445 17.43390274047852 25.08119964599609 22.46310234069824 18.8784008026123 22.46310234069824 L 13.27285003662109 22.46310234069824 C 13.18831062316895 22.5341625213623 13.09637069702148 22.59960174560547 12.99690055847168 22.65840148925781 L 8.691300392150879 25.20180130004883 C 8.359789848327637 25.39774131774902 8.011940002441406 25.4858226776123 7.675180435180664 25.48584175109863 Z" stroke="none" fill="#5a514c"/>
      </g>
      <text id="_" data-name="?" transform="translate(1056 576)" fill="#9cc023" stroke="#9cc023" stroke-width="0.5" font-size="13" font-family="SegoeUI, Segoe UI" letter-spacing="-0.05em"><tspan x="-2.914" y="0">?</tspan></text>
    </g>
  </g>
</svg>
