<svg xmlns="http://www.w3.org/2000/svg" width="26.545" height="34.01" viewBox="0 0 26.545 34.01">
  <g id="icon_키즈라이브러리" transform="translate(-1062.08 -399.45)">
    <g id="그룹_66792" data-name="그룹 66792" transform="translate(960.855 -283.114)">
      <g id="그룹_66790" data-name="그룹 66790" transform="translate(102.16 683.315)">
        <path id="패스_66266" data-name="패스 66266" d="M102.16,693.268v25.867h24.86V693.268H106.542" transform="translate(-102.16 -686.625)" fill="none" stroke="#5a514c" stroke-linecap="round" stroke-linejoin="round" stroke-width="1.5"/>
        <path id="패스_66267" data-name="패스 66267" d="M102.16,691.552l23.419-3.442v2.322" transform="translate(-102.16 -684.91)" fill="none" stroke="#5a514c" stroke-linecap="round" stroke-linejoin="round" stroke-width="1.5"/>
        <path id="패스_66268" data-name="패스 66268" d="M102.16,689.957l21.979-6.643v2.08" transform="translate(-102.16 -683.315)" fill="none" stroke="#5a514c" stroke-linecap="round" stroke-linejoin="round" stroke-width="1.5"/>
      </g>
    </g>
    <g id="그룹_66793" data-name="그룹 66793" transform="translate(922.027 72.29)">
      <path id="패스_66269" data-name="패스 66269" d="M164.106,349.54a8.333,8.333,0,1,0,8.334,8.334A8.343,8.343,0,0,0,164.106,349.54Zm0,15.226A6.892,6.892,0,1,1,171,357.874,6.9,6.9,0,0,1,164.106,364.766Z" transform="translate(-10.217 -10.234)" fill="#9cc023" stroke="#9cc023" stroke-width="0.5"/>
      <path id="패스_66270" data-name="패스 66270" d="M174.975,374.078a.72.72,0,0,0-.922.435,3.243,3.243,0,0,1-6.1,0,.721.721,0,0,0-1.356.487,4.684,4.684,0,0,0,8.816,0A.721.721,0,0,0,174.975,374.078Z" transform="translate(-17.112 -25.904)" fill="#9cc023" stroke="#9cc023" stroke-width="0.5"/>
      <path id="패스_66279" data-name="패스 66279" d="M169.718,366.4a1.111,1.111,0,1,0-1.111-1.111A1.111,1.111,0,0,0,169.718,366.4Z" transform="translate(-18.427 -19.595)" fill="#9cc023" stroke="#9cc023" stroke-width="0.5"/>
      <path id="패스_66280" data-name="패스 66280" d="M183.47,366.4a1.111,1.111,0,1,0-1.111-1.111A1.111,1.111,0,0,0,183.47,366.4Z" transform="translate(-27.225 -19.595)" fill="#9cc023" stroke="#9cc023" stroke-width="0.5"/>
    </g>
  </g>
</svg>
