<svg xmlns="http://www.w3.org/2000/svg" width="34.998" height="33.885" viewBox="0 0 34.998 33.885">
  <g id="icon_소식방" transform="translate(-1041.002 -560.002)">
    <g id="합치기_3" data-name="합치기 3" transform="translate(2873 -19820)" fill="none">
      <path d="M-1824.118,20412.176l-.765-5.174H-1828a4,4,0,0,1-4-4v-19a4,4,0,0,1,4-4h27a4,4,0,0,1,4,4v19a4,4,0,0,1-4,4h-14.708l-4.863,6.127a1.95,1.95,0,0,1-1.551.758A2,2,0,0,1-1824.118,20412.176Z" stroke="none"/>
      <path d="M -1822.13818359375 20411.884765625 L -1817.27587890625 20405.7578125 L -1816.67529296875 20405.001953125 L -1815.709350585938 20405.001953125 L -1801.00146484375 20405.001953125 C -1799.89794921875 20405.001953125 -1799.000122070313 20404.103515625 -1799.000122070313 20403 L -1799.000122070313 20384.001953125 C -1799.000122070313 20382.8984375 -1799.89794921875 20382.001953125 -1801.00146484375 20382.001953125 L -1828.001586914063 20382.001953125 C -1829.102294921875 20382.001953125 -1829.997802734375 20382.8984375 -1829.997802734375 20384.001953125 L -1829.997802734375 20403 C -1829.997802734375 20404.103515625 -1829.102294921875 20405.001953125 -1828.001586914063 20405.001953125 L -1824.88330078125 20405.001953125 L -1823.157348632813 20405.001953125 L -1822.90478515625 20406.708984375 L -1822.1396484375 20411.8828125 C -1822.139526367188 20411.8828125 -1822.139526367188 20411.8828125 -1822.139404296875 20411.884765625 C -1822.139038085938 20411.884765625 -1822.138671875 20411.884765625 -1822.13818359375 20411.884765625 M -1822.12353515625 20413.88671875 C -1823.050048828125 20413.88671875 -1823.958984375 20413.25 -1824.118041992188 20412.17578125 L -1824.88330078125 20407.001953125 L -1828.001586914063 20407.001953125 C -1830.209716796875 20407.001953125 -1831.997802734375 20405.208984375 -1831.997802734375 20403 L -1831.997802734375 20384.001953125 C -1831.997802734375 20381.7890625 -1830.209716796875 20380.001953125 -1828.001586914063 20380.001953125 L -1801.00146484375 20380.001953125 C -1798.793212890625 20380.001953125 -1797.000122070313 20381.7890625 -1797.000122070313 20384.001953125 L -1797.000122070313 20403 C -1797.000122070313 20405.208984375 -1798.793212890625 20407.001953125 -1801.00146484375 20407.001953125 L -1815.709350585938 20407.001953125 L -1820.572631835938 20413.12890625 C -1820.984619140625 20413.650390625 -1821.557373046875 20413.88671875 -1822.12353515625 20413.88671875 Z" stroke="none" fill="#5a514c"/>
    </g>
    <path id="패스_66317" data-name="패스 66317" d="M290.385,611.344a3.5,3.5,0,0,0-3.377-3.613c-1.176,0-2.212,1.109-2.817,2.086-.6-.977-1.64-2.086-2.817-2.086A3.5,3.5,0,0,0,278,611.344a3.726,3.726,0,0,0,1.05,2.617h-.011l5.155,5.515.279-.3,4.877-5.217h-.011A3.724,3.724,0,0,0,290.385,611.344Z" transform="translate(774.41 -39.731)" fill="none" stroke="#9cc023" stroke-linecap="round" stroke-linejoin="round" stroke-width="2"/>
  </g>
</svg>
