<svg xmlns="http://www.w3.org/2000/svg" width="33.673" height="33.773" viewBox="0 0 33.673 33.773">
  <g id="icon_실버케어" transform="translate(-268.429 -606.731)">
    <path id="패스_66234" data-name="패스 66234" d="M298.12,613.6a5.687,5.687,0,0,0-5.485-5.869,5.4,5.4,0,0,0-4.575,2.633,5.4,5.4,0,0,0-4.576-2.633A5.687,5.687,0,0,0,278,613.6a6.053,6.053,0,0,0,1.705,4.25h-.017l8.373,8.958.453-.484,7.921-8.474h-.018A6.05,6.05,0,0,0,298.12,613.6Z" transform="translate(-2.811 0)" fill="none" stroke="#9cc023" stroke-linecap="round" stroke-linejoin="round" stroke-width="2"/>
    <path id="패스_66236" data-name="패스 66236" d="M309.407,631.278l.043-7.2a1.83,1.83,0,0,1,1.715-1.924l.341,0a1.828,1.828,0,0,1,1.7,1.936l-.044,8.879c0,.026,0,.051,0,.079a2.064,2.064,0,0,1-.5,1.445l-6.307,7.072-.033,2.63" transform="translate(-12.101 -4.734)" fill="none" stroke="#5a514c" stroke-linecap="round" stroke-linejoin="round" stroke-width="2"/>
    <path id="패스_66237" data-name="패스 66237" d="M302.783,641.666l2.19-2.36a2.114,2.114,0,0,0,.011-2.73l-.24-.274a1.57,1.57,0,0,0-2.413-.011l-6.307,7.072c-.671.752-.485,1.5-.511,2.727l-.079,2.57" transform="translate(-8.532 -9.187)" fill="none" stroke="#5a514c" stroke-linecap="round" stroke-linejoin="round" stroke-width="2"/>
    <path id="패스_66238" data-name="패스 66238" d="M307.7,630.785v-3.648a1.611,1.611,0,0,1,1.612-1.611" transform="translate(-12.557 -5.838)" fill="none" stroke="#5a514c" stroke-linecap="round" stroke-linejoin="round" stroke-width="2"/>
    <path id="패스_66239" data-name="패스 66239" d="M273.225,631.278l-.044-7.2a1.829,1.829,0,0,0-1.714-1.924l-.342,0a1.827,1.827,0,0,0-1.7,1.936l.044,8.879c0,.026,0,.051,0,.079a2.073,2.073,0,0,0,.5,1.445l6.309,7.072.032,2.63" transform="translate(0 -4.734)" fill="none" stroke="#5a514c" stroke-linecap="round" stroke-linejoin="round" stroke-width="2"/>
    <path id="패스_66240" data-name="패스 66240" d="M278.308,641.666l-2.188-2.36a2.115,2.115,0,0,1-.013-2.73l.241-.274a1.57,1.57,0,0,1,2.413-.011l6.308,7.072c.669.752.484,1.5.512,2.727l.077,2.57" transform="translate(-2.029 -9.187)" fill="none" stroke="#5a514c" stroke-linecap="round" stroke-linejoin="round" stroke-width="2"/>
    <path id="패스_66241" data-name="패스 66241" d="M277.509,630.785v-3.648a1.61,1.61,0,0,0-1.611-1.611" transform="translate(-2.122 -5.838)" fill="none" stroke="#5a514c" stroke-linecap="round" stroke-linejoin="round" stroke-width="2"/>
  </g>
</svg>
