<svg xmlns="http://www.w3.org/2000/svg" width="32.82" height="34.598" viewBox="0 0 32.82 34.598">
  <g id="icon_조식예약" transform="translate(-514 -3926.392)">
    <rect id="Op_component_3" data-name="Op component 3" width="26.186" height="2.91" rx="1" transform="translate(514 3958.08)" fill="#a9c246"/>
    <g id="icon_조식예약-2" data-name="icon_조식예약" transform="translate(514 3926.392)">
      <g id="사각형_1480" data-name="사각형 1480" transform="translate(0 0)" fill="none" stroke="#5a514c" stroke-linecap="round" stroke-linejoin="round" stroke-width="2">
        <rect width="25.869" height="27.419" rx="3" stroke="none"/>
        <rect x="1" y="1" width="23.869" height="25.419" rx="2" fill="none"/>
      </g>
      <g id="사각형_17541" data-name="사각형 17541" transform="translate(24.408 5.349)" fill="none" stroke="#5a514c" stroke-width="2">
        <path d="M0,0H5.411a3,3,0,0,1,3,3V8.372a3,3,0,0,1-3,3H0a0,0,0,0,1,0,0V0A0,0,0,0,1,0,0Z" stroke="none"/>
        <path d="M2,1H5.411a2,2,0,0,1,2,2V8.372a2,2,0,0,1-2,2H2a1,1,0,0,1-1-1V2A1,1,0,0,1,2,1Z" fill="none"/>
      </g>
    </g>
  </g>
</svg>
