<svg xmlns="http://www.w3.org/2000/svg" width="109.66" height="12.353" viewBox="0 0 109.66 12.353">
  <g id="빌리브_라이프_서비스" data-name="빌리브 라이프 서비스" transform="translate(-89 -116.381)">
    <path id="패스_65874" data-name="패스 65874" d="M1.481,7.059V8.377H8.357v.71H1.481v3.266h8.884V11.014h-7.2V10.3h6.9V7.059ZM1.562,3.57H4.523V4.848H1.562ZM4.523.446V2.17H1.562V.446H0V6.268H6.085V.446ZM8.54,6.511H10.1V0H8.54Z" transform="translate(89 116.381)" fill="#322822"/>
    <path id="패스_65875" data-name="패스 65875" d="M68.194,8.964l-1,.093-1.132.093-1.113.037H62.2V4.361h4.027v-2H62.2V1.021h5.456V5.679H63.648v2.19H66.32l.984-.074.928-.093.724-.111v1.3L68.194,9m1.559-9h1.429V11.432H69.753Z" transform="translate(38.343 116.381)" fill="#322822"/>
    <path id="패스_65876" data-name="패스 65876" d="M118.8,11.761h10.857v1.318H118.8ZM120.248,10V3.8H121.7V5.544h5.066V3.8h1.447V10Zm6.5-3.118H121.7V8.662h5.066Z" transform="translate(-7.753 113.288)" fill="#322822"/>
    <path id="패스_65877" data-name="패스 65877" d="M212.634,8.964l-1,.093-1.132.093-1.113.037H206.9V4.361h3.786v-2H206.9V1.021h5.215V5.66h-3.786V7.869h2.431l.984-.074.928-.093.724-.111v1.3L212.634,9m2.988-3.1v5.567h-1.429V0h1.429V4.51H217.2V5.864Z" transform="translate(-79.503 116.381)" fill="#322822"/>
    <path id="패스_65878" data-name="패스 65878" d="M272.365,1.113a2.9,2.9,0,0,1,.946.872,4.271,4.271,0,0,1,.612,1.355,6.662,6.662,0,0,1,.223,1.763,6.588,6.588,0,0,1-.223,1.744,4.268,4.268,0,0,1-.612,1.336,2.821,2.821,0,0,1-.946.872,2.542,2.542,0,0,1-1.243.3,2.617,2.617,0,0,1-1.243-.3,2.746,2.746,0,0,1-.965-.854,4.01,4.01,0,0,1-.612-1.336,6.832,6.832,0,0,1-.2-1.763,6.9,6.9,0,0,1,.2-1.763,4.008,4.008,0,0,1,.612-1.355,2.8,2.8,0,0,1,.946-.872,2.579,2.579,0,0,1,1.262-.3,2.505,2.505,0,0,1,1.243.3m.26,2.858a4.225,4.225,0,0,0-.315-.946,2.1,2.1,0,0,0-.5-.65,1.039,1.039,0,0,0-.687-.241,1.058,1.058,0,0,0-.687.241,2,2,0,0,0-.52.668,3.6,3.6,0,0,0-.315.928,5.33,5.33,0,0,0-.111,1.095A5.456,5.456,0,0,0,269.6,6.18a3.6,3.6,0,0,0,.315.928,1.967,1.967,0,0,0,.52.65,1.1,1.1,0,0,0,1.355,0,1.912,1.912,0,0,0,.5-.65,3.967,3.967,0,0,0,.315-.928,5.45,5.45,0,0,0,.111-1.113,5.3,5.3,0,0,0-.111-1.095M276.058,0h1.41V11.432h-1.41Z" transform="translate(-129.342 116.381)" fill="#322822"/>
    <path id="패스_65879" data-name="패스 65879" d="M325.6,13.283h10.856v1.3H325.6Zm2.394-6.013h1.485l.241,3.044h2.617l.241-3.044h1.485l-.26,3.044h1.707v1.3h-8.982V10.3h1.726ZM326.788,5.6h8.462V6.918h-8.462Z" transform="translate(-176.175 111.823)" fill="#322822"/>
    <path id="패스_65880" data-name="패스 65880" d="M416.2,9.242l-.835-.557a5.082,5.082,0,0,1-.909-.872,6.848,6.848,0,0,1-.612-.8,5.571,5.571,0,0,1-.427-.8,5.7,5.7,0,0,1-.5.909,10.761,10.761,0,0,1-.724.928,6.463,6.463,0,0,1-.761.742l-.835.631L409.5,8.463a8.317,8.317,0,0,0,1.318-1.039,5.679,5.679,0,0,0,1-1.3,5.528,5.528,0,0,0,.649-1.726,10.069,10.069,0,0,0,.167-1.893V.631h1.485V2.524q0,.371.037.854a7.176,7.176,0,0,0,.148.984,6.432,6.432,0,0,0,.278,1,3.656,3.656,0,0,0,.464.891A6.309,6.309,0,0,0,416.07,7.4a6.734,6.734,0,0,0,1.039.742Zm2.041,2.19V5.048h-2.19V3.619h2.19V0h1.429V11.432Z" transform="translate(-244.504 116.381)" fill="#322822"/>
    <path id="패스_65881" data-name="패스 65881" d="M475.5,9.2V.965h1.429v2.6h2.784V.965h1.429V9.2ZM479.713,4.9h-2.784V7.869h2.784ZM483.09,0h1.429V11.432H483.09Z" transform="translate(-298.256 116.381)" fill="#322822"/>
    <path id="패스_65882" data-name="패스 65882" d="M532.4,11.436h10.856v1.318H532.4Zm4.825-3.786a10.748,10.748,0,0,1-.984.909,6.161,6.161,0,0,1-1.262.8l-1.058.464-.928-1.058a9.093,9.093,0,0,0,1.3-.612A7.983,7.983,0,0,0,535.7,7.13a3.712,3.712,0,0,0,.965-1.318,3.914,3.914,0,0,0,.353-1.559V3.4h1.614v.854a3.974,3.974,0,0,0,.316,1.577,3.581,3.581,0,0,0,.965,1.318,7.628,7.628,0,0,0,1.41,1.021,8.8,8.8,0,0,0,1.318.612l-.928,1.058q-.408-.148-1.076-.464a5.866,5.866,0,0,1-1.243-.8,8.885,8.885,0,0,1-.984-.909,3.361,3.361,0,0,1-.594-.854,2.99,2.99,0,0,1-.594.854" transform="translate(-344.597 113.613)" fill="#322822"/>
    <rect id="사각형_17686" data-name="사각형 17686" width="109.66" height="11.432" transform="translate(89 116.381)" fill="none"/>
  </g>
</svg>
