<svg xmlns="http://www.w3.org/2000/svg" width="142.63" height="14.917" viewBox="0 0 142.63 14.917">
  <g id="빌리브_라이프_서비스_W_16" data-name="빌리브 라이프 서비스_W_16" transform="translate(-89 -116.381)">
    <path id="패스_65874" data-name="패스 65874" d="M1.722,8.208V9.742h8v.826h-8v3.8H12.053V12.808H3.68v-.826H11.7V8.208Zm.094-4.057H5.26V5.637H1.816ZM5.26.519v2H1.816v-2H0v6.77H7.076V.519ZM9.93,7.571h1.816V0H9.93Z" transform="translate(89 116.381)" fill="#322822"/>
    <path id="패스_65875" data-name="패스 65875" d="M70,11.659l-1.3.121-1.472.121-1.448.048H62.2V5.672h5.238V3.065H62.2V1.328h7.1V7.386H64.083v2.848h3.476l1.279-.1,1.207-.121.941-.145v1.69l-.99.145M72.024,0h1.859V14.869H72.024Z" transform="translate(41.814 116.381)" fill="#322822"/>
    <path id="패스_65876" data-name="패스 65876" d="M118.8,14.155h14.121v1.714H118.8Zm1.883-2.293V3.8h1.883V6.069h6.59V3.8h1.883v8.062Zm8.448-4.055h-6.565v2.317h6.59Z" transform="translate(-1.124 113.5)" fill="#322822"/>
    <path id="패스_65877" data-name="패스 65877" d="M214.359,11.658l-1.3.121-1.472.121-1.448.048H206.9V5.672h4.924V3.065H206.9V1.328h6.783V7.362h-4.924v2.872h3.162l1.279-.1,1.207-.121.941-.145v1.69l-.99.145m3.886-4.031v7.241h-1.859V0h1.859V5.865H220.3V7.628Z" transform="translate(-67.959 116.381)" fill="#322822"/>
    <path id="패스_65878" data-name="패스 65878" d="M273.648,1.448a3.766,3.766,0,0,1,1.231,1.134,5.555,5.555,0,0,1,.8,1.762,8.662,8.662,0,0,1,.289,2.293,8.564,8.564,0,0,1-.289,2.269,5.551,5.551,0,0,1-.8,1.738,3.669,3.669,0,0,1-1.231,1.134,3.307,3.307,0,0,1-1.617.386,3.4,3.4,0,0,1-1.617-.386,3.572,3.572,0,0,1-1.255-1.11,5.215,5.215,0,0,1-.8-1.738,8.884,8.884,0,0,1-.266-2.293,8.976,8.976,0,0,1,.266-2.293,5.214,5.214,0,0,1,.8-1.762,3.645,3.645,0,0,1,1.231-1.134,3.355,3.355,0,0,1,1.641-.386,3.259,3.259,0,0,1,1.617.386m.338,3.717a5.5,5.5,0,0,0-.41-1.231,2.727,2.727,0,0,0-.652-.845,1.352,1.352,0,0,0-.893-.314,1.376,1.376,0,0,0-.893.314,2.608,2.608,0,0,0-.676.869,4.682,4.682,0,0,0-.41,1.207,6.936,6.936,0,0,0-.145,1.424,7.1,7.1,0,0,0,.145,1.448,4.682,4.682,0,0,0,.41,1.207,2.558,2.558,0,0,0,.676.845,1.424,1.424,0,0,0,1.762,0,2.487,2.487,0,0,0,.652-.845,5.164,5.164,0,0,0,.41-1.207,7.1,7.1,0,0,0,.145-1.448,6.9,6.9,0,0,0-.145-1.424M278.452,0h1.835V14.869h-1.835Z" transform="translate(-114.384 116.381)" fill="#322822"/>
    <path id="패스_65879" data-name="패스 65879" d="M325.6,15.593h14.121v1.69H325.6Zm3.114-7.821h1.931l.314,3.959h3.4l.314-3.959h1.931l-.338,3.959h2.221v1.69H326.807V11.707h2.245ZM327.145,5.6h11.007V7.314H327.145Z" transform="translate(-158.008 112.136)" fill="#322822"/>
    <path id="패스_65880" data-name="패스 65880" d="M418.214,12.021l-1.086-.724a6.612,6.612,0,0,1-1.183-1.134,8.9,8.9,0,0,1-.8-1.038,7.244,7.244,0,0,1-.555-1.038,7.411,7.411,0,0,1-.652,1.183A13.975,13.975,0,0,1,413,10.476a8.391,8.391,0,0,1-.99.966l-1.086.821L409.5,11.007a10.816,10.816,0,0,0,1.714-1.352,7.385,7.385,0,0,0,1.3-1.69,7.19,7.19,0,0,0,.845-2.245,13.1,13.1,0,0,0,.217-2.462V.821h1.931V3.283q0,.483.048,1.11a9.335,9.335,0,0,0,.193,1.279,8.366,8.366,0,0,0,.362,1.3,4.753,4.753,0,0,0,.6,1.159,8.211,8.211,0,0,0,1.328,1.5,8.761,8.761,0,0,0,1.352.966Zm2.655,2.848v-8.3h-2.848V4.707h2.848V0h1.859V14.869Z" transform="translate(-221.656 116.381)" fill="#322822"/>
    <path id="패스_65881" data-name="패스 65881" d="M475.5,11.972V1.255h1.859V4.634h3.621V1.255h1.859V11.972Zm5.479-5.6h-3.621v3.862h3.621ZM485.372,0h1.859V14.869h-1.859Z" transform="translate(-271.725 116.381)" fill="#322822"/>
    <path id="패스_65882" data-name="패스 65882" d="M532.4,13.852h14.12v1.714H532.4Zm6.276-4.924A13.926,13.926,0,0,1,537.4,10.11a8.017,8.017,0,0,1-1.641,1.038l-1.376.6-1.207-1.376a11.826,11.826,0,0,0,1.69-.8A10.39,10.39,0,0,0,536.7,8.252a4.828,4.828,0,0,0,1.255-1.714,5.1,5.1,0,0,0,.459-2.028V3.4h2.1V4.51a5.16,5.16,0,0,0,.41,2.052,4.657,4.657,0,0,0,1.255,1.714A9.924,9.924,0,0,0,544.01,9.6a11.445,11.445,0,0,0,1.714.8l-1.207,1.376q-.531-.193-1.4-.6a7.63,7.63,0,0,1-1.617-1.038,11.574,11.574,0,0,1-1.279-1.183,4.362,4.362,0,0,1-.772-1.11,3.891,3.891,0,0,1-.772,1.11" transform="translate(-314.891 113.804)" fill="#322822"/>
    <rect id="사각형_17686" data-name="사각형 17686" width="142.63" height="14.869" transform="translate(89 116.381)" fill="none"/>
  </g>
</svg>
