<svg xmlns="http://www.w3.org/2000/svg" width="124.288" height="12.999" viewBox="0 0 124.288 12.999">
  <g id="빌리브_라이프_서비스" data-name="빌리브 라이프 서비스" transform="translate(-89 -116.381)">
    <path id="패스_65874" data-name="패스 65874" d="M1.5,7.153V8.489H8.468v.719H1.5v3.309h9V11.161h-7.3v-.719h6.988V7.153Zm.082-3.535h3V4.912h-3Zm3-3.165V2.2h-3V.452H0v5.9H6.166V.452ZM8.653,6.6h1.583V0H8.653Z" transform="translate(89 116.381)" fill="#322822"/>
    <path id="패스_65875" data-name="패스 65875" d="M68.994,10.159l-1.136.105-1.283.105-1.262.042H62.2V4.943h4.564V2.671H62.2V1.157h6.184V6.436H63.841V8.918h3.029l1.115-.084,1.052-.105.82-.126v1.472l-.862.126M70.761,0h1.62V12.957h-1.62Z" transform="translate(39.883 116.381)" fill="#322822"/>
    <path id="패스_65876" data-name="패스 65876" d="M118.8,12.823h12.3v1.493H118.8Zm1.641-2V3.8h1.641V5.777h5.742V3.8h1.641v7.025ZM127.8,7.292h-5.721V9.311h5.742Z" transform="translate(-4.812 113.382)" fill="#322822"/>
    <path id="패스_65877" data-name="패스 65877" d="M213.4,10.159l-1.136.105-1.283.105-1.262.042H206.9V4.943h4.291V2.671H206.9V1.157h5.91V6.415H208.52v2.5h2.755l1.115-.084,1.052-.105.82-.126v1.472l-.862.126m3.386-3.513V13h-1.62V0h1.62V5.111h1.788V6.647Z" transform="translate(-74.381 116.381)" fill="#322822"/>
    <path id="패스_65878" data-name="패스 65878" d="M272.934,1.262a3.281,3.281,0,0,1,1.073.989,4.84,4.84,0,0,1,.694,1.535,7.551,7.551,0,0,1,.252,2,7.464,7.464,0,0,1-.252,1.977,4.837,4.837,0,0,1-.694,1.514,3.2,3.2,0,0,1-1.073.989,2.881,2.881,0,0,1-1.409.337,2.966,2.966,0,0,1-1.409-.337,3.113,3.113,0,0,1-1.094-.968,4.545,4.545,0,0,1-.694-1.514,7.742,7.742,0,0,1-.231-2,7.825,7.825,0,0,1,.231-2,4.544,4.544,0,0,1,.694-1.535,3.177,3.177,0,0,1,1.073-.989,2.924,2.924,0,0,1,1.43-.337,2.839,2.839,0,0,1,1.409.337m.294,3.239a4.792,4.792,0,0,0-.358-1.073,2.376,2.376,0,0,0-.568-.736,1.178,1.178,0,0,0-.778-.273,1.2,1.2,0,0,0-.778.273,2.273,2.273,0,0,0-.589.757A4.079,4.079,0,0,0,269.8,4.5a6.042,6.042,0,0,0-.126,1.241A6.188,6.188,0,0,0,269.8,7a4.079,4.079,0,0,0,.358,1.052,2.23,2.23,0,0,0,.589.736,1.241,1.241,0,0,0,1.536,0,2.167,2.167,0,0,0,.568-.736A4.5,4.5,0,0,0,273.208,7a6.181,6.181,0,0,0,.126-1.262,6.012,6.012,0,0,0-.126-1.241M277.12,0h1.6V12.957h-1.6Z" transform="translate(-122.705 116.381)" fill="#322822"/>
    <path id="패스_65879" data-name="패스 65879" d="M325.6,14.308h12.3V15.78H325.6Zm2.713-6.815H330l.273,3.45h2.966l.273-3.45h1.683l-.294,3.45h1.935v1.472h-10.18V10.922h1.956ZM326.946,5.6h9.591V7.093h-9.591Z" transform="translate(-168.114 111.961)" fill="#322822"/>
    <path id="패스_65880" data-name="패스 65880" d="M417.093,10.475l-.946-.631a5.761,5.761,0,0,1-1.031-.989,7.755,7.755,0,0,1-.694-.9,6.311,6.311,0,0,1-.484-.9,6.457,6.457,0,0,1-.568,1.031,12.2,12.2,0,0,1-.82,1.052,7.316,7.316,0,0,1-.862.841l-.946.715L409.5,9.591a9.424,9.424,0,0,0,1.493-1.178,6.434,6.434,0,0,0,1.136-1.472,6.266,6.266,0,0,0,.736-1.956,11.411,11.411,0,0,0,.189-2.145V.715h1.683V2.861q0,.421.042.968a8.142,8.142,0,0,0,.168,1.115,7.292,7.292,0,0,0,.315,1.136,4.142,4.142,0,0,0,.526,1.01,7.153,7.153,0,0,0,1.157,1.3,7.636,7.636,0,0,0,1.178.841Zm2.314,2.482V5.721h-2.482V4.1h2.482V0h1.62V12.957Z" transform="translate(-234.367 116.381)" fill="#322822"/>
    <path id="패스_65881" data-name="패스 65881" d="M475.5,10.433V1.094h1.62V4.038h3.155V1.094h1.62v9.339Zm4.775-4.88H477.12V8.918h3.155ZM484.1,0h1.62V12.957H484.1Z" transform="translate(-286.485 116.381)" fill="#322822"/>
    <path id="패스_65882" data-name="패스 65882" d="M532.4,12.508h12.3V14H532.4Zm5.469-4.291a12.143,12.143,0,0,1-1.115,1.031,6.986,6.986,0,0,1-1.43.9l-1.2.526-1.052-1.2a10.3,10.3,0,0,0,1.472-.694,9.053,9.053,0,0,0,1.6-1.157,4.207,4.207,0,0,0,1.094-1.493,4.439,4.439,0,0,0,.4-1.767V3.4h1.83v.968a4.5,4.5,0,0,0,.358,1.788,4.059,4.059,0,0,0,1.094,1.493,8.645,8.645,0,0,0,1.6,1.157,9.973,9.973,0,0,0,1.493.694l-1.052,1.2q-.463-.168-1.22-.526a6.65,6.65,0,0,1-1.409-.9,10.083,10.083,0,0,1-1.115-1.031,3.8,3.8,0,0,1-.673-.968,3.389,3.389,0,0,1-.673.968" transform="translate(-331.417 113.698)" fill="#322822"/>
    <rect id="사각형_17686" data-name="사각형 17686" width="124.288" height="12.957" transform="translate(89 116.381)" fill="none"/>
  </g>
</svg>
