<svg xmlns="http://www.w3.org/2000/svg" width="20" height="17.202" viewBox="0 0 20 17.202">
  <g id="icon_text_fields" transform="translate(-272.257 -2071.257)">
    <path id="Icon" d="M1.513,0H11.821a1.522,1.522,0,0,1,1.513,1.535,1.521,1.521,0,0,1-1.513,1.534H8.18V14.216a1.513,1.513,0,1,1-3.026,0V3.068H1.513A1.521,1.521,0,0,1,0,1.535,1.522,1.522,0,0,1,1.513,0Z" transform="translate(272.257 2071.257)" fill="#fff"/>
    <path id="Op_component_2" data-name="Op component 2" d="M292.106,2069.171a1.193,1.193,0,0,1-1.216,1.173h-2.371v6.524a1.217,1.217,0,0,1-2.432,0v-6.524h-2.371a1.173,1.173,0,1,1,0-2.344h7.174A1.193,1.193,0,0,1,292.106,2069.171Z" transform="translate(0.151 10.419)" fill="#fff"/>
  </g>
</svg>
