<svg xmlns="http://www.w3.org/2000/svg" width="35.582" height="34.682" viewBox="0 0 35.582 34.682">
  <g id="icon_관리비" transform="translate(1.372 1)">
    <g id="mail" transform="translate(0 0)">
      <path id="패스_437" data-name="패스 437" d="M6.247,4V-5.247h24.54V4c2.96,0,4.051,1.317,4.051,2.927V24.492a3.13,3.13,0,0,1-3.284,2.927H5.284A3.13,3.13,0,0,1,2,24.492V6.927C2,5.317,2.52,4,6.247,4Z" transform="translate(-2 5.263)" fill="none" stroke="#5a514c" stroke-linecap="round" stroke-linejoin="round" stroke-width="2"/>
      <path id="패스_438" data-name="패스 438" d="M34.839,6,18.419,15.824,2,6" transform="translate(-2 6.069)" fill="none" stroke="#5a514c" stroke-linecap="round" stroke-linejoin="round" stroke-width="2"/>
      <path id="패스_552" data-name="패스 552" d="M2,14.837V.75H26.582V14.518" transform="translate(2.21 -0.75)" fill="none" stroke="#5a514c" stroke-linecap="round" stroke-width="2"/>
    </g>
    <path id="패스_65847" data-name="패스 65847" d="M7.37-7.21a1.131,1.131,0,0,1,.64.189,1.076,1.076,0,0,1,.409.653l.864,3.34H10.9l.879-3.579a.7.7,0,0,1,.409-.512,1.084,1.084,0,0,1,.655-.063.883.883,0,0,1,.563.323.706.706,0,0,1,.085.646l-.879,3.186h1.234a.392.392,0,0,1,.339.147.589.589,0,0,1,.108.358.566.566,0,0,1-.108.344.392.392,0,0,1-.339.147h-1.5L11.225,2.095a1.047,1.047,0,0,1-.424.653,1.124,1.124,0,0,1-1.249,0,1.066,1.066,0,0,1-.424-.681l-1.049-4.1H6.6L5.457,2.095a1.035,1.035,0,0,1-.432.653,1.194,1.194,0,0,1-.632.189,1.156,1.156,0,0,1-.625-.189,1.056,1.056,0,0,1-.424-.667L2.219-2.031H.707a.392.392,0,0,1-.339-.147A.566.566,0,0,1,.26-2.523.589.589,0,0,1,.368-2.88a.392.392,0,0,1,.339-.147H1.956L1.093-6.214a.706.706,0,0,1,.085-.646.9.9,0,0,1,.578-.323,1.173,1.173,0,0,1,.663.049.709.709,0,0,1,.416.526l.879,3.579H5.4l.925-3.34a1.11,1.11,0,0,1,.393-.653A1.112,1.112,0,0,1,7.37-7.21ZM4.5.186l.617-2.217H3.961ZM10.115.172l.54-2.2H9.544Zm-3.239-3.2h.941L7.37-4.8Z" transform="translate(9.1 12.394)" fill="#9cc023"/>
  </g>
</svg>
