<svg xmlns="http://www.w3.org/2000/svg" width="34.485" height="32.296" viewBox="0 0 34.485 32.296">
  <g id="icon_카쉐어링" transform="translate(-179.608 -759.984)">
    <g id="그룹_66782" data-name="그룹 66782" transform="translate(180.608 771.905)">
      <path id="패스_66223" data-name="패스 66223" d="M183.274,790.589h-.891a1.774,1.774,0,0,1-1.775-1.775v-4.488a1.774,1.774,0,0,1,1.775-1.775h28.936a1.775,1.775,0,0,1,1.775,1.775v4.488a1.775,1.775,0,0,1-1.775,1.775h-.169" transform="translate(-180.608 -775.349)" fill="#eff1f5" stroke="#5a514c" stroke-linecap="round" stroke-linejoin="round" stroke-width="2"/>
      <line id="선_335" data-name="선 335" x1="15.338" transform="translate(8.935 15.24)" fill="none" stroke="#5a514c" stroke-linecap="round" stroke-linejoin="round" stroke-width="2"/>
      <path id="패스_66224" data-name="패스 66224" d="M186.093,781.829H210.2l-5.763-9.924H190.795Z" transform="translate(-182.382 -774.626)" fill="#eff1f5" stroke="#5a514c" stroke-linecap="round" stroke-linejoin="round" stroke-width="2"/>
      <g id="그룹_66781" data-name="그룹 66781" transform="translate(8.552 0.806)">
        <path id="패스_66225" data-name="패스 66225" d="M197.2,774.575v3.59H191.77l1.558-3.59Z" transform="translate(-191.77 -774.575)" fill="#eff1f5" stroke="#5a514c" stroke-linecap="round" stroke-linejoin="round" stroke-width="2"/>
        <path id="패스_66226" data-name="패스 66226" d="M205.615,774.575v3.59h4.96l-1.755-3.59Z" transform="translate(-196.581 -774.575)" fill="#eff1f5" stroke="#5a514c" stroke-linecap="round" stroke-linejoin="round" stroke-width="2"/>
      </g>
    </g>
    <g id="그룹_66780" data-name="그룹 66780" transform="translate(182.274 784.011)">
      <path id="패스_66221" data-name="패스 66221" d="M184.548,792.932a3.135,3.135,0,1,1,3.135,3.135A3.134,3.134,0,0,1,184.548,792.932Z" transform="translate(-183.548 -788.798)" fill="#eff1f5" stroke="#5a514c" stroke-linecap="round" stroke-linejoin="round" stroke-width="2"/>
      <path id="패스_66222" data-name="패스 66222" d="M216.484,792.932a3.135,3.135,0,1,1,3.135,3.135A3.135,3.135,0,0,1,216.484,792.932Z" transform="translate(-194.877 -788.798)" fill="#eff1f5" stroke="#5a514c" stroke-linecap="round" stroke-linejoin="round" stroke-width="2"/>
    </g>
    <line id="선_336" data-name="선 336" x2="20" transform="translate(188.093 763.484)" fill="none" stroke="#9cc023" stroke-width="2"/>
    <g id="타원_596" data-name="타원 596" transform="translate(193.593 759.984)" fill="#f5f5f5" stroke="#9cc023" stroke-width="2">
      <circle cx="3.5" cy="3.5" r="3.5" stroke="none"/>
      <circle cx="3.5" cy="3.5" r="2.5" fill="none"/>
    </g>
    <g id="타원_597" data-name="타원 597" transform="translate(184.593 759.984)" fill="#f5f5f5" stroke="#9cc023" stroke-width="2">
      <circle cx="3.5" cy="3.5" r="3.5" stroke="none"/>
      <circle cx="3.5" cy="3.5" r="2.5" fill="none"/>
    </g>
    <g id="타원_598" data-name="타원 598" transform="translate(202.593 759.984)" fill="#f5f5f5" stroke="#9cc023" stroke-width="2">
      <circle cx="3.5" cy="3.5" r="3.5" stroke="none"/>
      <circle cx="3.5" cy="3.5" r="2.5" fill="none"/>
    </g>
  </g>
</svg>
