<svg xmlns="http://www.w3.org/2000/svg" width="33.836" height="33.709" viewBox="0 0 33.836 33.709">
  <g id="icon_게임룸" transform="translate(-443.095 -44.799)">
    <path id="패스_66242" data-name="패스 66242" d="M453.314,60.582a6.589,6.589,0,0,0-2.452-.47,6.664,6.664,0,0,0-6.637,6.41" transform="translate(-0.036 -4.417)" fill="none" stroke="#5a514c" stroke-linecap="round" stroke-linejoin="round" stroke-width="2"/>
    <path id="패스_66243" data-name="패스 66243" d="M454.985,66.625h-1.7V64.909a.648.648,0,0,0-.645-.649h-1.368a.647.647,0,0,0-.644.649v1.716h-1.7a.648.648,0,0,0-.645.65v1.377a.648.648,0,0,0,.645.649h1.7v1.716a.647.647,0,0,0,.644.649h1.368a.648.648,0,0,0,.645-.649V69.3h1.7a.647.647,0,0,0,.644-.649V67.275A.647.647,0,0,0,454.985,66.625Z" transform="translate(-1.286 -4.697)" fill="none" stroke="#9cc023" stroke-linecap="round" stroke-linejoin="round" stroke-width="2"/>
    <path id="패스_66246" data-name="패스 66246" d="M481.454,69.043a3.054,3.054,0,1,1,3.033-3.055A3.043,3.043,0,0,1,481.454,69.043Z" transform="translate(-11.558 -3.035)" fill="none" stroke="#9cc023" stroke-linecap="round" stroke-linejoin="round" stroke-width="2"/>
    <path id="패스_66248" data-name="패스 66248" d="M467.216,60.416a6.641,6.641,0,0,1,8.621,6.106c.37,5.909-.5,14.754-3.2,15.377-2.278.525-4.857-3.884-7.312-8.4h0a7.65,7.65,0,0,0-10.689.117c-2.436,4.471-4.991,8.8-7.249,8.278-2.7-.622-3.569-9.468-3.2-15.377" transform="translate(0 -4.417)" fill="none" stroke="#5a514c" stroke-linecap="round" stroke-linejoin="round" stroke-width="2"/>
    <path id="패스_66249" data-name="패스 66249" d="M457.372,60.717a27.732,27.732,0,0,0,13.948-.171" transform="translate(-4.093 -4.55)" fill="none" stroke="#5a514c" stroke-linecap="round" stroke-linejoin="round" stroke-width="2"/>
    <line id="선_340" data-name="선 340" y1="6.814" transform="translate(460.004 49.657)" fill="none" stroke="#5a514c" stroke-linecap="round" stroke-linejoin="round" stroke-width="2"/>
    <line id="선_341" data-name="선 341" y1="3.982" transform="translate(466.769 45.799)" fill="none" stroke="#5a514c" stroke-linecap="round" stroke-linejoin="round" stroke-width="2"/>
    <path id="패스_66252" data-name="패스 66252" d="M473.862,50.623a1.692,1.692,0,1,1-3.385,0,1.692,1.692,0,0,0-3.385,0" transform="translate(-7.093 -0.966)" fill="none" stroke="#5a514c" stroke-linecap="round" stroke-linejoin="round" stroke-width="2"/>
  </g>
</svg>
