<svg xmlns="http://www.w3.org/2000/svg" width="37.477" height="37.477" viewBox="0 0 37.477 37.477">
  <g id="icon_휘트니스센터" transform="translate(-247.195 -916.41) rotate(45)">
    <g id="합치기_2" data-name="합치기 2" transform="translate(2678.293 -19927.293)" fill="#eff1f5">
      <path d="M -1828.99853515625 20420 C -1829.552001953125 20420 -1830.002319335938 20419.55078125 -1830.002319335938 20419 L -1830.002319335938 20417.001953125 C -1830.002319335938 20416.44921875 -1829.552001953125 20415.998046875 -1828.99853515625 20415.998046875 C -1828.44775390625 20415.998046875 -1827.999755859375 20416.44921875 -1827.999755859375 20417.001953125 L -1827.999755859375 20419 C -1827.999755859375 20419.55078125 -1828.44775390625 20420 -1828.99853515625 20420 Z M -1827.000366210938 20411 L -1831.001708984375 20411 L -1831.001708984375 20385.001953125 L -1830.002319335938 20385.001953125 L -1830.002319335938 20384.001953125 L -1830.002319335938 20381.998046875 C -1830.002319335938 20381.447265625 -1829.552001953125 20381 -1828.99853515625 20381 C -1828.44775390625 20381 -1827.999755859375 20381.447265625 -1827.999755859375 20381.998046875 L -1827.999755859375 20384.001953125 L -1827.999755859375 20385.001953125 L -1827.000366210938 20385.001953125 L -1827.000366210938 20411 Z" stroke="none"/>
      <path d="M -1828.999755859375 20419 L -1828.999755859375 20419 L -1828.999267578125 20417 C -1828.999633789063 20417 -1829.000122070313 20417 -1829.000732421875 20416.998046875 C -1829.001586914063 20417 -1829.002319335938 20417 -1829.002319335938 20417.001953125 L -1829.002197265625 20419 C -1829.001586914063 20419 -1829.000854492188 20419 -1828.999755859375 20419 M -1828.000366210938 20410 L -1828.000366210938 20386.001953125 L -1828.999755859375 20386.001953125 L -1828.999755859375 20384.001953125 L -1828.999755859375 20382 C -1829 20382 -1829.000244140625 20382 -1829.00048828125 20382 C -1829.001098632813 20382 -1829.001708984375 20382 -1829.002319335938 20382.001953125 L -1829.002319335938 20384.001953125 L -1829.002319335938 20386.001953125 L -1830.001708984375 20386.001953125 L -1830.001708984375 20410 L -1828.000366210938 20410 M -1828.99853515625 20421 C -1830.10546875 20421 -1831.002319335938 20420.107421875 -1831.002319335938 20419 L -1831.002319335938 20417.001953125 C -1831.002319335938 20415.89453125 -1830.10546875 20414.998046875 -1828.99853515625 20414.998046875 C -1827.896606445313 20414.998046875 -1826.999755859375 20415.89453125 -1826.999755859375 20417.001953125 L -1826.999755859375 20419 C -1826.999755859375 20420.107421875 -1827.896606445313 20421 -1828.99853515625 20421 Z M -1826.000366210938 20412 L -1832.001708984375 20412 L -1832.001708984375 20384.001953125 L -1831.002319335938 20384.001953125 L -1831.002319335938 20381.998046875 C -1831.002319335938 20380.896484375 -1830.10546875 20380 -1828.99853515625 20380 C -1827.896606445313 20380 -1826.999755859375 20380.896484375 -1826.999755859375 20381.998046875 L -1826.999755859375 20384.001953125 L -1826.000366210938 20384.001953125 L -1826.000366210938 20412 Z" stroke="none" fill="#5a514c"/>
    </g>
    <g id="사각형_18237" data-name="사각형 18237" transform="translate(838.586 461.414)" fill="#eff1f5" stroke="#9cc023" stroke-width="2">
      <rect width="22" height="7" rx="3.5" stroke="none"/>
      <rect x="1" y="1" width="20" height="5" rx="2.5" fill="none"/>
    </g>
    <g id="사각형_18239" data-name="사각형 18239" transform="translate(838 478)" fill="#eff1f5" stroke="#9cc023" stroke-width="2">
      <rect width="22" height="7" rx="3.5" stroke="none"/>
      <rect x="1" y="1" width="20" height="5" rx="2.5" fill="none"/>
    </g>
    <g id="사각형_18238" data-name="사각형 18238" transform="translate(841.293 454.707)" fill="#eff1f5" stroke="#5a514c" stroke-width="2">
      <rect width="16" height="7" rx="3.5" stroke="none"/>
      <rect x="1" y="1" width="14" height="5" rx="2.5" fill="none"/>
    </g>
    <g id="사각형_18240" data-name="사각형 18240" transform="translate(841.293 484.707)" fill="#eff1f5" stroke="#5a514c" stroke-width="2">
      <rect width="16" height="7" rx="3.5" stroke="none"/>
      <rect x="1" y="1" width="14" height="5" rx="2.5" fill="none"/>
    </g>
  </g>
</svg>
