<svg xmlns="http://www.w3.org/2000/svg" width="34.688" height="34.11" viewBox="0 0 34.688 34.11">
  <g id="icon_공지사항" transform="translate(-716.812 -1404.163)">
    <path id="합치기_7" data-name="합치기 7" d="M18.683,29.493c-.567-.465-5.849-4.032-9.573-6.537H3a3,3,0,0,1-3-3V8.819a3,3,0,0,1,3-3H8.567L18.683-2.265s2.21-.724,2.21,1.208V28.888a2.85,2.85,0,0,1-1.6.821A.938.938,0,0,1,18.683,29.493Z" transform="translate(717.812 1407.564)" fill="none" stroke="#5a514c" stroke-width="2"/>
    <line id="선_361" data-name="선 361" y1="3" x2="5" transform="translate(744.5 1410.5)" fill="none" stroke="#9cc023" stroke-linecap="round" stroke-width="2"/>
    <line id="선_363" data-name="선 363" x2="5" transform="translate(745.5 1421.5)" fill="none" stroke="#9cc023" stroke-linecap="round" stroke-width="2"/>
    <line id="선_362" data-name="선 362" x1="5" y1="3" transform="translate(744.5 1429.5)" fill="none" stroke="#9cc023" stroke-linecap="round" stroke-width="2"/>
    <g id="빼기_2" data-name="빼기 2" transform="translate(743.532 1415.385) rotate(90)" fill="none">
      <path d="M11.567,5.484H0a5.791,5.791,0,0,1,11.566,0Z" stroke="none"/>
      <path d="M 8.79316234588623 3.483503580093384 C 8.098553657531738 2.579236745834351 7.00570821762085 2.000003576278687 5.782830715179443 2.000003576278687 C 4.560001850128174 2.000003576278687 3.467495441436768 2.579087972640991 2.773083209991455 3.483503580093384 L 8.79316234588623 3.483503580093384 M 11.56650066375732 5.483503341674805 L 11.56552124023438 5.483503341674805 L 8.087158107628056e-07 5.483503341674805 C 0.1613308042287827 2.40821361541748 2.701870918273926 3.578186124286731e-06 5.782830715179443 3.578186124286731e-06 C 8.864110946655273 3.578186124286731e-06 11.40458106994629 2.40821361541748 11.56646060943604 5.482523441314697 L 11.56650066375732 5.483503341674805 Z" stroke="none" fill="#5a514c"/>
    </g>
    <line id="선_364" data-name="선 364" y2="10" transform="translate(726.5 1413.5)" fill="none" stroke="#5a514c" stroke-linecap="round" stroke-width="2"/>
  </g>
</svg>
