<svg xmlns="http://www.w3.org/2000/svg" width="35" height="35" viewBox="0 0 35 35">
  <g id="icon_미팅룸" transform="translate(7 6)">
    <g id="사각형_18327" data-name="사각형 18327" transform="translate(-7 -6)" fill="none" stroke="#5a514c" stroke-width="2">
      <rect width="35" height="35" rx="4" stroke="none"/>
      <rect x="1" y="1" width="33" height="33" rx="3" fill="none"/>
    </g>
    <path id="패스_475" data-name="패스 475" d="M17,23.833V19a4,4,0,0,0-4-4H5a4,4,0,0,0-4,4v4.833" transform="translate(-1 -3)" fill="none" stroke="#5a514c" stroke-linecap="round" stroke-linejoin="round" stroke-width="2"/>
    <circle id="타원_354" data-name="타원 354" cx="4" cy="4" r="4" transform="translate(4)" fill="none" stroke="#5a514c" stroke-linecap="round" stroke-linejoin="round" stroke-width="2"/>
    <path id="패스_476" data-name="패스 476" d="M23,23.5V19a4,4,0,0,0-3-3.87" transform="translate(-1 -3)" fill="none" stroke="#9ebb3d" stroke-linecap="round" stroke-linejoin="round" stroke-width="2"/>
    <path id="패스_477" data-name="패스 477" d="M16,3.13a4,4,0,0,1,0,7.75" transform="translate(-1 -3)" fill="none" stroke="#9ebb3d" stroke-linecap="round" stroke-linejoin="round" stroke-width="2"/>
  </g>
</svg>
