<svg xmlns="http://www.w3.org/2000/svg" width="34.551" height="29.369" viewBox="0 0 34.551 29.369">
  <g id="icon_몰리스펫샵" transform="translate(-1498.49 -579.677)">
    <path id="패스_66207" data-name="패스 66207" d="M291.59,538.176a4.085,4.085,0,0,1,6.334.483,1.442,1.442,0,0,0,1.152.589c1.03.007,2.572.178,2.026,2.376a1.39,1.39,0,0,1-.15.368,2.318,2.318,0,0,1-2.314,1.2,1.429,1.429,0,0,0-1.3.754,18.715,18.715,0,0,0-1.842,4.218c0,.785-.49,4.639-1.421,5.9a1.4,1.4,0,0,0-.271.808,30.043,30.043,0,0,0,.711,6.354c.275.213,1.853,2,1.763,2.341s-3.65.775-5.065,0a5.086,5.086,0,0,1-.339-1.074c-.37-1.145-.979-4.166-2.387-6.3a1.423,1.423,0,0,0-1.09-.628c-1.607-.108-3.558-.36-4.548-.32h-.12c-.651-.03-2.448-.174-3.484-.2a1.426,1.426,0,0,0-1.168.547c-.761.969-.34,2.949-1.456,3.347a1.476,1.476,0,0,0-.556.37c-.7.719-2.306,2.425-1.324,3.717a1.421,1.421,0,0,0,.2.2c.392.337-1.14.995-2.507.995-1.473,0-1.809.458-1.809-2.41,0-2.526.851-3.49,1.554-4.038a1.428,1.428,0,0,0,.516-.787c.218-.913.146-2.309-1.431-.308,0,0-1.384,1.86-2.33,1.615s1.026-.857,1.4-2.664a1.412,1.412,0,0,0,.021-.143c.156-1.491,1.4-4.461,1.4-5.121s1.984-3.815,5.585-3.815c3.4,0,8.542-.053,9.106-.06h.078c.318.014,2.282-1.043,4.894-7.981A1.443,1.443,0,0,1,291.59,538.176Z" transform="translate(1230.821 43.807)" fill="none" stroke="#5a514c" stroke-linecap="round" stroke-linejoin="round" stroke-width="2"/>
    <line id="선_358" data-name="선 358" x2="7" y2="4" transform="translate(1519.5 587.5)" fill="none" stroke="#9cc023" stroke-linecap="round" stroke-width="2"/>
  </g>
</svg>
