<svg xmlns="http://www.w3.org/2000/svg" width="33.942" height="31.021" viewBox="0 0 33.942 31.021">
  <g id="icon_제휴서비스" transform="translate(2.81 -40.368)">
    <g id="그룹_66711" data-name="그룹 66711" transform="translate(-835.755 -520.568)">
      <line id="선_291" data-name="선 291" x2="2" y2="3" transform="translate(863.5 584.5)" fill="none" stroke="#9cc023" stroke-linecap="round" stroke-width="2"/>
      <line id="선_292" data-name="선 292" x2="13" transform="translate(839.5 568.5)" fill="none" stroke="#5a514c" stroke-linecap="round" stroke-width="2"/>
      <line id="선_293" data-name="선 293" x2="13" transform="translate(839.5 573.5)" fill="none" stroke="#5a514c" stroke-linecap="round" stroke-width="2"/>
      <line id="선_295" data-name="선 295" x2="13" transform="translate(839.5 583.5)" fill="none" stroke="#5a514c" stroke-linecap="round" stroke-width="2"/>
      <line id="선_294" data-name="선 294" x2="10" transform="translate(839.5 578.5)" fill="none" stroke="#5a514c" stroke-linecap="round" stroke-width="2"/>
      <g id="그룹_66809" data-name="그룹 66809" transform="translate(0 -1)">
        <path id="패스_66327" data-name="패스 66327" d="M859.026,561.94A1.834,1.834,0,0,1,861,564V576.17h-1.974V564H835.01v26.979h24.015v-4.848H861v4.848a1.8,1.8,0,0,1-1.974,1.974H835.01s-2.065-.044-2.065-1.974V564a1.949,1.949,0,0,1,2.065-2.065Z" fill="#5a514c"/>
      </g>
      <g id="패스_66328" data-name="패스 66328" transform="translate(854 574)" fill="none">
        <path d="M6,0A6,6,0,1,1,0,6,6,6,0,0,1,6,0Z" stroke="none"/>
        <path d="M 6 2 C 3.794389724731445 2 2 3.794389724731445 2 6 C 2 8.205610275268555 3.794389724731445 10 6 10 C 8.205610275268555 10 10 8.205610275268555 10 6 C 10 3.794389724731445 8.205610275268555 2 6 2 M 6 0 C 9.31371021270752 0 12 2.68628978729248 12 6 C 12 9.31371021270752 9.31371021270752 12 6 12 C 2.68628978729248 12 0 9.31371021270752 0 6 C 0 2.68628978729248 2.68628978729248 0 6 0 Z" stroke="none" fill="#9cc023"/>
      </g>
    </g>
  </g>
</svg>
