<svg xmlns="http://www.w3.org/2000/svg" width="34" height="30" viewBox="0 0 34 30">
  <g id="icon_영랑호리조트" transform="translate(-76.5 -472.582)">
    <g id="사각형_2035" data-name="사각형 2035" transform="translate(89.5 484.582)" fill="#eff1f5" stroke="#5a514c" stroke-width="2">
      <path d="M3,0H15a3,3,0,0,1,3,3V18a0,0,0,0,1,0,0H0a0,0,0,0,1,0,0V3A3,3,0,0,1,3,0Z" stroke="none"/>
      <path d="M3,1H15a2,2,0,0,1,2,2V16a1,1,0,0,1-1,1H2a1,1,0,0,1-1-1V3A2,2,0,0,1,3,1Z" fill="none"/>
    </g>
    <g id="사각형_2034" data-name="사각형 2034" transform="translate(78.5 472.582)" fill="#eff1f5" stroke="#5a514c" stroke-width="2">
      <path d="M3,0H18a3,3,0,0,1,3,3V30a0,0,0,0,1,0,0H0a0,0,0,0,1,0,0V3A3,3,0,0,1,3,0Z" stroke="none"/>
      <path d="M3,1H18a2,2,0,0,1,2,2V28a1,1,0,0,1-1,1H2a1,1,0,0,1-1-1V3A2,2,0,0,1,3,1Z" fill="none"/>
    </g>
    <rect id="사각형_2036" data-name="사각형 2036" width="6" height="2" rx="1" transform="translate(82.5 479.582)" fill="#9cc023"/>
    <rect id="사각형_18321" data-name="사각형 18321" width="6" height="2" rx="1" transform="translate(82.5 483.582)" fill="#9cc023"/>
    <rect id="사각형_18323" data-name="사각형 18323" width="6" height="2" rx="1" transform="translate(82.5 487.582)" fill="#9cc023"/>
    <rect id="사각형_2038" data-name="사각형 2038" width="6" height="2" rx="1" transform="translate(89.5 479.582)" fill="#9cc023"/>
    <rect id="사각형_18322" data-name="사각형 18322" width="6" height="2" rx="1" transform="translate(89.5 483.582)" fill="#9cc023"/>
    <rect id="사각형_18324" data-name="사각형 18324" width="6" height="2" rx="1" transform="translate(89.5 487.582)" fill="#9cc023"/>
    <rect id="사각형_2040" data-name="사각형 2040" width="34" height="2" rx="1" transform="translate(76.5 500.582)" fill="#5a514c"/>
  </g>
</svg>
