<svg xmlns="http://www.w3.org/2000/svg" width="35" height="35" viewBox="0 0 35 35">
  <g id="icon_빌리브_공통" data-name="icon_빌리브 공통" transform="translate(-1059.5 -155.857)">
    <path id="패스_66291" data-name="패스 66291" d="M-6.989-6.444A.59.59,0,0,1-6.65-6.2a.465.465,0,0,1,0,.437L-8.8-.513a.851.851,0,0,1-.32.423.849.849,0,0,1-.434.108A.83.83,0,0,1-9.98-.09a.851.851,0,0,1-.32-.423l-2.1-5.238a.465.465,0,0,1,0-.437.631.631,0,0,1,.348-.256.81.81,0,0,1,.477-.018.476.476,0,0,1,.334.315l1.708,4.689,1.746-4.671a.516.516,0,0,1,.324-.328A.759.759,0,0,1-6.989-6.444Zm1.746-.045a.774.774,0,0,1,.429.117.416.416,0,0,1,.181.378V-.477A.416.416,0,0,1-4.813-.1a.774.774,0,0,1-.429.117A.774.774,0,0,1-5.672-.1a.416.416,0,0,1-.181-.378V-5.994a.416.416,0,0,1,.181-.378A.774.774,0,0,1-5.242-6.489Zm2.29,0a.774.774,0,0,1,.429.117.416.416,0,0,1,.181.378v4.986H.426A.375.375,0,0,1,.75-.864a.565.565,0,0,1,.1.342.565.565,0,0,1-.1.342.375.375,0,0,1-.324.144H-2.752A.947.947,0,0,1-3.387-.2a.776.776,0,0,1-.177-.585V-5.994a.416.416,0,0,1,.181-.378A.774.774,0,0,1-2.952-6.489Zm4.847,0a.774.774,0,0,1,.429.117.416.416,0,0,1,.181.378v4.986H5.273A.375.375,0,0,1,5.6-.864a.565.565,0,0,1,.1.342.565.565,0,0,1-.1.342.375.375,0,0,1-.324.144H2.1A.947.947,0,0,1,1.461-.2a.776.776,0,0,1-.177-.585V-5.994a.416.416,0,0,1,.181-.378A.774.774,0,0,1,1.9-6.489Zm4.847,0a.774.774,0,0,1,.429.117.416.416,0,0,1,.181.378V-.477A.416.416,0,0,1,7.172-.1a.774.774,0,0,1-.429.117A.774.774,0,0,1,6.313-.1a.416.416,0,0,1-.181-.378V-5.994a.416.416,0,0,1,.181-.378A.774.774,0,0,1,6.742-6.489Zm6.813.045a.59.59,0,0,1,.339.247.465.465,0,0,1,0,.437L11.743-.513a.851.851,0,0,1-.32.423.849.849,0,0,1-.434.108.83.83,0,0,1-.425-.108.851.851,0,0,1-.32-.423l-2.1-5.238a.465.465,0,0,1,0-.437A.631.631,0,0,1,8.5-6.444a.81.81,0,0,1,.477-.018.476.476,0,0,1,.334.315l1.708,4.689,1.746-4.671a.516.516,0,0,1,.324-.328A.759.759,0,0,1,13.556-6.444Z" transform="translate(1076 178.547)" fill="#4b423c" stroke="#4b423c" stroke-width="0.5"/>
    <g id="사각형_18315" data-name="사각형 18315" transform="translate(1059.5 155.857)" fill="none" stroke="#5a514c" stroke-width="2">
      <rect width="35" height="35" rx="5" stroke="none"/>
      <rect x="1" y="1" width="33" height="33" rx="4" fill="none"/>
    </g>
    <path id="패스_66296" data-name="패스 66296" d="M0,0H28" transform="translate(1063 164.357)" fill="none" stroke="#9cc023" stroke-linecap="square" stroke-width="3"/>
  </g>
</svg>
