<svg id="icond_filter-light" data-name="icond/filter-light" xmlns="http://www.w3.org/2000/svg" width="24" height="24" viewBox="0 0 24 24">
  <rect id="bg" width="24" height="24" fill="none"/>
  <path id="path" d="M3.318,4.556A.755.755,0,0,1,2.5,3.778.755.755,0,0,1,3.318,3H19.682a.755.755,0,0,1,.818.778.755.755,0,0,1-.818.778Z" transform="translate(0.5 2)" fill="#6a6a6a"/>
  <path id="path-2" data-name="path" d="M3.318,4.556A.755.755,0,0,1,2.5,3.778.755.755,0,0,1,3.318,3H19.682a.755.755,0,0,1,.818.778.755.755,0,0,1-.818.778Z" transform="translate(0.5 14)" fill="#6a6a6a"/>
  <path id="path-3" data-name="path" d="M3.318,4.556A.755.755,0,0,1,2.5,3.778.755.755,0,0,1,3.318,3H19.682a.755.755,0,0,1,.818.778.755.755,0,0,1-.818.778Z" transform="translate(0.5 8)" fill="#6a6a6a"/>
</svg>
