<svg xmlns="http://www.w3.org/2000/svg" width="22.804" height="22.804" viewBox="0 0 22.804 22.804">
  <g id="그룹_191" data-name="그룹 191" transform="translate(-176 -764.178)">
    <rect id="사각형_258" data-name="사각형 258" width="21.804" height="21.804" transform="translate(176.5 764.678)" fill="none" stroke="#396298" stroke-linecap="round" stroke-width="1"/>
    <path id="패스_96" data-name="패스 96" d="M3.438-.012A12.464,12.464,0,0,1,3.186-2.2c-.1-1.236-.54-1.812-1.524-1.992A2.248,2.248,0,0,0,3.378-6.624c0-1.752-.972-2.8-2.94-2.8H-3.126V-.012h1.044V-3.72H.186c1.956,0,1.92.8,2.052,2.856a3.563,3.563,0,0,0,.144.852Zm-5.52-4.62V-8.508H.306A1.765,1.765,0,0,1,2.322-6.564,1.762,1.762,0,0,1,.306-4.632Z" transform="translate(187.126 780.42)" fill="#396298"/>
  </g>
</svg>
