<svg xmlns="http://www.w3.org/2000/svg" xmlns:xlink="http://www.w3.org/1999/xlink" width="101" height="100.079" viewBox="0 0 101 100.079">
  <defs>
    <linearGradient id="linear-gradient" x1="-7.708" y1="-7.748" x2="10.156" y2="10.258" gradientUnits="objectBoundingBox">
      <stop offset="0" stop-color="#009ee0"/>
      <stop offset="0.152" stop-color="#0c8dd2"/>
      <stop offset="0.504" stop-color="#256db6"/>
      <stop offset="0.799" stop-color="#345aa6"/>
      <stop offset="1" stop-color="#3a53a0"/>
    </linearGradient>
    <linearGradient id="linear-gradient-2" x1="-7.269" y1="-8.634" x2="8.826" y2="9.8" xlink:href="#linear-gradient"/>
    <linearGradient id="linear-gradient-3" x1="-8.121" y1="-9.076" x2="8.387" y2="9.08" xlink:href="#linear-gradient"/>
    <linearGradient id="linear-gradient-4" x1="-8.727" y1="-9.907" x2="7.567" y2="8.655" xlink:href="#linear-gradient"/>
    <linearGradient id="linear-gradient-5" x1="-9.17" y1="-10.476" x2="7.287" y2="7.826" xlink:href="#linear-gradient"/>
    <linearGradient id="linear-gradient-6" x1="-9.816" y1="-10.859" x2="6.62" y2="7.147" xlink:href="#linear-gradient"/>
    <linearGradient id="linear-gradient-7" x1="-9.458" y1="-11.59" x2="5.306" y2="6.71" xlink:href="#linear-gradient"/>
    <linearGradient id="linear-gradient-8" x1="-13.303" y1="-12.402" x2="6.42" y2="6.031" xlink:href="#linear-gradient"/>
    <linearGradient id="linear-gradient-9" x1="-13.623" y1="-13.094" x2="5.666" y2="5.469" xlink:href="#linear-gradient"/>
    <linearGradient id="linear-gradient-10" x1="-2.134" y1="-1.599" x2="3.673" y2="3.028" xlink:href="#linear-gradient"/>
    <linearGradient id="linear-gradient-11" x1="-2.508" y1="-1.897" x2="3.299" y2="2.73" xlink:href="#linear-gradient"/>
    <linearGradient id="linear-gradient-12" x1="-2.945" y1="-2.173" x2="2.862" y2="2.454" xlink:href="#linear-gradient"/>
    <linearGradient id="linear-gradient-13" x1="-0.744" y1="-1.182" x2="2.538" y2="3.445" xlink:href="#linear-gradient"/>
    <linearGradient id="linear-gradient-14" x1="-1.141" y1="-0.415" x2="4.62" y2="3.768" xlink:href="#linear-gradient"/>
    <linearGradient id="linear-gradient-15" x1="-1.003" y1="-0.818" x2="4.047" y2="3.364" xlink:href="#linear-gradient"/>
    <linearGradient id="linear-gradient-16" x1="-1.775" y1="-1.12" x2="4.09" y2="3.055" xlink:href="#linear-gradient"/>
    <linearGradient id="linear-gradient-17" x1="-0.308" y1="-0.146" x2="4.405" y2="4.047" xlink:href="#linear-gradient"/>
  </defs>
  <g id="그룹_34" data-name="그룹 34" transform="translate(2487.573 -169.164)">
    <g id="그룹_33" data-name="그룹 33" transform="translate(-2487.573 169.164)">
      <g id="그룹_29" data-name="그룹 29" transform="translate(0 90.971)">
        <g id="그룹_28" data-name="그룹 28">
          <path id="패스_30" data-name="패스 30" d="M-2484.446,261.908a4.7,4.7,0,0,1,2.323.51.524.524,0,0,1,.272.33.529.529,0,0,1-.062.427.546.546,0,0,1-.31.281.55.55,0,0,1-.4-.044,3.508,3.508,0,0,0-.825-.292,4.621,4.621,0,0,0-.974-.093,2.782,2.782,0,0,0-.775.1,1.828,1.828,0,0,0-.579.273,1.311,1.311,0,0,0-.367.4,1,1,0,0,0-.129.491v.124a1.178,1.178,0,0,0,.088.478.917.917,0,0,0,.31.374,2.161,2.161,0,0,0,.6.3,8,8,0,0,0,.961.256,8.467,8.467,0,0,1,1.378.4,3.185,3.185,0,0,1,.907.528,1.722,1.722,0,0,1,.5.7,2.5,2.5,0,0,1,.15.895v.173a2.236,2.236,0,0,1-.819,1.834,3.671,3.671,0,0,1-2.36.664,5.6,5.6,0,0,1-1.509-.2,4.448,4.448,0,0,1-1.235-.542.485.485,0,0,1-.266-.365.64.64,0,0,1,.1-.442.579.579,0,0,1,.337-.266.483.483,0,0,1,.408.08,4.453,4.453,0,0,0,1.031.453,4.116,4.116,0,0,0,1.191.168,2.232,2.232,0,0,0,1.4-.373,1.137,1.137,0,0,0,.471-.932v-.137a1.327,1.327,0,0,0-.1-.54,1,1,0,0,0-.335-.4,2.331,2.331,0,0,0-.621-.3,9.026,9.026,0,0,0-.956-.255,9.216,9.216,0,0,1-1.271-.342,2.982,2.982,0,0,1-.894-.478,1.785,1.785,0,0,1-.528-.69,2.491,2.491,0,0,1-.175-.987v-.15a2.21,2.21,0,0,1,.207-.95,2.161,2.161,0,0,1,.594-.765,2.84,2.84,0,0,1,.964-.5A4.271,4.271,0,0,1-2484.446,261.908Z" transform="translate(2487.573 -261.908)" fill="url(#linear-gradient)"/>
          <path id="패스_31" data-name="패스 31" d="M-2469.53,262.206a.676.676,0,0,1,.106.374.664.664,0,0,1-.106.372.363.363,0,0,1-.328.161h-2.383v7.307a.444.444,0,0,1-.188.4.755.755,0,0,1-.434.125.756.756,0,0,1-.435-.125.442.442,0,0,1-.186-.4v-7.307h-2.369a.382.382,0,0,1-.344-.161.662.662,0,0,1-.1-.372.674.674,0,0,1,.1-.374.384.384,0,0,1,.344-.161h6A.365.365,0,0,1-2469.53,262.206Z" transform="translate(2487.573 -261.908)" fill="url(#linear-gradient-2)"/>
          <path id="패스_32" data-name="패스 32" d="M-2463.467,261.983a.762.762,0,0,1,.434.124.445.445,0,0,1,.186.4v4.759a3.139,3.139,0,0,0,.5,2.006,1.979,1.979,0,0,0,1.607.6,1.974,1.974,0,0,0,1.607-.6,3.133,3.133,0,0,0,.5-2.006v-4.759a.445.445,0,0,1,.187-.4.76.76,0,0,1,.434-.124.762.762,0,0,1,.434.124.445.445,0,0,1,.186.4v4.747a6.434,6.434,0,0,1-.209,1.764,2.8,2.8,0,0,1-.634,1.161,2.442,2.442,0,0,1-1.049.64,4.823,4.823,0,0,1-1.46.2,4.789,4.789,0,0,1-1.447-.2,2.428,2.428,0,0,1-1.047-.64,2.818,2.818,0,0,1-.64-1.161,6.188,6.188,0,0,1-.218-1.764v-4.747a.443.443,0,0,1,.187-.4A.759.759,0,0,1-2463.467,261.983Z" transform="translate(2487.135 -261.908)" fill="url(#linear-gradient-3)"/>
          <path id="패스_33" data-name="패스 33" d="M-2448.148,262.045a3.824,3.824,0,0,1,2.85.982,4.262,4.262,0,0,1,.962,3.081v.708a4.192,4.192,0,0,1-.988,3.082,3.837,3.837,0,0,1-2.824.982h-2.024a1.089,1.089,0,0,1-.752-.2,1.006,1.006,0,0,1-.2-.721v-6.995a1.006,1.006,0,0,1,.2-.721,1.089,1.089,0,0,1,.752-.2Zm-.16,7.767a2.655,2.655,0,0,0,2.054-.728,3.436,3.436,0,0,0,.664-2.354v-.51a5.571,5.571,0,0,0-.155-1.41,2.419,2.419,0,0,0-.478-.969,1.853,1.853,0,0,0-.845-.553,3.912,3.912,0,0,0-1.24-.175h-1.577v6.7Z" transform="translate(2486.894 -261.908)" fill="url(#linear-gradient-4)"/>
          <path id="패스_34" data-name="패스 34" d="M-2432.865,262.058a.6.6,0,0,1,.318.3.5.5,0,0,1-.07.472l-2.644,4.51v3.082a.443.443,0,0,1-.186.4.755.755,0,0,1-.434.125.755.755,0,0,1-.434-.125.443.443,0,0,1-.186-.4v-3.082l-2.646-4.5a.527.527,0,0,1-.068-.442.6.6,0,0,1,.305-.33.605.605,0,0,1,.447-.073.555.555,0,0,1,.373.3l2.245,3.9,2.173-3.889a.567.567,0,0,1,.355-.3A.651.651,0,0,1-2432.865,262.058Z" transform="translate(2486.673 -261.908)" fill="url(#linear-gradient-5)"/>
          <path id="패스_35" data-name="패스 35" d="M-2423.567,261.908a5.232,5.232,0,0,1,1.483.187,3.731,3.731,0,0,1,1.062.485.5.5,0,0,1,.248.365.637.637,0,0,1-.111.429.661.661,0,0,1-.336.25.472.472,0,0,1-.408-.075,3.637,3.637,0,0,0-.868-.374,4.2,4.2,0,0,0-1.094-.124,2.129,2.129,0,0,0-1.793.777,3.979,3.979,0,0,0-.6,2.442v.385a4.082,4.082,0,0,0,.581,2.423,2.132,2.132,0,0,0,1.827.783,3.94,3.94,0,0,0,1.2-.168,3.256,3.256,0,0,0,.953-.491.572.572,0,0,1,.416-.105.534.534,0,0,1,.367.242.634.634,0,0,1,.124.453.577.577,0,0,1-.261.416,3.942,3.942,0,0,1-1.227.6,5.6,5.6,0,0,1-1.6.211,3.444,3.444,0,0,1-2.7-1.043,4.707,4.707,0,0,1-.938-3.219v-.584a4.665,4.665,0,0,1,.951-3.218A3.5,3.5,0,0,1-2423.567,261.908Z" transform="translate(2486.449 -261.908)" fill="url(#linear-gradient-6)"/>
          <path id="패스_36" data-name="패스 36" d="M-2411.45,261.983a.83.83,0,0,1,.439.117.847.847,0,0,1,.318.442l2.941,7.593a.578.578,0,0,1-.005.478.547.547,0,0,1-.341.279.931.931,0,0,1-.484.019.512.512,0,0,1-.348-.367l-.82-2.224h-3.439l-.843,2.262a.479.479,0,0,1-.317.341.794.794,0,0,1-.466-.031.61.61,0,0,1-.336-.268.551.551,0,0,1,0-.453l2.957-7.629a.868.868,0,0,1,.31-.442A.808.808,0,0,1-2411.45,261.983Zm-.013,1.528c-.083.274-.165.533-.248.777s-.181.525-.3.838l-.809,2.15h2.695l-.8-2.15c-.113-.313-.217-.6-.3-.856S-2411.388,263.759-2411.463,263.511Z" transform="translate(2486.214 -261.908)" fill="url(#linear-gradient-7)"/>
          <path id="패스_37" data-name="패스 37" d="M-2396.436,262.206a.674.674,0,0,1,.1.374.663.663,0,0,1-.1.372.38.38,0,0,1-.341.161h-3.912V266h3.661a.367.367,0,0,1,.331.162.67.67,0,0,1,.106.373.638.638,0,0,1-.106.366.371.371,0,0,1-.331.156h-3.661v3.367a.44.44,0,0,1-.192.4.789.789,0,0,1-.441.125.756.756,0,0,1-.435-.125.443.443,0,0,1-.186-.4v-7.455a1.006,1.006,0,0,1,.2-.721,1.088,1.088,0,0,1,.752-.2h4.21A.382.382,0,0,1-2396.436,262.206Z" transform="translate(2485.784 -261.908)" fill="url(#linear-gradient-8)"/>
          <path id="패스_38" data-name="패스 38" d="M-2384.978,262.2a.643.643,0,0,1,.106.367.641.641,0,0,1-.106.367.369.369,0,0,1-.328.155h-3.972v2.746h3.724a.36.36,0,0,1,.315.149.613.613,0,0,1,.106.361.638.638,0,0,1-.106.366.355.355,0,0,1-.315.155h-3.724v2.97h4.058a.375.375,0,0,1,.33.155.643.643,0,0,1,.106.367.64.64,0,0,1-.106.366.373.373,0,0,1-.33.156h-4.344a1.087,1.087,0,0,1-.752-.2,1,1,0,0,1-.205-.721v-6.995a1,1,0,0,1,.205-.721,1.087,1.087,0,0,1,.752-.2h4.258A.366.366,0,0,1-2384.978,262.2Z" transform="translate(2485.784 -261.908)" fill="url(#linear-gradient-9)"/>
        </g>
      </g>
      <g id="그룹_30" data-name="그룹 30" transform="translate(0.48 47.15)">
        <path id="패스_39" data-name="패스 39" d="M-2440.095,253.05a9.383,9.383,0,0,1-9.529-9.206V226.813a9.383,9.383,0,0,1,9.529-9.206,9.382,9.382,0,0,1,9.529,9.206v17.031A9.382,9.382,0,0,1-2440.095,253.05Zm0-31.76a5.406,5.406,0,0,0-5.122,5.523v17.031a5.406,5.406,0,0,0,5.122,5.524,5.406,5.406,0,0,0,5.123-5.524V226.813A5.406,5.406,0,0,0-2440.095,221.29Z" transform="translate(2486.286 -217.607)" fill="url(#linear-gradient-10)"/>
        <path id="패스_40" data-name="패스 40" d="M-2417.278,253.05a9.382,9.382,0,0,1-9.528-9.206V226.813a9.382,9.382,0,0,1,9.528-9.206,9.383,9.383,0,0,1,9.53,9.206v17.031A9.383,9.383,0,0,1-2417.278,253.05Zm0-31.76a5.406,5.406,0,0,0-5.122,5.523v17.031a5.406,5.406,0,0,0,5.122,5.524,5.406,5.406,0,0,0,5.123-5.524V226.813A5.406,5.406,0,0,0-2417.278,221.29Z" transform="translate(2485.795 -217.607)" fill="url(#linear-gradient-11)"/>
        <path id="패스_41" data-name="패스 41" d="M-2387.134,253.05a2.047,2.047,0,0,1-2.2-1.841v-24.4a5.405,5.405,0,0,0-5.122-5.523,5.406,5.406,0,0,0-5.123,5.523v24.4a2.047,2.047,0,0,1-2.2,1.841,2.047,2.047,0,0,1-2.2-1.841v-24.4a9.383,9.383,0,0,1,9.53-9.206,9.383,9.383,0,0,1,9.529,9.206v24.4A2.046,2.046,0,0,1-2387.134,253.05Z" transform="translate(2485.304 -217.607)" fill="url(#linear-gradient-12)"/>
        <path id="패스_42" data-name="패스 42" d="M-2462.912,217.607a9.645,9.645,0,0,0-7.326,3.327,9.649,9.649,0,0,0-7.326-3.327,9.383,9.383,0,0,0-9.529,9.206v24.4a2.046,2.046,0,0,0,2.2,1.841,2.046,2.046,0,0,0,2.2-1.841v-24.4a5.406,5.406,0,0,1,5.123-5.523,5.406,5.406,0,0,1,5.123,5.523v24.4a2.046,2.046,0,0,0,2.2,1.841,2.046,2.046,0,0,0,2.2-1.841v-24.4a5.406,5.406,0,0,1,5.123-5.523,5.406,5.406,0,0,1,5.123,5.523v24.4a2.046,2.046,0,0,0,2.2,1.841,2.046,2.046,0,0,0,2.2-1.841v-24.4A9.383,9.383,0,0,0-2462.912,217.607Z" transform="translate(2487.093 -217.607)" fill="url(#linear-gradient-13)"/>
      </g>
      <g id="그룹_32" data-name="그룹 32" transform="translate(0.536)">
        <path id="패스_43" data-name="패스 43" d="M-2439.637,203.867h-12.348V171.523a2.289,2.289,0,0,0-2.288-2.29,2.29,2.29,0,0,0-2.288,2.29v34.634a2.289,2.289,0,0,0,2.288,2.29h14.636a2.289,2.289,0,0,0,2.288-2.29A2.289,2.289,0,0,0-2439.637,203.867Z" transform="translate(2486.379 -169.164)" fill="url(#linear-gradient-14)"/>
        <g id="그룹_31" data-name="그룹 31" transform="translate(52.781 0.069)">
          <path id="패스_44" data-name="패스 44" d="M-2430.519,169.233a2.326,2.326,0,0,1,2.533,2.037v26.992a6.084,6.084,0,0,0,5.89,6.111,6.084,6.084,0,0,0,5.89-6.111V171.27a2.326,2.326,0,0,1,2.533-2.037,2.327,2.327,0,0,1,2.533,2.037v26.992c0,5.616-4.915,10.185-10.956,10.185s-10.956-4.569-10.956-10.185V171.27A2.326,2.326,0,0,1-2430.519,169.233Z" transform="translate(2433.052 -169.233)" fill="url(#linear-gradient-15)"/>
        </g>
        <path id="패스_45" data-name="패스 45" d="M-2386.9,191.1a2.149,2.149,0,0,0,1.973-2.29,2.149,2.149,0,0,0-1.973-2.29h-12.318V173.744h12.318a2.149,2.149,0,0,0,1.973-2.289,2.15,2.15,0,0,0-1.973-2.291h-14.921a2.151,2.151,0,0,0-1.973,2.291c0,.013,0,.024,0,.037s0,.021,0,.032v34.633a2.15,2.15,0,0,0,1.973,2.29h14.921a2.149,2.149,0,0,0,1.973-2.29,2.149,2.149,0,0,0-1.973-2.29h-12.318V191.1Z" transform="translate(2485.248 -169.164)" fill="url(#linear-gradient-16)"/>
        <path id="패스_46" data-name="패스 46" d="M-2463.558,180.369c0-6.087-4.23-11.039-9.429-11.039h-11.939a2.113,2.113,0,0,0-2.111,2.113v34.891a2.113,2.113,0,0,0,2.111,2.113c.01,0,.02,0,.03,0v0h11.906c5.184,0,9.4-4.967,9.4-11.072a11.908,11.908,0,0,0-3.392-8.505A11.838,11.838,0,0,0-2463.558,180.369Zm-17.5-5.934h8.074a5.878,5.878,0,0,1,5.657,5.934,5.879,5.879,0,0,1-5.657,5.934h-9.827V174.435Zm8.071,28.892h-9.824v-11.9h9.824a5.881,5.881,0,0,1,5.641,5.952A5.881,5.881,0,0,1-2472.99,203.327Z" transform="translate(2487.037 -169.164)" fill="url(#linear-gradient-17)"/>
      </g>
    </g>
  </g>
</svg>
