<svg id="그룹_239" data-name="그룹 239" xmlns="http://www.w3.org/2000/svg" width="13.306" height="15.968" viewBox="0 0 13.306 15.968">
  <g id="그룹_232" data-name="그룹 232" transform="translate(0 0)">
    <g id="사각형_470" data-name="사각형 470" fill="none" stroke="#707070" stroke-width="1">
      <rect width="13.306" height="15.968" rx="3" stroke="none"/>
      <rect x="0.5" y="0.5" width="12.306" height="14.968" rx="2.5" fill="none"/>
    </g>
    <line id="선_93" data-name="선 93" x2="5.729" transform="translate(3.881 3.992)" fill="none" stroke="#707070" stroke-width="1"/>
  </g>
  <g id="그룹_237" data-name="그룹 237" transform="translate(4.392 6.653)">
    <path id="패스_316" data-name="패스 316" d="M119.174,261.046a3.809,3.809,0,0,1-2.113.56,2.431,2.431,0,0,1-2.656-2.733v-.94a2.421,2.421,0,0,1,2.587-2.733,3.188,3.188,0,0,1,2.061.656l-.44.69a2.412,2.412,0,0,0-1.621-.569c-1.077,0-1.733.63-1.733,2.069v.716c0,1.44.715,2.07,1.828,2.07a2.832,2.832,0,0,0,1.233-.25v-1.751h-1.38V258.1h2.234Z" transform="translate(-114.405 -255.199)" fill="#6a6a6a"/>
  </g>
</svg>
