<svg xmlns="http://www.w3.org/2000/svg" width="26.262" height="26.262" viewBox="0 0 26.262 26.262">
  <g id="notifications_active-24px" transform="translate(0 0)">
    <path id="패스_66123" data-name="패스 66123" d="M0,0H26.262V26.262H0Z" transform="translate(0 0.001)" fill="none"/>
    <path id="패스_66124" data-name="패스 66124" d="M12.793,23.838a2.195,2.195,0,0,0,2.188-2.188H10.6A2.195,2.195,0,0,0,12.793,23.838Zm6.565-6.565V11.8c0-3.359-1.784-6.172-4.924-6.916V4.141a1.641,1.641,0,1,0-3.283,0v.744C8.022,5.63,6.228,8.431,6.228,11.8v5.471L4.039,19.461v1.094H21.547V19.461ZM17.17,18.367H8.416V11.8c0-2.714,1.652-4.924,4.377-4.924S17.17,9.087,17.17,11.8Z" transform="translate(0.338 0.236)" fill="#5a514c"/>
    <path id="패스_66129" data-name="패스 66129" d="M20.591,11.243h2.188a11.477,11.477,0,0,0-4.508-8.59L16.717,4.218A9.3,9.3,0,0,1,20.591,11.243Z" transform="translate(1.261 0.247)" fill="#9cc023"/>
    <path id="패스_66130" data-name="패스 66130" d="M18.905,11.242H16.717a11.476,11.476,0,0,1,4.508-8.589l1.554,1.565A9.3,9.3,0,0,0,18.905,11.242Z" transform="translate(-14.832 0.247)" fill="#9cc023"/>
  </g>
</svg>
