<svg xmlns="http://www.w3.org/2000/svg" width="35.373" height="33.55" viewBox="0 0 35.373 33.55">
  <g id="icon_주변상권이벤트" transform="translate(1.222 1.054)">
    <g id="그룹_66708" data-name="그룹 66708" transform="translate(-519.194 -2424.632)">
      <path id="패스_66148" data-name="패스 66148" d="M596.851,2479.2a3.258,3.258,0,1,1-6.516,0v-4.562h6.516Z" transform="translate(-57.934 -40.063)" fill="none" stroke="#5a514c" stroke-linecap="round" stroke-linejoin="round" stroke-width="2"/>
      <path id="패스_66149" data-name="패스 66149" d="M561.367,2479.2a3.258,3.258,0,0,1-6.517,0v-4.562h6.517" transform="translate(-28.967 -40.063)" fill="none" stroke="#5a514c" stroke-linecap="round" stroke-linejoin="round" stroke-width="2"/>
      <path id="패스_66150" data-name="패스 66150" d="M525.883,2479.2a3.258,3.258,0,1,1-6.516,0v-4.562h6.516" transform="translate(0 -40.063)" fill="none" stroke="#5a514c" stroke-linecap="round" stroke-linejoin="round" stroke-width="2"/>
      <path id="패스_66151" data-name="패스 66151" d="M625.817,2474.643h6.517v4.562a3.258,3.258,0,0,1-6.517,0" transform="translate(-86.9 -40.063)" fill="none" stroke="#5a514c" stroke-linecap="round" stroke-linejoin="round" stroke-width="2"/>
      <path id="패스_66152" data-name="패스 66152" d="M661.3,2474.643h6.516v4.562a3.258,3.258,0,1,1-6.516,0" transform="translate(-115.868 -40.063)" fill="none" stroke="#5a514c" stroke-linecap="round" stroke-linejoin="round" stroke-width="2"/>
      <line id="선_288" data-name="선 288" x1="6.254" y2="9.59" transform="translate(527.45 2424.973)" fill="none" stroke="#5a514c" stroke-linecap="round" stroke-linejoin="round" stroke-width="2"/>
      <line id="선_289" data-name="선 289" x2="6.836" y2="9.59" transform="translate(537.613 2424.973)" fill="none" stroke="#5a514c" stroke-linecap="round" stroke-linejoin="round" stroke-width="2"/>
      <path id="패스_66153" data-name="패스 66153" d="M551.95,2434.1l-6.517-9.122h-19.55l-6.517,9.122" transform="translate(0)" fill="none" stroke="#5a514c" stroke-linecap="round" stroke-linejoin="round" stroke-width="2"/>
      <path id="패스_66155" data-name="패스 66155" d="M583.237,2547.637v-9.123h9.123v9.123" transform="translate(-52.141 -91.512)" fill="none" stroke="#9cc023" stroke-linecap="round" stroke-linejoin="round" stroke-width="2"/>
      <path id="패스_66154" data-name="패스 66154" d="M560.93,2531.417v10.428H533.56v-10.427" transform="translate(-11.587 -85.717)" fill="none" stroke="#5a514c" stroke-linecap="round" stroke-linejoin="round" stroke-width="2"/>
    </g>
  </g>
</svg>
