<svg xmlns="http://www.w3.org/2000/svg" width="26.262" height="26.262" viewBox="0 0 26.262 26.262">
  <g id="photo_camera-24px" transform="translate(0 0)">
    <path id="패스_66125" data-name="패스 66125" d="M0,0H26.262V26.262H0Z" transform="translate(0 0)" fill="none"/>
    <path id="패스_66126" data-name="패스 66126" d="M15.262,4.188l2,2.188H21.7V19.508H4.188V6.377H8.62l2-2.188h4.64M16.225,2H9.66l-2,2.188H4.188A2.195,2.195,0,0,0,2,6.377V19.508A2.195,2.195,0,0,0,4.188,21.7H21.7a2.195,2.195,0,0,0,2.188-2.188V6.377A2.195,2.195,0,0,0,21.7,4.188H18.227Z" transform="translate(0.188 0.189)" fill="#5a514c"/>
    <g id="타원_564" data-name="타원 564" transform="translate(8.047 7.655)" fill="none" stroke="#9cc023" stroke-width="2">
      <ellipse cx="5.17" cy="5.17" rx="5.17" ry="5.17" stroke="none"/>
      <ellipse cx="5.17" cy="5.17" rx="4.17" ry="4.17" fill="none"/>
    </g>
  </g>
</svg>
