<svg xmlns="http://www.w3.org/2000/svg" width="23.995" height="25.982" viewBox="0 0 23.995 25.982">
  <g id="icon_난방" transform="translate(1.41 2.32)">
    <path id="패스_545" data-name="패스 545" d="M439,1278.568l10.679-9.13,2.145,1.866,8.35,7.264" transform="translate(-439 -1270.438)" fill="none" stroke="#5a514c" stroke-linecap="round" stroke-width="2"/>
    <path id="패스_546" data-name="패스 546" d="M444.578,1281.156s-1.945,1.53-.294,3.027.856,2.65-.318,3.458" transform="translate(-437.945 -1271.073)" fill="none" stroke="#9ebb3d" stroke-linecap="round" stroke-width="2"/>
    <path id="패스_547" data-name="패스 547" d="M444.578,1281.156s-1.945,1.53-.294,3.027.856,2.65-.318,3.458" transform="translate(-434.03 -1271.073)" fill="none" stroke="#9ebb3d" stroke-linecap="round" stroke-width="2"/>
    <path id="패스_548" data-name="패스 548" d="M444.578,1281.156s-1.945,1.53-.294,3.027.856,2.65-.318,3.458" transform="translate(-430.114 -1271.073)" fill="none" stroke="#9ebb3d" stroke-linecap="round" stroke-width="2"/>
    <path id="패스_66110" data-name="패스 66110" d="M1.875,19.985V26.81a1.536,1.536,0,0,0,1.412,1.506c1.459.259,16.945,0,16.945,0s1.789.165,1.789-1.506V19.75" transform="translate(-1.216 -5.782)" fill="none" stroke="#5a514c" stroke-width="2"/>
  </g>
</svg>
