<svg xmlns="http://www.w3.org/2000/svg" width="26.915" height="28.548" viewBox="0 0 26.915 28.548">
  <g id="snowy" transform="translate(-2.693 -1.754)">
    <g id="그룹_65699" data-name="그룹 65699" transform="translate(20.004 7.118) rotate(47)">
      <path id="패스_65843" data-name="패스 65843" d="M6.415,5.314l.134-.235a.408.408,0,0,0-.134-.538.386.386,0,0,0-.3-.039.4.4,0,0,0-.229.186l-.134.235-1.29-.754.029-.157-.029-.147L5.756,3.1l.134.235a.416.416,0,0,0,.535.157.423.423,0,0,0,.124-.538l-.134-.245.277-.166a.4.4,0,0,0,.153-.538.419.419,0,0,0-.258-.186.706.706,0,0,0-.268.049l-.287.157L5.9,1.791a.415.415,0,0,0-.248-.2.692.692,0,0,0-.277.049.4.4,0,0,0-.143.538l.134.235-1.271.763a1.007,1.007,0,0,0-.268-.147V1.507H4.1a.382.382,0,0,0,.382-.391A.388.388,0,0,0,4.1.724H3.825V.391A.382.382,0,0,0,3.443,0a.388.388,0,0,0-.382.391V.724H2.793a.388.388,0,0,0-.382.392.382.382,0,0,0,.382.391h.268V3.034a1.312,1.312,0,0,0-.258.137L1.522,2.417l.134-.235a.376.376,0,0,0,.038-.3.4.4,0,0,0-.182-.235.428.428,0,0,0-.3-.039A.353.353,0,0,0,1,1.791l-.143.235L.576,1.869a.321.321,0,0,0-.3-.039.364.364,0,0,0-.229.176.4.4,0,0,0,.143.538l.277.166-.134.235a.421.421,0,0,0-.048.284.444.444,0,0,0,.191.264A.392.392,0,0,0,1,3.337L1.14,3.1l1.281.763L2.4,4.013l.019.147v.01L1.14,4.923,1,4.688A.353.353,0,0,0,.776,4.5a.353.353,0,0,0-.3.039A.416.416,0,0,0,.3,4.766a.4.4,0,0,0,.038.313l.134.235-.277.176a.4.4,0,0,0-.143.538.423.423,0,0,0,.526.137L.853,5.99,1,6.234a.388.388,0,0,0,.516.147A.4.4,0,0,0,1.7,6.127a.385.385,0,0,0-.048-.274L1.522,5.6,2.8,4.845a.848.848,0,0,0,.258.147V6.518H2.793a.388.388,0,0,0-.382.392.374.374,0,0,0,.382.382h.268v.343a.374.374,0,0,0,.382.382.368.368,0,0,0,.382-.382V7.291H4.1a.374.374,0,0,0,.382-.382A.388.388,0,0,0,4.1,6.518H3.825V4.991a.837.837,0,0,0,.268-.157L5.364,5.6l-.134.254a.394.394,0,0,0,.143.529A.424.424,0,0,0,5.9,6.234l.134-.245.287.176a.41.41,0,0,0,.526-.147.391.391,0,0,0,.029-.294.347.347,0,0,0-.182-.235Zm-3.393-1.3a.429.429,0,0,1,.421-.431.423.423,0,0,1,.421.431.417.417,0,0,1-.421.431A.423.423,0,0,1,3.022,4.013Z" transform="translate(0 2.502)" fill="#5a514c"/>
      <path id="패스_65844" data-name="패스 65844" d="M6.441,2.172A.35.35,0,0,0,6.4,1.887a.328.328,0,0,0-.215-.166.3.3,0,0,0-.269.028l-.269.166-.125-.239a.389.389,0,0,0-.5-.129.4.4,0,0,0-.125.506l.134.221-1.209.718a.7.7,0,0,0-.242-.138V1.418h.26a.346.346,0,0,0,.349-.368A.351.351,0,0,0,3.843.681h-.26V.368A.369.369,0,0,0,3.234,0a.359.359,0,0,0-.358.368V.681H2.607a.35.35,0,0,0-.34.368.344.344,0,0,0,.34.368h.269V2.854a.741.741,0,0,0-.251.138l-1.2-.718.125-.221a.389.389,0,0,0-.125-.506.344.344,0,0,0-.493.129L.8,1.915l-.26-.166A.381.381,0,0,0,.27,1.721a.344.344,0,0,0-.224.166.349.349,0,0,0-.027.285.335.335,0,0,0,.161.221l.26.156-.125.23a.365.365,0,0,0,.134.5.4.4,0,0,0,.493-.129l.125-.23,1.2.709-.009.147.009.147-1.2.709L.942,4.391a.387.387,0,0,0-.493-.12.378.378,0,0,0-.134.506L.44,5l-.26.166a.3.3,0,0,0-.161.212.349.349,0,0,0,.027.285.392.392,0,0,0,.224.175A.306.306,0,0,0,.538,5.8L.8,5.643l.134.23a.375.375,0,0,0,.5.129.392.392,0,0,0,.116-.5l-.125-.23,1.2-.718a.96.96,0,0,0,.251.147V6.13H2.607a.344.344,0,0,0-.34.368.35.35,0,0,0,.34.368h.269V7.18a.353.353,0,0,0,.358.368.363.363,0,0,0,.349-.368V6.867h.26A.351.351,0,0,0,4.193,6.5a.346.346,0,0,0-.349-.368h-.26V4.7a.9.9,0,0,0,.242-.147l1.209.718L4.9,5.5a.387.387,0,0,0,.134.5.379.379,0,0,0,.493-.129l.125-.23.269.156a.282.282,0,0,0,.269.037A.373.373,0,0,0,6.4,5.661a.35.35,0,0,0,.036-.285.324.324,0,0,0-.161-.212L6.011,5l.134-.221A.373.373,0,0,0,6,4.271a.358.358,0,0,0-.484.129l-.125.23L4.184,3.921,4.2,3.774l-.018-.147,1.209-.709.125.239A.394.394,0,0,0,6,3.277a.36.36,0,0,0,.143-.5l-.134-.23.269-.156A.366.366,0,0,0,6.441,2.172Zm-3.609,1.6a.4.4,0,1,1,.8,0,.4.4,0,1,1-.8,0Z" transform="translate(7.627 0)" fill="#8d8785"/>
      <path id="패스_65850" data-name="패스 65850" d="M6.115,2.066a.333.333,0,0,0-.034-.271.312.312,0,0,0-.2-.158.289.289,0,0,0-.255.026l-.255.158-.119-.228a.369.369,0,0,0-.476-.123.38.38,0,0,0-.119.481l.128.21-1.148.683a.663.663,0,0,0-.23-.131V1.348h.247A.329.329,0,0,0,3.98,1a.334.334,0,0,0-.332-.35H3.4V.35A.351.351,0,0,0,3.071,0a.341.341,0,0,0-.34.35v.3H2.475A.332.332,0,0,0,2.152,1a.327.327,0,0,0,.323.35h.255V2.713a.7.7,0,0,0-.238.131L1.353,2.162l.119-.21a.37.37,0,0,0-.119-.481.326.326,0,0,0-.468.123l-.128.228L.511,1.663a.361.361,0,0,0-.255-.026.327.327,0,0,0-.213.158.332.332,0,0,0-.026.271.319.319,0,0,0,.153.21l.247.149L.3,2.643a.347.347,0,0,0,.128.473.381.381,0,0,0,.468-.123l.119-.219,1.139.674-.009.14.009.14L1.013,4.4.894,4.175a.367.367,0,0,0-.468-.114A.36.36,0,0,0,.3,4.543l.119.21L.171,4.91a.284.284,0,0,0-.153.2.332.332,0,0,0,.026.271.372.372,0,0,0,.213.166.29.29,0,0,0,.255-.035l.247-.149.128.219a.356.356,0,0,0,.476.123.373.373,0,0,0,.111-.473l-.119-.219,1.139-.683a.911.911,0,0,0,.238.14V5.83H2.475a.327.327,0,0,0-.323.35.332.332,0,0,0,.323.35h.255v.3a.336.336,0,0,0,.34.35.345.345,0,0,0,.332-.35v-.3h.247a.334.334,0,0,0,.332-.35.329.329,0,0,0-.332-.35H3.4V4.473a.858.858,0,0,0,.23-.14l1.148.683-.128.219a.368.368,0,0,0,.128.473.359.359,0,0,0,.468-.123l.119-.219.255.149a.268.268,0,0,0,.255.035.354.354,0,0,0,.2-.166.333.333,0,0,0,.034-.271.308.308,0,0,0-.153-.2l-.255-.158.128-.21A.355.355,0,0,0,5.7,4.061a.34.34,0,0,0-.459.123L5.12,4.4,3.972,3.729l.017-.14-.017-.14L5.12,2.775,5.239,3a.374.374,0,0,0,.459.114.343.343,0,0,0,.136-.473l-.128-.219.255-.149A.348.348,0,0,0,6.115,2.066ZM2.688,3.589a.378.378,0,1,1,.757,0,.378.378,0,1,1-.757,0Z" transform="translate(12.765 6.555)" fill="#9cc023" opacity="0.3"/>
      <path id="패스_65845" data-name="패스 65845" d="M6.194,5.111l.129-.226a.475.475,0,0,0,.037-.3.4.4,0,0,0-.175-.216A.374.374,0,0,0,5.9,4.329a.384.384,0,0,0-.221.179l-.129.226L4.313,4.009V4l.018-.141-.018-.141,1.236-.734.129.226a.4.4,0,0,0,.507.151.426.426,0,0,0,.184-.254.424.424,0,0,0-.046-.264l-.129-.235.277-.16A.4.4,0,0,0,6.6,1.929a.369.369,0,0,0-.221-.169.341.341,0,0,0-.286.038l-.267.151-.138-.226a.365.365,0,0,0-.212-.179.332.332,0,0,0-.286.038.389.389,0,0,0-.175.226A.361.361,0,0,0,5.05,2.1l.138.226-1.245.725a1.118,1.118,0,0,0-.258-.132V1.449h.267a.368.368,0,0,0,.369-.376A.374.374,0,0,0,3.953.7H3.686V.376A.368.368,0,0,0,3.317,0a.374.374,0,0,0-.369.376V.7H2.69a.374.374,0,0,0-.369.376.368.368,0,0,0,.369.376h.258V2.918a1.073,1.073,0,0,0-.249.141L1.463,2.325,1.6,2.1a.383.383,0,0,0-.138-.518A.452.452,0,0,0,1.2,1.534a.376.376,0,0,0-.24.188l-.129.226L.56,1.8a.494.494,0,0,0-.277-.047.412.412,0,0,0-.24.179.4.4,0,0,0-.028.292.356.356,0,0,0,.175.226l.267.16L.32,2.842a.392.392,0,0,0,.138.518.379.379,0,0,0,.5-.151l.138-.226,1.245.734-.028.141.028.151-1.245.725L.956,4.508a.34.34,0,0,0-.212-.179.341.341,0,0,0-.286.038.385.385,0,0,0-.138.518l.138.226L.191,5.28a.334.334,0,0,0-.175.226A.4.4,0,0,0,.043,5.8a.406.406,0,0,0,.507.132L.827,5.76.956,6a.364.364,0,0,0,.5.141A.374.374,0,0,0,1.6,5.628l-.138-.245L2.7,4.649a.88.88,0,0,0,.249.151V6.268H2.69a.374.374,0,0,0-.369.376.36.36,0,0,0,.369.367h.258v.329a.36.36,0,0,0,.369.367.355.355,0,0,0,.369-.367V7.012h.267a.36.36,0,0,0,.369-.367.374.374,0,0,0-.369-.376H3.686V4.8a.767.767,0,0,0,.258-.141l1.245.725-.138.235A.4.4,0,0,0,5,5.892a.382.382,0,0,0,.184.245A.367.367,0,0,0,5.687,6l.138-.235.267.169a.373.373,0,0,0,.369-.649ZM2.911,3.859a.41.41,0,1,1,.821,0,.41.41,0,1,1-.821,0Z" transform="translate(4.543 9.754)" fill="#9cc023"/>
    </g>
    <path id="패스_65846" data-name="패스 65846" d="M23.363,10.657a1.23,1.23,0,0,1-1.23-1.23,3.693,3.693,0,0,0-3.689-3.689c-.1,0-.208.008-.311.016l-.723.06-.4-.6a6.147,6.147,0,0,0-11.27,3.4l.048,1.14-.857.3a3.686,3.686,0,0,0,1.218,7.166,1.23,1.23,0,1,1,0,2.459A6.145,6.145,0,0,1,3.295,8.084a8.606,8.606,0,0,1,15.351-4.8,6.156,6.156,0,0,1,5.946,6.145A1.23,1.23,0,0,1,23.363,10.657Z" transform="translate(2.693 1.754)" fill="#5a514c" fill-rule="evenodd"/>
  </g>
</svg>
