<svg xmlns="http://www.w3.org/2000/svg" width="34.98" height="34.598" viewBox="0 0 34.98 34.598">
  <g id="icon_빗방울" transform="translate(-1262.274 -391.902)">
    <path id="패스_66181" data-name="패스 66181" d="M31.938,14.568a1.681,1.681,0,0,1-1.681-1.681,5.049,5.049,0,0,0-5.043-5.043c-.143,0-.285.011-.425.022l-.988.082-.55-.827A8.4,8.4,0,0,0,7.844,11.767l.066,1.559-1.171.411a5.039,5.039,0,0,0,1.665,9.8,1.681,1.681,0,1,1,0,3.362A8.4,8.4,0,0,1,4.5,11.052,11.764,11.764,0,0,1,25.49,4.487a8.416,8.416,0,0,1,8.129,8.4A1.681,1.681,0,0,1,31.938,14.568Z" transform="translate(1263.682 391.902) rotate(3)" fill="#5a514c" fill-rule="evenodd"/>
    <line id="선_321" data-name="선 321" y2="6" transform="translate(1288.5 419.5)" fill="none" stroke="#8d8785" stroke-linecap="round" stroke-width="2"/>
    <line id="선_322" data-name="선 322" y2="6" transform="translate(1292.5 412.5)" fill="none" stroke="#707070" stroke-linecap="round" stroke-width="2"/>
    <line id="선_323" data-name="선 323" y2="6" transform="translate(1280.5 419.5)" fill="none" stroke="#8d8785" stroke-linecap="round" stroke-width="2"/>
    <line id="선_324" data-name="선 324" y2="6" transform="translate(1284.5 412.5)" fill="none" stroke="#707070" stroke-linecap="round" stroke-width="2"/>
    <line id="선_325" data-name="선 325" y2="6" transform="translate(1276.5 412.5)" fill="none" stroke="#707070" stroke-linecap="round" stroke-width="2"/>
  </g>
</svg>
