<svg xmlns="http://www.w3.org/2000/svg" xmlns:xlink="http://www.w3.org/1999/xlink" width="58.363" height="42.001" viewBox="0 0 58.363 42.001">
  <defs>
    <filter id="패스_66072" x="0" y="0" width="58.363" height="42.001" filterUnits="userSpaceOnUse">
      <feOffset dy="3" input="SourceAlpha"/>
      <feGaussianBlur stdDeviation="3" result="blur"/>
      <feFlood flood-color="#4b423c" flood-opacity="0.4"/>
      <feComposite operator="in" in2="blur"/>
      <feComposite in="SourceGraphic"/>
    </filter>
  </defs>
  <g id="btn_close" transform="translate(-233.218 -24.834)">
    <g transform="matrix(1, 0, 0, 1, 233.22, 24.83)" filter="url(#패스_66072)">
      <path id="패스_66072-2" data-name="패스 66072" d="M181.073,65H154.6c-1,0-1.485.641-2.312,1.511l-8.2,8.572a2.889,2.889,0,0,0,0,3.852l8.222,8.593c.62.643,1.3,1.472,2.293,1.472h26.476a2.756,2.756,0,0,0,2.638-2.861V67.86A2.756,2.756,0,0,0,181.073,65Z" transform="translate(-134.35 -59)" fill="#4b423c"/>
    </g>
    <line id="선_53" data-name="선 53" x2="10" y2="10" transform="translate(262.5 37.5)" fill="none" stroke="#fff" stroke-width="2"/>
    <line id="선_54" data-name="선 54" x1="10" y2="10" transform="translate(262.5 37.5)" fill="none" stroke="#fff" stroke-width="2"/>
  </g>
</svg>
