<svg xmlns="http://www.w3.org/2000/svg" xmlns:xlink="http://www.w3.org/1999/xlink" width="20.635" height="21.824" viewBox="0 0 20.635 21.824">
  <defs>
    <clipPath id="clip-path">
      <rect id="사각형_18278" data-name="사각형 18278" width="20.635" height="21.824" fill="none"/>
    </clipPath>
  </defs>
  <g id="그룹_66718" data-name="그룹 66718" clip-path="url(#clip-path)">
    <path id="패스_66169" data-name="패스 66169" d="M11.577,1.851c-5.427,0-9.827,4.069-9.827,9.09a7.95,7.95,0,0,0,3.68,7.091l.01,0v4.35a.25.25,0,0,0,.4.2L9.565,19.82l.08.034a10.666,10.666,0,0,0,1.932.176c5.427,0,9.827-4.07,9.827-9.09s-4.4-9.09-9.827-9.09" transform="translate(-1.259 -1.332)" fill="#ffd500"/>
    <path id="패스_66170" data-name="패스 66170" d="M10.318,0C4.619,0,0,4.273,0,9.543c0,3.893,1.63,5.751,3.863,7.445l.01.005v4.568a.262.262,0,0,0,.419.21l3.912-2.906.085.036a11.181,11.181,0,0,0,2.028.185c5.7,0,10.318-4.273,10.318-9.544S16.016,0,10.318,0M6.859,11.961A2.155,2.155,0,0,0,9,10.421h1.5A3.579,3.579,0,0,1,6.859,13.4,3.794,3.794,0,0,1,2.971,9.532,3.794,3.794,0,0,1,6.859,5.664,3.584,3.584,0,0,1,10.5,8.7H9.011A2.127,2.127,0,0,0,6.859,7.083,2.336,2.336,0,0,0,4.431,9.532a2.4,2.4,0,0,0,2.428,2.429m9.857,1.291H15.345V10.16a.985.985,0,0,0-1.052-1.095c-.712,0-1.169.436-1.169,1.318v2.87H11.753V5.688h1.371V8.533a1.758,1.758,0,0,1,1.583-.743,1.881,1.881,0,0,1,1.434.584,2.206,2.206,0,0,1,.574,1.616Z" transform="translate(0 0)" fill="#1a1311"/>
  </g>
</svg>
