<svg xmlns="http://www.w3.org/2000/svg" width="93.546" height="83.046" viewBox="0 0 93.546 83.046">
  <g id="그룹_66475" data-name="그룹 66475" transform="translate(-899.227 -412.059)">
    <g id="다각형_5" data-name="다각형 5" transform="translate(904 416.105)" fill="#fff" stroke-linecap="round" stroke-linejoin="round">
      <path d="M 78.77689361572266 75.49999237060547 L 5.223106861114502 75.49999237060547 C 4.035293102264404 75.49999237060547 2.876120090484619 75.17982482910156 1.870919942855835 74.57410430908203 C 0.9283733367919922 74.00612640380859 0.1384933292865753 73.19811248779297 -0.4133066534996033 72.23739624023438 C -0.9651200175285339 71.27668762207031 -1.265066623687744 70.18727874755859 -1.280746698379517 69.08694458007813 C -1.297466635704041 67.9134521484375 -0.9899600148200989 66.75086212158203 -0.3914533257484436 65.72484588623047 L 36.38544082641602 2.6787428855896 C 36.97959899902344 1.66018283367157 37.83303833007813 0.824262797832489 38.85351943969727 0.2613427937030792 C 39.81110763549805 -0.2668838798999786 40.89914703369141 -0.5460838675498962 42 -0.5460838675498962 C 43.10085296630859 -0.5460838675498962 44.18889236450195 -0.2668838798999786 45.14648056030273 0.2613427937030792 C 46.16696166992188 0.824262797832489 47.02040100097656 1.66018283367157 47.61455917358398 2.6787428855896 L 84.39145660400391 65.72484588623047 C 84.98995971679688 66.75084686279297 85.29747772216797 67.91343688964844 85.28076171875 69.0869140625 C 85.26508331298828 70.18726348876953 84.96513366699219 71.27666473388672 84.41332244873047 72.23738098144531 C 83.86151885986328 73.19810485839844 83.07164001464844 74.00611877441406 82.12909698486328 74.57408905029297 C 81.12387847900391 75.17982482910156 79.9647216796875 75.49999237060547 78.77689361572266 75.49999237060547 Z" stroke="none"/>
      <path d="M 42.00000381469727 2.953910827636719 C 40.99374008178711 2.953910827636719 39.98748016357422 3.450035095214844 39.40867233276367 4.442291259765625 L 2.631767272949219 67.48838043212891 C 1.465126037597656 69.48836517333984 2.907730102539063 72 5.223106384277344 72 L 78.77689361572266 72 C 81.09225463867188 72 82.53487396240234 69.48836517333984 81.36821746826172 67.48838043212891 L 44.59134674072266 4.442291259765625 C 44.01252746582031 3.450035095214844 43.00626373291016 2.953910827636719 42.00000381469727 2.953910827636719 M 42 -4.046089172363281 C 45.5428352355957 -4.046089172363281 48.85265350341797 -2.145034790039063 50.63778305053711 0.9151840209960938 L 87.4146728515625 63.96128845214844 C 89.21370697021484 67.04536437988281 89.22660064697266 70.88454437255859 87.44831085205078 73.98061370849609 C 85.67002105712891 77.07669067382813 82.34732818603516 79 78.77689361572266 79 L 5.223106384277344 79 C 1.652694702148438 79 -1.669998168945313 77.07669067382813 -3.448287963867188 73.98063659667969 C -5.226600646972656 70.88458251953125 -5.213729858398438 67.04539489746094 -3.414710998535156 63.96132659912109 L 33.36221694946289 0.9151992797851563 C 35.14728927612305 -2.14501953125 38.45710754394531 -4.046089172363281 42 -4.046089172363281 Z" stroke="none" fill="#5a514c"/>
    </g>
    <rect id="사각형_18218" data-name="사각형 18218" width="5" height="35" rx="2.5" transform="translate(944 434.105)" fill="#90b21a"/>
    <circle id="타원_563" data-name="타원 563" cx="3.5" cy="3.5" r="3.5" transform="translate(943 473.105)" fill="#90b21a"/>
  </g>
</svg>
