<svg xmlns="http://www.w3.org/2000/svg" width="24.001" height="28" viewBox="0 0 24.001 28">
  <g id="icon_방범" transform="translate(-44.728 -423.5)">
    <g id="타원_402" data-name="타원 402" transform="translate(60.729 439.5) rotate(180)" fill="none" stroke="#5a514c" stroke-width="2">
      <ellipse cx="4" cy="4.25" rx="4" ry="4.25" stroke="none"/>
      <ellipse cx="4" cy="4.25" rx="3" ry="3.25" fill="none"/>
    </g>
    <g id="교차_95" data-name="교차 95" transform="translate(44.678 431.357)" fill="none">
      <path d="M.05-.357a9.414,9.414,0,0,1,.674-3.5H23.07a9.415,9.415,0,0,1,.674,3.5c0,5.8-5.3,10.5-11.847,10.5S.05,5.441.05-.357Z" stroke="none"/>
      <path d="M 2.203506469726563 -1.857399940490723 C 2.101692199707031 -1.365077972412109 2.050399780273438 -0.8637146949768066 2.050399780273438 -0.3572998046875 C 2.050399780273438 4.329780578613281 6.467611312866211 8.143000602722168 11.8971004486084 8.143000602722168 C 17.32659149169922 8.143000602722168 21.74380111694336 4.329780578613281 21.74380111694336 -0.3572998046875 C 21.74380111694336 -0.8637199401855469 21.69252014160156 -1.365059852600098 21.59071159362793 -1.857399940490723 L 2.203506469726563 -1.857399940490723 M 0.72467041015625 -3.857399940490723 L 23.06961059570313 -3.857399940490723 C 23.50632095336914 -2.762479782104492 23.74380111694336 -1.584709644317627 23.74380111694336 -0.3572998046875 C 23.74380111694336 5.441400527954102 18.44010162353516 10.14300060272217 11.8971004486084 10.14300060272217 C 5.354999542236328 10.14300060272217 0.0503997802734375 5.441400527954102 0.0503997802734375 -0.3572998046875 C 0.0503997802734375 -1.584709644317627 0.2879009246826172 -2.762479782104492 0.72467041015625 -3.857399940490723 Z" stroke="none" fill="#5a514c"/>
    </g>
    <line id="선_135" data-name="선 135" x1="1.797" y2="1.797" transform="translate(48.404 446.11)" fill="none" stroke="#9ebb3d" stroke-linecap="round" stroke-width="2"/>
    <line id="선_137" data-name="선 137" x2="1.797" y2="1.797" transform="translate(62.033 446.11)" fill="none" stroke="#9ebb3d" stroke-linecap="round" stroke-width="2"/>
    <line id="선_136" data-name="선 136" y2="2.695" transform="translate(56.113 447.805)" fill="none" stroke="#9ebb3d" stroke-linecap="round" stroke-width="2"/>
    <g id="사각형_18211" data-name="사각형 18211" transform="translate(44.729 423.5)" fill="#5a514c" stroke="#5a514c" stroke-width="1">
      <rect width="24" height="2" rx="1" stroke="none"/>
      <rect x="0.5" y="0.5" width="23" height="1" rx="0.5" fill="none"/>
    </g>
  </g>
</svg>
