<svg xmlns="http://www.w3.org/2000/svg" width="23.692" height="28" viewBox="0 0 23.692 28">
  <g id="icon_조명" transform="translate(-44.729 -423.5)">
    <g id="패스_66127" data-name="패스 66127" transform="translate(52.729 426.5)" fill="rgba(255,255,255,0)">
      <path d="M 7 5 L 1 5 L 1 2 C 1 1.448600053787231 1.448600053787231 1 2 1 L 6 1 C 6.551400184631348 1 7 1.448600053787231 7 2 L 7 5 Z" stroke="none"/>
      <path d="M 2 2 L 2 4 L 6 4 L 6 2 L 2 2 M 2 0 L 6 0 C 7.104569911956787 0 8 0.8954300880432129 8 2 L 8 6 L 0 6 L 0 2 C 0 0.8954300880432129 0.8954300880432129 0 2 0 Z" stroke="none" fill="#5a514c"/>
    </g>
    <rect id="사각형_1987" data-name="사각형 1987" width="2" height="5" transform="translate(55.729 423.5)" fill="#5a514c"/>
    <g id="교차_96" data-name="교차 96" transform="translate(61.729 446.5) rotate(180)" fill="none">
      <path d="M.051,6A5.556,5.556,0,0,1,0,5.25,5.13,5.13,0,0,1,5,0a5.129,5.129,0,0,1,5,5.25A5.559,5.559,0,0,1,9.949,6Z" stroke="none"/>
      <path d="M 7.769198417663574 4 C 7.316203117370605 2.826567411422729 6.245623588562012 2 5.000209808349609 2 C 3.754623413085938 2 2.683893203735352 2.826567411422729 2.230834007263184 4 L 7.769198417663574 4 M 9.949379920959473 6 L 0.05062000080943108 6 C 0.01727999933063984 5.755199909210205 0 5.504769802093506 0 5.250279903411865 C 0 2.350399971008301 2.238450050354004 -4.440892098500626e-16 5.000209808349609 -4.440892098500626e-16 C 7.761539936065674 -4.440892098500626e-16 10 2.350399971008301 10 5.250279903411865 C 10 5.504769802093506 9.982700347900391 5.755199909210205 9.949379920959473 6 Z" stroke="none" fill="#5a514c"/>
    </g>
    <g id="교차_95" data-name="교차 95" transform="translate(44.678 431.357)" fill="none">
      <path d="M.171,11.143a9.412,9.412,0,0,1-.12-1.5c0-5.8,5.3-10.5,11.847-10.5s11.846,4.7,11.846,10.5a9.412,9.412,0,0,1-.12,1.5Z" stroke="none"/>
      <path d="M 21.72692680358887 9.142900466918945 C 21.42599105834961 4.687758445739746 17.13248252868652 1.143200159072876 11.89800071716309 1.143200159072876 C 6.663036346435547 1.143200159072876 2.369138717651367 4.687758445739746 2.068176507949829 9.142900466918945 L 21.72692680358887 9.142900466918945 M 23.62386131286621 11.14290046691895 L 0.1712305843830109 11.14290046691895 C 0.09227058291435242 10.65330028533936 0.05130058154463768 10.15244007110596 0.05130058154463768 9.643500328063965 C 0.05130058154463768 3.843900203704834 5.355000495910645 -0.8567997813224792 11.89800071716309 -0.8567997813224792 C 18.44009971618652 -0.8567997813224792 23.74380111694336 3.843900203704834 23.74380111694336 9.643500328063965 C 23.74380111694336 10.15244007110596 23.70281982421875 10.65330028533936 23.62386131286621 11.14290046691895 Z" stroke="none" fill="#5a514c"/>
    </g>
    <line id="선_135" data-name="선 135" x1="1.797" y2="1.797" transform="translate(49.404 446.11)" fill="none" stroke="#9ebb3d" stroke-linecap="round" stroke-width="2"/>
    <line id="선_137" data-name="선 137" x2="1.797" y2="1.797" transform="translate(63.033 446.11)" fill="none" stroke="#9ebb3d" stroke-linecap="round" stroke-width="2"/>
    <line id="선_136" data-name="선 136" y2="2.695" transform="translate(57.113 447.805)" fill="none" stroke="#9ebb3d" stroke-linecap="round" stroke-width="2"/>
  </g>
</svg>
