<svg id="_place" data-name=" place" xmlns="http://www.w3.org/2000/svg" width="24.023" height="22.662" viewBox="0 0 24.023 22.662">
  <rect id="Path" width="20.287" height="20.287" fill="rgba(0,0,0,0)"/>
  <g id="그룹_66571" data-name="그룹 66571" transform="translate(6 1)">
    <g id="Op_component_1" data-name="Op component 1" transform="translate(-780.977 -3165.338)" fill="none">
      <path d="M798,3174.471c0,3.854-4.1,9.171-5.785,11.2a.925.925,0,0,1-1.42,0c-1.69-2.026-5.794-7.342-5.794-11.2a6.5,6.5,0,0,1,13,0Z" stroke="none"/>
      <path d="M 791.4999389648438 3168.000244140625 C 787.9063110351563 3168.000244140625 784.9999389648438 3170.893798828125 784.9999389648438 3174.47119140625 C 784.9999389648438 3178.325439453125 789.1044311523438 3183.64208984375 790.79443359375 3185.667724609375 C 790.980224609375 3185.889404296875 791.2424926757813 3186 791.5047607421875 3186 C 791.7669677734375 3186 792.0292358398438 3185.889404296875 792.2149047851563 3185.667724609375 C 793.8958740234375 3183.64208984375 797.9999389648438 3178.325439453125 797.9999389648438 3174.47119140625 C 797.9999389648438 3170.893798828125 795.0935668945313 3168.000244140625 791.4999389648438 3168.000244140625 M 791.4999389648438 3167.000244140625 C 793.5042114257813 3167.000244140625 795.3875732421875 3167.7763671875 796.8031005859375 3169.185546875 C 798.2197265625 3170.595947265625 798.9999389648438 3172.47314453125 798.9999389648438 3174.47119140625 C 798.9999389648438 3178.461669921875 795.2310791015625 3183.59912109375 792.9844360351563 3186.306396484375 C 792.61376953125 3186.74853515625 792.0756225585938 3187 791.5047607421875 3187 C 790.9339599609375 3187 790.395751953125 3186.74853515625 790.0281982421875 3186.310302734375 C 789.2302856445313 3185.35400390625 787.7010498046875 3183.43017578125 786.40576171875 3181.269287109375 C 784.8093872070313 3178.6064453125 783.9999389648438 3176.319091796875 783.9999389648438 3174.47119140625 C 783.9999389648438 3172.47314453125 784.7801513671875 3170.595947265625 786.19677734375 3169.185546875 C 787.6123046875 3167.7763671875 789.4956665039063 3167.000244140625 791.4999389648438 3167.000244140625 Z" stroke="none" fill="#483e37"/>
    </g>
    <ellipse id="Op_component_2" data-name="Op component 2" cx="2.474" cy="2.587" rx="2.474" ry="2.587" transform="translate(8.012 6.492)" fill="#483e37"/>
  </g>
</svg>
