<svg xmlns="http://www.w3.org/2000/svg" width="35.342" height="35.749" viewBox="0 0 35.342 35.749">
  <g id="icon_구름많음" transform="translate(-1400.4 -255.233)">
    <g id="그룹_66719" data-name="그룹 66719" transform="matrix(0.996, -0.087, 0.087, 0.996, 1412.145, 258.821)">
      <line id="선_307" data-name="선 307" x1="2.031" y1="2.031" transform="matrix(0.985, -0.174, 0.174, 0.985, 18.161, 14.762)" fill="none" stroke="#9cc023" stroke-linecap="round" stroke-linejoin="round" stroke-width="2"/>
      <line id="선_308" data-name="선 308" x1="2.774" y2="0.743" transform="matrix(0.985, -0.174, 0.174, 0.985, 18.169, 5.818)" fill="none" stroke="#9cc023" stroke-linecap="round" stroke-linejoin="round" stroke-width="2"/>
      <line id="선_309" data-name="선 309" x1="0.743" y2="2.774" transform="matrix(0.985, -0.174, 0.174, 0.985, 10.408, -0.992)" fill="none" stroke="#9cc023" stroke-linecap="round" stroke-linejoin="round" stroke-width="2"/>
      <line id="선_310" data-name="선 310" x2="2.031" y2="2.031" transform="matrix(0.985, -0.174, 0.174, 0.985, 0.013, 3.198)" fill="none" stroke="#9cc023" stroke-linecap="round" stroke-linejoin="round" stroke-width="2"/>
      <path id="교차_1" data-name="교차 1" d="M5.713,10.8.279,7.962a6.131,6.131,0,1,1,6.5,4.267Z" transform="translate(3.477 4.801)" fill="none" stroke="#9cc023" stroke-width="2"/>
    </g>
    <path id="패스_66173" data-name="패스 66173" d="M156.741,4437.531s3.538-1.274,3.757,2.561" transform="translate(1806.893 -4157.223) rotate(7)" fill="none" stroke="#9cc023" stroke-linecap="round" stroke-width="1.5"/>
    <circle id="타원_592" data-name="타원 592" cx="9" cy="9" r="9" transform="translate(1409 268)" fill="#eff1f5"/>
    <g id="패스_66174" data-name="패스 66174" transform="translate(1369.933 216.459)" fill="none" stroke-linecap="round" stroke-linejoin="round">
      <path d="M33.467,68.264a3.155,3.155,0,0,0,.25,1.271,3.956,3.956,0,0,0,2.933,1.989H53.306a4.759,4.759,0,1,0,0-9.518,4.454,4.454,0,0,0-.912.09c0-.033,0-.061,0-.09A5.887,5.887,0,0,0,41.18,59.5a5.608,5.608,0,0,0-.378,1.044,4.837,4.837,0,0,0-1.441-.222,4.175,4.175,0,0,0-.647.047,4.75,4.75,0,0,0-4.053,3.973,4.252,4.252,0,0,0,0,1.441A3.178,3.178,0,0,0,33.467,68.264Z" stroke="none"/>
      <path d="M 53.30572891235352 71.52305603027344 C 55.93671035766602 71.52305603027344 58.06700897216797 69.39273071289063 58.06700897216797 66.76168060302734 C 58.06700897216797 64.13536834716797 55.93671035766602 62.00502777099609 53.30572891235352 62.00502777099609 C 52.99396896362305 62.00502777099609 52.68693923950195 62.03336715698242 52.39408874511719 62.09477996826172 C 52.39408874511719 62.06171798706055 52.39881134033203 62.03336715698242 52.39881134033203 62.00502777099609 C 52.39881134033203 58.7504768371582 49.75836944580078 56.1099967956543 46.50387954711914 56.1099967956543 C 44.1468505859375 56.1099967956543 42.11573791503906 57.49873733520508 41.18048858642578 59.50152969360352 C 41.01988983154297 59.83218765258789 40.89707946777344 60.18172836303711 40.80260848999023 60.54544830322266 C 40.34915161132813 60.40372848510742 39.86262893676758 60.32343673706055 39.3619384765625 60.32343673706055 C 39.13993072509766 60.32343673706055 38.9273681640625 60.33761978149414 38.71482086181641 60.37067794799805 C 36.63647842407227 60.64936828613281 34.97851943969727 62.27899932861328 34.66204833984375 64.34320831298828 C 34.61954116821289 64.58412170410156 34.60063934326172 64.83445739746094 34.60063934326172 65.08481597900391 C 34.60063934326172 65.32099151611328 34.62425994873047 65.55716705322266 34.66204833984375 65.78389739990234 C 33.93463134765625 66.36962890625 33.46701049804688 67.26237487792969 33.46701049804688 68.26377868652344 C 33.46701049804688 68.75503540039063 33.56147003173828 69.17543029785156 33.71735000610352 69.53443145751953 C 34.46837997436523 71.24909210205078 36.65063858032227 71.52305603027344 36.65063858032227 71.52305603027344 L 53.30572891235352 71.52305603027344 M 53.30572891235352 74.52305603027344 L 36.65063858032227 74.52305603027344 C 36.52571105957031 74.52305603027344 36.40089797973633 74.5152587890625 36.27693939208984 74.49968719482422 C 35.88053131103516 74.44992828369141 32.3637809753418 73.92155456542969 30.96938896179199 70.73804473876953 C 30.96810913085938 70.73513031005859 30.96682929992676 70.73220062255859 30.9655590057373 70.72927093505859 C 30.63475036621094 69.96739196777344 30.46701049804688 69.13787841796875 30.46701049804688 68.26377868652344 C 30.46701049804688 66.96240234375 30.87232398986816 65.71944427490234 31.61090850830078 64.68489837646484 C 31.62559509277344 64.40116882324219 31.65599250793457 64.12363433837891 31.70179557800293 63.8558235168457 C 31.95804405212402 62.23227310180664 32.74739074707031 60.70285034179688 33.9268684387207 59.5457878112793 C 35.10727310180664 58.38783264160156 36.65396499633789 57.6270866394043 38.28534317016602 57.4014778137207 C 38.50238037109375 57.3687629699707 38.72105407714844 57.34651947021484 38.94598770141602 57.33439636230469 C 39.63418960571289 56.21592330932617 40.56367492675781 55.2611083984375 41.67409133911133 54.53936004638672 C 43.11275100708008 53.60426712036133 44.78285980224609 53.1099967956543 46.50387954711914 53.1099967956543 C 50.42067718505859 53.1099967956543 53.7542724609375 55.65463638305664 54.93827056884766 59.17766189575195 C 58.4367561340332 59.92897415161133 61.06700897216797 63.04407501220703 61.06700897216797 66.76168060302734 C 61.06700897216797 71.04132080078125 57.58530807495117 74.52305603027344 53.30572891235352 74.52305603027344 Z" stroke="none" fill="#5a514c"/>
    </g>
  </g>
</svg>
