<svg xmlns="http://www.w3.org/2000/svg" width="43.825" height="42.624" viewBox="0 0 43.825 42.624">
  <g id="그룹_65699" data-name="그룹 65699" transform="translate(26.56 -2.054) rotate(47)">
    <path id="패스_65843" data-name="패스 65843" d="M24.052,19.925l.5-.881a1.528,1.528,0,0,0-.5-2.018,1.449,1.449,0,0,0-1.111-.147,1.493,1.493,0,0,0-.86.7l-.5.881-4.837-2.825.108-.587-.108-.55,4.837-2.862.5.881a1.558,1.558,0,0,0,2.007.587,1.585,1.585,0,0,0,.466-2.018l-.5-.917,1.039-.624a1.493,1.493,0,0,0,.573-2.018,1.572,1.572,0,0,0-.968-.7,2.648,2.648,0,0,0-1,.184L22.619,7.6l-.5-.881a1.557,1.557,0,0,0-.932-.734,2.6,2.6,0,0,0-1.039.183,1.5,1.5,0,0,0-.537,2.018l.5.881-4.766,2.862a3.775,3.775,0,0,0-1-.55V5.651h1.039a1.432,1.432,0,0,0,1.433-1.468,1.455,1.455,0,0,0-1.433-1.468H14.341V1.468A1.432,1.432,0,0,0,12.908,0a1.455,1.455,0,0,0-1.433,1.468V2.715h-1A1.455,1.455,0,0,0,9.038,4.183a1.432,1.432,0,0,0,1.433,1.468h1v5.724a4.918,4.918,0,0,0-.967.514l-4.8-2.825.5-.881a1.412,1.412,0,0,0,.143-1.137,1.517,1.517,0,0,0-.681-.881,1.605,1.605,0,0,0-1.111-.147,1.322,1.322,0,0,0-.824.7L3.2,7.6,2.158,7.009a1.205,1.205,0,0,0-1.111-.147,1.364,1.364,0,0,0-.86.661A1.5,1.5,0,0,0,.725,9.541l1.039.624-.5.881a1.579,1.579,0,0,0-.179,1.064A1.663,1.663,0,0,0,1.8,13.1a1.47,1.47,0,0,0,1.935-.587l.538-.881,4.8,2.862L9,15.045l.072.55v.037l-4.8,2.825-.538-.881a1.323,1.323,0,0,0-.824-.7,1.323,1.323,0,0,0-1.111.147,1.558,1.558,0,0,0-.681.844,1.479,1.479,0,0,0,.143,1.174l.5.881-1.039.661A1.5,1.5,0,0,0,.187,22.6a1.587,1.587,0,0,0,1.971.514L3.2,22.457l.538.917a1.455,1.455,0,0,0,1.935.55,1.489,1.489,0,0,0,.717-.954,1.445,1.445,0,0,0-.179-1.028l-.5-.954,4.8-2.825a3.179,3.179,0,0,0,.967.55v5.724h-1a1.455,1.455,0,0,0-1.433,1.468,1.4,1.4,0,0,0,1.433,1.431h1v1.284a1.4,1.4,0,0,0,1.433,1.431,1.38,1.38,0,0,0,1.433-1.431V27.337h1.039a1.4,1.4,0,0,0,1.433-1.431,1.455,1.455,0,0,0-1.433-1.468H14.341V18.714a3.139,3.139,0,0,0,1-.587l4.766,2.862-.5.954a1.479,1.479,0,0,0,.537,1.982,1.588,1.588,0,0,0,1.971-.55l.5-.917,1.075.661a1.538,1.538,0,0,0,1.971-.55,1.466,1.466,0,0,0,.108-1.1,1.3,1.3,0,0,0-.681-.881Zm-12.721-4.88a1.61,1.61,0,0,1,1.577-1.614,1.587,1.587,0,0,1,1.577,1.614,1.565,1.565,0,0,1-1.577,1.615A1.586,1.586,0,0,1,11.332,15.045Z" transform="translate(-1.622 4.751)" fill="#5a514c"/>
    <path id="패스_65845" data-name="패스 65845" d="M10.9,9l.227-.4a.835.835,0,0,0,.065-.53.7.7,0,0,0-.308-.381.658.658,0,0,0-.5-.066.676.676,0,0,0-.39.315l-.227.4L7.592,7.058V7.042l.032-.249-.032-.248L9.767,5.252l.227.4a.708.708,0,0,0,.893.265.75.75,0,0,0,.325-.447A.746.746,0,0,0,11.131,5L10.9,4.589l.487-.282a.71.71,0,0,0,.227-.911.65.65,0,0,0-.39-.3.6.6,0,0,0-.5.066l-.471.265-.244-.4a.643.643,0,0,0-.373-.315.585.585,0,0,0-.5.066.684.684,0,0,0-.308.4.635.635,0,0,0,.065.514l.244.4L6.943,5.368a1.969,1.969,0,0,0-.455-.232V2.552h.471a.648.648,0,0,0,.649-.663.658.658,0,0,0-.649-.663H6.488V.663A.648.648,0,0,0,5.839,0,.658.658,0,0,0,5.19.663v.563H4.735a.658.658,0,0,0-.649.663.648.648,0,0,0,.649.663H5.19V5.136a1.889,1.889,0,0,0-.438.249L2.576,4.092l.244-.4a.674.674,0,0,0-.244-.911A.8.8,0,0,0,2.105,2.7a.662.662,0,0,0-.422.331l-.227.4L.985,3.165A.869.869,0,0,0,.5,3.082.725.725,0,0,0,.076,3.4a.711.711,0,0,0-.049.514.627.627,0,0,0,.308.4l.471.282L.563,5a.691.691,0,0,0,.243.911.667.667,0,0,0,.877-.265l.243-.4L4.118,6.545l-.049.248.049.265L1.927,8.334l-.243-.4a.6.6,0,0,0-.373-.315.6.6,0,0,0-.5.066A.678.678,0,0,0,.563,8.6L.807,9l-.471.3a.588.588,0,0,0-.308.4.711.711,0,0,0,.049.514.715.715,0,0,0,.893.232l.487-.3.227.414a.641.641,0,0,0,.877.249.658.658,0,0,0,.26-.895l-.244-.431L4.751,8.185a1.55,1.55,0,0,0,.438.265v2.585H4.735a.658.658,0,0,0-.649.663.634.634,0,0,0,.649.646H5.19v.58a.634.634,0,0,0,.649.646.624.624,0,0,0,.649-.646v-.58h.471a.634.634,0,0,0,.649-.646.658.658,0,0,0-.649-.663H6.488V8.45A1.35,1.35,0,0,0,6.943,8.2L9.134,9.477l-.244.414a.711.711,0,0,0-.081.48.672.672,0,0,0,.325.431.647.647,0,0,0,.877-.249l.244-.414.471.3a.657.657,0,0,0,.649-1.143Zm-5.779-2.2a.722.722,0,1,1,1.445,0,.722.722,0,1,1-1.445,0Z" transform="translate(25.979 11.532)" fill="#9cc023"/>
  </g>
</svg>
