<svg xmlns="http://www.w3.org/2000/svg" width="24" height="19.21" viewBox="0 0 24 19.21">
  <g id="icon" transform="translate(8 0.5)">
    <g id="사각형_17565" data-name="사각형 17565" transform="translate(0 -0.5)" fill="#eff1f5" stroke="#4b423c" stroke-width="2">
      <path d="M2,0H12a2,2,0,0,1,2,2V19a0,0,0,0,1,0,0H0a0,0,0,0,1,0,0V2A2,2,0,0,1,2,0Z" stroke="none"/>
      <rect x="1" y="1" width="12" height="17" rx="1" fill="none"/>
    </g>
    <g id="사각형_17567" data-name="사각형 17567" transform="translate(4.064 4)" fill="#fff" stroke="#4b423c" stroke-width="2">
      <rect width="2" height="3" stroke="none"/>
      <rect x="1" y="1" height="1" fill="none"/>
    </g>
    <g id="사각형_17571" data-name="사각형 17571" transform="translate(7.571 4)" fill="#fff" stroke="#4b423c" stroke-width="2">
      <rect width="2" height="3" stroke="none"/>
      <rect x="1" y="1" height="1" fill="none"/>
    </g>
    <g id="사각형_17568" data-name="사각형 17568" transform="translate(4.064 8)" fill="#fff" stroke="#4b423c" stroke-width="2">
      <rect width="2" height="3" stroke="none"/>
      <rect x="1" y="1" height="1" fill="none"/>
    </g>
    <g id="사각형_17570" data-name="사각형 17570" transform="translate(7.571 8)" fill="#fff" stroke="#4b423c" stroke-width="2">
      <rect width="2" height="3" stroke="none"/>
      <rect x="1" y="1" height="1" fill="none"/>
    </g>
    <g id="그룹_65883" data-name="그룹 65883" transform="translate(-1346.452 -26)">
      <g id="사각형_17565-2" data-name="사각형 17565" transform="translate(1340.452 29.5)" fill="none" stroke="#4b423c" stroke-width="2">
        <path d="M2,0H8A0,0,0,0,1,8,0V15a0,0,0,0,1,0,0H0a0,0,0,0,1,0,0V2A2,2,0,0,1,2,0Z" stroke="none"/>
        <rect x="1" y="1" width="6" height="13" rx="1" fill="none"/>
      </g>
      <rect id="사각형_17718" data-name="사각형 17718" width="24" height="2" transform="translate(1338.452 42.71)" fill="#4b423c"/>
      <g id="사각형_17781" data-name="사각형 17781" transform="translate(1344.141 33.5)" fill="#fff" stroke="#4b423c" stroke-width="2">
        <rect width="2" height="2" stroke="none"/>
        <rect x="1" y="1" fill="none"/>
      </g>
      <g id="사각형_17782" data-name="사각형 17782" transform="translate(1344.141 36.5)" fill="#fff" stroke="#4b423c" stroke-width="2">
        <rect width="2" height="2" stroke="none"/>
        <rect x="1" y="1" fill="none"/>
      </g>
    </g>
  </g>
</svg>
