<svg xmlns="http://www.w3.org/2000/svg" width="33.451" height="34.5" viewBox="0 0 33.451 34.5">
  <g id="icon_가사청소" transform="translate(-1498.984 -155)">
    <g id="사각형_18320" data-name="사각형 18320" transform="translate(1513 155)" fill="none" stroke="#5a514c" stroke-width="2">
      <rect width="6" height="18" rx="3" stroke="none"/>
      <rect x="1" y="1" width="4" height="16" rx="2" fill="none"/>
    </g>
    <g id="합치기_5" data-name="합치기 5" transform="translate(1502 168)" fill="#eff1f5">
      <path d="M 26.99990081787109 11.00059986114502 L 1.000000357627869 11.00059986114502 L 1.000000357627869 6.00029993057251 C 1.000000357627869 5.449009895324707 1.448510408401489 5.000499725341797 1.999800443649292 5.000499725341797 L 8.296200752258301 5.000499725341797 L 9.296200752258301 5.000499725341797 L 9.296200752258301 4.000499725341797 L 9.296200752258301 1.999799966812134 C 9.296200752258301 1.448509931564331 9.744709968566895 0.9999999403953552 10.29600048065186 0.9999999403953552 L 17.70300102233887 0.9999999403953552 C 18.25479125976563 0.9999999403953552 18.70370101928711 1.448509931564331 18.70370101928711 1.999799966812134 L 18.70370101928711 4.000499725341797 L 18.70370101928711 5.000499725341797 L 19.70370101928711 5.000499725341797 L 25.99920082092285 5.000499725341797 C 26.55099105834961 5.000499725341797 26.99990081787109 5.449009895324707 26.99990081787109 6.00029993057251 L 26.99990081787109 11.00059986114502 Z" stroke="none"/>
      <path d="M 25.99966621398926 10.00059986114502 L 25.99920082092285 6.000499725341797 L 19.70370101928711 6.000499725341797 L 17.70370101928711 6.000499725341797 L 17.70370101928711 4.000499725341797 L 17.70300102233887 1.99999988079071 L 10.2962007522583 1.999799966812134 L 10.2962007522583 4.000499725341797 L 10.2962007522583 6.000499725341797 L 8.296200752258301 6.000499725341797 L 2.000000476837158 6.00029993057251 L 2.000000476837158 10.00059986114502 L 25.99966621398926 10.00059986114502 M 27.99990081787109 12.00059986114502 L 4.089355343239731e-07 12.00059986114502 L 4.089355343239731e-07 6.00029993057251 C 4.089355343239731e-07 4.895999908447266 0.8955004215240479 4.000499725341797 1.999800443649292 4.000499725341797 L 8.296200752258301 4.000499725341797 L 8.296200752258301 1.999799966812134 C 8.296200752258301 0.8954999446868896 9.191699981689453 -6.942749308791463e-08 10.29600048065186 -6.942749308791463e-08 L 17.70300102233887 -6.942749308791463e-08 C 18.80820083618164 -6.942749308791463e-08 19.70370101928711 0.8954999446868896 19.70370101928711 1.999799966812134 L 19.70370101928711 4.000499725341797 L 25.99920082092285 4.000499725341797 C 27.10440063476563 4.000499725341797 27.99990081787109 4.895999908447266 27.99990081787109 6.00029993057251 L 27.99990081787109 12.00059986114502 Z" stroke="none" fill="#9cc023"/>
    </g>
    <path id="패스_66284" data-name="패스 66284" d="M590.337,4315l-4.587,7.645h9.428l2.038-2.257,1.529,2.257h17.072L612,4315" transform="translate(915 -4134.144)" fill="none" stroke="#5a514c" stroke-width="2"/>
    <line id="선_354" data-name="선 354" x2="1.019" y2="3.058" transform="translate(1522.918 182.385)" fill="none" stroke="#5a514c" stroke-linecap="round" stroke-width="2"/>
    <line id="선_356" data-name="선 356" x1="1.019" y2="3.058" transform="translate(1507.63 182.385)" fill="none" stroke="#5a514c" stroke-linecap="round" stroke-width="2"/>
    <line id="선_355" data-name="선 355" y2="3.058" transform="translate(1515.784 182.385)" fill="none" stroke="#5a514c" stroke-linecap="round" stroke-width="2"/>
  </g>
</svg>
