<svg xmlns="http://www.w3.org/2000/svg" width="33.25" height="34.308" viewBox="0 0 33.25 34.308">
  <g id="icon_공유키친" transform="translate(-181.635 -682.916)">
    <g id="그룹_66759" data-name="그룹 66759" transform="translate(182.635 693.891)">
      <line id="선_328" data-name="선 328" y1="6.022" transform="translate(4.183 3.202)" fill="none" stroke="#5a514c" stroke-linecap="round" stroke-linejoin="round" stroke-width="2"/>
      <g id="그룹_66758" data-name="그룹 66758" transform="translate(2.226)">
        <line id="선_329" data-name="선 329" x2="14.567" transform="translate(0 3.202)" fill="none" stroke="#5a514c" stroke-linecap="round" stroke-linejoin="round" stroke-width="2"/>
        <path id="패스_66208" data-name="패스 66208" d="M199.983,702.092v-1.259a1.943,1.943,0,0,1,1.944-1.943h3.889a1.943,1.943,0,0,1,1.944,1.943v1.259h9.511" transform="translate(-190.472 -698.89)" fill="none" stroke="#5a514c" stroke-linecap="round" stroke-linejoin="round" stroke-width="2"/>
      </g>
      <path id="패스_66209" data-name="패스 66209" d="M186.818,707.09h-4.183v4.1a1.817,1.817,0,0,0,1.817,1.816h2.366v7.221a3.192,3.192,0,0,0,3.192,3.192h16.5a3.192,3.192,0,0,0,3.192-3.192v-14.55" transform="translate(-182.635 -701.086)" fill="none" stroke="#5a514c" stroke-linecap="round" stroke-linejoin="round" stroke-width="2"/>
      <path id="패스_66210" data-name="패스 66210" d="M222.644,707.765h4.184v4.1a1.817,1.817,0,0,1-1.818,1.817h-.775" transform="translate(-195.577 -701.761)" fill="none" stroke="#5a514c" stroke-linecap="round" stroke-linejoin="round" stroke-width="2"/>
      <line id="선_330" data-name="선 330" y2="7.524" transform="translate(23.987 7.355)" fill="none" stroke="#5a514c" stroke-linecap="round" stroke-linejoin="round" stroke-width="2"/>
      <line id="선_331" data-name="선 331" y2="1.564" transform="translate(23.987 17.182)" fill="none" stroke="#5a514c" stroke-linecap="round" stroke-linejoin="round" stroke-width="2"/>
    </g>
    <g id="그룹_66766" data-name="그룹 66766" transform="translate(190.633 683.916)">
      <g id="그룹_66767" data-name="그룹 66767" transform="translate(1)">
        <path id="패스_66200" data-name="패스 66200" d="M121.123,197.957c0,1.158-1.364,1.158-1.364,2.315s1.364,1.158,1.364,2.315-1.364,1.158-1.364,2.315" transform="translate(-113.621 -197.957)" fill="none" stroke="#9cc023" stroke-linecap="round" stroke-linejoin="round" stroke-width="2"/>
        <path id="패스_66211" data-name="패스 66211" d="M121.123,197.957c0,1.158-1.364,1.158-1.364,2.315s1.364,1.158,1.364,2.315-1.364,1.158-1.364,2.315" transform="translate(-107.621 -197.957)" fill="none" stroke="#9cc023" stroke-linecap="round" stroke-linejoin="round" stroke-width="2"/>
        <path id="패스_66201" data-name="패스 66201" d="M110.809,197.957c0,1.158-1.364,1.158-1.364,2.315s1.364,1.158,1.364,2.315-1.364,1.158-1.364,2.315" transform="translate(-109.445 -197.957)" fill="none" stroke="#9cc023" stroke-linecap="round" stroke-linejoin="round" stroke-width="2"/>
      </g>
    </g>
  </g>
</svg>
