<svg xmlns="http://www.w3.org/2000/svg" width="35" height="32.5" viewBox="0 0 35 32.5">
  <g id="icon_랜선집들이" transform="translate(0.755 0.568)">
    <g id="패스_66323" data-name="패스 66323" transform="translate(-0.755 -0.568)" fill="none">
      <path d="M3,0H32a3,3,0,0,1,3,3V21a3,3,0,0,1-3,3H3a3,3,0,0,1-3-3V3A3,3,0,0,1,3,0Z" stroke="none"/>
      <path d="M 3 2 C 2.448600769042969 2 2 2.448600769042969 2 3 L 2 21 C 2 21.55139923095703 2.448600769042969 22 3 22 L 32 22 C 32.55139923095703 22 33 21.55139923095703 33 21 L 33 3 C 33 2.448600769042969 32.55139923095703 2 32 2 L 3 2 M 3 0 L 32 0 C 33.6568489074707 0 35 1.3431396484375 35 3 L 35 21 C 35 22.65685081481934 33.6568489074707 24 32 24 L 3 24 C 1.343151092529297 24 0 22.65685081481934 0 21 L 0 3 C 0 1.3431396484375 1.343151092529297 0 3 0 Z" stroke="none" fill="#5a514c"/>
    </g>
    <line id="선_296" data-name="선 296" y2="9" transform="translate(16.745 21.932)" fill="none" stroke="#5a514c" stroke-width="2"/>
    <line id="선_297" data-name="선 297" x2="22" transform="translate(5.745 30.932)" fill="none" stroke="#5a514c" stroke-linecap="round" stroke-width="2"/>
    <g id="그룹_66712" data-name="그룹 66712" transform="translate(535.045 -2420.542)">
      <path id="패스_66160" data-name="패스 66160" d="M-518.382,2424.974l5.463,5.462v7.763h-10.925v-7.763Z" fill="none" stroke="#9cc023" stroke-linecap="round" stroke-linejoin="round" stroke-width="2"/>
      <path id="패스_66161" data-name="패스 66161" d="M-488.361,2522.25v-5.027h3.163v5.027" transform="translate(-31.602 -84.051)" fill="none" stroke="#9cc023" stroke-linecap="round" stroke-linejoin="round" stroke-width="2"/>
    </g>
  </g>
</svg>
