<svg xmlns="http://www.w3.org/2000/svg" width="1077.9" height="921.519" viewBox="0 0 1077.9 921.519">
  <g id="_테마눈" data-name="#테마눈" transform="translate(-352.424 -84.233)">
    <g id="테마_눈" data-name="테마 눈" transform="translate(252.871 30.075)">
      <path id="패스_65844" data-name="패스 65844" d="M62.851,20.626a3.246,3.246,0,0,0-.349-2.709,3.191,3.191,0,0,0-2.1-1.574,3.042,3.042,0,0,0-2.622.263L55.16,18.179l-1.224-2.272c-.874-1.661-3.146-1.923-4.894-1.224a3.724,3.724,0,0,0-1.224,4.807l1.311,2.1-11.8,6.817a6.871,6.871,0,0,0-2.36-1.311V13.46h2.535a3.328,3.328,0,0,0,3.408-3.5,3.378,3.378,0,0,0-3.408-3.5H34.971V3.5A3.549,3.549,0,0,0,31.563,0a3.451,3.451,0,0,0-3.5,3.5V6.468H25.445a3.361,3.361,0,0,0-3.321,3.5,3.31,3.31,0,0,0,3.321,3.5h2.622V27.094a7.293,7.293,0,0,0-2.447,1.311L13.908,21.588l1.223-2.1a3.636,3.636,0,0,0-1.223-4.807c-2.273-.961-4.021-.35-4.807,1.224L7.79,18.179,5.255,16.606a3.812,3.812,0,0,0-2.622-.263A3.355,3.355,0,0,0,.448,17.917a3.236,3.236,0,0,0-.263,2.709,3.19,3.19,0,0,0,1.573,2.1L4.294,24.21,3.07,26.395a3.414,3.414,0,0,0,1.311,4.72,3.983,3.983,0,0,0,4.807-1.223l1.224-2.185,11.711,6.73-.087,1.4.087,1.4-11.711,6.73L9.188,41.69a3.842,3.842,0,0,0-4.807-1.136A3.537,3.537,0,0,0,3.07,45.36l1.224,2.1L1.759,49.032a2.848,2.848,0,0,0-1.573,2.01,3.235,3.235,0,0,0,.263,2.709,3.807,3.807,0,0,0,2.184,1.661,3.054,3.054,0,0,0,2.622-.35L7.79,53.576,9.1,55.761c.961,1.748,3.234,2.01,4.894,1.223a3.656,3.656,0,0,0,1.137-4.719L13.908,50.08l11.711-6.817a9.426,9.426,0,0,0,2.447,1.4V58.208H25.445a3.31,3.31,0,0,0-3.321,3.5,3.361,3.361,0,0,0,3.321,3.5h2.622v2.972a3.4,3.4,0,0,0,3.5,3.5,3.489,3.489,0,0,0,3.408-3.5V65.2h2.535a3.378,3.378,0,0,0,3.408-3.5,3.328,3.328,0,0,0-3.408-3.5H34.971V44.662a8.865,8.865,0,0,0,2.36-1.4l11.8,6.817-1.311,2.185a3.619,3.619,0,0,0,1.311,4.719c2.01.787,3.933.262,4.807-1.223l1.224-2.185,2.622,1.485a2.82,2.82,0,0,0,2.622.35,3.623,3.623,0,0,0,2.1-1.661,3.245,3.245,0,0,0,.349-2.709,3.085,3.085,0,0,0-1.573-2.01l-2.622-1.573,1.311-2.1a3.49,3.49,0,0,0-1.4-4.807,3.549,3.549,0,0,0-4.719,1.224l-1.223,2.185-11.8-6.73.175-1.4-.175-1.4,11.8-6.73,1.223,2.273a3.917,3.917,0,0,0,4.719,1.136,3.371,3.371,0,0,0,1.4-4.72L58.656,24.21l2.622-1.486A3.488,3.488,0,0,0,62.851,20.626ZM27.629,35.834a3.889,3.889,0,1,1,3.846,3.846A3.823,3.823,0,0,1,27.629,35.834Z" transform="matrix(0.469, 0.883, -0.883, 0.469, 195.32, 102.305)" fill="#8d8785" opacity="0.2"/>
      <path id="패스_65856" data-name="패스 65856" d="M42.5,13.947a2.195,2.195,0,0,0-.236-1.832,2.158,2.158,0,0,0-1.419-1.064,2.057,2.057,0,0,0-1.773.178L37.3,12.293l-.827-1.537a2.608,2.608,0,0,0-3.309-.827,2.518,2.518,0,0,0-.827,3.251l.886,1.418-7.979,4.61a4.646,4.646,0,0,0-1.6-.886V9.1h1.714a2.251,2.251,0,0,0,2.3-2.364,2.284,2.284,0,0,0-2.3-2.364H23.647V2.364A2.4,2.4,0,0,0,21.342,0a2.334,2.334,0,0,0-2.364,2.364V4.373H17.205a2.273,2.273,0,0,0-2.246,2.364A2.238,2.238,0,0,0,17.205,9.1h1.773v9.219a4.931,4.931,0,0,0-1.655.886L9.4,14.6l.827-1.418A2.458,2.458,0,0,0,9.4,9.929c-1.537-.65-2.719-.236-3.251.827l-.886,1.537L3.553,11.229a2.577,2.577,0,0,0-1.773-.178A2.269,2.269,0,0,0,.3,12.115a2.188,2.188,0,0,0-.178,1.832,2.157,2.157,0,0,0,1.064,1.419l1.714,1-.827,1.477a2.309,2.309,0,0,0,.886,3.191,2.693,2.693,0,0,0,3.251-.827l.827-1.478,7.919,4.551-.059.946.059.946L7.04,29.727,6.213,28.19a2.6,2.6,0,0,0-3.251-.768,2.391,2.391,0,0,0-.886,3.25L2.9,32.091,1.189,33.155A1.926,1.926,0,0,0,.126,34.514,2.188,2.188,0,0,0,.3,36.346,2.574,2.574,0,0,0,1.78,37.469a2.065,2.065,0,0,0,1.773-.236l1.714-1,.886,1.477a2.515,2.515,0,0,0,3.309.827,2.472,2.472,0,0,0,.769-3.191L9.4,33.864l7.919-4.61a6.374,6.374,0,0,0,1.655.946v9.16H17.205a2.238,2.238,0,0,0-2.246,2.364,2.273,2.273,0,0,0,2.246,2.364h1.773V46.1a2.3,2.3,0,0,0,2.364,2.364,2.359,2.359,0,0,0,2.3-2.364V44.088h1.714a2.284,2.284,0,0,0,2.3-2.364,2.251,2.251,0,0,0-2.3-2.364H23.647V30.2a6,6,0,0,0,1.6-.946l7.979,4.61-.886,1.478a2.447,2.447,0,0,0,.886,3.191,2.537,2.537,0,0,0,3.25-.827l.827-1.477,1.773,1a1.907,1.907,0,0,0,1.773.236,2.45,2.45,0,0,0,1.419-1.123,2.194,2.194,0,0,0,.236-1.832,2.086,2.086,0,0,0-1.064-1.359l-1.773-1.064.887-1.419a2.36,2.36,0,0,0-.946-3.25,2.4,2.4,0,0,0-3.191.827l-.827,1.478-7.978-4.551.118-.946-.118-.946,7.978-4.551.827,1.537a2.649,2.649,0,0,0,3.191.768,2.28,2.28,0,0,0,.946-3.191l-.887-1.477,1.773-1A2.358,2.358,0,0,0,42.5,13.947ZM18.683,24.23a2.63,2.63,0,1,1,2.6,2.6A2.585,2.585,0,0,1,18.683,24.23Z" transform="matrix(0.788, 0.616, -0.616, 0.788, 129.389, 323.512)" fill="#8d8785" opacity="0.2"/>
      <path id="패스_65857" data-name="패스 65857" d="M34.257,11.243a1.769,1.769,0,0,0-.19-1.477,1.739,1.739,0,0,0-1.143-.858,1.658,1.658,0,0,0-1.429.143l-1.429.857L29.4,8.67A2.1,2.1,0,0,0,26.731,8a2.03,2.03,0,0,0-.667,2.62l.715,1.143-6.431,3.716a3.745,3.745,0,0,0-1.286-.715V7.336h1.381A1.814,1.814,0,0,0,22.3,5.431a1.841,1.841,0,0,0-1.858-1.906H19.061V1.906A1.934,1.934,0,0,0,17.2,0,1.881,1.881,0,0,0,15.3,1.906v1.62H13.869a1.832,1.832,0,0,0-1.81,1.906,1.8,1.8,0,0,0,1.81,1.905H15.3v7.431a3.975,3.975,0,0,0-1.334.715L7.581,11.767l.667-1.143A1.982,1.982,0,0,0,7.581,8c-1.239-.524-2.192-.191-2.62.667L4.246,9.909,2.864,9.051a2.078,2.078,0,0,0-1.429-.143,1.829,1.829,0,0,0-1.191.858A1.764,1.764,0,0,0,.1,11.243a1.738,1.738,0,0,0,.857,1.143l1.381.81-.667,1.191a1.861,1.861,0,0,0,.715,2.573,2.171,2.171,0,0,0,2.62-.667L5.675,15.1l6.383,3.668-.048.762.048.762L5.675,23.962l-.667-1.239a2.094,2.094,0,0,0-2.62-.619,1.928,1.928,0,0,0-.715,2.62l.667,1.143-1.381.858a1.552,1.552,0,0,0-.857,1.1A1.763,1.763,0,0,0,.244,29.3a2.075,2.075,0,0,0,1.191.905,1.665,1.665,0,0,0,1.429-.191l1.382-.81.715,1.191a2.027,2.027,0,0,0,2.668.667,1.993,1.993,0,0,0,.619-2.572L7.581,27.3l6.383-3.716a5.138,5.138,0,0,0,1.334.762v7.384H13.869a1.8,1.8,0,0,0-1.81,1.906,1.832,1.832,0,0,0,1.81,1.905H15.3v1.62A1.853,1.853,0,0,0,17.2,39.063a1.9,1.9,0,0,0,1.858-1.906v-1.62h1.381A1.841,1.841,0,0,0,22.3,33.632a1.814,1.814,0,0,0-1.858-1.906H19.061V24.343a4.832,4.832,0,0,0,1.286-.762L26.779,27.3l-.715,1.191a1.973,1.973,0,0,0,.715,2.572,2.045,2.045,0,0,0,2.62-.667l.667-1.191,1.429.81a1.537,1.537,0,0,0,1.429.191,1.975,1.975,0,0,0,1.143-.905,1.769,1.769,0,0,0,.19-1.476,1.681,1.681,0,0,0-.857-1.1l-1.429-.858.715-1.143a1.9,1.9,0,0,0-.762-2.62,1.935,1.935,0,0,0-2.572.667l-.667,1.191-6.431-3.668.1-.762-.1-.762L28.684,15.1l.667,1.239a2.135,2.135,0,0,0,2.572.619,1.838,1.838,0,0,0,.762-2.573L31.971,13.2l1.429-.81A1.9,1.9,0,0,0,34.257,11.243Zm-19.2,8.289a2.12,2.12,0,1,1,2.1,2.1A2.084,2.084,0,0,1,15.06,19.532Z" transform="matrix(0.788, 0.616, -0.616, 0.788, 706.958, 258.676)" fill="#8d8785" opacity="0.2"/>
      <path id="패스_65851" data-name="패스 65851" d="M37.915,12.443a1.958,1.958,0,0,0-.211-1.634,1.925,1.925,0,0,0-1.265-.949,1.835,1.835,0,0,0-1.582.158l-1.582.949L32.537,9.6a2.326,2.326,0,0,0-2.952-.738,2.247,2.247,0,0,0-.738,2.9l.791,1.265-7.118,4.112a4.145,4.145,0,0,0-1.423-.791V8.12h1.529a2.008,2.008,0,0,0,2.056-2.109A2.038,2.038,0,0,0,22.625,3.9H21.1V2.109A2.141,2.141,0,0,0,19.04,0a2.082,2.082,0,0,0-2.109,2.109V3.9H15.349a2.028,2.028,0,0,0-2,2.109,2,2,0,0,0,2,2.109h1.582v8.225a4.4,4.4,0,0,0-1.476.791L8.39,13.023l.738-1.265a2.193,2.193,0,0,0-.738-2.9c-1.371-.58-2.426-.211-2.9.738L4.7,10.967,3.17,10.018a2.3,2.3,0,0,0-1.582-.158,2.024,2.024,0,0,0-1.318.949,1.952,1.952,0,0,0-.158,1.634,1.924,1.924,0,0,0,.949,1.266l1.529.9-.738,1.318a2.06,2.06,0,0,0,.791,2.847,2.4,2.4,0,0,0,2.9-.738l.738-1.318,7.065,4.06-.053.844.053.844L6.281,26.52l-.738-1.371a2.318,2.318,0,0,0-2.9-.685,2.133,2.133,0,0,0-.791,2.9l.738,1.266-1.529.949a1.718,1.718,0,0,0-.949,1.213,1.952,1.952,0,0,0,.158,1.634,2.3,2.3,0,0,0,1.318,1,1.842,1.842,0,0,0,1.582-.211l1.529-.9.791,1.318a2.244,2.244,0,0,0,2.952.738,2.205,2.205,0,0,0,.686-2.847L8.39,30.211,15.455,26.1a5.686,5.686,0,0,0,1.476.844v8.172H15.349a2,2,0,0,0-2,2.109,2.028,2.028,0,0,0,2,2.109h1.582v1.793a2.051,2.051,0,0,0,2.109,2.109A2.1,2.1,0,0,0,21.1,41.124V39.332h1.529a2.038,2.038,0,0,0,2.056-2.109,2.008,2.008,0,0,0-2.056-2.109H21.1V26.942a5.348,5.348,0,0,0,1.423-.844l7.118,4.112-.791,1.318a2.183,2.183,0,0,0,.791,2.847,2.263,2.263,0,0,0,2.9-.738l.738-1.318,1.582.9a1.7,1.7,0,0,0,1.582.211,2.186,2.186,0,0,0,1.265-1,1.958,1.958,0,0,0,.211-1.634,1.861,1.861,0,0,0-.949-1.213l-1.582-.949.791-1.266a2.105,2.105,0,0,0-.844-2.9,2.141,2.141,0,0,0-2.847.738l-.738,1.318-7.118-4.06.105-.844-.105-.844,7.118-4.06.738,1.371a2.363,2.363,0,0,0,2.847.685,2.034,2.034,0,0,0,.844-2.847L35.384,14.6l1.582-.9A2.1,2.1,0,0,0,37.915,12.443ZM16.667,21.617a2.346,2.346,0,1,1,2.32,2.32A2.306,2.306,0,0,1,16.667,21.617Z" transform="matrix(0.788, 0.616, -0.616, 0.788, 411.026, 118.568)" fill="#8d8785" opacity="0.2"/>
      <path id="패스_65853" data-name="패스 65853" d="M33.553,27.124l.7-1.2a2.473,2.473,0,0,0,.2-1.6,2.133,2.133,0,0,0-.949-1.149,1.989,1.989,0,0,0-2.747.749l-.7,1.2L23.362,21.28v-.05l.1-.749-.1-.749,6.694-3.9.7,1.2a2.2,2.2,0,0,0,2.747.8,2.265,2.265,0,0,0,1-1.349,2.209,2.209,0,0,0-.25-1.4l-.7-1.249,1.5-.849a2.115,2.115,0,0,0,.7-2.747,1.994,1.994,0,0,0-1.2-.9,1.881,1.881,0,0,0-1.549.2l-1.449.8-.749-1.2a1.97,1.97,0,0,0-1.149-.949,1.831,1.831,0,0,0-1.548.2,2.07,2.07,0,0,0-.949,1.2,1.881,1.881,0,0,0,.2,1.548l.75,1.2-6.744,3.846a6.107,6.107,0,0,0-1.4-.7V7.693h1.449a1.972,1.972,0,0,0,2-2,2,2,0,0,0-2-2H19.966V2a1.972,1.972,0,0,0-2-2,2,2,0,0,0-2,2V3.7h-1.4a2,2,0,0,0-2,2,1.972,1.972,0,0,0,2,2h1.4v7.793a5.846,5.846,0,0,0-1.349.749l-6.694-3.9.75-1.2a2.009,2.009,0,0,0-.75-2.747,2.494,2.494,0,0,0-1.449-.25,2.031,2.031,0,0,0-1.3,1l-.7,1.2-1.449-.8a2.724,2.724,0,0,0-1.5-.25,2.229,2.229,0,0,0-1.3.949,2.1,2.1,0,0,0-.15,1.549,1.9,1.9,0,0,0,.949,1.2l1.449.849-.749,1.249a2.058,2.058,0,0,0,.749,2.747,2.074,2.074,0,0,0,2.7-.8l.749-1.2,6.744,3.9-.15.749.15.8L5.929,25.126l-.749-1.2a1.833,1.833,0,0,0-1.149-.949,1.882,1.882,0,0,0-1.549.2,2.022,2.022,0,0,0-.749,2.747l.749,1.2-1.449.9a1.78,1.78,0,0,0-.949,1.2,2.1,2.1,0,0,0,.15,1.549,2.228,2.228,0,0,0,2.747.7l1.5-.9.7,1.249a1.994,1.994,0,0,0,2.7.749,1.962,1.962,0,0,0,.8-2.7l-.75-1.3,6.694-3.9a4.789,4.789,0,0,0,1.349.8v7.792h-1.4a2,2,0,0,0-2,2,1.931,1.931,0,0,0,2,1.948h1.4v1.748a1.931,1.931,0,0,0,2,1.948,1.9,1.9,0,0,0,2-1.948V37.215h1.449a1.931,1.931,0,0,0,2-1.948,2,2,0,0,0-2-2H19.966V25.476a4.181,4.181,0,0,0,1.4-.749l6.744,3.846-.75,1.249a2.106,2.106,0,0,0-.25,1.449,2.032,2.032,0,0,0,1,1.3,2.011,2.011,0,0,0,2.7-.749l.749-1.249,1.449.9a2.043,2.043,0,0,0,2.748-.749,1.963,1.963,0,0,0-.75-2.7ZM15.769,20.481a2.223,2.223,0,0,1,4.446,0,2.223,2.223,0,0,1-4.446,0Z" transform="matrix(0.788, 0.616, -0.616, 0.788, 506.995, 54.158)" fill="#9cc023" opacity="0.4"/>
    </g>
    <g id="테마_눈-2" data-name="테마 눈" transform="matrix(-0.966, -0.259, 0.259, -0.966, 973.85, 1146.68)">
      <path id="패스_65844-2" data-name="패스 65844" d="M55.407,18.183A2.861,2.861,0,0,0,55.1,15.8a2.813,2.813,0,0,0-1.849-1.387,2.681,2.681,0,0,0-2.311.232l-2.311,1.387-1.079-2c-.771-1.464-2.774-1.7-4.315-1.079a3.283,3.283,0,0,0-1.079,4.238l1.156,1.849-10.4,6.01a6.057,6.057,0,0,0-2.08-1.156V11.866h2.234a2.934,2.934,0,0,0,3-3.082,2.978,2.978,0,0,0-3-3.082H30.829V3.082a3.128,3.128,0,0,0-3-3.082,3.042,3.042,0,0,0-3.082,3.082V5.7H22.431A2.963,2.963,0,0,0,19.5,8.784a2.918,2.918,0,0,0,2.928,3.082h2.311V23.885a6.429,6.429,0,0,0-2.157,1.156l-10.324-6.01,1.079-1.849a3.2,3.2,0,0,0-1.079-4.238c-2-.847-3.545-.308-4.238,1.079l-1.156,2L4.632,14.639a3.36,3.36,0,0,0-2.311-.232A2.958,2.958,0,0,0,.4,15.8a2.852,2.852,0,0,0-.232,2.388,2.812,2.812,0,0,0,1.387,1.849l2.234,1.31L2.706,23.268a3.01,3.01,0,0,0,1.156,4.161A3.511,3.511,0,0,0,8.1,26.351l1.079-1.926L19.5,30.357l-.077,1.233.077,1.233L9.178,38.755l-1.079-2a3.387,3.387,0,0,0-4.238-1,3.118,3.118,0,0,0-1.156,4.237l1.079,1.849L1.551,43.224A2.511,2.511,0,0,0,.164,45,2.852,2.852,0,0,0,.4,47.384a3.356,3.356,0,0,0,1.926,1.464,2.692,2.692,0,0,0,2.311-.308l2.235-1.31,1.156,1.926a3.279,3.279,0,0,0,4.314,1.079,3.223,3.223,0,0,0,1-4.16l-1.079-1.926,10.324-6.01a8.309,8.309,0,0,0,2.157,1.233V51.314H22.431A2.918,2.918,0,0,0,19.5,54.4a2.963,2.963,0,0,0,2.928,3.082h2.311V60.1a3,3,0,0,0,3.082,3.082,3.076,3.076,0,0,0,3-3.082v-2.62h2.234a2.978,2.978,0,0,0,3-3.082,2.934,2.934,0,0,0-3-3.082H30.829V39.372a7.815,7.815,0,0,0,2.08-1.233l10.4,6.01-1.156,1.926a3.19,3.19,0,0,0,1.156,4.16c1.772.694,3.467.231,4.237-1.079l1.079-1.926,2.311,1.31a2.486,2.486,0,0,0,2.311.308A3.194,3.194,0,0,0,55.1,47.384,2.861,2.861,0,0,0,55.407,45a2.72,2.72,0,0,0-1.387-1.772l-2.312-1.387,1.156-1.849a3.077,3.077,0,0,0-1.233-4.237,3.129,3.129,0,0,0-4.16,1.079l-1.079,1.926-10.4-5.933.154-1.233-.154-1.233,10.4-5.933,1.079,2a3.453,3.453,0,0,0,4.16,1,2.972,2.972,0,0,0,1.233-4.161l-1.156-1.926,2.312-1.31A3.075,3.075,0,0,0,55.407,18.183ZM24.357,31.59a3.429,3.429,0,1,1,3.39,3.39A3.371,3.371,0,0,1,24.357,31.59Z" transform="matrix(0.469, 0.883, -0.883, 0.469, 183.977, 96.602)" fill="#8d8785" opacity="0.2"/>
      <path id="패스_65856-2" data-name="패스 65856" d="M37.465,12.3a1.935,1.935,0,0,0-.208-1.615,1.9,1.9,0,0,0-1.251-.938,1.813,1.813,0,0,0-1.563.157l-1.563.938-.729-1.355a2.3,2.3,0,0,0-2.917-.729,2.22,2.22,0,0,0-.729,2.866l.781,1.25-7.034,4.064a4.1,4.1,0,0,0-1.407-.781V8.023h1.511A1.984,1.984,0,0,0,24.389,5.94a2.014,2.014,0,0,0-2.032-2.084H20.846V2.084A2.115,2.115,0,0,0,18.814,0,2.057,2.057,0,0,0,16.73,2.084V3.855H15.167a2,2,0,0,0-1.98,2.084,1.973,1.973,0,0,0,1.98,2.084H16.73v8.127a4.347,4.347,0,0,0-1.459.781L8.29,12.869l.729-1.25A2.167,2.167,0,0,0,8.29,8.753c-1.355-.573-2.4-.208-2.866.729l-.781,1.355L3.132,9.9a2.272,2.272,0,0,0-1.563-.157,2,2,0,0,0-1.3.938A1.929,1.929,0,0,0,.111,12.3a1.9,1.9,0,0,0,.938,1.251l1.511.886-.729,1.3a2.035,2.035,0,0,0,.781,2.813,2.374,2.374,0,0,0,2.866-.729l.729-1.3,6.981,4.012-.052.834.052.834L6.206,26.206l-.729-1.355a2.29,2.29,0,0,0-2.866-.677,2.108,2.108,0,0,0-.781,2.865l.729,1.251-1.511.938a1.7,1.7,0,0,0-.938,1.2,1.928,1.928,0,0,0,.157,1.615,2.269,2.269,0,0,0,1.3.99,1.82,1.82,0,0,0,1.563-.208l1.511-.885.781,1.3a2.217,2.217,0,0,0,2.917.729,2.179,2.179,0,0,0,.677-2.813l-.729-1.3,6.981-4.064a5.619,5.619,0,0,0,1.459.834V34.7H15.167a1.973,1.973,0,0,0-1.98,2.084,2,2,0,0,0,1.98,2.084H16.73v1.771a2.026,2.026,0,0,0,2.084,2.084,2.08,2.08,0,0,0,2.032-2.084V38.866h1.511a2.014,2.014,0,0,0,2.032-2.084A1.984,1.984,0,0,0,22.357,34.7H20.846V26.623a5.285,5.285,0,0,0,1.407-.834l7.034,4.064-.781,1.3a2.157,2.157,0,0,0,.781,2.813,2.237,2.237,0,0,0,2.865-.729l.729-1.3,1.563.885a1.681,1.681,0,0,0,1.563.208,2.16,2.16,0,0,0,1.251-.99,1.934,1.934,0,0,0,.208-1.615,1.839,1.839,0,0,0-.938-1.2l-1.563-.938.782-1.251a2.08,2.08,0,0,0-.834-2.865A2.116,2.116,0,0,0,32.1,24.9l-.729,1.3-7.033-4.012.1-.834-.1-.834,7.033-4.012L32.1,17.87a2.335,2.335,0,0,0,2.813.677,2.01,2.01,0,0,0,.834-2.813l-.782-1.3,1.563-.886A2.079,2.079,0,0,0,37.465,12.3Zm-21,9.065a2.318,2.318,0,1,1,2.293,2.293A2.279,2.279,0,0,1,16.47,21.36Z" transform="matrix(0.788, 0.616, -0.616, 0.788, 125.855, 291.608)" fill="#8d8785" opacity="0.2"/>
      <path id="패스_65857-2" data-name="패스 65857" d="M30.2,9.911a1.559,1.559,0,0,0-.168-1.3,1.533,1.533,0,0,0-1.008-.756,1.461,1.461,0,0,0-1.26.126l-1.26.756-.588-1.092a1.853,1.853,0,0,0-2.352-.588,1.789,1.789,0,0,0-.588,2.31l.63,1.008-5.67,3.276a3.3,3.3,0,0,0-1.134-.63V6.467h1.218a1.6,1.6,0,0,0,1.638-1.68,1.623,1.623,0,0,0-1.638-1.68H16.8V1.68A1.705,1.705,0,0,0,15.166,0a1.658,1.658,0,0,0-1.68,1.68V3.108h-1.26a1.615,1.615,0,0,0-1.6,1.68,1.59,1.59,0,0,0,1.6,1.68h1.26v6.551a3.5,3.5,0,0,0-1.176.63L6.683,10.373l.588-1.008a1.747,1.747,0,0,0-.588-2.31c-1.092-.462-1.932-.168-2.31.588l-.63,1.092L2.525,7.979a1.831,1.831,0,0,0-1.26-.126,1.612,1.612,0,0,0-1.05.756,1.555,1.555,0,0,0-.126,1.3,1.533,1.533,0,0,0,.756,1.008l1.218.714-.588,1.05a1.64,1.64,0,0,0,.63,2.268,1.914,1.914,0,0,0,2.31-.588L5,13.313l5.627,3.234-.042.672.042.672L5,21.124l-.588-1.092a1.846,1.846,0,0,0-2.31-.546,1.7,1.7,0,0,0-.63,2.31L2.063,22.8.845,23.56a1.369,1.369,0,0,0-.756.966,1.555,1.555,0,0,0,.126,1.3,1.829,1.829,0,0,0,1.05.8,1.467,1.467,0,0,0,1.26-.168l1.218-.714.63,1.05a1.787,1.787,0,0,0,2.352.588,1.757,1.757,0,0,0,.546-2.268l-.588-1.05,5.627-3.276a4.529,4.529,0,0,0,1.176.672v6.509h-1.26a1.59,1.59,0,0,0-1.6,1.68,1.615,1.615,0,0,0,1.6,1.68h1.26v1.428a1.633,1.633,0,0,0,1.68,1.68,1.677,1.677,0,0,0,1.638-1.68V31.329h1.218a1.623,1.623,0,0,0,1.638-1.68,1.6,1.6,0,0,0-1.638-1.68H16.8V21.46a4.26,4.26,0,0,0,1.134-.672l5.67,3.276-.63,1.05a1.739,1.739,0,0,0,.63,2.268,1.8,1.8,0,0,0,2.31-.588l.588-1.05,1.26.714a1.355,1.355,0,0,0,1.26.168,1.741,1.741,0,0,0,1.008-.8,1.559,1.559,0,0,0,.168-1.3,1.482,1.482,0,0,0-.756-.966l-1.26-.756.63-1.008a1.677,1.677,0,0,0-.672-2.31,1.705,1.705,0,0,0-2.268.588l-.588,1.05L19.617,17.89l.084-.672-.084-.672,5.669-3.234.588,1.092a1.882,1.882,0,0,0,2.268.546,1.62,1.62,0,0,0,.672-2.268l-.63-1.05,1.26-.714A1.676,1.676,0,0,0,30.2,9.911ZM13.276,17.218a1.869,1.869,0,1,1,1.848,1.848A1.837,1.837,0,0,1,13.276,17.218Z" transform="matrix(0.788, 0.616, -0.616, 0.788, 635.013, 234.452)" fill="#8d8785" opacity="0.2"/>
      <path id="패스_65851-2" data-name="패스 65851" d="M33.424,10.969a1.726,1.726,0,0,0-.186-1.441,1.7,1.7,0,0,0-1.116-.837,1.617,1.617,0,0,0-1.394.14l-1.394.836-.651-1.208a2.051,2.051,0,0,0-2.6-.651,1.981,1.981,0,0,0-.651,2.556l.7,1.115-6.275,3.625a3.654,3.654,0,0,0-1.255-.7V7.158h1.348A1.77,1.77,0,0,0,21.758,5.3,1.8,1.8,0,0,0,19.945,3.44H18.6V1.859A1.887,1.887,0,0,0,16.785,0a1.835,1.835,0,0,0-1.859,1.859V3.44H13.531A1.787,1.787,0,0,0,11.765,5.3a1.76,1.76,0,0,0,1.766,1.859h1.394v7.251a3.878,3.878,0,0,0-1.3.7L7.4,11.48l.651-1.115A1.933,1.933,0,0,0,7.4,7.809C6.188,7.3,5.258,7.623,4.84,8.459l-.7,1.208L2.794,8.831A2.027,2.027,0,0,0,1.4,8.691a1.784,1.784,0,0,0-1.162.837A1.721,1.721,0,0,0,.1,10.969a1.7,1.7,0,0,0,.837,1.116l1.348.79-.651,1.162a1.816,1.816,0,0,0,.7,2.51A2.118,2.118,0,0,0,4.886,15.9l.651-1.162,6.228,3.579-.046.744.046.744L5.537,23.379,4.886,22.17a2.043,2.043,0,0,0-2.556-.6,1.881,1.881,0,0,0-.7,2.556l.651,1.116-1.348.837A1.515,1.515,0,0,0,.1,27.144a1.72,1.72,0,0,0,.14,1.441,2.024,2.024,0,0,0,1.162.883,1.624,1.624,0,0,0,1.394-.186l1.348-.79.7,1.162a1.978,1.978,0,0,0,2.6.651,1.944,1.944,0,0,0,.6-2.51L7.4,26.632l6.228-3.625a5.013,5.013,0,0,0,1.3.744v7.2H13.531a1.76,1.76,0,0,0-1.766,1.859,1.787,1.787,0,0,0,1.766,1.859h1.394v1.58a1.808,1.808,0,0,0,1.859,1.859A1.856,1.856,0,0,0,18.6,36.253v-1.58h1.348a1.8,1.8,0,0,0,1.813-1.859,1.77,1.77,0,0,0-1.813-1.859H18.6v-7.2a4.714,4.714,0,0,0,1.255-.744l6.275,3.625-.7,1.162a1.925,1.925,0,0,0,.7,2.51,2,2,0,0,0,2.556-.651l.651-1.162,1.394.79a1.5,1.5,0,0,0,1.394.186,1.927,1.927,0,0,0,1.116-.883,1.726,1.726,0,0,0,.186-1.441,1.641,1.641,0,0,0-.836-1.069l-1.394-.837.7-1.116a1.856,1.856,0,0,0-.744-2.556,1.888,1.888,0,0,0-2.51.651l-.651,1.162L21.711,19.8l.093-.744-.093-.744,6.275-3.579.651,1.209a2.083,2.083,0,0,0,2.51.6,1.793,1.793,0,0,0,.744-2.51l-.7-1.162,1.394-.79A1.855,1.855,0,0,0,33.424,10.969ZM14.693,19.056A2.068,2.068,0,1,1,16.738,21.1,2.033,2.033,0,0,1,14.693,19.056Z" transform="matrix(0.788, 0.616, -0.616, 0.788, 374.134, 110.939)" fill="#8d8785" opacity="0.2"/>
      <path id="패스_65853-2" data-name="패스 65853" d="M29.579,23.912l.616-1.057a2.18,2.18,0,0,0,.176-1.409,1.881,1.881,0,0,0-.837-1.013,1.753,1.753,0,0,0-2.422.661L26.5,22.15l-5.9-3.391v-.044l.088-.661-.088-.66,5.9-3.435.617,1.057a1.943,1.943,0,0,0,2.422.7,2,2,0,0,0,.881-1.189A1.947,1.947,0,0,0,30.2,13.3l-.616-1.1L30.9,11.45a1.865,1.865,0,0,0,.617-2.422,1.758,1.758,0,0,0-1.057-.793,1.658,1.658,0,0,0-1.365.176l-1.277.7-.661-1.057a1.736,1.736,0,0,0-1.013-.837,1.614,1.614,0,0,0-1.365.176,1.825,1.825,0,0,0-.837,1.057,1.658,1.658,0,0,0,.176,1.365l.661,1.057-5.945,3.391a5.383,5.383,0,0,0-1.233-.616V6.782h1.277A1.739,1.739,0,0,0,20.639,5.02a1.767,1.767,0,0,0-1.761-1.762H17.6v-1.5A1.739,1.739,0,0,0,15.839,0a1.767,1.767,0,0,0-1.761,1.761v1.5H12.845A1.767,1.767,0,0,0,11.083,5.02a1.739,1.739,0,0,0,1.762,1.761h1.233v6.87a5.154,5.154,0,0,0-1.189.661l-5.9-3.435L7.649,9.82A1.771,1.771,0,0,0,6.988,7.4a2.2,2.2,0,0,0-1.277-.22,1.79,1.79,0,0,0-1.145.881L3.949,9.116l-1.277-.7a2.4,2.4,0,0,0-1.321-.22,1.965,1.965,0,0,0-1.145.837,1.854,1.854,0,0,0-.132,1.365A1.672,1.672,0,0,0,.911,11.45l1.277.748-.661,1.1a1.814,1.814,0,0,0,.661,2.422,1.828,1.828,0,0,0,2.378-.7l.661-1.057,5.945,3.435-.132.66.132.7L5.227,22.15l-.661-1.057a1.616,1.616,0,0,0-1.013-.837,1.659,1.659,0,0,0-1.365.176,1.782,1.782,0,0,0-.661,2.422l.661,1.057L.911,24.7a1.569,1.569,0,0,0-.837,1.057,1.855,1.855,0,0,0,.132,1.365,1.964,1.964,0,0,0,2.422.616l1.321-.793.617,1.1a1.758,1.758,0,0,0,2.378.661,1.73,1.73,0,0,0,.7-2.378l-.661-1.145,5.9-3.435a4.222,4.222,0,0,0,1.189.7v6.869H12.845a1.767,1.767,0,0,0-1.762,1.762,1.7,1.7,0,0,0,1.762,1.718h1.233v1.541a1.7,1.7,0,0,0,1.761,1.717A1.677,1.677,0,0,0,17.6,34.348V32.807h1.277a1.7,1.7,0,0,0,1.761-1.718,1.767,1.767,0,0,0-1.761-1.762H17.6V22.459a3.685,3.685,0,0,0,1.233-.66l5.945,3.391-.661,1.1a1.856,1.856,0,0,0-.22,1.277,1.791,1.791,0,0,0,.881,1.145,1.773,1.773,0,0,0,2.378-.661l.661-1.1,1.277.793a1.8,1.8,0,0,0,2.422-.661,1.731,1.731,0,0,0-.661-2.378ZM13.9,18.055a1.96,1.96,0,0,1,3.919,0,1.96,1.96,0,0,1-3.919,0Z" transform="matrix(0.788, 0.616, -0.616, 0.788, 458.735, 54.158)" fill="#9cc023" opacity="0.4"/>
    </g>
    <g id="테마_눈-3" data-name="테마 눈" transform="matrix(0.966, -0.259, 0.259, 0.966, 524.453, 484.393)">
      <path id="패스_65844-3" data-name="패스 65844" d="M55.407,45a2.861,2.861,0,0,1-.308,2.388,2.813,2.813,0,0,1-1.849,1.387,2.681,2.681,0,0,1-2.311-.232l-2.311-1.387-1.079,2c-.771,1.464-2.774,1.7-4.315,1.079A3.283,3.283,0,0,1,42.155,46l1.156-1.849-10.4-6.01a6.057,6.057,0,0,1-2.08,1.156V51.314h2.234a2.934,2.934,0,0,1,3,3.082,2.978,2.978,0,0,1-3,3.082H30.829V60.1a3.128,3.128,0,0,1-3,3.082A3.042,3.042,0,0,1,24.742,60.1v-2.62H22.431A2.963,2.963,0,0,1,19.5,54.4a2.918,2.918,0,0,1,2.928-3.082h2.311V39.295a6.429,6.429,0,0,1-2.157-1.156l-10.324,6.01L13.339,46a3.2,3.2,0,0,1-1.079,4.238c-2,.847-3.545.308-4.238-1.079l-1.156-2L4.632,48.54a3.36,3.36,0,0,1-2.311.232A2.958,2.958,0,0,1,.4,47.384,2.852,2.852,0,0,1,.164,45a2.812,2.812,0,0,1,1.387-1.849l2.234-1.31L2.706,39.911A3.01,3.01,0,0,1,3.862,35.75,3.511,3.511,0,0,1,8.1,36.829l1.079,1.926L19.5,32.823l-.077-1.233.077-1.233L9.178,24.424l-1.079,2a3.387,3.387,0,0,1-4.238,1,3.118,3.118,0,0,1-1.156-4.237l1.079-1.849L1.551,19.956A2.511,2.511,0,0,1,.164,18.183,2.852,2.852,0,0,1,.4,15.8a3.356,3.356,0,0,1,1.926-1.464,2.692,2.692,0,0,1,2.311.308l2.235,1.31,1.156-1.926a3.279,3.279,0,0,1,4.314-1.079,3.223,3.223,0,0,1,1,4.16l-1.079,1.926,10.324,6.01a8.309,8.309,0,0,1,2.157-1.233V11.866H22.431A2.918,2.918,0,0,1,19.5,8.784,2.963,2.963,0,0,1,22.431,5.7h2.311V3.082A3,3,0,0,1,27.824,0a3.076,3.076,0,0,1,3,3.082V5.7h2.234a2.978,2.978,0,0,1,3,3.082,2.934,2.934,0,0,1-3,3.082H30.829V23.808a7.815,7.815,0,0,1,2.08,1.233l10.4-6.01L42.155,17.1a3.19,3.19,0,0,1,1.156-4.16c1.772-.694,3.467-.231,4.237,1.079l1.079,1.926,2.311-1.31a2.486,2.486,0,0,1,2.311-.308A3.194,3.194,0,0,1,55.1,15.8a2.861,2.861,0,0,1,.308,2.388,2.72,2.72,0,0,1-1.387,1.772l-2.312,1.387,1.156,1.849a3.077,3.077,0,0,1-1.233,4.237,3.129,3.129,0,0,1-4.16-1.079l-1.079-1.926-10.4,5.933.154,1.233-.154,1.233,10.4,5.933,1.079-2a3.453,3.453,0,0,1,4.16-1,2.972,2.972,0,0,1,1.233,4.161l-1.156,1.926,2.312,1.31A3.075,3.075,0,0,1,55.407,45ZM24.357,31.59a3.429,3.429,0,1,0,3.39-3.39A3.371,3.371,0,0,0,24.357,31.59Z" transform="matrix(0.469, -0.883, 0.883, 0.469, 28.64, 222.128)" fill="#8d8785" opacity="0.2"/>
      <path id="패스_65856-3" data-name="패스 65856" d="M37.465,30.426a1.935,1.935,0,0,1-.208,1.615,1.9,1.9,0,0,1-1.251.938,1.813,1.813,0,0,1-1.563-.157l-1.563-.938-.729,1.355a2.3,2.3,0,0,1-2.917.729A2.22,2.22,0,0,1,28.5,31.1l.781-1.25-7.034-4.064a4.1,4.1,0,0,1-1.407.781V34.7h1.511a1.984,1.984,0,0,1,2.032,2.084,2.014,2.014,0,0,1-2.032,2.084H20.846v1.771a2.115,2.115,0,0,1-2.032,2.084,2.057,2.057,0,0,1-2.084-2.084V38.866H15.167a2,2,0,0,1-1.98-2.084,1.973,1.973,0,0,1,1.98-2.084H16.73V26.571a4.347,4.347,0,0,1-1.459-.781L8.29,29.853,9.02,31.1a2.167,2.167,0,0,1-.729,2.866c-1.355.573-2.4.208-2.866-.729l-.781-1.355-1.511.938a2.272,2.272,0,0,1-1.563.157,2,2,0,0,1-1.3-.938,1.929,1.929,0,0,1-.157-1.615,1.9,1.9,0,0,1,.938-1.251l1.511-.886-.729-1.3a2.035,2.035,0,0,1,.781-2.813,2.374,2.374,0,0,1,2.866.729l.729,1.3,6.981-4.012-.052-.834.052-.834L6.206,16.515,5.477,17.87a2.29,2.29,0,0,1-2.866.677,2.108,2.108,0,0,1-.781-2.865l.729-1.251-1.511-.938a1.7,1.7,0,0,1-.938-1.2,1.928,1.928,0,0,1,.157-1.615,2.269,2.269,0,0,1,1.3-.99A1.82,1.82,0,0,1,3.132,9.9l1.511.885.781-1.3a2.217,2.217,0,0,1,2.917-.729,2.179,2.179,0,0,1,.677,2.813l-.729,1.3,6.981,4.064A5.619,5.619,0,0,1,16.73,16.1V8.023H15.167a1.973,1.973,0,0,1-1.98-2.084,2,2,0,0,1,1.98-2.084H16.73V2.084A2.026,2.026,0,0,1,18.814,0a2.08,2.08,0,0,1,2.032,2.084V3.856h1.511a2.014,2.014,0,0,1,2.032,2.084,1.984,1.984,0,0,1-2.032,2.084H20.846V16.1a5.285,5.285,0,0,1,1.407.834l7.034-4.064-.781-1.3a2.157,2.157,0,0,1,.781-2.813,2.237,2.237,0,0,1,2.865.729l.729,1.3L34.444,9.9a1.681,1.681,0,0,1,1.563-.208,2.16,2.16,0,0,1,1.251.99,1.934,1.934,0,0,1,.208,1.615,1.839,1.839,0,0,1-.938,1.2l-1.563.938.782,1.251a2.08,2.08,0,0,1-.834,2.865,2.116,2.116,0,0,1-2.813-.729l-.729-1.3-7.033,4.012.1.834-.1.834,7.033,4.012.729-1.355a2.335,2.335,0,0,1,2.813-.677,2.01,2.01,0,0,1,.834,2.813l-.782,1.3,1.563.886A2.079,2.079,0,0,1,37.465,30.426Zm-21-9.065a2.318,2.318,0,1,0,2.293-2.293A2.279,2.279,0,0,0,16.47,21.361Z" transform="matrix(0.788, -0.616, 0.616, 0.788, 0, 23.119)" fill="#8d8785" opacity="0.2"/>
      <path id="패스_65857-3" data-name="패스 65857" d="M30.2,24.526a1.559,1.559,0,0,1-.168,1.3,1.533,1.533,0,0,1-1.008.756,1.461,1.461,0,0,1-1.26-.126L26.5,25.7l-.588,1.092a1.853,1.853,0,0,1-2.352.588,1.789,1.789,0,0,1-.588-2.31l.63-1.008-5.67-3.276a3.3,3.3,0,0,1-1.134.63v6.551h1.218a1.6,1.6,0,0,1,1.638,1.68,1.623,1.623,0,0,1-1.638,1.68H16.8v1.428a1.705,1.705,0,0,1-1.638,1.68,1.658,1.658,0,0,1-1.68-1.68V31.329h-1.26a1.615,1.615,0,0,1-1.6-1.68,1.59,1.59,0,0,1,1.6-1.68h1.26V21.418a3.5,3.5,0,0,1-1.176-.63L6.683,24.063l.588,1.008a1.747,1.747,0,0,1-.588,2.31c-1.092.462-1.932.168-2.31-.588L3.743,25.7l-1.218.756a1.831,1.831,0,0,1-1.26.126,1.612,1.612,0,0,1-1.05-.756,1.555,1.555,0,0,1-.126-1.3,1.533,1.533,0,0,1,.756-1.008L2.063,22.8l-.588-1.05a1.64,1.64,0,0,1,.63-2.268,1.914,1.914,0,0,1,2.31.588L5,21.124,10.63,17.89l-.042-.672.042-.672L5,13.313,4.415,14.4a1.846,1.846,0,0,1-2.31.546,1.7,1.7,0,0,1-.63-2.31l.588-1.008L.845,10.877a1.369,1.369,0,0,1-.756-.966,1.555,1.555,0,0,1,.126-1.3,1.829,1.829,0,0,1,1.05-.8,1.467,1.467,0,0,1,1.26.168l1.218.714.63-1.05a1.787,1.787,0,0,1,2.352-.588,1.757,1.757,0,0,1,.546,2.268l-.588,1.05,5.627,3.276a4.529,4.529,0,0,1,1.176-.672V6.467h-1.26a1.59,1.59,0,0,1-1.6-1.68,1.615,1.615,0,0,1,1.6-1.68h1.26V1.68A1.633,1.633,0,0,1,15.166,0,1.677,1.677,0,0,1,16.8,1.68V3.108h1.218a1.623,1.623,0,0,1,1.638,1.68,1.6,1.6,0,0,1-1.638,1.68H16.8v6.509a4.26,4.26,0,0,1,1.134.672l5.67-3.276-.63-1.05a1.739,1.739,0,0,1,.63-2.268,1.8,1.8,0,0,1,2.31.588l.588,1.05,1.26-.714a1.355,1.355,0,0,1,1.26-.168,1.741,1.741,0,0,1,1.008.8,1.559,1.559,0,0,1,.168,1.3,1.482,1.482,0,0,1-.756.966l-1.26.756.63,1.008a1.677,1.677,0,0,1-.672,2.31,1.705,1.705,0,0,1-2.268-.588l-.588-1.05-5.669,3.234.084.672-.084.672,5.669,3.234.588-1.092a1.882,1.882,0,0,1,2.268-.546,1.62,1.62,0,0,1,.672,2.268l-.63,1.05,1.26.714A1.676,1.676,0,0,1,30.2,24.526ZM13.276,17.218a1.869,1.869,0,1,0,1.848-1.848A1.837,1.837,0,0,0,13.276,17.218Z" transform="matrix(0.788, -0.616, 0.616, 0.788, 514.259, 86.804)" fill="#8d8785" opacity="0.2"/>
      <path id="패스_65851-3" data-name="패스 65851" d="M33.424,27.144a1.726,1.726,0,0,1-.186,1.441,1.7,1.7,0,0,1-1.116.837,1.617,1.617,0,0,1-1.394-.14l-1.394-.836-.651,1.208a2.051,2.051,0,0,1-2.6.651,1.981,1.981,0,0,1-.651-2.556l.7-1.115-6.275-3.625a3.654,3.654,0,0,1-1.255.7v7.251h1.348a1.77,1.77,0,0,1,1.813,1.859,1.8,1.8,0,0,1-1.813,1.859H18.6v1.58a1.887,1.887,0,0,1-1.813,1.859,1.835,1.835,0,0,1-1.859-1.859v-1.58H13.531a1.787,1.787,0,0,1-1.766-1.859,1.76,1.76,0,0,1,1.766-1.859h1.394V23.7a3.878,3.878,0,0,1-1.3-.7L7.4,26.632l.651,1.115A1.933,1.933,0,0,1,7.4,30.3c-1.209.511-2.138.186-2.556-.651l-.7-1.208-1.348.836a2.027,2.027,0,0,1-1.394.14,1.784,1.784,0,0,1-1.162-.837A1.721,1.721,0,0,1,.1,27.144a1.7,1.7,0,0,1,.837-1.116l1.348-.79-.651-1.162a1.816,1.816,0,0,1,.7-2.51,2.118,2.118,0,0,1,2.556.651l.651,1.162L11.765,19.8l-.046-.744.046-.744L5.537,14.734l-.651,1.209a2.043,2.043,0,0,1-2.556.6,1.881,1.881,0,0,1-.7-2.556l.651-1.116L.935,12.038A1.515,1.515,0,0,1,.1,10.969a1.72,1.72,0,0,1,.14-1.441A2.024,2.024,0,0,1,1.4,8.645a1.624,1.624,0,0,1,1.394.186l1.348.79.7-1.162a1.978,1.978,0,0,1,2.6-.651,1.944,1.944,0,0,1,.6,2.51L7.4,11.48l6.228,3.625a5.013,5.013,0,0,1,1.3-.744v-7.2H13.531A1.76,1.76,0,0,1,11.765,5.3,1.787,1.787,0,0,1,13.531,3.44h1.394V1.859A1.808,1.808,0,0,1,16.785,0,1.856,1.856,0,0,1,18.6,1.859V3.44h1.348A1.8,1.8,0,0,1,21.758,5.3a1.77,1.77,0,0,1-1.813,1.859H18.6v7.2a4.714,4.714,0,0,1,1.255.744l6.275-3.625-.7-1.162a1.925,1.925,0,0,1,.7-2.51,2,2,0,0,1,2.556.651l.651,1.162,1.394-.79a1.5,1.5,0,0,1,1.394-.186,1.927,1.927,0,0,1,1.116.883,1.726,1.726,0,0,1,.186,1.441,1.641,1.641,0,0,1-.836,1.069l-1.394.837.7,1.116a1.856,1.856,0,0,1-.744,2.556,1.888,1.888,0,0,1-2.51-.651l-.651-1.162-6.275,3.579.093.744-.093.744,6.275,3.579.651-1.209a2.083,2.083,0,0,1,2.51-.6,1.793,1.793,0,0,1,.744,2.51l-.7,1.162,1.394.79A1.855,1.855,0,0,1,33.424,27.144ZM14.693,19.056a2.068,2.068,0,1,0,2.045-2.045A2.033,2.033,0,0,0,14.693,19.056Z" transform="matrix(0.788, -0.616, 0.616, 0.788, 251.116, 207.42)" fill="#8d8785" opacity="0.2"/>
      <path id="패스_65853-3" data-name="패스 65853" d="M29.579,12.154l.616,1.057a2.18,2.18,0,0,1,.176,1.409,1.881,1.881,0,0,1-.837,1.013,1.753,1.753,0,0,1-2.422-.661L26.5,13.915l-5.9,3.391v.044l.088.661-.088.66,5.9,3.435.617-1.057a1.943,1.943,0,0,1,2.422-.7,2,2,0,0,1,.881,1.189,1.947,1.947,0,0,1-.22,1.233l-.616,1.1,1.321.748a1.865,1.865,0,0,1,.617,2.422,1.758,1.758,0,0,1-1.057.793,1.658,1.658,0,0,1-1.365-.176l-1.277-.7-.661,1.057a1.736,1.736,0,0,1-1.013.837,1.614,1.614,0,0,1-1.365-.176,1.825,1.825,0,0,1-.837-1.057,1.658,1.658,0,0,1,.176-1.365l.661-1.057L18.834,21.8a5.383,5.383,0,0,1-1.233.616v6.87h1.277a1.739,1.739,0,0,1,1.761,1.761,1.767,1.767,0,0,1-1.761,1.762H17.6v1.5a1.739,1.739,0,0,1-1.762,1.761A1.767,1.767,0,0,1,14.078,34.3v-1.5H12.845a1.767,1.767,0,0,1-1.762-1.762,1.739,1.739,0,0,1,1.762-1.761h1.233v-6.87a5.154,5.154,0,0,1-1.189-.661l-5.9,3.435.661,1.057a1.771,1.771,0,0,1-.661,2.422,2.2,2.2,0,0,1-1.277.22,1.79,1.79,0,0,1-1.145-.881L3.949,26.95l-1.277.7a2.4,2.4,0,0,1-1.321.22,1.965,1.965,0,0,1-1.145-.837,1.854,1.854,0,0,1-.132-1.365,1.672,1.672,0,0,1,.837-1.057l1.277-.748-.661-1.1a1.814,1.814,0,0,1,.661-2.422,1.828,1.828,0,0,1,2.378.7l.661,1.057,5.945-3.435-.132-.66.132-.7L5.227,13.915l-.661,1.057a1.616,1.616,0,0,1-1.013.837,1.659,1.659,0,0,1-1.365-.176,1.782,1.782,0,0,1-.661-2.422l.661-1.057L.911,11.361A1.569,1.569,0,0,1,.074,10.3,1.855,1.855,0,0,1,.206,8.939a1.964,1.964,0,0,1,2.422-.616l1.321.793.617-1.1a1.758,1.758,0,0,1,2.378-.661,1.73,1.73,0,0,1,.7,2.378l-.661,1.145,5.9,3.435a4.222,4.222,0,0,1,1.189-.7V6.737H12.845a1.767,1.767,0,0,1-1.762-1.762,1.7,1.7,0,0,1,1.762-1.718h1.233V1.717A1.7,1.7,0,0,1,15.839,0,1.677,1.677,0,0,1,17.6,1.717V3.258h1.277a1.7,1.7,0,0,1,1.761,1.718,1.767,1.767,0,0,1-1.761,1.762H17.6v6.869a3.685,3.685,0,0,1,1.233.66l5.945-3.391-.661-1.1A1.856,1.856,0,0,1,23.9,8.5a1.791,1.791,0,0,1,.881-1.145,1.773,1.773,0,0,1,2.378.661l.661,1.1,1.277-.793a1.8,1.8,0,0,1,2.422.661,1.731,1.731,0,0,1-.661,2.378ZM13.9,18.011a1.96,1.96,0,0,0,3.919,0,1.96,1.96,0,0,0-3.919,0Z" transform="matrix(0.788, -0.616, 0.616, 0.788, 149.389, 328.394)" fill="#9cc023" opacity="0.4"/>
    </g>
    <g id="테마_눈-4" data-name="테마 눈" transform="translate(942.541 60.842)">
      <path id="패스_65844-4" data-name="패스 65844" d="M38.459,12.621a1.986,1.986,0,0,0-.214-1.658A1.953,1.953,0,0,0,36.962,10a1.861,1.861,0,0,0-1.6.161l-1.6.962L33,9.734a2.36,2.36,0,0,0-2.995-.749,2.279,2.279,0,0,0-.749,2.942l.8,1.283-7.22,4.171a4.2,4.2,0,0,0-1.444-.8V8.236H22.95A2.037,2.037,0,0,0,25.035,6.1,2.067,2.067,0,0,0,22.95,3.958H21.4V2.139A2.171,2.171,0,0,0,19.313,0a2.112,2.112,0,0,0-2.139,2.139V3.958h-1.6A2.057,2.057,0,0,0,13.537,6.1,2.025,2.025,0,0,0,15.57,8.236h1.6v8.343a4.463,4.463,0,0,0-1.5.8L8.51,13.21l.749-1.283A2.225,2.225,0,0,0,8.51,8.985C7.12,8.4,6.05,8.771,5.569,9.734l-.8,1.39-1.551-.962A2.332,2.332,0,0,0,1.611,10a2.053,2.053,0,0,0-1.337.963,1.98,1.98,0,0,0-.161,1.658,1.952,1.952,0,0,0,.963,1.284l1.551.909-.749,1.337a2.089,2.089,0,0,0,.8,2.888,2.437,2.437,0,0,0,2.942-.749l.749-1.337,7.166,4.118-.053.856.053.856L6.371,26.9,5.622,25.51a2.351,2.351,0,0,0-2.942-.7,2.164,2.164,0,0,0-.8,2.941l.749,1.284L1.076,30a1.743,1.743,0,0,0-.963,1.23A1.98,1.98,0,0,0,.274,32.89a2.329,2.329,0,0,0,1.337,1.016,1.869,1.869,0,0,0,1.6-.214l1.551-.909.8,1.337a2.276,2.276,0,0,0,2.995.749,2.237,2.237,0,0,0,.7-2.888L8.51,30.644l7.166-4.171a5.768,5.768,0,0,0,1.5.856v8.289h-1.6a2.025,2.025,0,0,0-2.032,2.139A2.057,2.057,0,0,0,15.57,39.9h1.6v1.818a2.08,2.08,0,0,0,2.139,2.139A2.135,2.135,0,0,0,21.4,41.715V39.9H22.95a2.067,2.067,0,0,0,2.086-2.139,2.037,2.037,0,0,0-2.086-2.139H21.4V27.329a5.425,5.425,0,0,0,1.444-.856l7.22,4.171-.8,1.337a2.214,2.214,0,0,0,.8,2.888A2.3,2.3,0,0,0,33,34.121l.749-1.337,1.6.909a1.726,1.726,0,0,0,1.6.214,2.217,2.217,0,0,0,1.284-1.016,1.986,1.986,0,0,0,.214-1.658A1.888,1.888,0,0,0,37.5,30l-1.6-.963.8-1.284a2.136,2.136,0,0,0-.856-2.941,2.172,2.172,0,0,0-2.888.749L32.2,26.9l-7.22-4.118.107-.856-.107-.856,7.22-4.118.749,1.391a2.4,2.4,0,0,0,2.888.7,2.063,2.063,0,0,0,.856-2.888l-.8-1.337,1.6-.909A2.134,2.134,0,0,0,38.459,12.621ZM16.907,21.927A2.38,2.38,0,1,1,19.26,24.28,2.34,2.34,0,0,1,16.907,21.927Z" transform="matrix(0.469, 0.883, -0.883, 0.469, 158.153, 83.619)" fill="#8d8785" opacity="0.2"/>
      <path id="패스_65856-4" data-name="패스 65856" d="M26.006,8.534a1.343,1.343,0,0,0-.145-1.121,1.32,1.32,0,0,0-.868-.651,1.258,1.258,0,0,0-1.085.109l-1.085.651-.506-.94a1.6,1.6,0,0,0-2.025-.506,1.541,1.541,0,0,0-.506,1.989l.542.868-4.882,2.821a2.843,2.843,0,0,0-.976-.542V5.569h1.049a1.377,1.377,0,0,0,1.41-1.446,1.4,1.4,0,0,0-1.41-1.447H14.47V1.447A1.468,1.468,0,0,0,13.059,0a1.428,1.428,0,0,0-1.447,1.447v1.23H10.528A1.391,1.391,0,0,0,9.154,4.123a1.37,1.37,0,0,0,1.374,1.446h1.085v5.641a3.018,3.018,0,0,0-1.013.542L5.755,8.932l.506-.868a1.5,1.5,0,0,0-.506-1.989c-.94-.4-1.664-.145-1.989.506l-.542.94L2.174,6.871a1.577,1.577,0,0,0-1.085-.109,1.388,1.388,0,0,0-.9.651A1.339,1.339,0,0,0,.077,8.534,1.32,1.32,0,0,0,.728,9.4l1.049.615-.506.9a1.413,1.413,0,0,0,.542,1.953A1.648,1.648,0,0,0,3.8,12.368l.506-.9,4.846,2.785-.036.579.036.579L4.308,18.19,3.8,17.25a1.59,1.59,0,0,0-1.989-.47,1.463,1.463,0,0,0-.542,1.989l.506.868-1.049.651a1.179,1.179,0,0,0-.651.832A1.339,1.339,0,0,0,.186,22.24a1.575,1.575,0,0,0,.9.687,1.264,1.264,0,0,0,1.085-.145l1.049-.615.542.9a1.539,1.539,0,0,0,2.025.506,1.513,1.513,0,0,0,.47-1.953l-.506-.9L10.6,17.9a3.9,3.9,0,0,0,1.013.579v5.605H10.528a1.37,1.37,0,0,0-1.374,1.447,1.391,1.391,0,0,0,1.374,1.446h1.085v1.23a1.407,1.407,0,0,0,1.447,1.447,1.444,1.444,0,0,0,1.41-1.447v-1.23h1.049a1.4,1.4,0,0,0,1.41-1.446,1.377,1.377,0,0,0-1.41-1.447H14.47V18.479a3.668,3.668,0,0,0,.976-.579l4.882,2.821-.542.9a1.5,1.5,0,0,0,.542,1.953,1.552,1.552,0,0,0,1.989-.506l.506-.9,1.085.615a1.167,1.167,0,0,0,1.085.145,1.5,1.5,0,0,0,.868-.687,1.343,1.343,0,0,0,.145-1.121,1.276,1.276,0,0,0-.651-.832l-1.085-.651.543-.868a1.444,1.444,0,0,0-.579-1.989,1.469,1.469,0,0,0-1.953.506l-.506.9-4.882-2.785.072-.579-.072-.579,4.882-2.785.506.94a1.621,1.621,0,0,0,1.953.47,1.4,1.4,0,0,0,.579-1.953l-.543-.9L25.355,9.4A1.443,1.443,0,0,0,26.006,8.534ZM11.432,14.827a1.609,1.609,0,1,1,1.591,1.591A1.582,1.582,0,0,1,11.432,14.827Z" transform="matrix(0.788, 0.616, -0.616, 0.788, 117.81, 218.977)" fill="#8d8785" opacity="0.2"/>
      <path id="패스_65857-4" data-name="패스 65857" d="M20.962,6.879a1.082,1.082,0,0,0-.116-.9,1.064,1.064,0,0,0-.7-.525,1.014,1.014,0,0,0-.874.088l-.874.525-.408-.758A1.286,1.286,0,0,0,16.357,4.9a1.242,1.242,0,0,0-.408,1.6l.437.7L12.451,9.474a2.292,2.292,0,0,0-.787-.437V4.489h.845a1.11,1.11,0,0,0,1.137-1.166,1.127,1.127,0,0,0-1.137-1.166h-.845V1.166A1.184,1.184,0,0,0,10.527,0,1.151,1.151,0,0,0,9.361,1.166v.991H8.486A1.121,1.121,0,0,0,7.379,3.323,1.1,1.1,0,0,0,8.486,4.489h.874V9.037a2.432,2.432,0,0,0-.816.437L4.639,7.2l.408-.7a1.213,1.213,0,0,0-.408-1.6c-.758-.321-1.341-.117-1.6.408L2.6,6.063l-.845-.525a1.271,1.271,0,0,0-.874-.088,1.119,1.119,0,0,0-.729.525,1.079,1.079,0,0,0-.088.9,1.064,1.064,0,0,0,.525.7l.845.5L1.024,8.8a1.139,1.139,0,0,0,.437,1.574,1.328,1.328,0,0,0,1.6-.408l.408-.729,3.906,2.245-.029.466.029.467L3.473,14.662,3.064,13.9a1.281,1.281,0,0,0-1.6-.379,1.18,1.18,0,0,0-.437,1.6l.408.7-.845.525a.95.95,0,0,0-.525.671,1.079,1.079,0,0,0,.088.9,1.27,1.27,0,0,0,.729.554,1.019,1.019,0,0,0,.874-.117l.845-.5.437.729a1.241,1.241,0,0,0,1.632.408,1.219,1.219,0,0,0,.379-1.574L4.639,16.7l3.906-2.274a3.144,3.144,0,0,0,.816.466v4.518H8.486A1.1,1.1,0,0,0,7.379,20.58a1.121,1.121,0,0,0,1.108,1.166h.874v.991A1.134,1.134,0,0,0,10.527,23.9a1.164,1.164,0,0,0,1.137-1.166v-.991h.845a1.127,1.127,0,0,0,1.137-1.166,1.11,1.11,0,0,0-1.137-1.166h-.845V14.9a2.957,2.957,0,0,0,.787-.466L16.386,16.7l-.437.729a1.207,1.207,0,0,0,.437,1.574,1.251,1.251,0,0,0,1.6-.408l.408-.729.874.5a.941.941,0,0,0,.874.117,1.208,1.208,0,0,0,.7-.554,1.082,1.082,0,0,0,.116-.9,1.029,1.029,0,0,0-.525-.671l-.875-.525.437-.7a1.164,1.164,0,0,0-.467-1.6,1.184,1.184,0,0,0-1.574.408l-.408.729-3.935-2.245.058-.467-.058-.466L17.552,9.24,17.96,10a1.306,1.306,0,0,0,1.574.379A1.124,1.124,0,0,0,20,8.8l-.437-.729.875-.5A1.163,1.163,0,0,0,20.962,6.879ZM9.215,11.951A1.3,1.3,0,1,1,10.5,13.234,1.275,1.275,0,0,1,9.215,11.951Z" transform="matrix(0.788, 0.616, -0.616, 0.788, 471.227, 179.303)" fill="#8d8785" opacity="0.2"/>
      <path id="패스_65851-4" data-name="패스 65851" d="M23.2,7.614a1.2,1.2,0,0,0-.129-1,1.178,1.178,0,0,0-.774-.581,1.123,1.123,0,0,0-.968.1l-.968.581-.452-.839A1.423,1.423,0,0,0,18.1,5.42a1.375,1.375,0,0,0-.452,1.774l.484.774L13.78,10.485A2.536,2.536,0,0,0,12.909,10V4.968h.936A1.229,1.229,0,0,0,15.1,3.678a1.247,1.247,0,0,0-1.258-1.291h-.936v-1.1A1.31,1.31,0,0,0,11.651,0,1.274,1.274,0,0,0,10.36,1.291v1.1H9.392A1.241,1.241,0,0,0,8.166,3.678a1.222,1.222,0,0,0,1.226,1.29h.968V10a2.692,2.692,0,0,0-.9.484L5.134,7.969l.452-.774A1.342,1.342,0,0,0,5.134,5.42c-.839-.355-1.484-.129-1.774.452l-.484.839L1.94,6.13a1.407,1.407,0,0,0-.968-.1,1.238,1.238,0,0,0-.806.581,1.194,1.194,0,0,0-.1,1,1.177,1.177,0,0,0,.581.774l.936.548-.452.806a1.26,1.26,0,0,0,.484,1.742,1.47,1.47,0,0,0,1.774-.452l.452-.807,4.323,2.484-.032.516.032.516L3.843,16.228l-.452-.839a1.418,1.418,0,0,0-1.774-.419,1.305,1.305,0,0,0-.484,1.774l.452.774L.649,18.1a1.051,1.051,0,0,0-.581.742,1.194,1.194,0,0,0,.1,1,1.405,1.405,0,0,0,.806.613,1.127,1.127,0,0,0,.968-.129l.936-.548.484.806a1.373,1.373,0,0,0,1.807.452,1.349,1.349,0,0,0,.42-1.742l-.452-.807L9.457,15.97a3.479,3.479,0,0,0,.9.516v5H9.392a1.222,1.222,0,0,0-1.226,1.291,1.241,1.241,0,0,0,1.226,1.29h.968v1.1a1.255,1.255,0,0,0,1.291,1.291,1.288,1.288,0,0,0,1.258-1.291v-1.1h.936a1.247,1.247,0,0,0,1.258-1.29,1.229,1.229,0,0,0-1.258-1.291h-.936v-5a3.272,3.272,0,0,0,.871-.516l4.355,2.516-.484.807a1.336,1.336,0,0,0,.484,1.742,1.385,1.385,0,0,0,1.774-.452l.452-.806.968.548a1.041,1.041,0,0,0,.968.129,1.338,1.338,0,0,0,.774-.613,1.2,1.2,0,0,0,.129-1,1.139,1.139,0,0,0-.581-.742l-.968-.581.484-.774a1.288,1.288,0,0,0-.516-1.774,1.31,1.31,0,0,0-1.742.452l-.452.807L15.07,13.744l.064-.516-.064-.516,4.355-2.484.452.839a1.446,1.446,0,0,0,1.742.419,1.245,1.245,0,0,0,.516-1.742l-.484-.806.968-.548A1.287,1.287,0,0,0,23.2,7.614Zm-13,5.614a1.436,1.436,0,1,1,1.42,1.42A1.411,1.411,0,0,1,10.2,13.227Z" transform="matrix(0.788, 0.616, -0.616, 0.788, 290.145, 93.571)" fill="#8d8785" opacity="0.2"/>
      <path id="패스_65853-4" data-name="패스 65853" d="M20.531,16.6l.428-.734a1.513,1.513,0,0,0,.122-.978,1.305,1.305,0,0,0-.581-.7,1.217,1.217,0,0,0-1.681.458l-.428.734-4.1-2.354v-.031l.061-.458-.061-.458,4.1-2.384.428.734a1.348,1.348,0,0,0,1.681.489,1.386,1.386,0,0,0,.611-.825,1.352,1.352,0,0,0-.153-.856l-.428-.764.917-.52a1.294,1.294,0,0,0,.428-1.681,1.22,1.22,0,0,0-.734-.55,1.151,1.151,0,0,0-.948.122l-.886.489-.459-.734a1.205,1.205,0,0,0-.7-.581,1.12,1.12,0,0,0-.947.122,1.267,1.267,0,0,0-.581.734,1.151,1.151,0,0,0,.122.947l.459.734L13.073,9.9a3.737,3.737,0,0,0-.856-.428V4.707H13.1a1.207,1.207,0,0,0,1.223-1.223A1.226,1.226,0,0,0,13.1,2.262h-.886V1.223A1.207,1.207,0,0,0,10.994,0,1.226,1.226,0,0,0,9.772,1.223V2.262H8.916A1.226,1.226,0,0,0,7.693,3.485,1.207,1.207,0,0,0,8.916,4.707h.856V9.476a3.577,3.577,0,0,0-.825.458L4.851,7.55l.459-.734a1.229,1.229,0,0,0-.459-1.681,1.526,1.526,0,0,0-.886-.153,1.243,1.243,0,0,0-.795.611l-.428.734-.886-.489a1.667,1.667,0,0,0-.917-.153,1.364,1.364,0,0,0-.795.581,1.287,1.287,0,0,0-.092.948,1.161,1.161,0,0,0,.581.734l.886.52-.458.764a1.259,1.259,0,0,0,.458,1.681,1.269,1.269,0,0,0,1.651-.489l.458-.734,4.126,2.384-.092.458.092.489L3.628,15.375l-.458-.734a1.122,1.122,0,0,0-.7-.581,1.152,1.152,0,0,0-.948.122,1.237,1.237,0,0,0-.458,1.681l.458.734-.886.55a1.089,1.089,0,0,0-.581.734,1.287,1.287,0,0,0,.092.948,1.363,1.363,0,0,0,1.681.428l.917-.55.428.764a1.22,1.22,0,0,0,1.651.458,1.2,1.2,0,0,0,.489-1.651l-.459-.795,4.1-2.384a2.93,2.93,0,0,0,.825.489v4.768H8.916A1.226,1.226,0,0,0,7.693,21.58a1.182,1.182,0,0,0,1.223,1.192h.856v1.07a1.181,1.181,0,0,0,1.223,1.192,1.164,1.164,0,0,0,1.223-1.192v-1.07H13.1a1.182,1.182,0,0,0,1.223-1.192A1.226,1.226,0,0,0,13.1,20.357h-.886V15.589a2.558,2.558,0,0,0,.856-.458L17.2,17.484l-.459.764a1.289,1.289,0,0,0-.153.886,1.243,1.243,0,0,0,.611.795,1.231,1.231,0,0,0,1.65-.458l.459-.764.886.55a1.25,1.25,0,0,0,1.681-.459,1.2,1.2,0,0,0-.459-1.651ZM9.649,12.532a1.36,1.36,0,0,1,2.721,0,1.36,1.36,0,0,1-2.721,0Z" transform="matrix(0.788, 0.616, -0.616, 0.788, 348.868, 54.158)" fill="#9cc023" opacity="0.4"/>
    </g>
  </g>
</svg>
