<svg xmlns="http://www.w3.org/2000/svg" width="331.08" height="285.916" viewBox="0 0 331.08 285.916">
  <g id="_테마-눈" data-name="#테마-눈" transform="matrix(0.788, 0.616, -0.616, 0.788, 246.655, -228.171)">
    <path id="패스_65844" data-name="패스 65844" d="M33.067,10.852a1.708,1.708,0,0,0-.184-1.425,1.679,1.679,0,0,0-1.1-.828,1.6,1.6,0,0,0-1.379.138l-1.379.828-.644-1.2A2.029,2.029,0,0,0,25.8,7.725a1.959,1.959,0,0,0-.644,2.529l.69,1.1L19.64,14.944a3.615,3.615,0,0,0-1.241-.69V7.081h1.333a1.751,1.751,0,0,0,1.793-1.839A1.777,1.777,0,0,0,19.732,3.4H18.4V1.839A1.867,1.867,0,0,0,16.606,0a1.816,1.816,0,0,0-1.839,1.839V3.4H13.387a1.768,1.768,0,0,0-1.747,1.839,1.741,1.741,0,0,0,1.747,1.839h1.379v7.173a3.837,3.837,0,0,0-1.287.69L7.317,11.358l.644-1.1a1.913,1.913,0,0,0-.644-2.529c-1.2-.506-2.115-.184-2.529.644l-.69,1.2L2.765,8.737A2.005,2.005,0,0,0,1.385,8.6a1.765,1.765,0,0,0-1.149.828A1.7,1.7,0,0,0,.1,10.852a1.678,1.678,0,0,0,.828,1.1l1.333.782-.644,1.149A1.8,1.8,0,0,0,2.3,16.37a2.1,2.1,0,0,0,2.529-.644l.644-1.15,6.162,3.541-.046.736.046.736L5.478,23.129l-.644-1.2a2.021,2.021,0,0,0-2.529-.6,1.861,1.861,0,0,0-.69,2.529l.644,1.1L.925,25.8A1.5,1.5,0,0,0,.1,26.854a1.7,1.7,0,0,0,.138,1.425,2,2,0,0,0,1.149.874,1.607,1.607,0,0,0,1.379-.184L4.1,28.187l.69,1.149a1.957,1.957,0,0,0,2.575.644,1.923,1.923,0,0,0,.6-2.483l-.644-1.15,6.162-3.587a4.959,4.959,0,0,0,1.287.736v7.127H13.387a1.741,1.741,0,0,0-1.747,1.839A1.768,1.768,0,0,0,13.387,34.3h1.379v1.563a1.788,1.788,0,0,0,1.839,1.839A1.836,1.836,0,0,0,18.4,35.866V34.3h1.333a1.777,1.777,0,0,0,1.793-1.839,1.751,1.751,0,0,0-1.793-1.839H18.4V23.5a4.664,4.664,0,0,0,1.241-.736l6.208,3.587-.69,1.15a1.9,1.9,0,0,0,.69,2.483,1.974,1.974,0,0,0,2.529-.644l.644-1.149,1.379.782a1.484,1.484,0,0,0,1.379.184,1.906,1.906,0,0,0,1.1-.874,1.707,1.707,0,0,0,.184-1.425,1.623,1.623,0,0,0-.828-1.058l-1.38-.828.69-1.1a1.836,1.836,0,0,0-.736-2.529,1.867,1.867,0,0,0-2.483.644l-.644,1.15L21.48,19.589l.092-.736-.092-.736,6.208-3.541.644,1.2a2.061,2.061,0,0,0,2.483.6,1.774,1.774,0,0,0,.736-2.483l-.69-1.149,1.38-.782A1.835,1.835,0,0,0,33.067,10.852Zm-18.531,8a2.046,2.046,0,1,1,2.023,2.023A2.012,2.012,0,0,1,14.536,18.853Z" transform="matrix(0.914, 0.407, -0.407, 0.914, -26.354, 312.827)" fill="#8d8785" opacity="0.2"/>
    <path id="패스_65850" data-name="패스 65850" d="M22.359,7.338a1.155,1.155,0,0,0-.124-.964,1.135,1.135,0,0,0-.746-.56,1.082,1.082,0,0,0-.933.093l-.933.56-.435-.808a1.372,1.372,0,0,0-1.741-.435,1.325,1.325,0,0,0-.435,1.71l.466.746-4.2,2.425a2.444,2.444,0,0,0-.839-.466V4.788h.9a1.184,1.184,0,0,0,1.213-1.244A1.2,1.2,0,0,0,13.343,2.3h-.9V1.244A1.262,1.262,0,0,0,11.228,0,1.228,1.228,0,0,0,9.985,1.244V2.3H9.052A1.2,1.2,0,0,0,7.87,3.545,1.178,1.178,0,0,0,9.052,4.788h.933v4.85a2.594,2.594,0,0,0-.871.466L4.948,7.68l.435-.746a1.293,1.293,0,0,0-.435-1.71c-.809-.342-1.43-.124-1.71.435l-.466.808-.9-.56a1.356,1.356,0,0,0-.933-.093,1.194,1.194,0,0,0-.777.56,1.151,1.151,0,0,0-.093.964,1.135,1.135,0,0,0,.56.746l.9.529-.435.777a1.215,1.215,0,0,0,.466,1.679,1.417,1.417,0,0,0,1.71-.435L3.7,9.856,7.87,12.251l-.031.5.031.5L3.7,15.64l-.435-.809a1.367,1.367,0,0,0-1.71-.4,1.258,1.258,0,0,0-.466,1.71l.435.746-.9.56a1.013,1.013,0,0,0-.56.715,1.151,1.151,0,0,0,.093.964,1.354,1.354,0,0,0,.777.591,1.086,1.086,0,0,0,.933-.124l.9-.528.466.777a1.323,1.323,0,0,0,1.741.435,1.3,1.3,0,0,0,.4-1.679l-.435-.777,4.166-2.425a3.353,3.353,0,0,0,.871.5v4.819H9.052A1.178,1.178,0,0,0,7.87,21.952,1.2,1.2,0,0,0,9.052,23.2h.933v1.057A1.209,1.209,0,0,0,11.228,25.5a1.241,1.241,0,0,0,1.213-1.244V23.2h.9a1.2,1.2,0,0,0,1.213-1.244,1.184,1.184,0,0,0-1.213-1.244h-.9V15.888a3.154,3.154,0,0,0,.839-.5l4.2,2.425-.466.777a1.287,1.287,0,0,0,.466,1.679,1.335,1.335,0,0,0,1.71-.435l.435-.777.933.528a1,1,0,0,0,.933.124,1.289,1.289,0,0,0,.746-.591,1.154,1.154,0,0,0,.124-.964,1.1,1.1,0,0,0-.56-.715l-.933-.56.467-.746a1.242,1.242,0,0,0-.5-1.71,1.263,1.263,0,0,0-1.679.435l-.435.777-4.2-2.394.062-.5-.062-.5,4.2-2.394.435.809a1.393,1.393,0,0,0,1.679.4,1.2,1.2,0,0,0,.5-1.679l-.467-.777.933-.529A1.241,1.241,0,0,0,22.359,7.338Zm-12.53,5.41A1.384,1.384,0,1,1,11.2,14.116,1.36,1.36,0,0,1,9.829,12.748Z" transform="translate(75.925 321.638)" fill="#8d8785" opacity="0.2"/>
    <path id="패스_65856" data-name="패스 65856" d="M22.359,7.338a1.155,1.155,0,0,0-.124-.964,1.135,1.135,0,0,0-.746-.56,1.082,1.082,0,0,0-.933.093l-.933.56-.435-.808a1.372,1.372,0,0,0-1.741-.435,1.325,1.325,0,0,0-.435,1.71l.466.746-4.2,2.425a2.444,2.444,0,0,0-.839-.466V4.788h.9a1.184,1.184,0,0,0,1.213-1.244A1.2,1.2,0,0,0,13.343,2.3h-.9V1.244A1.262,1.262,0,0,0,11.228,0,1.228,1.228,0,0,0,9.985,1.244V2.3H9.052A1.2,1.2,0,0,0,7.87,3.545,1.178,1.178,0,0,0,9.052,4.788h.933v4.85a2.594,2.594,0,0,0-.871.466L4.948,7.68l.435-.746a1.293,1.293,0,0,0-.435-1.71c-.809-.342-1.43-.124-1.71.435l-.466.808-.9-.56a1.356,1.356,0,0,0-.933-.093,1.194,1.194,0,0,0-.777.56,1.151,1.151,0,0,0-.093.964,1.135,1.135,0,0,0,.56.746l.9.529-.435.777a1.215,1.215,0,0,0,.466,1.679,1.417,1.417,0,0,0,1.71-.435L3.7,9.856,7.87,12.251l-.031.5.031.5L3.7,15.64l-.435-.809a1.367,1.367,0,0,0-1.71-.4,1.258,1.258,0,0,0-.466,1.71l.435.746-.9.56a1.013,1.013,0,0,0-.56.715,1.151,1.151,0,0,0,.093.964,1.354,1.354,0,0,0,.777.591,1.086,1.086,0,0,0,.933-.124l.9-.528.466.777a1.323,1.323,0,0,0,1.741.435,1.3,1.3,0,0,0,.4-1.679l-.435-.777,4.166-2.425a3.353,3.353,0,0,0,.871.5v4.819H9.052A1.178,1.178,0,0,0,7.87,21.952,1.2,1.2,0,0,0,9.052,23.2h.933v1.057A1.209,1.209,0,0,0,11.228,25.5a1.241,1.241,0,0,0,1.213-1.244V23.2h.9a1.2,1.2,0,0,0,1.213-1.244,1.184,1.184,0,0,0-1.213-1.244h-.9V15.888a3.154,3.154,0,0,0,.839-.5l4.2,2.425-.466.777a1.287,1.287,0,0,0,.466,1.679,1.335,1.335,0,0,0,1.71-.435l.435-.777.933.528a1,1,0,0,0,.933.124,1.289,1.289,0,0,0,.746-.591,1.154,1.154,0,0,0,.124-.964,1.1,1.1,0,0,0-.56-.715l-.933-.56.467-.746a1.242,1.242,0,0,0-.5-1.71,1.263,1.263,0,0,0-1.679.435l-.435.777-4.2-2.394.062-.5-.062-.5,4.2-2.394.435.809a1.393,1.393,0,0,0,1.679.4,1.2,1.2,0,0,0,.5-1.679l-.467-.777.933-.529A1.241,1.241,0,0,0,22.359,7.338Zm-12.53,5.41A1.384,1.384,0,1,1,11.2,14.116,1.36,1.36,0,0,1,9.829,12.748Z" transform="translate(179.283 460.426)" fill="#8d8785" opacity="0.2"/>
    <path id="패스_65857" data-name="패스 65857" d="M18.023,5.915a.931.931,0,0,0-.1-.777.915.915,0,0,0-.6-.451.872.872,0,0,0-.752.075l-.752.451-.351-.652a1.106,1.106,0,0,0-1.4-.351,1.068,1.068,0,0,0-.351,1.379l.376.6L10.7,8.146a1.97,1.97,0,0,0-.677-.376V3.86h.727a.954.954,0,0,0,.977-1,.969.969,0,0,0-.977-1h-.727V1a1.018,1.018,0,0,0-.977-1,.99.99,0,0,0-1,1v.852H7.3a.964.964,0,0,0-.952,1,.949.949,0,0,0,.952,1h.752V7.77a2.091,2.091,0,0,0-.7.376L3.988,6.191l.351-.6a1.043,1.043,0,0,0-.351-1.379c-.652-.276-1.153-.1-1.379.351l-.376.652-.727-.451a1.093,1.093,0,0,0-.752-.075.962.962,0,0,0-.626.451.928.928,0,0,0-.075.777.915.915,0,0,0,.451.6l.727.426L.88,7.569a.979.979,0,0,0,.376,1.353,1.142,1.142,0,0,0,1.378-.351l.351-.627,3.358,1.93-.025.4.025.4-3.358,1.93-.351-.652a1.1,1.1,0,0,0-1.378-.326A1.014,1.014,0,0,0,.88,13.008l.351.6L.5,14.06a.817.817,0,0,0-.451.577.928.928,0,0,0,.075.777,1.092,1.092,0,0,0,.626.476.876.876,0,0,0,.752-.1l.727-.426.376.627a1.067,1.067,0,0,0,1.4.351,1.048,1.048,0,0,0,.326-1.353l-.351-.627,3.358-1.955a2.7,2.7,0,0,0,.7.4v3.885H7.3a.949.949,0,0,0-.952,1,.964.964,0,0,0,.952,1h.752v.852a.975.975,0,0,0,1,1,1,1,0,0,0,.977-1V18.7h.727a.969.969,0,0,0,.977-1,.954.954,0,0,0-.977-1h-.727V12.807a2.542,2.542,0,0,0,.677-.4l3.384,1.955-.376.627a1.038,1.038,0,0,0,.376,1.353,1.076,1.076,0,0,0,1.378-.351l.351-.627.752.426a.809.809,0,0,0,.752.1,1.039,1.039,0,0,0,.6-.476.931.931,0,0,0,.1-.777.885.885,0,0,0-.451-.577l-.752-.451.376-.6a1,1,0,0,0-.4-1.378,1.018,1.018,0,0,0-1.353.351l-.351.627-3.383-1.93.05-.4-.05-.4,3.383-1.93.351.652a1.123,1.123,0,0,0,1.353.326.967.967,0,0,0,.4-1.353l-.376-.627.752-.426A1,1,0,0,0,18.023,5.915Zm-10.1,4.361a1.115,1.115,0,1,1,1.1,1.1A1.1,1.1,0,0,1,7.923,10.276Z" transform="translate(354.997 340.367)" fill="#8d8785" opacity="0.2"/>
    <path id="패스_65851" data-name="패스 65851" d="M19.947,6.546a1.03,1.03,0,0,0-.111-.86,1.013,1.013,0,0,0-.666-.5.965.965,0,0,0-.832.083l-.832.5-.388-.721a1.224,1.224,0,0,0-1.553-.388,1.182,1.182,0,0,0-.388,1.526l.416.666L11.848,9.015A2.181,2.181,0,0,0,11.1,8.6V4.272h.8a1.056,1.056,0,0,0,1.082-1.109A1.072,1.072,0,0,0,11.9,2.053h-.8V1.11A1.126,1.126,0,0,0,10.017,0a1.1,1.1,0,0,0-1.11,1.11v.943H8.075a1.067,1.067,0,0,0-1.054,1.11A1.05,1.05,0,0,0,8.075,4.272h.832V8.6a2.315,2.315,0,0,0-.777.416L4.414,6.851,4.8,6.186A1.154,1.154,0,0,0,4.414,4.66c-.721-.305-1.276-.111-1.526.388l-.416.721-.8-.5a1.21,1.21,0,0,0-.832-.083,1.065,1.065,0,0,0-.693.5,1.027,1.027,0,0,0-.083.86,1.012,1.012,0,0,0,.5.666l.8.472-.388.693a1.084,1.084,0,0,0,.416,1.5,1.264,1.264,0,0,0,1.526-.388L3.3,8.793l3.717,2.136-.028.444.028.444L3.3,13.953l-.388-.721a1.219,1.219,0,0,0-1.526-.361A1.122,1.122,0,0,0,.974,14.4l.388.666-.8.5a.9.9,0,0,0-.5.638,1.027,1.027,0,0,0,.083.86,1.208,1.208,0,0,0,.693.527.969.969,0,0,0,.832-.111l.8-.471.416.693a1.181,1.181,0,0,0,1.553.388,1.16,1.16,0,0,0,.361-1.5l-.388-.694,3.717-2.164a2.991,2.991,0,0,0,.777.444v4.3H8.075a1.051,1.051,0,0,0-1.054,1.11,1.067,1.067,0,0,0,1.054,1.11h.832v.943a1.079,1.079,0,0,0,1.11,1.11,1.107,1.107,0,0,0,1.082-1.11v-.943h.8a1.072,1.072,0,0,0,1.082-1.11,1.056,1.056,0,0,0-1.082-1.11h-.8v-4.3a2.814,2.814,0,0,0,.749-.444l3.745,2.164-.416.694a1.149,1.149,0,0,0,.416,1.5,1.191,1.191,0,0,0,1.526-.388L17.506,17l.832.471a.9.9,0,0,0,.832.111,1.15,1.15,0,0,0,.666-.527,1.03,1.03,0,0,0,.111-.86.979.979,0,0,0-.5-.638l-.832-.5.416-.666a1.108,1.108,0,0,0-.444-1.526,1.126,1.126,0,0,0-1.5.388l-.388.694-3.745-2.136.055-.444-.055-.444L16.7,8.793l.388.721a1.243,1.243,0,0,0,1.5.361,1.07,1.07,0,0,0,.444-1.5l-.416-.693.832-.472A1.107,1.107,0,0,0,19.947,6.546ZM8.769,11.373a1.234,1.234,0,1,1,1.221,1.221A1.213,1.213,0,0,1,8.769,11.373Z" transform="translate(142.03 221.59)" fill="#8d8785" opacity="0.2"/>
    <path id="패스_65853" data-name="패스 65853" d="M17.653,14.27l.368-.631a1.3,1.3,0,0,0,.105-.841,1.122,1.122,0,0,0-.5-.6,1.046,1.046,0,0,0-1.445.394l-.368.631L12.291,11.2v-.026l.053-.394-.053-.394,3.522-2.05.368.631a1.159,1.159,0,0,0,1.445.421,1.192,1.192,0,0,0,.526-.71,1.162,1.162,0,0,0-.131-.736l-.368-.657.789-.447a1.113,1.113,0,0,0,.368-1.445,1.049,1.049,0,0,0-.631-.473.99.99,0,0,0-.815.105L16.6,5.44l-.394-.631a1.036,1.036,0,0,0-.6-.5.963.963,0,0,0-.815.105,1.089,1.089,0,0,0-.5.631.99.99,0,0,0,.105.815l.394.631L11.24,8.515a3.213,3.213,0,0,0-.736-.368v-4.1h.762A1.038,1.038,0,0,0,12.318,3a1.054,1.054,0,0,0-1.051-1.051H10.5V1.051A1.038,1.038,0,0,0,9.453,0,1.054,1.054,0,0,0,8.4,1.051v.894H7.666A1.054,1.054,0,0,0,6.615,3,1.038,1.038,0,0,0,7.666,4.047H8.4v4.1a3.076,3.076,0,0,0-.71.394L4.17,6.491l.394-.631A1.057,1.057,0,0,0,4.17,4.415a1.312,1.312,0,0,0-.762-.131,1.068,1.068,0,0,0-.683.526l-.368.631L1.595,5.02a1.433,1.433,0,0,0-.788-.131,1.172,1.172,0,0,0-.683.5A1.106,1.106,0,0,0,.044,6.2a1,1,0,0,0,.5.631l.762.447-.394.657a1.083,1.083,0,0,0,.394,1.445,1.091,1.091,0,0,0,1.419-.421l.394-.631,3.548,2.05-.079.394.079.421L3.119,13.219l-.394-.631a.964.964,0,0,0-.6-.5.99.99,0,0,0-.815.105A1.064,1.064,0,0,0,.912,13.64l.394.631-.762.473a.936.936,0,0,0-.5.631,1.107,1.107,0,0,0,.079.815,1.172,1.172,0,0,0,1.445.368l.788-.473.368.657a1.049,1.049,0,0,0,1.419.394,1.032,1.032,0,0,0,.421-1.419l-.394-.683,3.522-2.05a2.519,2.519,0,0,0,.71.421v4.1H7.666a1.054,1.054,0,0,0-1.051,1.051,1.016,1.016,0,0,0,1.051,1.025H8.4v.92a1.016,1.016,0,0,0,1.051,1.025A1,1,0,0,0,10.5,20.5v-.92h.762a1.016,1.016,0,0,0,1.051-1.025A1.054,1.054,0,0,0,11.266,17.5H10.5V13.4a2.2,2.2,0,0,0,.736-.394l3.548,2.024-.394.657a1.108,1.108,0,0,0-.131.762,1.069,1.069,0,0,0,.526.683,1.058,1.058,0,0,0,1.419-.394l.394-.657.762.473a1.075,1.075,0,0,0,1.446-.394,1.033,1.033,0,0,0-.394-1.419ZM8.3,10.775a1.17,1.17,0,0,1,2.339,0,1.17,1.17,0,0,1-2.339,0Z" transform="translate(160.954 163.802)" fill="#9cc023" opacity="0.4"/>
  </g>
</svg>
