<svg xmlns="http://www.w3.org/2000/svg" width="28" height="23" viewBox="0 0 28 23">
  <defs>
    <style>
      .cls-1, .cls-2, .cls-3 {
        fill: none;
      }

      .cls-2, .cls-3 {
        stroke: #fff;
      }

      .cls-2 {
        stroke-width: 2px;
      }

      .cls-4 {
        stroke: none;
      }
    </style>
  </defs>
  <g id="icon_apt_white_3" data-name="icon_apt_white 3" transform="translate(0 0.281)">
    <g id="사각형_17565" data-name="사각형 17565" transform="translate(9.719)">
      <path id="패스_66057" data-name="패스 66057" class="cls-1" d="M2.088,0H12.527a2.255,2.255,0,0,1,2.088,2.391V22.719H0V2.391A2.255,2.255,0,0,1,2.088,0Z"/>
      <rect id="사각형_18073" data-name="사각형 18073" class="cls-2" width="13" height="21" rx="1" transform="translate(1.281 0.719)"/>
    </g>
    <g id="그룹_65883" data-name="그룹 65883" transform="translate(-1337.452 -21.781)">
      <g id="사각형_17565-2" data-name="사각형 17565" transform="translate(1340.619 26.219)">
        <path id="패스_66058" data-name="패스 66058" class="cls-1" d="M2.208,0H8.833V18.281H0V2.438A2.331,2.331,0,0,1,2.208,0Z"/>
        <rect id="사각형_18074" data-name="사각형 18074" class="cls-2" width="7" height="16" rx="1" transform="translate(0.833 1.281)"/>
      </g>
      <g id="사각형_17718" data-name="사각형 17718" class="cls-3" transform="translate(1337.452 42.5)">
        <rect class="cls-4" width="28" height="2"/>
        <rect class="cls-1" x="0.5" y="0.5" width="27" height="1"/>
      </g>
      <line id="선_274" data-name="선 274" class="cls-2" y2="2" transform="translate(1345.143 31.5)"/>
      <line id="선_275" data-name="선 275" class="cls-2" y2="2" transform="translate(1345.143 35.5)"/>
    </g>
    <line id="선_270" data-name="선 270" class="cls-2" y2="3" transform="translate(16.001 10.219)"/>
    <line id="선_269" data-name="선 269" class="cls-2" y2="3" transform="translate(19.501 5.219)"/>
    <line id="선_271" data-name="선 271" class="cls-2" y2="3" transform="translate(19.501 10.219)"/>
    <line id="선_272" data-name="선 272" class="cls-2" y2="3" transform="translate(16.001 5.219)"/>
  </g>
</svg>
