<svg xmlns="http://www.w3.org/2000/svg" width="129.08" height="13.5" viewBox="0 0 129.08 13.5">
  <g id="빌리브_라이프_서비스" data-name="빌리브 라이프 서비스" transform="translate(-89 -116.381)">
    <path id="패스_65874" data-name="패스 65874" d="M1.558,7.429V8.816H8.795v.747H1.558V13h9.35V11.591H3.33v-.747h7.258V7.429Zm.085-3.672H4.76V5.1H1.644ZM4.76.47V2.284H1.644V.47H0V6.6H6.4V.47ZM8.987,6.852h1.644V0H8.987Z" transform="translate(89 116.381)" fill="#fff"/>
    <path id="패스_65875" data-name="패스 65875" d="M69.256,10.551l-1.18.109-1.333.109-1.311.044H62.2V5.134h4.74V2.774H62.2V1.2h6.422V6.684H63.9V9.262H67.05l1.158-.087L69.3,9.066l.852-.131v1.529l-.9.131M71.091,0h1.682V13.456H71.091Z" transform="translate(40.387 116.381)" fill="#fff"/>
    <path id="패스_65876" data-name="패스 65876" d="M118.8,13.171h12.779v1.551H118.8Zm1.7-2.075V3.8h1.7V5.853h5.964V3.8h1.7v7.3Zm7.646-3.67h-5.942v2.1h5.964Z" transform="translate(-3.849 113.413)" fill="#fff"/>
    <path id="패스_65877" data-name="패스 65877" d="M213.65,10.551l-1.18.109-1.333.109-1.311.044H206.9V5.133h4.456V2.774H206.9V1.2h6.138V6.663h-4.456v2.6h2.862l1.158-.087,1.092-.109.852-.131v1.529l-.9.131m3.517-3.648V13.5h-1.682V0h1.682V5.308h1.857V6.9Z" transform="translate(-72.703 116.381)" fill="#fff"/>
    <path id="패스_65878" data-name="패스 65878" d="M273.121,1.311a3.408,3.408,0,0,1,1.114,1.027,5.026,5.026,0,0,1,.721,1.595,7.84,7.84,0,0,1,.262,2.075,7.752,7.752,0,0,1-.262,2.053,5.023,5.023,0,0,1-.721,1.573,3.32,3.32,0,0,1-1.114,1.027,2.992,2.992,0,0,1-1.464.35,3.08,3.08,0,0,1-1.464-.35,3.233,3.233,0,0,1-1.136-1,4.72,4.72,0,0,1-.721-1.573,8.041,8.041,0,0,1-.24-2.075,8.127,8.127,0,0,1,.24-2.075,4.718,4.718,0,0,1,.721-1.595,3.3,3.3,0,0,1,1.114-1.027,3.036,3.036,0,0,1,1.485-.35,2.949,2.949,0,0,1,1.464.35m.306,3.364a4.975,4.975,0,0,0-.371-1.114,2.467,2.467,0,0,0-.59-.765,1.224,1.224,0,0,0-.808-.284,1.245,1.245,0,0,0-.808.284,2.36,2.36,0,0,0-.612.786,4.236,4.236,0,0,0-.371,1.092,6.273,6.273,0,0,0-.131,1.289,6.425,6.425,0,0,0,.131,1.311,4.236,4.236,0,0,0,.371,1.092,2.315,2.315,0,0,0,.612.765,1.289,1.289,0,0,0,1.595,0,2.251,2.251,0,0,0,.59-.765,4.672,4.672,0,0,0,.371-1.092,6.418,6.418,0,0,0,.131-1.311,6.246,6.246,0,0,0-.131-1.289M277.468,0h1.66V13.456h-1.66Z" transform="translate(-120.531 116.381)" fill="#fff"/>
    <path id="패스_65879" data-name="패스 65879" d="M325.6,14.644h12.779v1.529H325.6Zm2.818-7.078h1.748l.284,3.583h3.08l.284-3.583h1.748l-.306,3.583h2.01v1.529H326.692V11.127h2.032ZM327,5.6h9.961V7.151H327Z" transform="translate(-165.474 112.007)" fill="#fff"/>
    <path id="패스_65880" data-name="패스 65880" d="M417.386,10.879l-.983-.655a5.983,5.983,0,0,1-1.07-1.027,8.058,8.058,0,0,1-.721-.939,6.555,6.555,0,0,1-.5-.939,6.707,6.707,0,0,1-.59,1.07,12.669,12.669,0,0,1-.852,1.092,7.6,7.6,0,0,1-.9.874l-.983.743L409.5,9.961a9.788,9.788,0,0,0,1.551-1.223,6.683,6.683,0,0,0,1.18-1.529A6.508,6.508,0,0,0,413,5.177a11.853,11.853,0,0,0,.2-2.228V.743h1.748V2.971q0,.437.044,1a8.452,8.452,0,0,0,.175,1.158,7.571,7.571,0,0,0,.328,1.18,4.3,4.3,0,0,0,.546,1.049,7.428,7.428,0,0,0,1.2,1.354,7.929,7.929,0,0,0,1.223.874Zm2.4,2.578V5.942h-2.578V4.26h2.578V0h1.682V13.456Z" transform="translate(-231.046 116.381)" fill="#fff"/>
    <path id="패스_65881" data-name="패스 65881" d="M475.5,10.835v-9.7h1.682V4.194h3.277V1.136h1.682v9.7Zm4.959-5.068h-3.277v3.5h3.277ZM484.434,0h1.682V13.456h-1.682Z" transform="translate(-282.629 116.381)" fill="#fff"/>
    <path id="패스_65882" data-name="패스 65882" d="M532.4,12.859h12.779V14.41H532.4ZM538.08,8.4a12.613,12.613,0,0,1-1.158,1.07,7.254,7.254,0,0,1-1.485.939l-1.245.546L533.1,9.713a10.7,10.7,0,0,0,1.529-.721,9.4,9.4,0,0,0,1.66-1.2,4.368,4.368,0,0,0,1.136-1.551,4.61,4.61,0,0,0,.415-1.835v-1h1.9v1a4.672,4.672,0,0,0,.371,1.857,4.216,4.216,0,0,0,1.136,1.551,8.978,8.978,0,0,0,1.66,1.2,10.358,10.358,0,0,0,1.551.721l-1.092,1.245q-.481-.175-1.267-.546a6.9,6.9,0,0,1-1.464-.939,10.471,10.471,0,0,1-1.158-1.07,3.95,3.95,0,0,1-.7-1,3.518,3.518,0,0,1-.7,1" transform="translate(-327.099 113.725)" fill="#fff"/>
    <rect id="사각형_17686" data-name="사각형 17686" width="129.08" height="13.456" transform="translate(89 116.381)" fill="none"/>
  </g>
</svg>
