<svg xmlns="http://www.w3.org/2000/svg" width="20.246" height="18" viewBox="0 0 20.246 18">
  <g id="Icon_Smarthome" transform="translate(0 -4)">
    <path id="패스_66008" data-name="패스 66008" d="M15,15.571v3.975" transform="translate(-6.896 0.988)" fill="none" stroke="#fff" stroke-linejoin="round" stroke-width="1.5"/>
    <circle id="타원_532" data-name="타원 532" cx="1.5" cy="1.5" r="1.5" transform="translate(6.5 13.56)" fill="none" stroke="#fff" stroke-linecap="round" stroke-linejoin="round" stroke-miterlimit="10" stroke-width="1.5"/>
    <path id="패스_66009" data-name="패스 66009" d="M6.05,5.445a.6.6,0,0,1-1.21,0A4.235,4.235,0,0,0,.6,1.21.6.6,0,0,1,.6,0,5.444,5.444,0,0,1,6.05,5.445Zm-2.42,0a.6.6,0,0,1-1.21,0A1.815,1.815,0,0,0,.6,3.63a.6.6,0,0,1,0-1.21A3.024,3.024,0,0,1,3.63,5.445Z" transform="matrix(0.996, 0.087, -0.087, 0.996, 14.219, 4)" fill="#fff" fill-rule="evenodd"/>
    <g id="패스_66138" data-name="패스 66138" transform="translate(-3)" fill="none">
      <path d="M3,11.636,11,4l8,7.636v8.182A2.011,2.011,0,0,1,17.222,22H4.778A2.011,2.011,0,0,1,3,19.818Z" stroke="none"/>
      <path d="M 11 6.073663711547852 L 4.5 12.27821350097656 L 4.5 19.81818008422852 C 4.5 20.22702026367188 4.701730728149414 20.47156143188477 4.782321929931641 20.5 L 17.21768951416016 20.5 C 17.29827117919922 20.4715690612793 17.5 20.22702026367188 17.5 19.81818008422852 L 17.5 12.27821350097656 L 11 6.073663711547852 M 11 4 L 19 11.6363697052002 L 19 19.81818008422852 C 19 21.02317047119141 18.20405960083008 22 17.22221946716309 22 L 4.777780532836914 22 C 3.795940399169922 22 3 21.02315902709961 3 19.81818008422852 L 3 11.6363697052002 L 11 4 Z" stroke="none" fill="#fff"/>
    </g>
  </g>
</svg>
