<svg xmlns="http://www.w3.org/2000/svg" width="16" height="18" viewBox="0 0 16 18">
  <g id="Icon_home" transform="translate(-2 -3.122)">
    <g id="패스_66011" data-name="패스 66011" transform="translate(-1 -0.878)" fill="none">
      <path d="M3,11.636,11,4l8,7.636v8.182A2.011,2.011,0,0,1,17.222,22H4.778A2.011,2.011,0,0,1,3,19.818Z" stroke="none"/>
      <path d="M 11 6.073663711547852 L 4.5 12.27821350097656 L 4.5 19.81818008422852 C 4.5 20.22702026367188 4.701730728149414 20.47156143188477 4.782321929931641 20.5 L 17.21768951416016 20.5 C 17.29827117919922 20.4715690612793 17.5 20.22702026367188 17.5 19.81818008422852 L 17.5 12.27821350097656 L 11 6.073663711547852 M 11 4 L 19 11.6363697052002 L 19 19.81818008422852 C 19 21.02317047119141 18.20405960083008 22 17.22221946716309 22 L 4.777780532836914 22 C 3.795940399169922 22 3 21.02315902709961 3 19.81818008422852 L 3 11.6363697052002 L 11 4 Z" stroke="none" fill="#fff"/>
    </g>
    <path id="패스_66012" data-name="패스 66012" d="M15,15.571v6.613" transform="translate(-5 -1.805)" fill="none" stroke="#fff" stroke-linejoin="round" stroke-width="1.5"/>
  </g>
</svg>
