<svg xmlns="http://www.w3.org/2000/svg" width="77.793" height="20.828" viewBox="0 0 77.793 20.828">
  <g id="_logo" data-name="#logo" transform="translate(-3.195 -4.457)" style="isolation: isolate">
    <g id="영문로고_컬러" transform="translate(5.599 4.457)">
      <g id="그룹_65652" data-name="그룹 65652" transform="translate(-2.404 0)">
        <rect id="사각형_2513" data-name="사각형 2513" width="3.254" height="14.687" transform="translate(18.497 6.138)" fill="#fff"/>
        <path id="패스_65811" data-name="패스 65811" d="M139,20.9V35.59h9.638V32.615h-6.415V20.9Z" transform="translate(-96.708 -14.762)" fill="#fff"/>
        <path id="패스_65812" data-name="패스 65812" d="M94.8,20.9V35.59h9.638V32.615H98.023V20.9Z" transform="translate(-65.956 -14.762)" fill="#fff"/>
        <rect id="사각형_2514" data-name="사각형 2514" width="3.223" height="14.687" transform="translate(56.041 6.138)" fill="#fff"/>
        <rect id="사각형_2515" data-name="사각형 2515" width="3.254" height="3.242" transform="translate(18.497 3.193)" fill="#9cc023"/>
        <rect id="사각형_2516" data-name="사각형 2516" width="3.254" height="3.242" transform="translate(56.041 3.193)" fill="#9cc023"/>
        <rect id="사각형_2517" data-name="사각형 2517" width="3.254" height="6.483" transform="translate(28.889)" fill="#9cc023"/>
        <rect id="사각형_2518" data-name="사각형 2518" width="3.254" height="6.483" transform="translate(42.358)" fill="#9cc023"/>
        <path id="패스_65813" data-name="패스 65813" d="M10.475,20.9l-3.5,9.422L3.44,20.9H0L5.61,35.59h2.7l5.61-14.69Z" transform="translate(0 -14.762)" fill="#fff"/>
        <path id="패스_65814" data-name="패스 65814" d="M220.675,20.9l-3.533,9.422-3.5-9.422H210.2l5.61,14.69h2.7l5.609-14.69Z" transform="translate(-146.323 -14.762)" fill="#fff"/>
      </g>
    </g>
  </g>
</svg>
