<svg xmlns="http://www.w3.org/2000/svg" width="17.921" height="17.117" viewBox="0 0 17.921 17.117">
  <g id="Icon_mymenu" transform="translate(0.75 0.75)">
    <path id="star" d="M10.211,2l2.537,5.14,5.674.829-4.105,4,.969,5.649-5.074-2.668L5.136,17.617l.969-5.649L2,7.969,7.674,7.14Z" transform="translate(-2 -2)" fill="none" stroke="#fff" stroke-linecap="round" stroke-linejoin="round" stroke-width="1.5"/>
    <path id="패스_66005" data-name="패스 66005" d="M225,143.776a1.337,1.337,0,0,0,1.367,1.355h5.468a1.337,1.337,0,0,0,1.367-1.355v-5.421A1.337,1.337,0,0,0,231.835,137h-5.468A1.337,1.337,0,0,0,225,138.355Z" transform="translate(-216.781 -128.781)" fill="#3f3632"/>
    <line id="선_235" data-name="선 235" y2="4.932" transform="translate(12.686 10.22)" fill="none" stroke="#fff" stroke-linecap="square" stroke-linejoin="round" stroke-miterlimit="10" stroke-width="1.5"/>
    <line id="선_236" data-name="선 236" x1="4.932" transform="translate(10.22 12.686)" fill="none" stroke="#fff" stroke-linecap="square" stroke-linejoin="round" stroke-miterlimit="10" stroke-width="1.5"/>
  </g>
</svg>
