<svg xmlns="http://www.w3.org/2000/svg" width="19.264" height="19.264" viewBox="0 0 19.264 19.264">
  <g id="settings" transform="translate(0.75 0.75)">
    <circle id="타원_341" data-name="타원 341" cx="2" cy="2" r="2" transform="translate(7 6.833)" fill="none" stroke="#fff" stroke-linecap="round" stroke-linejoin="round" stroke-width="1.5"/>
    <path id="패스_445" data-name="패스 445" d="M15.857,12.3a1.332,1.332,0,0,0,.266,1.47l.048.048a1.616,1.616,0,1,1-2.285,2.285l-.048-.048a1.343,1.343,0,0,0-2.277.953v.137a1.615,1.615,0,1,1-3.23,0v-.073a1.332,1.332,0,0,0-.872-1.219,1.332,1.332,0,0,0-1.47.266l-.048.048a1.616,1.616,0,1,1-2.285-2.285l.048-.048a1.343,1.343,0,0,0-.953-2.277H2.615a1.615,1.615,0,1,1,0-3.23h.073A1.332,1.332,0,0,0,3.907,7.46,1.332,1.332,0,0,0,3.64,5.99l-.048-.048A1.616,1.616,0,1,1,5.877,3.657l.048.048a1.332,1.332,0,0,0,1.47.266H7.46a1.332,1.332,0,0,0,.807-1.219V2.615a1.615,1.615,0,1,1,3.23,0v.073a1.343,1.343,0,0,0,2.277.953l.048-.048a1.616,1.616,0,1,1,2.285,2.285l-.048.048a1.332,1.332,0,0,0-.266,1.47V7.46a1.332,1.332,0,0,0,1.219.807h.137a1.615,1.615,0,1,1,0,3.23h-.073A1.332,1.332,0,0,0,15.857,12.3Z" transform="translate(-1 -1)" fill="none" stroke="#fff" stroke-linecap="round" stroke-linejoin="round" stroke-width="1.5"/>
  </g>
</svg>
