<svg xmlns="http://www.w3.org/2000/svg" width="35" height="34.999" viewBox="0 0 35 34.999">
  <g id="icon_조식" transform="translate(-443.635 -351.907)">
    <g id="패스_66212" data-name="패스 66212" transform="translate(-1 -1.5)" fill="none" stroke-linecap="round" stroke-linejoin="round">
      <path d="M444.635,370.907a17.5,17.5,0,1,1,17.5,17.5A17.5,17.5,0,0,1,444.635,370.907Z" stroke="none"/>
      <path d="M 462.1346130371094 386.4061889648438 C 466.2750549316406 386.4061889648438 470.1676025390625 384.7939453125 473.09521484375 381.866455078125 C 476.0227355957031 378.9390258789063 477.635009765625 375.0467529296875 477.635009765625 370.9066467285156 C 477.635009765625 366.7665100097656 476.0227355957031 362.8742370605469 473.09521484375 359.94677734375 C 470.1676025390625 357.019287109375 466.2750549316406 355.4070434570313 462.1346130371094 355.4070434570313 C 457.9945068359375 355.4070434570313 454.1022033691406 357.019287109375 451.1747436523438 359.94677734375 C 448.2472534179688 362.8742370605469 446.635009765625 366.7665405273438 446.635009765625 370.9066467285156 C 446.635009765625 375.0467224121094 448.2472534179688 378.9389953613281 451.1747436523438 381.8664855957031 C 454.1022033691406 384.7939453125 457.9945068359375 386.4061889648438 462.1346130371094 386.4061889648438 M 462.1346130371094 388.4061889648438 C 452.4698181152344 388.4061889648438 444.635009765625 380.5713806152344 444.635009765625 370.9066467285156 C 444.635009765625 361.2418518066406 452.4698181152344 353.4070434570313 462.1346130371094 353.4070434570313 C 471.8001708984375 353.4070434570313 479.635009765625 361.2418518066406 479.635009765625 370.9066467285156 C 479.635009765625 380.5713806152344 471.8001708984375 388.4061889648438 462.1346130371094 388.4061889648438 Z" stroke="none" fill="#5a514c"/>
    </g>
    <g id="그룹_66770" data-name="그룹 66770" transform="translate(451.92 361.184)">
      <g id="그룹_66768" data-name="그룹 66768" transform="translate(3.106 0)">
        <line id="선_332" data-name="선 332" x1="9.355" y2="9.354" transform="translate(0 7.694)" fill="none" stroke="#5a514c" stroke-linecap="round" stroke-linejoin="round" stroke-width="2"/>
        <path id="패스_66213" data-name="패스 66213" d="M476.63,369.288l-4,4a1.468,1.468,0,0,1-2.059-.155l-.177-.177" transform="translate(-459.491 -364.998)" fill="none" stroke="#5a514c" stroke-linecap="round" stroke-linejoin="round" stroke-width="2"/>
        <path id="패스_66214" data-name="패스 66214" d="M470.1,371.546l-.178-.177a1.469,1.469,0,0,1-.155-2.058l4-4" transform="translate(-460.922 -365.31)" fill="none" stroke="#5a514c" stroke-linecap="round" stroke-linejoin="round" stroke-width="2"/>
        <line id="선_333" data-name="선 333" x1="4.952" y2="4.952" transform="translate(10.005 2.108)" fill="none" stroke="#5a514c" stroke-linecap="round" stroke-linejoin="round" stroke-width="2"/>
      </g>
      <g id="그룹_66769" data-name="그룹 66769" transform="translate(-1 0.935)">
        <line id="선_334" data-name="선 334" x2="9.095" y2="9.095" transform="translate(7.174 6.681)" fill="none" stroke="#9cc023" stroke-linecap="round" stroke-linejoin="round" stroke-width="2"/>
        <path id="패스_66215" data-name="패스 66215" d="M457.848,371.273c-1.714-1.714-2.258-3.952-1.214-5s3.281-.5,5,1.214,3.1,3.105,1.214,4.995S459.563,372.987,457.848,371.273Z" transform="translate(-456.103 -365.747)" fill="#9cc023" stroke="#9cc023" stroke-linecap="round" stroke-linejoin="round" stroke-width="2"/>
      </g>
    </g>
  </g>
</svg>
