<svg xmlns="http://www.w3.org/2000/svg" xmlns:xlink="http://www.w3.org/1999/xlink" width="96.964" height="73" viewBox="0 0 96.964 73">
  <defs>
    <clipPath id="clip-path">
      <ellipse id="타원_565" data-name="타원 565" cx="10.5" cy="11.5" rx="10.5" ry="11.5" transform="translate(0.042 0.488)" fill="#fff" stroke="#5a514c" stroke-width="3"/>
    </clipPath>
  </defs>
  <g id="그룹_66478" data-name="그룹 66478" transform="translate(-135.333 -152.004)">
    <g id="사각형_18217" data-name="사각형 18217" transform="translate(146.333 152.004)" fill="none" stroke="#5a514c" stroke-width="3">
      <path d="M5,0H44a5,5,0,0,1,5,5V73a0,0,0,0,1,0,0H0a0,0,0,0,1,0,0V5A5,5,0,0,1,5,0Z" stroke="none"/>
      <path d="M5,1.5H44A3.5,3.5,0,0,1,47.5,5V70A1.5,1.5,0,0,1,46,71.5H3A1.5,1.5,0,0,1,1.5,70V5A3.5,3.5,0,0,1,5,1.5Z" fill="none"/>
    </g>
    <g id="사각형_18226" data-name="사각형 18226" transform="translate(192.333 173.004)" fill="none" stroke="#5a514c" stroke-width="3">
      <path d="M0,0H20a5,5,0,0,1,5,5V52a0,0,0,0,1,0,0H0a0,0,0,0,1,0,0V0A0,0,0,0,1,0,0Z" stroke="none"/>
      <path d="M3,1.5H20A3.5,3.5,0,0,1,23.5,5V49A1.5,1.5,0,0,1,22,50.5H3A1.5,1.5,0,0,1,1.5,49V3A1.5,1.5,0,0,1,3,1.5Z" fill="none"/>
    </g>
    <g id="패스_66129" data-name="패스 66129" transform="translate(162.333 205.004)" fill="rgba(255,255,255,0)">
      <path d="M 14.5 18.5 L 1.5 18.5 L 1.5 3 C 1.5 2.172899961471558 2.172899961471558 1.5 3 1.5 L 13 1.5 C 13.82709980010986 1.5 14.5 2.172899961471558 14.5 3 L 14.5 18.5 Z" stroke="none"/>
      <path d="M 3 3 L 3.000007629394531 3 C 3.000004768371582 3.000001907348633 3.000002861022949 3.000005722045898 3 3 L 3 17 L 12.99997138977051 17 L 13 3 L 3 3 M 3 0 L 13 0 C 14.65684986114502 0 16 1.343149185180664 16 3 L 16 20 L 0 20 L 0 3 C 0 1.343149185180664 1.34315013885498 0 3 0 Z" stroke="none" fill="#5a514c"/>
    </g>
    <g id="사각형_18227" data-name="사각형 18227" transform="translate(199.333 185.004)" fill="#fff" stroke="#5a514c" stroke-width="2">
      <rect width="10" height="3" rx="1.5" stroke="none"/>
      <rect x="1" y="1" width="8" height="1" rx="0.5" fill="none"/>
    </g>
    <g id="사각형_18225" data-name="사각형 18225" transform="translate(135.333 222.004)" fill="#fff" stroke="#5a514c" stroke-width="3">
      <rect width="94" height="3" rx="1.5" stroke="none"/>
      <rect x="1.5" y="1.5" width="91" fill="none"/>
    </g>
    <g id="사각형_18228" data-name="사각형 18228" transform="translate(135.333 222.004)" fill="#5a514c" stroke="#5a514c" stroke-width="3">
      <rect width="94" height="3" rx="1.5" stroke="none"/>
      <rect x="1.5" y="1.5" width="91" fill="none"/>
    </g>
    <g id="그룹_66477" data-name="그룹 66477" transform="translate(156.085 168.711)">
      <g id="그룹_66476" data-name="그룹 66476" transform="translate(50.029 22.762)">
        <g id="패스_66127" data-name="패스 66127" fill="#eff1f5">
          <path d="M 11.59184551239014 24.68369483947754 C 8.09488582611084 24.68369483947754 4.807235717773438 23.3219051361084 2.334515571594238 20.84917640686035 C -0.1382044851779938 18.37645530700684 -1.499994516372681 15.08880519866943 -1.499994516372681 11.59184551239014 C -1.499994516372681 8.09488582611084 -0.1382044851779938 4.807235717773438 2.334515571594238 2.334515571594238 C 4.807235717773438 -0.1382044851779938 8.09488582611084 -1.499994516372681 11.59184551239014 -1.499994516372681 C 15.08880519866943 -1.499994516372681 18.37645530700684 -0.1382044851779938 20.84917640686035 2.334515571594238 C 23.3219051361084 4.807235717773438 24.68369483947754 8.09488582611084 24.68369483947754 11.59184551239014 C 24.68369483947754 15.08880519866943 23.3219051361084 18.37645530700684 20.84918594360352 20.84918594360352 C 18.37645530700684 23.3219051361084 15.08880519866943 24.68369483947754 11.59184551239014 24.68369483947754 Z" stroke="none"/>
          <path d="M 11.59184551239014 -3.814697265625e-06 C 5.189846038818359 -3.814697265625e-06 -3.814697265625e-06 5.189846038818359 -3.814697265625e-06 11.59184551239014 C -3.814697265625e-06 17.99384498596191 5.189846038818359 23.18368530273438 11.59184551239014 23.18368530273438 C 17.99384498596191 23.18368530273438 23.18368530273438 17.99384498596191 23.18368530273438 11.59184551239014 C 23.18368530273438 5.189846038818359 17.99384498596191 -3.814697265625e-06 11.59184551239014 -3.814697265625e-06 M 11.59184551239014 -3.000003814697266 C 15.48946571350098 -3.000003814697266 19.15380477905273 -1.482185363769531 21.90983581542969 1.273855209350586 C 24.66586494445801 4.029886245727539 26.18368530273438 7.694225311279297 26.18368530273438 11.59184551239014 C 26.18368530273438 15.48946571350098 24.66586494445801 19.15380477905273 21.90983581542969 21.90983581542969 C 19.15380477905273 24.66586494445801 15.48946571350098 26.18368530273438 11.59184551239014 26.18368530273438 C 7.694225311279297 26.18368530273438 4.029886245727539 24.66586494445801 1.273855209350586 21.90983581542969 C -1.482185363769531 19.15380477905273 -3.000003814697266 15.48946571350098 -3.000003814697266 11.59184551239014 C -3.000003814697266 7.694225311279297 -1.482185363769531 4.029886245727539 1.273845672607422 1.273845672607422 C 4.029886245727539 -1.482185363769531 7.694225311279297 -3.000003814697266 11.59184551239014 -3.000003814697266 Z" stroke="none" fill="#eff1f5"/>
        </g>
        <g id="패스_66128" data-name="패스 66128" fill="none">
          <path d="M11.592,0A11.592,11.592,0,1,1,0,11.592,11.592,11.592,0,0,1,11.592,0Z" stroke="none"/>
          <path d="M 11.59184551239014 2.999996185302734 C 6.854286193847656 2.999996185302734 2.999996185302734 6.854286193847656 2.999996185302734 11.59184551239014 C 2.999996185302734 16.32940483093262 6.854286193847656 20.18368530273438 11.59184551239014 20.18368530273438 C 16.32940483093262 20.18368530273438 20.18368530273438 16.32940483093262 20.18368530273438 11.59184551239014 C 20.18368530273438 6.854286193847656 16.32940483093262 2.999996185302734 11.59184551239014 2.999996185302734 M 11.59184551239014 -3.814697265625e-06 C 17.99384498596191 -3.814697265625e-06 23.18368530273438 5.189846038818359 23.18368530273438 11.59184551239014 C 23.18368530273438 17.99384498596191 17.99384498596191 23.18368530273438 11.59184551239014 23.18368530273438 C 5.189846038818359 23.18368530273438 -3.814697265625e-06 17.99384498596191 -3.814697265625e-06 11.59184551239014 C -3.814697265625e-06 5.189846038818359 5.189846038818359 -3.814697265625e-06 11.59184551239014 -3.814697265625e-06 Z" stroke="none" fill="#9cc023"/>
        </g>
        <line id="선_284" data-name="선 284" x2="9.273" transform="translate(6.955 11.592)" fill="none" stroke="#9cc023" stroke-linecap="round" stroke-width="3"/>
        <line id="선_285" data-name="선 285" x2="9.273" transform="translate(11.592 6.955) rotate(90)" fill="none" stroke="#9cc023" stroke-linecap="round" stroke-width="3"/>
      </g>
      <line id="선_286" data-name="선 286" x2="9.467" transform="translate(0 0)" fill="none" stroke="#5a514c" stroke-linecap="round" stroke-width="3"/>
      <line id="선_289" data-name="선 289" x2="9.467" transform="translate(0 10.327)" fill="none" stroke="#5a514c" stroke-linecap="round" stroke-width="3"/>
      <line id="선_291" data-name="선 291" x2="9.467" transform="translate(0 20.655)" fill="none" stroke="#5a514c" stroke-linecap="round" stroke-width="3"/>
      <line id="선_287" data-name="선 287" x2="9.467" transform="translate(19.794 0)" fill="none" stroke="#5a514c" stroke-linecap="round" stroke-width="3"/>
      <line id="선_288" data-name="선 288" x2="9.467" transform="translate(19.794 10.327)" fill="none" stroke="#5a514c" stroke-linecap="round" stroke-width="3"/>
      <line id="선_290" data-name="선 290" x2="9.467" transform="translate(19.794 20.655)" fill="none" stroke="#5a514c" stroke-linecap="round" stroke-width="3"/>
    </g>
  </g>
</svg>
