<svg xmlns="http://www.w3.org/2000/svg" width="35" height="34.622" viewBox="0 0 35 34.622">
  <g id="icon_시설이용" transform="translate(0 0.09)">
    <g id="타원_415" data-name="타원 415" transform="translate(0 22.531)" fill="none" stroke="#5a514c" stroke-width="2">
      <ellipse cx="17.5" cy="6" rx="17.5" ry="6" stroke="none"/>
      <ellipse cx="17.5" cy="6" rx="16.5" ry="5" fill="none"/>
    </g>
    <g id="패스_553" data-name="패스 553" transform="translate(33.65 0) rotate(90)" fill="none">
      <path d="M9,.612a1.2,1.2,0,0,1,2.1,0L19.941,15.8c.489.84.092,1.258-.858,1.258H1.39c-.951,0-1.728-.419-1.239-1.258Z" stroke="none"/>
      <path d="M 10.0457181930542 2.784761428833008 L 2.897394180297852 15.05615139007568 L 17.19404792785645 15.05615139007568 L 10.0457181930542 2.784761428833008 M 10.04571914672852 1.9073486328125e-06 C 10.45129680633545 1.9073486328125e-06 10.85687446594238 0.2038516998291016 11.09436893463135 0.6115512847900391 L 19.94074821472168 15.79795074462891 C 20.42981910705566 16.63752174377441 20.0330696105957 17.05615043640137 19.08249855041504 17.05615043640137 L 1.389728546142578 17.05615043640137 C 0.4391593933105469 17.05615043640137 -0.3383808135986328 16.63752174377441 0.1506900787353516 15.79795074462891 L 8.997069358825684 0.6115512847900391 C 9.234563827514648 0.2038516998291016 9.640141487121582 1.9073486328125e-06 10.04571914672852 1.9073486328125e-06 Z" stroke="none" fill="#9cc023"/>
    </g>
    <line id="선_145" data-name="선 145" y2="27.303" transform="translate(17.552 0.91)" fill="none" stroke="#5a514c" stroke-linecap="round" stroke-width="2"/>
  </g>
</svg>
