<svg id="clock" xmlns="http://www.w3.org/2000/svg" width="17.555" height="17.555" viewBox="0 0 17.555 17.555">
  <path id="clock-2" data-name="clock" d="M0,8.778a8.778,8.778,0,1,1,8.778,8.778A8.787,8.787,0,0,1,0,8.778Zm2.262,0A6.516,6.516,0,1,0,8.778,2.262,6.524,6.524,0,0,0,2.262,8.778ZM5.87,10.3A1.15,1.15,0,0,1,4.658,9.225,1.15,1.15,0,0,1,5.87,8.149H8.032V5.87A1.151,1.151,0,0,1,9.109,4.658,1.151,1.151,0,0,1,10.186,5.87V9.084c0,.028,0,.056,0,.084s0,.038,0,.057A1.145,1.145,0,0,1,9.109,10.3H9.071q-.049,0-.1,0Z" fill="#9cc023"/>
</svg>
