<svg xmlns="http://www.w3.org/2000/svg" width="23.573" height="24.804" viewBox="0 0 23.573 24.804">
  <g id="icon_환기" transform="translate(-588.3 -396.196)">
    <path id="패스_66123" data-name="패스 66123" d="M600.2,408.676a5.454,5.454,0,1,0-10.9,0c0,.127.005.252.013.376h10.876C600.2,408.928,600.2,408.8,600.2,408.676Z" transform="translate(0 -1)" fill="none" stroke="#5a514c" stroke-miterlimit="10" stroke-width="2"/>
    <path id="패스_66124" data-name="패스 66124" d="M600.577,409.1a5.454,5.454,0,1,0,0-10.9c-.126,0-.251.006-.375.014v10.875C600.326,409.093,600.451,409.1,600.577,409.1Z" transform="translate(0 -1)" fill="none" stroke="#5a514c" stroke-miterlimit="10" stroke-width="2"/>
    <path id="패스_66125" data-name="패스 66125" d="M594.057,414.549A5.54,5.54,0,0,0,599.681,420c.126,0,.251-.005.376-.013V409.111c-.125-.007-.25-.013-.376-.013A5.54,5.54,0,0,0,594.057,414.549Z" transform="translate(-1)" fill="none" stroke="#5a514c" stroke-miterlimit="10" stroke-width="2"/>
    <path id="패스_66126" data-name="패스 66126" d="M610.859,409.2H599.984c-.008.124-.013.249-.013.376a5.454,5.454,0,1,0,10.9,0C610.873,409.446,610.867,409.321,610.859,409.2Z" fill="none" stroke="#5a514c" stroke-miterlimit="10" stroke-width="2"/>
    <g id="타원_562" data-name="타원 562" transform="translate(596.3 405.195)" fill="#eff1f5" stroke="#9cc023" stroke-width="2">
      <circle cx="3.5" cy="3.5" r="3.5" stroke="none"/>
      <circle cx="3.5" cy="3.5" r="2.5" fill="none"/>
    </g>
  </g>
</svg>
