<svg xmlns="http://www.w3.org/2000/svg" width="37.794" height="32.485" viewBox="0 0 37.794 32.485">
  <g id="icon_비눈날림" transform="translate(-274.955 -189.763)">
    <path id="패스_66188" data-name="패스 66188" d="M31.938,14.568a1.681,1.681,0,0,1-1.681-1.681,5.049,5.049,0,0,0-5.043-5.043c-.143,0-.285.011-.425.022l-.988.082-.55-.827A8.4,8.4,0,0,0,7.844,11.767l.066,1.559-1.171.411a5.039,5.039,0,0,0,1.665,9.8,1.681,1.681,0,1,1,0,3.362A8.4,8.4,0,0,1,4.5,11.052,11.764,11.764,0,0,1,25.49,4.487a8.416,8.416,0,0,1,8.129,8.4A1.681,1.681,0,0,1,31.938,14.568Z" transform="translate(274.955 189.763)" fill="#5a514c" fill-rule="evenodd"/>
    <g id="그룹_66734" data-name="그룹 66734" transform="translate(282 208.75)">
      <path id="패스_66183" data-name="패스 66183" d="M424.092,1169.668a.855.855,0,1,0-1.586.639l2.007,4.967a.855.855,0,1,0,1.586-.638l-2.007-4.968Z" transform="translate(-416.922 -1162.311)" fill="#8d8785"/>
      <path id="패스_66184" data-name="패스 66184" d="M388.279,1169.668a.855.855,0,1,0-1.586.639l2.007,4.967a.855.855,0,1,0,1.586-.638l-2.007-4.968Z" transform="translate(-371.729 -1163.311)" fill="#8d8785"/>
      <path id="패스_66185" data-name="패스 66185" d="M418.237,1160.756a.855.855,0,1,0-1.586.639l2.007,4.967a.855.855,0,1,0,1.586-.638l-2.007-4.968Z" transform="translate(-407.9 -1158.221)" fill="#5a514c"/>
    </g>
    <path id="패스_66189" data-name="패스 66189" d="M8.8,2.97a.478.478,0,0,0-.049-.39.449.449,0,0,0-.294-.227.416.416,0,0,0-.367.038l-.367.226L7.556,2.29a.532.532,0,0,0-.686-.176.545.545,0,0,0-.171.692l.184.3L5.229,4.09A.956.956,0,0,0,4.9,3.9V1.938h.355a.473.473,0,0,0,.477-.5.48.48,0,0,0-.477-.5H4.9V.5A.5.5,0,0,0,4.421,0a.49.49,0,0,0-.49.5V.931H3.564a.478.478,0,0,0-.465.5.471.471,0,0,0,.465.5h.367V3.9a1.013,1.013,0,0,0-.343.189L1.948,3.108l.171-.3a.532.532,0,0,0-.171-.692.47.47,0,0,0-.673.176l-.184.327L.736,2.391a.521.521,0,0,0-.367-.038.471.471,0,0,0-.306.227.477.477,0,0,0-.037.39.458.458,0,0,0,.22.3L.6,3.486.43,3.8a.5.5,0,0,0,.184.68A.548.548,0,0,0,1.287,4.3l.171-.315L3.1,4.958l-.012.2.012.2L1.459,6.33,1.287,6a.529.529,0,0,0-.673-.164.517.517,0,0,0-.184.692l.171.3-.355.227a.408.408,0,0,0-.22.289.477.477,0,0,0,.037.39.535.535,0,0,0,.306.239.418.418,0,0,0,.367-.05l.355-.214.184.315A.513.513,0,0,0,1.96,8.2a.535.535,0,0,0,.159-.679L1.948,7.21l1.641-.982a1.312,1.312,0,0,0,.343.2v1.95H3.564a.471.471,0,0,0-.465.5.478.478,0,0,0,.465.5h.367v.428a.483.483,0,0,0,.49.5.5.5,0,0,0,.477-.5V9.387h.355a.48.48,0,0,0,.477-.5.473.473,0,0,0-.477-.5H4.9V6.43a1.235,1.235,0,0,0,.331-.2l1.653.982L6.7,7.525a.529.529,0,0,0,.184.679.517.517,0,0,0,.673-.176l.171-.315.367.214a.386.386,0,0,0,.367.05.51.51,0,0,0,.294-.239.478.478,0,0,0,.049-.39.442.442,0,0,0-.22-.289l-.367-.227.184-.3a.51.51,0,0,0-.2-.692.49.49,0,0,0-.661.176l-.171.315L5.719,5.361l.024-.2-.024-.2,1.653-.969.171.327A.539.539,0,0,0,8.2,4.48a.492.492,0,0,0,.2-.68l-.184-.315.367-.214A.5.5,0,0,0,8.8,2.97ZM3.87,5.159a.545.545,0,1,1,1.09,0,.545.545,0,1,1-1.09,0Z" transform="translate(306.731 204.721) rotate(47)" fill="#8d8785"/>
    <path id="패스_66190" data-name="패스 66190" d="M8.8,2.97a.478.478,0,0,0-.049-.39.449.449,0,0,0-.294-.227.416.416,0,0,0-.367.038l-.367.226L7.556,2.29a.532.532,0,0,0-.686-.176.545.545,0,0,0-.171.692l.184.3L5.229,4.09A.956.956,0,0,0,4.9,3.9V1.938h.355a.473.473,0,0,0,.477-.5.48.48,0,0,0-.477-.5H4.9V.5A.5.5,0,0,0,4.421,0a.49.49,0,0,0-.49.5V.931H3.564a.478.478,0,0,0-.465.5.471.471,0,0,0,.465.5h.367V3.9a1.013,1.013,0,0,0-.343.189L1.948,3.108l.171-.3a.532.532,0,0,0-.171-.692.47.47,0,0,0-.673.176l-.184.327L.736,2.391a.521.521,0,0,0-.367-.038.471.471,0,0,0-.306.227.477.477,0,0,0-.037.39.458.458,0,0,0,.22.3L.6,3.486.43,3.8a.5.5,0,0,0,.184.68A.548.548,0,0,0,1.287,4.3l.171-.315L3.1,4.958l-.012.2.012.2L1.459,6.33,1.287,6a.529.529,0,0,0-.673-.164.517.517,0,0,0-.184.692l.171.3-.355.227a.408.408,0,0,0-.22.289.477.477,0,0,0,.037.39.535.535,0,0,0,.306.239.418.418,0,0,0,.367-.05l.355-.214.184.315A.513.513,0,0,0,1.96,8.2a.535.535,0,0,0,.159-.679L1.948,7.21l1.641-.982a1.312,1.312,0,0,0,.343.2v1.95H3.564a.471.471,0,0,0-.465.5.478.478,0,0,0,.465.5h.367v.428a.483.483,0,0,0,.49.5.5.5,0,0,0,.477-.5V9.387h.355a.48.48,0,0,0,.477-.5.473.473,0,0,0-.477-.5H4.9V6.43a1.235,1.235,0,0,0,.331-.2l1.653.982L6.7,7.525a.529.529,0,0,0,.184.679.517.517,0,0,0,.673-.176l.171-.315.367.214a.386.386,0,0,0,.367.05.51.51,0,0,0,.294-.239.478.478,0,0,0,.049-.39.442.442,0,0,0-.22-.289l-.367-.227.184-.3a.51.51,0,0,0-.2-.692.49.49,0,0,0-.661.176l-.171.315L5.719,5.361l.024-.2-.024-.2,1.653-.969.171.327A.539.539,0,0,0,8.2,4.48a.492.492,0,0,0,.2-.68l-.184-.315.367-.214A.5.5,0,0,0,8.8,2.97ZM3.87,5.159a.545.545,0,1,1,1.09,0,.545.545,0,1,1-1.09,0Z" transform="translate(297.731 198.721) rotate(47)" fill="#9cc023"/>
  </g>
</svg>
