<svg xmlns="http://www.w3.org/2000/svg" width="39.779" height="34.153" viewBox="0 0 39.779 34.153">
  <g id="icon_비눈" transform="translate(-262.558 -191.832) rotate(-10)">
    <line id="선_316" data-name="선 316" y2="0.897" transform="translate(241.056 239.608)" fill="none" stroke="#5a514c" stroke-linecap="round" stroke-linejoin="round" stroke-width="3"/>
    <g id="패스_66192" data-name="패스 66192" transform="translate(-4.135 -12.374)" fill="none" stroke-linecap="round" stroke-linejoin="round">
      <path d="M245.832,269.978l-.07,9.516a3.654,3.654,0,0,1-3.2,3.688,3.552,3.552,0,0,1-3.9-3.536v-1.1a1.331,1.331,0,0,1,1.331-1.331h0a1.331,1.331,0,0,1,1.331,1.331v1.1a.891.891,0,1,0,1.782,0l.141-9.781Z" stroke="none"/>
      <path d="M 243.2425537109375 269.8648681640625 L 245.8324432373047 269.9781799316406 L 245.7626190185547 279.4941711425781 C 245.7632904052734 281.3502807617188 244.4054565429688 283.0068054199219 242.55859375 283.1818542480469 C 242.4413757324219 283.1929931640625 242.3249664306641 283.1984558105469 242.2100677490234 283.1984558105469 C 240.2472229003906 283.1984558105469 238.6580352783203 281.6086120605469 238.6580352783203 279.6458129882813 L 238.6580352783203 278.5414428710938 C 238.6580352783203 277.8069152832031 239.2534637451172 277.2108459472656 239.9885864257813 277.2108459472656 C 240.7230834960938 277.2108459472656 241.3191986083984 277.8069152832031 241.3191986083984 278.5414428710938 L 241.3191986083984 279.6458129882813 C 241.3191986083984 280.1381225585938 241.7176818847656 280.5372924804688 242.2106628417969 280.5372924804688 C 242.7029876708984 280.5372924804688 243.1014862060547 280.1381225585938 243.1014862060547 279.6458129882813 L 243.2425537109375 269.8648681640625 Z" stroke="none" fill="#5a514c"/>
    </g>
    <path id="패스_66191" data-name="패스 66191" d="M254.167,251.418a7.135,7.135,0,0,0-4.378,1.863,7.222,7.222,0,0,0-9.733.007,7.213,7.213,0,0,0-9.727-.007,7.241,7.241,0,0,0-4.517-1.876,14.4,14.4,0,0,1,11.1-11.456,14.156,14.156,0,0,1,3.067-.333,14.425,14.425,0,0,1,14.184,11.8Z" transform="translate(0 1.757)" fill="none" stroke="#5a514c" stroke-linecap="round" stroke-linejoin="round" stroke-width="3"/>
    <g id="그룹_66740" data-name="그룹 66740" transform="translate(260.041 258.737) rotate(98)">
      <path id="패스_65850" data-name="패스 65850" d="M8.359,6.988a.456.456,0,0,1-.046.371.426.426,0,0,1-.279.215.394.394,0,0,1-.349-.036l-.349-.215-.163.311a.5.5,0,0,1-.651.168.519.519,0,0,1-.163-.658l.174-.287L4.965,5.923a.907.907,0,0,1-.314.179V7.969h.337a.45.45,0,0,1,.453.479.456.456,0,0,1-.453.479H4.651v.407a.479.479,0,0,1-.453.479.466.466,0,0,1-.465-.479V8.926H3.384a.454.454,0,0,1-.442-.479.447.447,0,0,1,.442-.479h.349V6.1a.962.962,0,0,1-.325-.179L1.85,6.856l.163.287A.506.506,0,0,1,1.85,7.8a.446.446,0,0,1-.639-.168l-.174-.311L.7,7.538a.494.494,0,0,1-.349.036A.447.447,0,0,1,.06,7.359a.454.454,0,0,1-.035-.371A.436.436,0,0,1,.234,6.7l.337-.2L.408,6.2a.475.475,0,0,1,.174-.646.52.52,0,0,1,.639.168l.163.3L2.942,5.1l-.012-.191.012-.192L1.385,3.793,1.222,4.1a.5.5,0,0,1-.639.156A.492.492,0,0,1,.408,3.6l.163-.287L.234,3.1a.388.388,0,0,1-.209-.275A.454.454,0,0,1,.06,2.453.508.508,0,0,1,.35,2.226.4.4,0,0,1,.7,2.274l.337.2.174-.3a.486.486,0,0,1,.651-.168.509.509,0,0,1,.151.646l-.163.3,1.558.933A1.245,1.245,0,0,1,3.733,3.7V1.843H3.384a.447.447,0,0,1-.442-.479A.454.454,0,0,1,3.384.886h.349V.479A.459.459,0,0,1,4.2,0a.471.471,0,0,1,.453.479V.886h.337a.456.456,0,0,1,.453.479.45.45,0,0,1-.453.479H4.651V3.7a1.173,1.173,0,0,1,.314.191l1.569-.933-.174-.3a.5.5,0,0,1,.174-.646.491.491,0,0,1,.639.168l.163.3.349-.2a.366.366,0,0,1,.349-.048.485.485,0,0,1,.279.227.456.456,0,0,1,.046.371A.42.42,0,0,1,8.15,3.1L7.8,3.315l.174.287a.485.485,0,0,1-.186.658.464.464,0,0,1-.628-.168L7,3.793,5.43,4.715l.023.192L5.43,5.1,7,6.019l.163-.311a.511.511,0,0,1,.628-.156.468.468,0,0,1,.186.646L7.8,6.5l.349.2A.476.476,0,0,1,8.359,6.988ZM3.675,4.906a.517.517,0,1,0,1.034,0,.517.517,0,1,0-1.034,0Z" transform="translate(6.525 6.621)" fill="#9cc023" opacity="0.3"/>
      <path id="패스_65845" data-name="패스 65845" d="M8.467,3.551l.176.309a.649.649,0,0,1,.05.412.547.547,0,0,1-.24.3.511.511,0,0,1-.391.051.525.525,0,0,1-.3-.244l-.176-.309L5.9,5.056v.013l.025.193L5.9,5.455l1.689,1,.176-.309a.55.55,0,0,1,.693-.206.51.51,0,0,1,.189.708l-.176.322.378.219a.552.552,0,0,1,.176.708.5.5,0,0,1-.3.232.466.466,0,0,1-.391-.051l-.366-.206-.189.309a.5.5,0,0,1-.29.244.454.454,0,0,1-.391-.051.531.531,0,0,1-.24-.309.493.493,0,0,1,.05-.4l.189-.309-1.7-.991a1.529,1.529,0,0,1-.353.18V8.556H5.4a.5.5,0,0,1,.5.515.511.511,0,0,1-.5.515H5.038v.437a.5.5,0,0,1-.5.515.511.511,0,0,1-.5-.515V9.585H3.677a.511.511,0,0,1-.5-.515.5.5,0,0,1,.5-.515H4.03V6.549a1.467,1.467,0,0,1-.34-.193L2,7.359l.189.309A.523.523,0,0,1,2,8.376a.618.618,0,0,1-.366.064.514.514,0,0,1-.328-.257l-.177-.309L.765,8.08a.675.675,0,0,1-.378.064A.563.563,0,0,1,.059,7.9a.552.552,0,0,1-.038-.4.487.487,0,0,1,.24-.309l.366-.219L.437,6.652a.536.536,0,0,1,.189-.708.518.518,0,0,1,.681.206l.189.309,1.7-1L3.16,5.262,3.2,5.056,1.5,4.066l-.189.309a.465.465,0,0,1-.29.244.467.467,0,0,1-.391-.051A.527.527,0,0,1,.437,3.86l.189-.309L.261,3.319a.457.457,0,0,1-.24-.309.552.552,0,0,1,.038-.4.555.555,0,0,1,.693-.18l.378.232.177-.322a.5.5,0,0,1,.681-.193.511.511,0,0,1,.2.695L2,3.178l1.689,1a1.2,1.2,0,0,1,.34-.206V1.969H3.677a.511.511,0,0,1-.5-.515.492.492,0,0,1,.5-.5H4.03V.5a.492.492,0,0,1,.5-.5.485.485,0,0,1,.5.5v.45H5.4a.492.492,0,0,1,.5.5.511.511,0,0,1-.5.515H5.038V3.976a1.048,1.048,0,0,1,.353.193l1.7-.991L6.9,2.856a.552.552,0,0,1-.063-.373.522.522,0,0,1,.252-.335.5.5,0,0,1,.681.193l.189.322.366-.232a.51.51,0,0,1,.5.888ZM3.979,5.262a.561.561,0,1,0,1.122,0,.561.561,0,1,0-1.122,0Z" transform="translate(-1.964 -1.069)" fill="#9cc023"/>
    </g>
  </g>
</svg>
