<svg xmlns="http://www.w3.org/2000/svg" width="24" height="33.833" viewBox="0 0 24 33.833">
  <g id="icon_비즈니스센터" transform="translate(-1063 -580)">
    <g id="합치기_4" data-name="합치기 4" transform="translate(1063 580)" fill="none">
      <path d="M9,28a3,3,0,0,1-3-3V23.224A12.528,12.528,0,0,1,0,12.444,12.228,12.228,0,0,1,12,0,12.229,12.229,0,0,1,24,12.444a12.528,12.528,0,0,1-6,10.779V25a3,3,0,0,1-3,3Z" stroke="none"/>
      <path d="M 15.00030040740967 25.99990081787109 C 15.55154037475586 25.99990081787109 16 25.55144119262695 16 25.00020027160645 L 16 23.22377014160156 L 16 22.09128952026367 L 16.97113990783691 21.50871086120605 C 18.4680004119873 20.61074066162109 19.72507095336914 19.31657028198242 20.60646057128906 17.76612091064453 C 21.51832008361816 16.16205024719238 22.00030136108398 14.32180023193359 22.00030136108398 12.44430065155029 C 22.00030136108398 6.685290336608887 17.51405143737793 2.000000476837158 11.99970054626465 2.000000476837158 C 6.485850811004639 2.000000476837158 2.000000715255737 6.685290336608887 2.000000715255737 12.44430065155029 C 2.000000715255737 14.32189083099365 2.481890678405762 16.16217041015625 3.393560647964478 17.76617050170898 C 4.274770736694336 19.31657981872559 5.531650543212891 20.6107006072998 7.028320789337158 21.50860977172852 L 7.999400615692139 22.09119987487793 L 7.999400615692139 23.22364044189453 L 7.999400615692139 25.00020027160645 C 7.999400615692139 25.55144119262695 8.448270797729492 25.99990081787109 9.000000953674316 25.99990081787109 L 15.00030040740967 25.99990081787109 M 15.00030040740967 27.99990081787109 L 9.000000953674316 27.99990081787109 C 7.343100547790527 27.99990081787109 5.999400615692139 26.65710067749023 5.999400615692139 25.00020027160645 L 5.999400615692139 23.22364044189453 C 2.412980794906616 21.07199096679688 6.805419729971618e-07 17.05055046081543 6.805419729971618e-07 12.44430065155029 C 6.805419729971618e-07 5.571900367736816 5.372100830078125 4.089355343239731e-07 11.99970054626465 4.089355343239731e-07 C 18.62730026245117 4.089355343239731e-07 24.00030136108398 5.571900367736816 24.00030136108398 12.44430065155029 C 24.00030136108398 17.05055046081543 21.58669090270996 21.07212066650391 18 23.22377014160156 L 18 25.00020027160645 C 18 26.65710067749023 16.65719985961914 27.99990081787109 15.00030040740967 27.99990081787109 Z" stroke="none" fill="#5a514c"/>
    </g>
    <line id="선_348" data-name="선 348" x2="8.469" transform="translate(1070.765 609.809)" fill="none" stroke="#9cc023" stroke-linecap="round" stroke-width="2"/>
    <line id="선_349" data-name="선 349" x2="8.469" transform="translate(1070.765 612.833)" fill="none" stroke="#9cc023" stroke-linecap="round" stroke-width="2"/>
    <path id="패스_66260" data-name="패스 66260" d="M-220.5,4739.5c.141-.469,0-6.667,0-6.667h3.667v6.667" transform="translate(1293.667 -4137.833)" fill="none" stroke="#9cc023" stroke-linecap="round" stroke-linejoin="round" stroke-width="2"/>
  </g>
</svg>
