<svg xmlns="http://www.w3.org/2000/svg" width="34.152" height="35.138" viewBox="0 0 34.152 35.138">
  <g id="icon_문화강좌" transform="translate(7.867 5.887)">
    <path id="패스_66157" data-name="패스 66157" d="M21.907,1.5c.167-.722-.833-4.965-6.333-6S-2.676-5.072-6.259,9.462s10.25,18.258,16.917,18,10.667-3.724,12.5-6.517,2.75-6.517,1.167-8.793-3-2.068-5.083-1.137a2.552,2.552,0,0,1-3.667-2.793c.25-2.172,2.5-3.416,4.333-3.932S21.741,2.218,21.907,1.5Z" fill="none" stroke="#5a514c" stroke-width="2"/>
    <g id="타원_584" data-name="타원 584" transform="translate(7.574 -1.402)" fill="#eff1f5" stroke="#9cc023" stroke-width="2">
      <ellipse cx="3.5" cy="3" rx="3.5" ry="3" stroke="none"/>
      <ellipse cx="3.5" cy="3" rx="2.5" ry="2" fill="none"/>
    </g>
    <g id="타원_585" data-name="타원 585" transform="translate(-0.426 2.598)" fill="#eff1f5" stroke="#9cc023" stroke-width="2">
      <ellipse cx="3.5" cy="3" rx="3.5" ry="3" stroke="none"/>
      <ellipse cx="3.5" cy="3" rx="2.5" ry="2" fill="none"/>
    </g>
    <g id="타원_586" data-name="타원 586" transform="translate(-3.426 10.598)" fill="#eff1f5" stroke="#9cc023" stroke-width="2">
      <ellipse cx="3.5" cy="3" rx="3.5" ry="3" stroke="none"/>
      <ellipse cx="3.5" cy="3" rx="2.5" ry="2" fill="none"/>
    </g>
    <g id="사각형_18247" data-name="사각형 18247" transform="translate(10.852 18.103) rotate(-42)" fill="#eff1f5" stroke="#5a514c" stroke-width="2">
      <rect width="5" height="15" rx="2.5" stroke="none"/>
      <rect x="1" y="1" width="3" height="13" rx="1.5" fill="none"/>
    </g>
    <path id="패스_66158" data-name="패스 66158" d="M12.435,20.068s-2.1-1.256-1.675-4.543,1.479-3.391,1.479-3.391,2.279,2,2.708,3.709a8.718,8.718,0,0,1-.231,3.9Z" transform="translate(-8.654 6.922) rotate(-31)" fill="#eff1f5" stroke="#5a514c" stroke-width="2"/>
  </g>
</svg>
