<svg xmlns="http://www.w3.org/2000/svg" width="34.882" height="34.434" viewBox="0 0 34.882 34.434">
  <g id="icon_신세계라이프스타일" transform="translate(-92.981 -841.662)">
    <g id="그룹_66808" data-name="그룹 66808" transform="translate(93.981 851.8)">
      <g id="그룹_66807" data-name="그룹 66807">
        <g id="그룹_66805" data-name="그룹 66805">
          <path id="패스_66297" data-name="패스 66297" d="M96.528,782.63V798.1h5.792V792.2" transform="translate(-93.981 -774.8)" fill="none" stroke="#5a514c" stroke-linecap="round" stroke-linejoin="round" stroke-width="2"/>
          <path id="패스_66298" data-name="패스 66298" d="M103.32,787.3v-8.834" transform="translate(-94.981 -774.8)" fill="none" stroke="#5a514c" stroke-linecap="round" stroke-linejoin="round" stroke-width="2"/>
          <path id="패스_66299" data-name="패스 66299" d="M96.255,781.682a4.169,4.169,0,1,1,6.065-3.713" transform="translate(-93.981 -773.8)" fill="none" stroke="#5a514c" stroke-linecap="round" stroke-linejoin="round" stroke-width="2"/>
        </g>
        <g id="그룹_66806" data-name="그룹 66806" transform="translate(24.598 0)">
          <path id="패스_66300" data-name="패스 66300" d="M132.561,778.468v6.54" transform="translate(-132.561 -774.8)" fill="none" stroke="#5a514c" stroke-linecap="round" stroke-linejoin="round" stroke-width="2"/>
          <path id="패스_66301" data-name="패스 66301" d="M132.561,792.2V798.1h5.265V782.63" transform="translate(-132.034 -774.8)" fill="none" stroke="#5a514c" stroke-linecap="round" stroke-linejoin="round" stroke-width="2"/>
          <path id="패스_66302" data-name="패스 66302" d="M138.585,781.63a4.141,4.141,0,1,0-6.024-3.688" transform="translate(-132.561 -773.8)" fill="none" stroke="#5a514c" stroke-linecap="round" stroke-linejoin="round" stroke-width="2"/>
        </g>
      </g>
      <path id="패스_66303" data-name="패스 66303" d="M124.879,793.2H108.612a2.523,2.523,0,0,1-2.583-2.461h0a2.524,2.524,0,0,1,2.583-2.459h16.267a2.524,2.524,0,0,1,2.582,2.459h0A2.524,2.524,0,0,1,124.879,793.2Z" transform="translate(-100.273 -775.8)" fill="none" stroke="#9cc023" stroke-linecap="round" stroke-linejoin="round" stroke-width="2"/>
      <path id="패스_66305" data-name="패스 66305" d="M115.96,788.282v0H100.988v0" transform="translate(-92.007 -775.8)" fill="none" stroke="#9cc023" stroke-linecap="round" stroke-linejoin="round" stroke-width="2"/>
    </g>
    <line id="선_360" data-name="선 360" y2="9.986" transform="translate(110.436 848.3)" fill="none" stroke="#9cc023" stroke-linecap="round" stroke-linejoin="round" stroke-width="2"/>
    <path id="패스_66307" data-name="패스 66307" d="M97.793,851.511s-.761-8.809,7.966-8.844,10.215.188,10.215.188,6.537.094,6.476,8.656" transform="translate(0)" fill="none" stroke="#5a514c" stroke-width="2"/>
  </g>
</svg>
