<svg xmlns="http://www.w3.org/2000/svg" width="32.5" height="35.021" viewBox="0 0 32.5 35.021">
  <g id="icon_주민투표" transform="translate(-0.245 1.567)">
    <g id="icon_vote" transform="translate(2.755 9.236)">
      <g id="vote" transform="translate(0.573 -11.431)">
        <g id="패스_66322" data-name="패스 66322" transform="translate(0 9.383) rotate(-30)" fill="none">
          <path d="M0,0H17.511V17.511H15.919c-.73,0-3.549.1-3.549.1L-.38,10.253,0,8.756Z" stroke="none"/>
          <path d="M 1.999996185302734 1.999996185302734 L 1.999996185302734 8.755645751953125 L 1.999996185302734 9.005415916442871 L 1.938566207885742 9.247506141662598 L 1.930888175964355 9.277764320373535 L 12.87358665466309 15.59553813934326 C 13.58623600006104 15.57068061828613 14.78956508636475 15.53052616119385 15.51135540008545 15.51643753051758 L 15.51135540008545 1.999996185302734 L 1.999996185302734 1.999996185302734 M -3.814697265625e-06 -3.814697265625e-06 L 17.51135635375977 -3.814697265625e-06 L 17.51135635375977 17.51135635375977 C 17.51135635375977 17.51135635375977 16.64904594421387 17.51135635375977 15.91940593719482 17.51135635375977 C 15.18976593017578 17.51135635375977 12.37090587615967 17.61471557617188 12.37090587615967 17.61471557617188 L -0.3799247741699219 10.25301551818848 L -3.814697265625e-06 8.755645751953125 L -3.814697265625e-06 -3.814697265625e-06 Z" stroke="none" fill="#5a514c"/>
        </g>
        <path id="check" d="M8.66,0,3.008,5.514,0,2.525" transform="translate(6.699 11.284) rotate(-30)" fill="none" stroke="#9cc023" stroke-linejoin="round" stroke-width="2"/>
      </g>
      <path id="패스_65848" data-name="패스 65848" d="M3,.284V11.9c0,.557,1.3,1.008,2.9,1.008h20.32c1.6,0,2.9-.451,2.9-1.008V.284H3Z" transform="translate(-2.315 10.306)" fill="none" stroke="#5a514c" stroke-linecap="round" stroke-linejoin="round" stroke-width="2"/>
      <rect id="사각형_17540" data-name="사각형 17540" width="30.5" height="4.474" transform="translate(-1.51 6.116)" fill="none" stroke="#5a514c" stroke-linejoin="round" stroke-width="2"/>
    </g>
  </g>
</svg>
