<svg xmlns="http://www.w3.org/2000/svg" width="20" height="22" viewBox="0 0 20 22">
  <g id="Icon_home_on" transform="translate(-26 -0.517)">
    <g id="패스_65970" data-name="패스 65970" transform="translate(23 -3.483)" fill="none">
      <path d="M3,12.4,13,4l10,8.4V23.6A2.316,2.316,0,0,1,20.778,26H5.222A2.316,2.316,0,0,1,3,23.6Z" stroke="none"/>
      <path d="M 13.00000190734863 6.611970901489258 L 5.000001907348633 13.33197021484375 L 5.000001907348633 23.60000038146973 C 5.000001907348633 23.86391067504883 5.15576171875 24 5.222221374511719 24 L 20.77778244018555 24 C 20.84424209594727 24 21.00000190734863 23.86391067504883 21.00000190734863 23.60000038146973 L 21.00000190734863 13.33197021484375 L 13.00000190734863 6.611970901489258 M 13.00000190734863 4.000001907348633 L 23.00000190734863 12.40000152587891 L 23.00000190734863 23.60000038146973 C 23.00000190734863 24.92547988891602 22.00508117675781 26 20.77778244018555 26 L 5.222221374511719 26 C 3.994922637939453 26 3.000001907348633 24.92547988891602 3.000001907348633 23.60000038146973 L 3.000001907348633 12.40000152587891 L 13.00000190734863 4.000001907348633 Z" stroke="none" fill="#c9e667"/>
    </g>
    <path id="패스_65971" data-name="패스 65971" d="M15,15.571v7.379" transform="translate(21 -2.054)" fill="none" stroke="#c9e667" stroke-linejoin="round" stroke-width="2"/>
  </g>
</svg>
