<svg xmlns="http://www.w3.org/2000/svg" width="48.999" height="44.381" viewBox="0 0 48.999 44.381">
  <g id="그룹_66159" data-name="그룹 66159" transform="translate(-911.002 -1956.5)">
    <path id="합치기_7" data-name="합치기 7" d="M-11563.929-18531.1h-6.07a4,4,0,0,1-4-4v-24.9a4,4,0,0,1,4-4h38.273a4.715,4.715,0,0,1,4.724,4.709v23.547a4.714,4.714,0,0,1-4.724,4.705h-22.755l-9.448,9.42Z" transform="translate(12486.003 20521.5)" fill="none" stroke="#8d8785" stroke-linecap="round" stroke-linejoin="round" stroke-width="2"/>
    <g id="그룹_66158" data-name="그룹 66158" transform="translate(-14.499 -4.001)">
      <circle id="타원_541" data-name="타원 541" cx="2" cy="2" r="2" transform="translate(939 1976)" fill="#8d8785"/>
      <circle id="타원_542" data-name="타원 542" cx="2" cy="2" r="2" transform="translate(948 1976)" fill="#8d8785"/>
      <circle id="타원_543" data-name="타원 543" cx="2" cy="2" r="2" transform="translate(957 1976)" fill="#8d8785"/>
    </g>
  </g>
</svg>
