<svg xmlns="http://www.w3.org/2000/svg" width="34.541" height="31.139" viewBox="0 0 34.541 31.139">
  <g id="icon_단지장터" transform="translate(-936.584 -665.861)">
    <path id="패스_66162" data-name="패스 66162" d="M2769.584-19698.7h32.541" transform="translate(-1832 20375)" fill="none" stroke="#5a514c" stroke-linecap="round" stroke-width="2"/>
    <g id="패스_66163" data-name="패스 66163" transform="translate(941.601 675.428)" fill="#fff">
      <path d="M 20.77265167236328 20.57226371765137 L 3.483451843261719 20.57226371765137 C 2.268311738967896 20.57226371765137 1.241721749305725 19.0544319152832 1.241721749305725 17.2578125 L 1.241721749305725 17.16470336914063 L 1.224531769752502 17.07320213317871 L -1.794670224189758 1.000002861022949 L 26.05077362060547 1.000002861022949 L 23.03157234191895 17.07320213317871 L 23.01438140869141 17.16470336914063 L 23.01438140869141 17.2578125 C 23.01438140869141 19.0544319152832 21.98779106140137 20.57226371765137 20.77265167236328 20.57226371765137 Z" stroke="none"/>
      <path d="M -0.5893421173095703 2.000001907348633 L 2.207342147827148 16.88859176635742 L 2.241722106933594 17.07160186767578 L 2.241722106933594 17.2578125 C 2.241722106933594 18.64916229248047 2.989101409912109 19.57226181030273 3.483451843261719 19.57226181030273 L 20.77265167236328 19.57226181030273 C 21.26700210571289 19.57226181030273 22.01438140869141 18.64916229248047 22.01438140869141 17.2578125 L 22.01438140869141 17.07160186767578 L 22.04876136779785 16.88859176635742 L 24.84544563293457 2.000001907348633 L -0.5893421173095703 2.000001907348633 M -2.999998092651367 1.9073486328125e-06 L 27.25610160827637 1.9073486328125e-06 L 24.01438140869141 17.2578125 C 24.01438140869141 19.64062309265137 22.56301116943359 21.57226371765137 20.77265167236328 21.57226371765137 L 3.483451843261719 21.57226371765137 C 1.693092346191406 21.57226371765137 0.2417221069335938 19.64062309265137 0.2417221069335938 17.2578125 L -2.999998092651367 1.9073486328125e-06 Z" stroke="none" fill="#5a514c"/>
    </g>
    <path id="패스_66164" data-name="패스 66164" d="M2783-19707.75l-6.25,9.125" transform="translate(-1832.145 20375)" fill="none" stroke="#5a514c" stroke-linecap="round" stroke-width="2"/>
    <path id="패스_66165" data-name="패스 66165" d="M2776.75-19707.75l6.25,9.125" transform="translate(-1820.387 20375)" fill="none" stroke="#5a514c" stroke-linecap="round" stroke-width="2"/>
    <line id="선_298" data-name="선 298" y2="7" transform="translate(949.5 682.5)" fill="none" stroke="#9cc023" stroke-linecap="round" stroke-width="2"/>
    <line id="선_299" data-name="선 299" y2="7" transform="translate(954.5 682.5)" fill="none" stroke="#9cc023" stroke-linecap="round" stroke-width="2"/>
    <line id="선_300" data-name="선 300" y2="7" transform="translate(959.5 682.5)" fill="none" stroke="#9cc023" stroke-linecap="round" stroke-width="2"/>
  </g>
</svg>
