<svg xmlns="http://www.w3.org/2000/svg" width="25.831" height="28.5" viewBox="0 0 25.831 28.5">
  <g id="icon_에어컨모드" transform="translate(3.634 1)">
    <g id="그룹_575" data-name="그룹 575" transform="translate(-2 0)">
      <line id="선_146" data-name="선 146" y2="26.5" transform="translate(11.113)" fill="none" stroke="#5a514c" stroke-linecap="round" stroke-width="2"/>
      <line id="선_147" data-name="선 147" x1="22.226" y2="13.677" transform="translate(0 6.839)" fill="none" stroke="#5a514c" stroke-linecap="round" stroke-width="2"/>
      <line id="선_148" data-name="선 148" x2="22.226" y2="13.677" transform="translate(0 6.839)" fill="none" stroke="#5a514c" stroke-linecap="round" stroke-width="2"/>
      <path id="패스_557" data-name="패스 557" d="M904.8,1502.2l3.59,2.394,4.167-2.394" transform="translate(-897.705 -1499.037)" fill="none" stroke="#5a514c" stroke-linecap="round" stroke-width="2"/>
      <path id="패스_559" data-name="패스 559" d="M904.8,1504.594l3.59-2.394,4.167,2.394" transform="translate(-897.705 -1480.231)" fill="none" stroke="#5a514c" stroke-linecap="round" stroke-width="2"/>
      <path id="패스_558" data-name="패스 558" d="M0,0,3.59,2.394,6.941.594" transform="matrix(0.545, 0.839, -0.839, 0.545, 18.516, 5.396)" fill="none" stroke="#5a514c" stroke-linecap="round" stroke-width="2"/>
      <path id="패스_561" data-name="패스 561" d="M0,0,3.59,2.394,6.941.594" transform="matrix(-0.545, -0.839, 0.839, -0.545, 4.047, 21.924)" fill="none" stroke="#5a514c" stroke-linecap="round" stroke-width="2"/>
      <path id="패스_560" data-name="패스 560" d="M0,2.394,3.59,0,6.941,1.8" transform="matrix(-0.545, 0.839, -0.839, -0.545, 6.054, 6.699)" fill="none" stroke="#5a514c" stroke-linecap="round" stroke-width="2"/>
      <path id="패스_562" data-name="패스 562" d="M0,2.394,3.59,0,6.941,1.8" transform="matrix(0.545, -0.839, 0.839, 0.545, 16.508, 20.62)" fill="none" stroke="#5a514c" stroke-linecap="round" stroke-width="2"/>
    </g>
    <path id="패스_563" data-name="패스 563" d="M906.065,1319.6,903,1321.355v4.589l3.065,1.35,3.279-1.35v-4.589Z" transform="translate(-896.888 -1309.941)" fill="#eff1f5" stroke="#9cc023" stroke-width="2"/>
  </g>
</svg>
