<svg xmlns="http://www.w3.org/2000/svg" width="22.853" height="17.635" viewBox="0 0 22.853 17.635">
  <g id="icon_가스" transform="translate(0 0)">
    <path id="패스_66103" data-name="패스 66103" d="M2.215,0S4.573,2.6,4.573,3.9A2.32,2.32,0,0,1,2.287,6.249,2.32,2.32,0,0,1,0,3.9C0,2.6,2.215,0,2.215,0Z" transform="matrix(1, -0.017, 0.017, 1, 14.492, 0.08)" fill="#9cc023"/>
    <path id="패스_66108" data-name="패스 66108" d="M2.215,0S4.573,2.6,4.573,3.9A2.32,2.32,0,0,1,2.287,6.249,2.32,2.32,0,0,1,0,3.9C0,2.6,2.215,0,2.215,0Z" transform="matrix(1, -0.017, 0.017, 1, 3.055, 0.08)" fill="#9cc023"/>
    <path id="패스_66109" data-name="패스 66109" d="M2.215,0S4.573,2.6,4.573,3.9A2.32,2.32,0,0,1,2.287,6.249,2.32,2.32,0,0,1,0,3.9C0,2.6,2.215,0,2.215,0Z" transform="matrix(1, -0.017, 0.017, 1, 8.774, 0.08)" fill="#9cc023"/>
    <path id="패스_66105" data-name="패스 66105" d="M-2211.762-17330.5h22.853" transform="translate(2211.762 17347.135)" fill="none" stroke="#5a514c" stroke-width="2"/>
    <path id="패스_66106" data-name="패스 66106" d="M-2204.019-17338.5h-4.306l-1.675,6.611" transform="translate(2212.279 17348.529)" fill="none" stroke="#5a514c" stroke-width="2"/>
    <path id="패스_66107" data-name="패스 66107" d="M-2210-17338.5h4.306l1.675,6.611" transform="translate(2224.24 17348.529)" fill="none" stroke="#5a514c" stroke-width="2"/>
    <line id="선_281" data-name="선 281" y2="7.72" transform="translate(11.13 8.915)" fill="none" stroke="#5a514c" stroke-width="2"/>
  </g>
</svg>
