<svg xmlns="http://www.w3.org/2000/svg" width="12" height="15" viewBox="0 0 12 15">
  <g id="icon_locate" transform="translate(1.5 1.5)">
    <g id="Op_component_1" data-name="Op component 1" transform="translate(-785 -3167.999)" fill="none" stroke-linejoin="round">
      <path d="M794,3172.313c0,2.57-2.841,6.114-4.005,7.464a.656.656,0,0,1-.983,0c-1.17-1.351-4.012-4.895-4.012-7.464a4.5,4.5,0,0,1,9,0Z" stroke="none"/>
      <path d="M 789.499755859375 3167.999267578125 C 787.011962890625 3167.999267578125 784.999755859375 3169.928466796875 784.999755859375 3172.313232421875 C 784.999755859375 3174.883056640625 787.8412475585938 3178.427001953125 789.0113525390625 3179.777587890625 C 789.1400146484375 3179.92529296875 789.3215942382813 3179.999267578125 789.5031127929688 3179.999267578125 C 789.6846923828125 3179.999267578125 789.8662109375 3179.92529296875 789.9947509765625 3179.777587890625 C 791.1585083007813 3178.427001953125 793.999755859375 3174.883056640625 793.999755859375 3172.313232421875 C 793.999755859375 3169.928466796875 791.98779296875 3167.999267578125 789.499755859375 3167.999267578125 M 789.499755859375 3166.499267578125 C 792.8081665039063 3166.499267578125 795.499755859375 3169.107421875 795.499755859375 3172.313232421875 C 795.499755859375 3173.72607421875 794.9134521484375 3175.35546875 793.7073974609375 3177.294677734375 C 792.83544921875 3178.69677734375 791.8251342773438 3179.951416015625 791.131103515625 3180.7568359375 C 791.129638671875 3180.758544921875 791.128173828125 3180.760009765625 791.126708984375 3180.76171875 C 790.7191772460938 3181.23046875 790.1273803710938 3181.499267578125 789.5031127929688 3181.499267578125 C 788.8790283203125 3181.499267578125 788.287353515625 3181.230712890625 787.8797607421875 3180.76220703125 C 786.24267578125 3178.87255859375 783.499755859375 3175.265869140625 783.499755859375 3172.313232421875 C 783.499755859375 3169.107421875 786.1913452148438 3166.499267578125 789.499755859375 3166.499267578125 Z" stroke="none" fill="#8d8785"/>
    </g>
    <circle id="Op_component_2" data-name="Op component 2" cx="1.75" cy="1.75" r="1.75" transform="translate(2.772 2.818)" fill="#8d8785"/>
  </g>
</svg>
