<svg id="icon_눈날림" xmlns="http://www.w3.org/2000/svg" width="36.794" height="39.026" viewBox="0 0 36.794 39.026">
  <g id="그룹_65699" data-name="그룹 65699" transform="translate(23.665 7.333) rotate(47)">
    <path id="패스_65843" data-name="패스 65843" d="M8.77,7.265l.183-.321a.557.557,0,0,0-.183-.736.528.528,0,0,0-.405-.054.544.544,0,0,0-.314.254l-.183.321L6.1,5.7l.039-.214-.039-.2L7.868,4.241l.183.321a.568.568,0,0,0,.732.214.578.578,0,0,0,.17-.736L8.77,3.706l.379-.227a.544.544,0,0,0,.209-.736.573.573,0,0,0-.353-.254.966.966,0,0,0-.366.067l-.392.214-.183-.321a.568.568,0,0,0-.34-.268.947.947,0,0,0-.379.067.545.545,0,0,0-.2.736l.183.321L5.6,4.348a1.376,1.376,0,0,0-.366-.2V2.06h.379a.522.522,0,0,0,.523-.535A.531.531,0,0,0,5.608.99H5.229V.535A.522.522,0,0,0,4.707,0a.531.531,0,0,0-.523.535V.99H3.818a.531.531,0,0,0-.523.535.522.522,0,0,0,.523.535h.366V4.148a1.793,1.793,0,0,0-.353.187L2.08,3.3l.183-.321a.515.515,0,0,0,.052-.415.553.553,0,0,0-.248-.321.585.585,0,0,0-.405-.053.482.482,0,0,0-.3.254l-.2.321L.787,2.555A.439.439,0,0,0,.382,2.5a.5.5,0,0,0-.314.241.548.548,0,0,0,.2.736l.379.227L.46,4.027a.576.576,0,0,0-.065.388.606.606,0,0,0,.261.361.536.536,0,0,0,.706-.214l.2-.321L3.309,5.285l-.026.2.026.2V5.7L1.558,6.73l-.2-.321a.482.482,0,0,0-.3-.254.482.482,0,0,0-.405.054.568.568,0,0,0-.248.308.539.539,0,0,0,.052.428l.183.321-.379.241a.545.545,0,0,0-.2.736.579.579,0,0,0,.719.187l.379-.241.2.335a.53.53,0,0,0,.706.2.543.543,0,0,0,.261-.348A.527.527,0,0,0,2.263,8L2.08,7.653l1.751-1.03a1.159,1.159,0,0,0,.353.2V8.911H3.818a.531.531,0,0,0-.523.535.511.511,0,0,0,.523.522h.366v.468a.511.511,0,0,0,.523.522.5.5,0,0,0,.523-.522V9.968h.379a.511.511,0,0,0,.523-.522.531.531,0,0,0-.523-.535H5.229V6.824A1.145,1.145,0,0,0,5.6,6.609L7.333,7.653,7.15,8a.539.539,0,0,0,.2.723.579.579,0,0,0,.719-.2l.183-.335.392.241a.561.561,0,0,0,.719-.2.535.535,0,0,0,.039-.4.475.475,0,0,0-.248-.321ZM4.132,5.486A.587.587,0,0,1,4.707,4.9a.579.579,0,0,1,.575.589.57.57,0,0,1-.575.589A.578.578,0,0,1,4.132,5.486Z" transform="translate(0 3.42)" fill="#5a514c"/>
    <path id="패스_65844" data-name="패스 65844" d="M8.8,2.97a.478.478,0,0,0-.049-.39.449.449,0,0,0-.294-.227.416.416,0,0,0-.367.038l-.367.226L7.556,2.29a.532.532,0,0,0-.686-.176.545.545,0,0,0-.171.692l.184.3L5.229,4.09A.956.956,0,0,0,4.9,3.9V1.938h.355a.473.473,0,0,0,.477-.5.48.48,0,0,0-.477-.5H4.9V.5A.5.5,0,0,0,4.421,0a.49.49,0,0,0-.49.5V.931H3.564a.478.478,0,0,0-.465.5.471.471,0,0,0,.465.5h.367V3.9a1.013,1.013,0,0,0-.343.189L1.948,3.108l.171-.3a.532.532,0,0,0-.171-.692.47.47,0,0,0-.673.176l-.184.327L.736,2.391a.521.521,0,0,0-.367-.038.471.471,0,0,0-.306.227.477.477,0,0,0-.037.39.458.458,0,0,0,.22.3L.6,3.486.43,3.8a.5.5,0,0,0,.184.68A.548.548,0,0,0,1.287,4.3l.171-.315L3.1,4.958l-.012.2.012.2L1.459,6.33,1.287,6a.529.529,0,0,0-.673-.164.517.517,0,0,0-.184.692l.171.3-.355.227a.408.408,0,0,0-.22.289.477.477,0,0,0,.037.39.535.535,0,0,0,.306.239.418.418,0,0,0,.367-.05l.355-.214.184.315A.513.513,0,0,0,1.96,8.2a.535.535,0,0,0,.159-.679L1.948,7.21l1.641-.982a1.312,1.312,0,0,0,.343.2v1.95H3.564a.471.471,0,0,0-.465.5.478.478,0,0,0,.465.5h.367v.428a.483.483,0,0,0,.49.5.5.5,0,0,0,.477-.5V9.387h.355a.48.48,0,0,0,.477-.5.473.473,0,0,0-.477-.5H4.9V6.43a1.235,1.235,0,0,0,.331-.2l1.653.982L6.7,7.525a.529.529,0,0,0,.184.679.517.517,0,0,0,.673-.176l.171-.315.367.214a.386.386,0,0,0,.367.05.51.51,0,0,0,.294-.239.478.478,0,0,0,.049-.39.442.442,0,0,0-.22-.289l-.367-.227.184-.3a.51.51,0,0,0-.2-.692.49.49,0,0,0-.661.176l-.171.315L5.719,5.361l.024-.2-.024-.2,1.653-.969.171.327A.539.539,0,0,0,8.2,4.48a.492.492,0,0,0,.2-.68l-.184-.315.367-.214A.5.5,0,0,0,8.8,2.97ZM3.87,5.159a.545.545,0,1,1,1.09,0,.545.545,0,1,1-1.09,0Z" transform="translate(10.426 0)" fill="#8d8785"/>
    <path id="패스_65850" data-name="패스 65850" d="M8.359,2.824a.456.456,0,0,0-.046-.371.426.426,0,0,0-.279-.215.394.394,0,0,0-.349.036l-.349.215-.163-.311a.5.5,0,0,0-.651-.168.519.519,0,0,0-.163.658l.174.287-1.569.933a.907.907,0,0,0-.314-.179V1.843h.337a.45.45,0,0,0,.453-.479A.456.456,0,0,0,4.988.885H4.651V.479A.479.479,0,0,0,4.2,0a.466.466,0,0,0-.465.479V.885H3.384a.454.454,0,0,0-.442.479.447.447,0,0,0,.442.479h.349V3.709a.962.962,0,0,0-.325.179L1.85,2.956l.163-.287A.506.506,0,0,0,1.85,2.01a.446.446,0,0,0-.639.168l-.174.311L.7,2.274A.494.494,0,0,0,.35,2.238a.447.447,0,0,0-.291.215.454.454,0,0,0-.035.371.436.436,0,0,0,.209.287l.337.2-.163.3a.475.475,0,0,0,.174.646.52.52,0,0,0,.639-.168l.163-.3,1.558.921-.012.191.012.192-1.558.921-.163-.311a.5.5,0,0,0-.639-.156.492.492,0,0,0-.174.658L.571,6.5l-.337.215a.388.388,0,0,0-.209.275.454.454,0,0,0,.035.371.508.508,0,0,0,.291.227A.4.4,0,0,0,.7,7.538l.337-.2.174.3a.486.486,0,0,0,.651.168.509.509,0,0,0,.151-.646l-.163-.3,1.558-.933a1.245,1.245,0,0,0,.325.191V7.969H3.384a.447.447,0,0,0-.442.479.454.454,0,0,0,.442.479h.349v.407a.459.459,0,0,0,.465.479.471.471,0,0,0,.453-.479V8.926h.337a.456.456,0,0,0,.453-.479.45.45,0,0,0-.453-.479H4.651V6.115a1.173,1.173,0,0,0,.314-.191l1.569.933-.174.3a.5.5,0,0,0,.174.646.491.491,0,0,0,.639-.168l.163-.3.349.2a.366.366,0,0,0,.349.048.485.485,0,0,0,.279-.227.456.456,0,0,0,.046-.371.42.42,0,0,0-.209-.275L7.8,6.5l.174-.287a.485.485,0,0,0-.186-.658.464.464,0,0,0-.628.168L7,6.019,5.43,5.1l.023-.192L5.43,4.715,7,3.793l.163.311a.511.511,0,0,0,.628.156.468.468,0,0,0,.186-.646l-.174-.3.349-.2A.476.476,0,0,0,8.359,2.824ZM3.675,4.906a.517.517,0,1,1,1.034,0,.517.517,0,1,1-1.034,0Z" transform="translate(17.451 8.962)" fill="#9cc023" opacity="0.3"/>
    <path id="패스_65845" data-name="패스 65845" d="M8.467,6.986l.176-.309a.649.649,0,0,0,.05-.412.547.547,0,0,0-.24-.3.511.511,0,0,0-.391-.051.525.525,0,0,0-.3.244l-.176.309L5.9,5.481V5.468l.025-.193L5.9,5.082l1.689-1,.176.309a.55.55,0,0,0,.693.206.583.583,0,0,0,.252-.347.579.579,0,0,0-.063-.36l-.176-.322.378-.219a.552.552,0,0,0,.176-.708.5.5,0,0,0-.3-.232.466.466,0,0,0-.391.051l-.366.206-.189-.309a.5.5,0,0,0-.29-.244.454.454,0,0,0-.391.051.531.531,0,0,0-.24.309.493.493,0,0,0,.05.4l.189.309-1.7.991a1.529,1.529,0,0,0-.353-.18V1.981H5.4a.5.5,0,0,0,.5-.515A.511.511,0,0,0,5.4.952H5.038V.515A.5.5,0,0,0,4.534,0a.511.511,0,0,0-.5.515V.952H3.677a.511.511,0,0,0-.5.515.5.5,0,0,0,.5.515H4.03V3.989a1.467,1.467,0,0,0-.34.193L2,3.178l.189-.309A.523.523,0,0,0,2,2.162.618.618,0,0,0,1.635,2.1a.514.514,0,0,0-.328.257l-.177.309L.765,2.457a.675.675,0,0,0-.378-.064.563.563,0,0,0-.328.244.552.552,0,0,0-.038.4.487.487,0,0,0,.24.309l.366.219-.189.322a.536.536,0,0,0,.189.708.518.518,0,0,0,.681-.206L1.5,4.079l1.7,1-.038.193.038.206-1.7.991-.189-.309a.465.465,0,0,0-.29-.244.467.467,0,0,0-.391.051.527.527,0,0,0-.189.708l.189.309-.366.232a.457.457,0,0,0-.24.309.552.552,0,0,0,.038.4.555.555,0,0,0,.693.18l.378-.232.177.322a.5.5,0,0,0,.681.193.511.511,0,0,0,.2-.695L2,7.36l1.689-1a1.2,1.2,0,0,0,.34.206V8.569H3.677a.511.511,0,0,0-.5.515.492.492,0,0,0,.5.5H4.03v.45a.492.492,0,0,0,.5.5.485.485,0,0,0,.5-.5v-.45H5.4a.492.492,0,0,0,.5-.5.511.511,0,0,0-.5-.515H5.038V6.562a1.048,1.048,0,0,0,.353-.193l1.7.991L6.9,7.681a.552.552,0,0,0-.063.373.522.522,0,0,0,.252.335A.5.5,0,0,0,7.774,8.2l.189-.322.366.232a.51.51,0,0,0,.5-.888ZM3.979,5.275a.561.561,0,1,1,1.122,0,.561.561,0,1,1-1.122,0Z" transform="translate(6.211 13.334)" fill="#9cc023"/>
  </g>
  <path id="패스_65846" data-name="패스 65846" d="M31.938,14.568a1.681,1.681,0,0,1-1.681-1.681,5.049,5.049,0,0,0-5.043-5.043c-.143,0-.285.011-.425.022l-.988.082-.55-.827A8.4,8.4,0,0,0,7.844,11.767l.066,1.559-1.171.411a5.039,5.039,0,0,0,1.665,9.8,1.681,1.681,0,1,1,0,3.362A8.4,8.4,0,0,1,4.5,11.052,11.764,11.764,0,0,1,25.49,4.487a8.416,8.416,0,0,1,8.129,8.4A1.681,1.681,0,0,1,31.938,14.568Z" transform="translate(0)" fill="#5a514c" fill-rule="evenodd"/>
</svg>
