<svg xmlns="http://www.w3.org/2000/svg" width="96.235" height="20" viewBox="0 0 96.235 20">
  <g id="ci" transform="translate(77.95 16.17)">
    <path id="패스_65902" data-name="패스 65902" d="M74.959,10.372H73.478A7.037,7.037,0,0,0,69.959,7.1h-.123L65.7,14.754h1.235L70.268,8.4a5.078,5.078,0,0,1,2.346,6.235l.988.556a6.543,6.543,0,0,0,.247-3.827h1.173v7.9h1.111V7.1H74.959Z" transform="translate(-103.094 -18.887)" fill="#848484"/>
    <rect id="사각형_17747" data-name="사각형 17747" width="1.049" height="12.111" transform="translate(-25.913 -11.787)" fill="#848484"/>
    <path id="패스_65903" data-name="패스 65903" d="M49.6,14.716l.988.494a6.06,6.06,0,0,0-3.025-7.654h0l-.741-.37L46.636,7,42.5,14.778h1.3l3.333-6.42A5.123,5.123,0,0,1,49.6,14.716" transform="translate(-94.215 -18.849)" fill="#848484"/>
    <path id="패스_65904" data-name="패스 65904" d="M55.563,18.273h-6.79V14.754H47.6v4.506h9.136V7.1H55.563Z" transform="translate(-96.167 -18.887)" fill="#848484"/>
    <rect id="사각형_17748" data-name="사각형 17748" width="1.173" height="12.111" transform="translate(3.902 -11.787)" fill="#848484"/>
    <rect id="사각형_17749" data-name="사각형 17749" width="3.395" height="0.975" transform="translate(1.372 -9.38)" fill="#848484"/>
    <rect id="사각형_17750" data-name="사각형 17750" width="8.21" height="0.975" transform="translate(-3.073 -0.614)" fill="#848484"/>
    <rect id="사각형_17751" data-name="사각형 17751" width="1.173" height="4.469" transform="translate(-3.196 -4.133)" fill="#848484"/>
    <rect id="사각형_17752" data-name="사각형 17752" width="3.395" height="0.975" transform="translate(14.335 -9.503)" fill="#848484"/>
    <rect id="사각형_17753" data-name="사각형 17753" width="8.333" height="0.975" transform="translate(9.952 -5.059)" fill="#848484"/>
    <rect id="사각형_17754" data-name="사각형 17754" width="7.778" height="0.975" transform="translate(10.507 -0.614)" fill="#848484"/>
    <rect id="사각형_17755" data-name="사각형 17755" width="8.333" height="0.981" transform="translate(9.952 -2.898)" fill="#848484"/>
    <rect id="사각형_17756" data-name="사각형 17756" width="1.173" height="3.191" transform="translate(9.952 -2.837)" fill="#848484"/>
    <rect id="사각형_17757" data-name="사각형 17757" width="1.173" height="5.846" transform="translate(17.112 -11.787)" fill="#848484"/>
    <rect id="사각형_17758" data-name="사각형 17758" width="1.173" height="1.728" transform="translate(17.112 -4.38)" fill="#848484"/>
    <path id="패스_65905" data-name="패스 65905" d="M117.9,8.088V7.1h6.543a5.185,5.185,0,0,1,.123,1.111,5.37,5.37,0,0,1-1.79,4.259c-1.975,1.728-5.432,1.543-5.432,1.543l-.247-1.049c.617,0,3.333.062,4.938-1.235a4.506,4.506,0,0,0,1.481-3.519V8.088Z" transform="translate(-122.766 -18.887)" fill="#848484"/>
    <path id="패스_65906" data-name="패스 65906" d="M141.148,6.7h0L138,12.626h1.235l2.531-4.753a4.074,4.074,0,0,1,3.21,4.259,3.086,3.086,0,0,1-.062.556l.988.432a6.849,6.849,0,0,0,.123-.926,5.123,5.123,0,0,0-4.877-5.37" transform="translate(-130.764 -18.734)" fill="#848484"/>
    <rect id="사각형_17759" data-name="사각형 17759" width="1.049" height="12.111" transform="translate(-11.962 -11.787)" fill="#848484"/>
    <path id="패스_65907" data-name="패스 65907" d="M90.17,15.372a6.914,6.914,0,0,0,5.494-3.086h2.469v6.975h1.111V7.1H98.133V9.261H96.59A6.42,6.42,0,0,0,96.343,7.1H90.726V8.149h4.753a4.26,4.26,0,0,1,.062.741c-.062,3.025-2.222,5.247-5.741,5.494ZM98.133,11.3H96.158a6.111,6.111,0,0,0,.309-.988h1.667Z" transform="translate(-112.318 -18.887)" fill="#848484"/>
    <path id="패스_65908" data-name="패스 65908" d="M16.078.062l.8,1.049L17,1.3a12.346,12.346,0,0,1,.988,1.852l.123.37v.309a3.7,3.7,0,0,1-.062,1.3,6.852,6.852,0,0,1-.988,2.161L15.893,8.765,14.411,7.1l-.8-1.6A5.926,5.926,0,0,1,13.3,3.642a1.086,1.086,0,0,1,.062-.37,2.469,2.469,0,0,1,.185-.617l.247-.37.309-.432A19.383,19.383,0,0,1,16.078,0h.062" transform="translate(-83.04 -16.17)" fill="#848484"/>
    <path id="패스_65909" data-name="패스 65909" d="M5.026,5.747l.556.185L7,6.241l.864.37A6.975,6.975,0,0,1,9.717,8.278a5.741,5.741,0,0,1,.988,2.161,3.1,3.1,0,0,1,.123.741,10,10,0,0,1-2.469.37,6.111,6.111,0,0,1-1.852-.679A6.111,6.111,0,0,1,5.026,9.389,6.975,6.975,0,0,1,4.1,6.549V5.5h.309l.741.185" transform="translate(-79.519 -18.275)" fill="#848484"/>
    <path id="패스_65910" data-name="패스 65910" d="M24.538,6.97l1.3.247h.185l1.235.432a3.333,3.333,0,0,1-.494,1.6H26.7a4.136,4.136,0,0,1-1.173,1.173,8.025,8.025,0,0,1-1.358.8,5.679,5.679,0,0,1-3.272.679l-1.3-.185.247-1.111a5.37,5.37,0,0,1,.247-.679,9.815,9.815,0,0,1,.864-1.543,5.556,5.556,0,0,1,1.975-1.3,3.272,3.272,0,0,1,1.6-.123" transform="translate(-85.451 -18.819)" fill="#848484"/>
    <path id="패스_65911" data-name="패스 65911" d="M5.926,19.635a3.7,3.7,0,0,0,1.235-.988,10.37,10.37,0,0,0,.988-1.3l.432-.617h.062a16.79,16.79,0,0,0-2.1-.8,8.21,8.21,0,0,0-1.79-.37,5.185,5.185,0,0,0-1.6,0A8.4,8.4,0,0,0,.062,17.228H0a14.568,14.568,0,0,0,1.111,1.481l.247.247.432.432.556.247a3.4,3.4,0,0,0,1.42.37,6.543,6.543,0,0,0,2.1-.494" transform="translate(-77.95 -22.102)" fill="#848484"/>
    <path id="패스_65912" data-name="패스 65912" d="M24.3,15.6h.741a6.975,6.975,0,0,1,1.975.617l.309.185.37.247.494.556.185.309a15.309,15.309,0,0,1,.679,1.543v.123l-.37.123-.556.185-1.235.247-.864.123H24.18l-.741-.185-.679-.247-.37-.185-.432-.309-.617-.617a12.285,12.285,0,0,1-.741-1.235,6.852,6.852,0,0,1,1.914-1.111l.8-.309h.864" transform="translate(-85.834 -22.14)" fill="#848484"/>
    <path id="패스_65913" data-name="패스 65913" d="M22.077,22.222a4.568,4.568,0,0,1,1.111,2.1,7.16,7.16,0,0,1,.123.864,8.147,8.147,0,0,1,.062.926c0,.494-.062.926-.062,1.42l-.679-.247-1.6-.556a9.939,9.939,0,0,1-1.667-.926,5.679,5.679,0,0,1-.988-.864l-.432-.679a1.42,1.42,0,0,1-.123-.37,3.457,3.457,0,0,1-.123-1.049,3.211,3.211,0,0,1,0-.494,10.556,10.556,0,0,1,.494-2.1V20a8.589,8.589,0,0,1,3.827,2.222" transform="translate(-84.718 -23.824)" fill="#848484"/>
    <path id="패스_65914" data-name="패스 65914" d="M12.875,20.062,10.1,21.235l-.494.309-.864.8A2.161,2.161,0,0,0,8,23.765a7.716,7.716,0,0,0,.123,1.6A13.519,13.519,0,0,0,8.615,27.1l.123.556h.185a17.716,17.716,0,0,0,2.161-.926,4.506,4.506,0,0,0,1.42-1.173l.185-.247a4.074,4.074,0,0,0,.8-2.346s0-.247,0-.37-.123-.617-.123-.926l-.123-.556A7.818,7.818,0,0,0,12.875,20" transform="translate(-81.01 -23.824)" fill="#848484"/>
    <rect id="사각형_17760" data-name="사각형 17760" width="96.235" height="19.963" transform="translate(-77.95 -16.17)" fill="none"/>
  </g>
</svg>
