<svg xmlns="http://www.w3.org/2000/svg" width="16.75" height="16.75" viewBox="0 0 16.75 16.75">
  <g id="Icon_mymenu" transform="translate(0.75 0.75)">
    <path id="star" d="M8.949,2,11.1,6.35l4.8.7-3.475,3.384.82,4.781L8.949,12.959,4.655,15.217l.82-4.781L2,7.052l4.8-.7Z" transform="translate(-2 -2)" fill="none" stroke="#aaa" stroke-linecap="round" stroke-linejoin="round" stroke-width="1.5"/>
    <path id="패스_66005" data-name="패스 66005" d="M225,144.536a1.48,1.48,0,0,0,1.507,1.507h6.029a1.48,1.48,0,0,0,1.507-1.507v-6.029A1.48,1.48,0,0,0,232.536,137h-6.029A1.48,1.48,0,0,0,225,138.507Z" transform="translate(-218.043 -130.043)" fill="#4b423c"/>
    <line id="선_235" data-name="선 235" y2="4.174" transform="translate(11.478 9.391)" fill="none" stroke="#aaa" stroke-linecap="square" stroke-linejoin="round" stroke-miterlimit="10" stroke-width="1.5"/>
    <line id="선_236" data-name="선 236" x1="4.174" transform="translate(9.391 11.478)" fill="none" stroke="#aaa" stroke-linecap="square" stroke-linejoin="round" stroke-miterlimit="10" stroke-width="1.5"/>
  </g>
</svg>
