<svg xmlns="http://www.w3.org/2000/svg" width="28.735" height="23" viewBox="0 0 28.735 23">
  <g id="그룹_66093" data-name="그룹 66093" transform="translate(8 0.5)">
    <g id="사각형_17565" data-name="사각형 17565" transform="translate(3 -0.5)" fill="none" stroke="#fff" stroke-width="2">
      <path d="M2,0H13a2,2,0,0,1,2,2V23a0,0,0,0,1,0,0H0a0,0,0,0,1,0,0V2A2,2,0,0,1,2,0Z" stroke="none"/>
      <rect x="1" y="1" width="13" height="21" rx="1" fill="none"/>
    </g>
    <g id="사각형_17567" data-name="사각형 17567" transform="translate(7.445 4.888)" fill="#fff" stroke="#fff" stroke-width="2">
      <rect width="2.395" height="3.592" stroke="none"/>
      <rect x="1" y="1" width="0.395" height="1.592" fill="none"/>
    </g>
    <g id="사각형_17571" data-name="사각형 17571" transform="translate(11.643 4.888)" fill="#fff" stroke="#fff" stroke-width="2">
      <rect width="2.395" height="3.592" stroke="none"/>
      <rect x="1" y="1" width="0.395" height="1.592" fill="none"/>
    </g>
    <g id="사각형_17568" data-name="사각형 17568" transform="translate(7.445 10.677)" fill="#fff" stroke="#fff" stroke-width="2">
      <rect width="2.395" height="3.592" stroke="none"/>
      <rect x="1" y="1" width="0.395" height="1.592" fill="none"/>
    </g>
    <g id="사각형_17570" data-name="사각형 17570" transform="translate(11.643 10.677)" fill="#fff" stroke="#fff" stroke-width="2">
      <rect width="2.395" height="3.592" stroke="none"/>
      <rect x="1" y="1" width="0.395" height="1.592" fill="none"/>
    </g>
    <g id="그룹_65883" data-name="그룹 65883" transform="translate(-8 4.289)">
      <g id="사각형_17565-2" data-name="사각형 17565" transform="translate(2.395)" fill="none" stroke="#fff" stroke-width="2">
        <path d="M2,0h8.728a0,0,0,0,1,0,0V17.96a0,0,0,0,1,0,0H0a0,0,0,0,1,0,0V2A2,2,0,0,1,2,0Z" stroke="none"/>
        <rect x="1" y="1" width="8.728" height="15.96" rx="1" fill="none"/>
      </g>
      <rect id="사각형_17718" data-name="사각형 17718" width="28.735" height="2.395" transform="translate(0 15.816)" fill="#fff"/>
      <g id="사각형_17781" data-name="사각형 17781" transform="translate(6.812 4.789)" fill="#fff" stroke="#fff" stroke-width="2">
        <rect width="2.395" height="2.395" stroke="none"/>
        <rect x="1" y="1" width="0.395" height="0.395" fill="none"/>
      </g>
      <g id="사각형_17782" data-name="사각형 17782" transform="translate(6.812 8.381)" fill="#fff" stroke="#fff" stroke-width="2">
        <rect width="2.395" height="2.395" stroke="none"/>
        <rect x="1" y="1" width="0.395" height="0.395" fill="none"/>
      </g>
    </g>
  </g>
</svg>
