<svg xmlns="http://www.w3.org/2000/svg" width="28.433" height="30.571" viewBox="0 0 28.433 30.571">
  <g id="icon_조식예약" transform="translate(0)">
    <g id="사각형_1480" data-name="사각형 1480" transform="translate(0 0)" fill="none" stroke="#5a514c" stroke-linecap="round" stroke-linejoin="round" stroke-width="2">
      <rect width="22.858" height="24.228" rx="3" stroke="none"/>
      <rect x="1" y="1" width="20.858" height="22.228" rx="2" fill="none"/>
    </g>
    <g id="사각형_17541" data-name="사각형 17541" transform="translate(21 4.726)" fill="none" stroke="#5a514c" stroke-width="2">
      <path d="M0,0H4.432a3,3,0,0,1,3,3V7.049a3,3,0,0,1-3,3H0a0,0,0,0,1,0,0V0A0,0,0,0,1,0,0Z" stroke="none"/>
      <path d="M2,1H4.432a2,2,0,0,1,2,2V7.049a2,2,0,0,1-2,2H2a1,1,0,0,1-1-1V2A1,1,0,0,1,2,1Z" fill="none"/>
    </g>
    <rect id="Op_component_3" data-name="Op component 3" width="23.139" height="2.571" rx="1" transform="translate(0 28)" fill="#a9c246"/>
  </g>
</svg>
