<svg xmlns="http://www.w3.org/2000/svg" width="56.48" height="45.878" viewBox="0 0 56.48 45.878">
  <g id="icon_apt_white_3" data-name="icon_apt_white 3" transform="translate(0 0.05)">
    <g id="사각형_17565" data-name="사각형 17565" transform="translate(19.596)">
      <path id="패스_66057" data-name="패스 66057" d="M4.216,0H25.274a4.549,4.549,0,0,1,4.212,4.823v41H0v-41A4.549,4.549,0,0,1,4.216,0Z" transform="translate(0.005)" fill="none"/>
      <rect id="사각형_18073" data-name="사각형 18073" width="26.223" height="42.36" rx="1" transform="translate(2.593 1.45)" fill="none" stroke="#90b21a" stroke-width="3"/>
    </g>
    <g id="그룹_65883" data-name="그룹 65883" transform="translate(0 8.952)">
      <g id="사각형_17565-2" data-name="사각형 17565" transform="translate(6.383)">
        <path id="패스_66058" data-name="패스 66058" d="M4.457,0H17.82V36.876H0V4.918A4.7,4.7,0,0,1,4.457,0Z" transform="translate(0.003)" fill="none"/>
        <rect id="사각형_18074" data-name="사각형 18074" width="14.12" height="32.275" rx="1" transform="translate(1.686 2.584)" fill="none" stroke="#90b21a" stroke-width="3"/>
      </g>
      <g id="사각형_17718" data-name="사각형 17718" transform="translate(0 34.186)" fill="#90b21a" stroke="#90b21a" stroke-width="1">
        <rect width="56.48" height="2.69" stroke="none"/>
        <rect x="0.5" y="0.5" width="55.48" height="1.69" fill="none"/>
      </g>
      <line id="선_274" data-name="선 274" y2="5.145" transform="translate(15.514 7.742)" fill="none" stroke="#90b21a" stroke-width="4"/>
      <line id="선_275" data-name="선 275" y2="5.145" transform="translate(15.514 16.085)" fill="none" stroke="#90b21a" stroke-width="4"/>
    </g>
    <line id="선_270" data-name="선 270" y2="6.051" transform="translate(32.277 19.087)" fill="none" stroke="#90b21a" stroke-width="4"/>
    <line id="선_269" data-name="선 269" y2="6.051" transform="translate(39.337 9.528)" fill="none" stroke="#90b21a" stroke-width="4"/>
    <line id="선_271" data-name="선 271" y2="6.051" transform="translate(39.337 19.087)" fill="none" stroke="#90b21a" stroke-width="4"/>
    <line id="선_272" data-name="선 272" y2="6.051" transform="translate(32.277 9.528)" fill="none" stroke="#90b21a" stroke-width="4"/>
  </g>
</svg>
