<svg xmlns="http://www.w3.org/2000/svg" width="23.833" height="23.5" viewBox="0 0 23.833 23.5">
  <g id="icon_차량" transform="translate(1 1)">
    <line id="선_283" data-name="선 283" x2="9.237" transform="translate(6.298 7.691)" fill="none" stroke="#9cc023" stroke-linecap="round" stroke-width="2"/>
    <g id="그룹_66460" data-name="그룹 66460" transform="translate(0 -1)">
      <g id="그룹_66459" data-name="그룹 66459">
        <path id="패스_66119" data-name="패스 66119" d="M323.2,679.153v2.262a.968.968,0,0,1-.968.968h-2.262a.968.968,0,0,1-.968-.968v-2.262" transform="translate(-316.481 -659.883)" fill="none" stroke="#5a514c" stroke-miterlimit="10" stroke-width="2"/>
        <path id="패스_66120" data-name="패스 66120" d="M338.2,679.153v2.262a.968.968,0,0,1-.968.968h-2.262a.968.968,0,0,1-.968-.968v-2.262" transform="translate(-318.885 -659.883)" fill="none" stroke="#5a514c" stroke-miterlimit="10" stroke-width="2"/>
        <path id="패스_66121" data-name="패스 66121" d="M323,663" transform="translate(-317.122 -661.32)" fill="none" stroke="#5a514c" stroke-width="1"/>
        <path id="패스_66122" data-name="패스 66122" d="M335.451,669.57h-.258l-1.406-4.98c0-1.431-.833-2.59-1.859-2.59H321.905c-1.026,0-1.859,1.159-1.859,2.59l-1.406,4.98h-.258c-1.316,0-2.382,1.351-2.382,3.017v4.537c0,1.666,1.066,3.017,2.382,3.017h17.069c1.316,0,2.382-1.351,2.382-3.017v-4.537C337.833,670.921,336.767,669.57,335.451,669.57Z" transform="translate(-316 -661)" fill="none" stroke="#5a514c" stroke-miterlimit="10" stroke-width="2"/>
      </g>
      <g id="타원_560" data-name="타원 560" transform="translate(2.917 11.417)" fill="none" stroke="#5a514c" stroke-width="2">
        <circle cx="2.5" cy="2.5" r="2.5" stroke="none"/>
        <circle cx="2.5" cy="2.5" r="1.5" fill="none"/>
      </g>
      <g id="타원_561" data-name="타원 561" transform="translate(13.917 11.417)" fill="none" stroke="#5a514c" stroke-width="2">
        <circle cx="2.5" cy="2.5" r="2.5" stroke="none"/>
        <circle cx="2.5" cy="2.5" r="1.5" fill="none"/>
      </g>
    </g>
  </g>
</svg>
