<svg xmlns="http://www.w3.org/2000/svg" width="20" height="28" viewBox="0 0 20 28">
  <g id="icon_가스" transform="translate(-236 -1837.364)">
    <g id="사각형_1980" data-name="사각형 1980" transform="translate(240 1859.364)" fill="#5a514c" stroke="#5a514c" stroke-width="2">
      <rect width="2" height="5" stroke="none"/>
      <rect x="1" y="1" height="3" fill="none"/>
    </g>
    <g id="사각형_1976" data-name="사각형 1976" transform="translate(240 1838.364)" fill="#5a514c" stroke="#5a514c" stroke-width="2">
      <rect width="2" height="5" stroke="none"/>
      <rect x="1" y="1" height="3" fill="none"/>
    </g>
    <g id="패스_66127" data-name="패스 66127" transform="translate(251 1858.364)" fill="#5a514c">
      <path d="M 1 5 L 1 1 L 1 5 Z" stroke="none"/>
      <path d="M 0 0 L 2 0 L 2 6 L 0 6 L 0 0 Z" stroke="none" fill="#5a514c"/>
    </g>
    <g id="사각형_1978" data-name="사각형 1978" transform="translate(251 1838.364)" fill="#5a514c" stroke="#5a514c" stroke-width="2">
      <rect width="2" height="6" stroke="none"/>
      <rect x="1" y="1" height="4" fill="none"/>
    </g>
    <g id="사각형_1977" data-name="사각형 1977" transform="translate(237 1837.364)" fill="#5a514c" stroke="#5a514c" stroke-width="1">
      <rect width="19" height="2" rx="1" stroke="none"/>
      <rect x="0.5" y="0.5" width="18" height="1" rx="0.5" fill="none"/>
    </g>
    <g id="사각형_1983" data-name="사각형 1983" transform="translate(237 1863.364)" fill="#5a514c" stroke="#5a514c" stroke-width="1">
      <rect width="19" height="2" rx="1" stroke="none"/>
      <rect x="0.5" y="0.5" width="18" height="1" rx="0.5" fill="none"/>
    </g>
    <g id="타원_399" data-name="타원 399" transform="translate(236 1841.364)" fill="none" stroke="#5a514c" stroke-width="2">
      <circle cx="10" cy="10" r="10" stroke="none"/>
      <circle cx="10" cy="10" r="9" fill="none"/>
    </g>
    <rect id="사각형_1982" data-name="사각형 1982" width="6" height="12" rx="1" transform="translate(243 1845.364)" fill="#9ebb3d"/>
    <circle id="타원_400" data-name="타원 400" cx="1" cy="1" r="1" transform="translate(246 1846.364)" fill="#eff1f5"/>
  </g>
</svg>
