<svg xmlns="http://www.w3.org/2000/svg" width="22.634" height="18.772" viewBox="0 0 22.634 18.772">
  <g id="icon_온수" transform="translate(1.026 1.41)">
    <path id="패스_66111" data-name="패스 66111" d="M-3362.152-17575.072s-3.859,2.18-1.487,5.7,15.039,3.238,18.482.338-.993-6.035-.993-6.035" transform="translate(3364.41 17583.158)" fill="none" stroke="#5a514c" stroke-linecap="round" stroke-width="2"/>
    <path id="패스_66112" data-name="패스 66112" d="M444.578,1281.156s-1.945,2.254-.294,4.461a3.521,3.521,0,0,1-.318,5.1" transform="translate(-438.878 -1281.156)" fill="none" stroke="#9ebb3d" stroke-linecap="round" stroke-width="2"/>
    <path id="패스_66113" data-name="패스 66113" d="M444.578,1281.156s-1.945,2.254-.294,4.461a3.521,3.521,0,0,1-.318,5.1" transform="translate(-434.22 -1281.156)" fill="none" stroke="#9ebb3d" stroke-linecap="round" stroke-width="2"/>
    <path id="패스_66114" data-name="패스 66114" d="M444.578,1281.156s-1.945,2.254-.294,4.461a3.521,3.521,0,0,1-.318,5.1" transform="translate(-429.561 -1281.156)" fill="none" stroke="#9ebb3d" stroke-linecap="round" stroke-width="2"/>
  </g>
</svg>
