<svg xmlns="http://www.w3.org/2000/svg" width="17" height="19.688" viewBox="0 0 17 19.688">
  <g id="_place" data-name=" place" transform="translate(0 1.875)">
    <rect id="Path" width="17" height="17" fill="rgba(0,0,0,0)"/>
    <g id="Op_component_1" data-name="Op component 1" transform="translate(-782 -3167.875)" fill="none" stroke-linejoin="round">
      <path d="M796.936,3173.639c0,3.36-3.768,7.993-5.311,9.759a.879.879,0,0,1-1.3,0c-1.552-1.766-5.32-6.4-5.32-9.759a5.977,5.977,0,0,1,11.936,0Z" stroke="none"/>
      <path d="M 790.9676513671875 3167.99951171875 C 787.6683349609375 3167.99951171875 784.999755859375 3170.521484375 784.999755859375 3173.63916015625 C 784.999755859375 3176.998779296875 788.7681884765625 3181.632080078125 790.3198852539063 3183.397705078125 C 790.490478515625 3183.5908203125 790.7313232421875 3183.687255859375 790.9721069335938 3183.687255859375 C 791.212890625 3183.687255859375 791.4536743164063 3183.5908203125 791.6241455078125 3183.397705078125 C 793.16748046875 3181.632080078125 796.935546875 3176.998779296875 796.935546875 3173.63916015625 C 796.935546875 3170.521484375 794.2672119140625 3167.99951171875 790.9676513671875 3167.99951171875 M 790.9676513671875 3165.99951171875 C 793.076416015625 3165.99951171875 795.0634155273438 3166.77978515625 796.5626220703125 3168.196533203125 C 798.0928344726563 3169.642822265625 798.935546875 3171.57568359375 798.935546875 3173.63916015625 C 798.935546875 3175.498291015625 798.1552734375 3177.638916015625 796.5501098632813 3180.183349609375 C 795.3922729492188 3182.0185546875 794.0511474609375 3183.66015625 793.1299438476563 3184.7138671875 C 793.1278076171875 3184.71630859375 793.1256713867188 3184.71875 793.12353515625 3184.72119140625 C 792.58154296875 3185.335205078125 791.79736328125 3185.687255859375 790.9721069335938 3185.687255859375 C 790.147216796875 3185.687255859375 789.3631591796875 3185.33544921875 788.8211059570313 3184.721923828125 C 788.8199462890625 3184.720703125 788.8187255859375 3184.71923828125 788.8175659179688 3184.718017578125 C 787.8976440429688 3183.671142578125 786.5557250976563 3182.034912109375 785.3869018554688 3180.18408203125 C 783.7805786132813 3177.640380859375 782.999755859375 3175.49951171875 782.999755859375 3173.63916015625 C 782.999755859375 3171.57568359375 783.842529296875 3169.642822265625 785.3727416992188 3168.196533203125 C 786.8720092773438 3166.77978515625 788.8590087890625 3165.99951171875 790.9676513671875 3165.99951171875 Z" stroke="none" fill="#fff"/>
    </g>
    <circle id="Op_component_2" data-name="Op component 2" cx="2" cy="2" r="2" transform="translate(7 4)" fill="#fff"/>
  </g>
</svg>
