<svg xmlns="http://www.w3.org/2000/svg" width="26.262" height="26.262" viewBox="0 0 26.262 26.262">
  <g id="sd_storage-24px" transform="translate(0 0)">
    <path id="패스_66127" data-name="패스 66127" d="M0,0H26.262V26.262H0Z" transform="translate(0 0)" fill="none"/>
    <path id="패스_66128" data-name="패스 66128" d="M19.319,4.188V21.7H6.188V9.474l5.285-5.285h7.846m0-2.188H10.565L4,8.565V21.7a2.195,2.195,0,0,0,2.188,2.188H19.319A2.195,2.195,0,0,0,21.508,21.7V4.188A2.195,2.195,0,0,0,19.319,2Z" transform="translate(0.377 0.189)" fill="#5a514c"/>
    <path id="패스_66131" data-name="패스 66131" d="M9.1,7.1h2.188v4.377H9.1Zm3.283,0h2.188v4.377H12.382Zm3.283,0h2.188v4.377H15.665Z" transform="translate(0.749 0.56)" fill="#9cc023"/>
  </g>
</svg>
