<svg xmlns="http://www.w3.org/2000/svg" width="35.104" height="31.158" viewBox="0 0 35.104 31.158">
  <g id="icon2" transform="translate(1 -1.824)">
    <g id="file-text" transform="translate(0 2.824)">
      <path id="패스_441" data-name="패스 441" d="M13.112,2H25.261A2.978,2.978,0,0,1,28.3,4.916V28.242a2.978,2.978,0,0,1-3.037,2.916H7.037A2.978,2.978,0,0,1,4,28.242V10.747Z" transform="translate(-4 -2)" fill="none" stroke="#5a514c" stroke-linejoin="round" stroke-width="2"/>
      <path id="패스_442" data-name="패스 442" d="M23.862,2v8H14" transform="translate(-13.857 -2)" fill="none" stroke="#5a514c" stroke-linejoin="round" stroke-width="2"/>
      <line id="선_6" data-name="선 6" x2="12.292" transform="translate(6.075 16.481)" fill="none" stroke="#9ebb3d" stroke-linejoin="round" stroke-width="2"/>
      <line id="선_7" data-name="선 7" x2="12.292" transform="translate(6.075 21.819)" fill="none" stroke="#9ebb3d" stroke-linejoin="round" stroke-width="2"/>
      <path id="패스_443" data-name="패스 443" d="M8,9h4.86" transform="translate(4.578 2.144)" fill="none" stroke="#9ebb3d" stroke-linejoin="round" stroke-width="2"/>
    </g>
    <g id="Icon" transform="translate(13.045 3.452)" fill="#eff1f5" stroke-linecap="square">
      <path d="M 4.128832340240479 20.05998039245605 L 0.9999956488609314 20.05998039245605 L 0.9999956488609314 16.91887474060059 L 13.43464469909668 4.48354959487915 L 16.57541465759277 7.624319553375244 L 4.128832340240479 20.05998039245605 Z M 18.4817066192627 5.719372749328613 L 15.34060668945313 2.578279495239258 L 16.85659599304199 1.062290191650391 C 16.89792633056641 1.020960211753845 16.94809532165527 1.000000238418579 17.00570487976074 1.000000238418579 C 17.06331634521484 1.000000238418579 17.11347579956055 1.020960211753845 17.15480613708496 1.062290191650391 L 19.99769592285156 3.905180215835571 C 20.03830528259277 3.945780277252197 20.05889511108398 3.995950222015381 20.05889511108398 4.054280281066895 C 20.05889511108398 4.112610340118408 20.03830528259277 4.162780284881592 19.9976863861084 4.203400135040283 L 18.4817066192627 5.719372749328613 Z" stroke="none"/>
      <path d="M 3.714889287948608 19.05998039245605 L 15.16090488433838 7.624009132385254 L 13.43466472625732 5.897768974304199 L 1.999995589256287 17.33306884765625 L 1.999995589256287 19.05998039245605 L 3.714889287948608 19.05998039245605 M 18.48170471191406 4.305170059204102 L 18.73259544372559 4.054280281066895 L 17.00570106506348 2.327385187149048 L 16.75481033325195 2.578275203704834 L 18.48170471191406 4.305170059204102 M 4.299985885620117 21.05998039245605 L 0.6074256300926208 21.05998039245605 C 0.2668156623840332 21.05998039245605 -4.351806637714617e-06 20.79317092895508 -4.351806637714617e-06 20.45256042480469 L -4.351806637714617e-06 16.75926971435547 C -4.351806637714617e-06 16.59105110168457 0.06142564862966537 16.44395065307617 0.1825956553220749 16.32207107543945 L 13.43462562561035 3.069310188293457 L 17.98994636535645 7.624629974365234 L 4.725545883178711 20.87738990783691 C 4.621335506439209 20.9934196472168 4.466205596923828 21.05998039245605 4.299985885620117 21.05998039245605 Z M 18.48170471191406 7.133590221405029 L 18.48113632202148 7.133020401000977 L 13.9263858795166 2.578280210494995 L 16.14948654174805 0.3551802039146423 C 16.37852478027344 0.1261401921510696 16.6826057434082 1.962280293810181e-07 17.00570487976074 1.962280293810181e-07 C 17.32879638671875 1.962280293810181e-07 17.63287544250488 0.1261401921510696 17.86191558837891 0.3551802039146423 L 20.70480537414551 3.198070287704468 C 20.93313598632813 3.42641019821167 21.05889511108398 3.730480194091797 21.05889511108398 4.054280281066895 C 21.05889511108398 4.378080368041992 20.93313598632813 4.682150363922119 20.70480537414551 4.910490036010742 L 18.48227500915527 7.133020401000977 L 18.48170471191406 7.133590221405029 Z" stroke="none" fill="#5a514c"/>
    </g>
  </g>
</svg>
