<svg xmlns="http://www.w3.org/2000/svg" width="33.3" height="29.719" viewBox="0 0 33.3 29.719">
  <g id="icon_흐림" transform="translate(-1330.4 -259.264)">
    <g id="패스_66178" data-name="패스 66178" transform="translate(1309.821 205.154)" fill="none" stroke-linecap="round" stroke-linejoin="round">
      <path d="M33.467,65.207a2.362,2.362,0,0,0,.187.951,2.961,2.961,0,0,0,2.2,1.488H48.315a3.562,3.562,0,1,0,0-7.124,3.334,3.334,0,0,0-.682.067c0-.025,0-.046,0-.067a4.406,4.406,0,0,0-8.4-1.874,4.2,4.2,0,0,0-.283.781,3.62,3.62,0,0,0-1.078-.166,3.125,3.125,0,0,0-.484.035,3.555,3.555,0,0,0-3.033,2.973,3.183,3.183,0,0,0,0,1.078A2.379,2.379,0,0,0,33.467,65.207Z" stroke="none"/>
      <path d="M 48.31541442871094 67.64598846435547 C 50.28459548950195 67.64598846435547 51.87902450561523 66.05152893066406 51.87902450561523 64.08231353759766 C 51.87902450561523 62.11663055419922 50.28459548950195 60.52217102050781 48.31541442871094 60.52217102050781 C 48.08207702636719 60.52217102050781 47.85228729248047 60.54338073730469 47.63309478759766 60.58934020996094 C 47.63309478759766 60.56460189819336 47.63662719726563 60.54338073730469 47.63662719726563 60.52217102050781 C 47.63662719726563 58.08628082275391 45.66037368774414 56.11000061035156 43.22453689575195 56.11000061035156 C 41.46039581298828 56.11000061035156 39.94020462036133 57.14941024780273 39.24021530151367 58.64841079711914 C 39.1200065612793 58.89588165283203 39.02808380126953 59.15750885009766 38.95737457275391 59.42974090576172 C 38.61798477172852 59.32366180419922 38.25384521484375 59.26356887817383 37.87909698486328 59.26356887817383 C 37.71293640136719 59.26356887817383 37.5538444519043 59.2741813659668 37.39475631713867 59.29891967773438 C 35.83921432495117 59.50752258300781 34.59830474853516 60.72722244262695 34.36144638061523 62.27219009399414 C 34.32962417602539 62.45249176025391 34.31548690795898 62.63986968994141 34.31548690795898 62.82725143432617 C 34.31548690795898 63.00400924682617 34.33315658569336 63.18078994750977 34.36144638061523 63.35049057006836 C 33.8170051574707 63.78887176513672 33.46700668334961 64.45706176757813 33.46700668334961 65.20655822753906 C 33.46700668334961 65.57424926757813 33.53771591186523 65.88889312744141 33.65437698364258 66.15757751464844 C 34.21649551391602 67.44093322753906 35.84981536865234 67.64598846435547 35.84981536865234 67.64598846435547 L 48.31541442871094 67.64598846435547 M 48.31541442871094 69.64598846435547 L 35.84981536865234 69.64598846435547 C 35.76652526855469 69.64598846435547 35.68331527709961 69.64079284667969 35.60067749023438 69.63040924072266 C 35.31813430786133 69.59494018554688 32.81170654296875 69.21864318847656 31.8224048614502 66.95999908447266 C 31.8215446472168 66.95803833007813 31.82068634033203 66.95606994628906 31.8198356628418 66.9541015625 C 31.58571624755859 66.41487884521484 31.46700477600098 65.82692718505859 31.46700477600098 65.20655822753906 C 31.46700477600098 64.26008605957031 31.76956748962402 63.35720443725586 32.3195915222168 62.61268615722656 C 32.32837677001953 62.3842658996582 32.35124206542969 62.16139602661133 32.38791656494141 61.94742202758789 C 32.76530075073242 59.55009078979492 34.70198440551758 57.65137481689453 37.10857772827148 57.31943130493164 C 37.30482482910156 57.28979873657227 37.50320053100586 57.27216720581055 37.71037292480469 57.26603317260742 C 38.85044479370117 55.33090209960938 40.95376968383789 54.11000061035156 43.22453689575195 54.11000061035156 C 46.09745788574219 54.11000061035156 48.53518295288086 56.00933074951172 49.34808349609375 58.61818695068359 C 51.92417144775391 59.10335922241211 53.87902450561523 61.36898422241211 53.87902450561523 64.08231353759766 C 53.87902450561523 67.15013122558594 51.38319396972656 69.64598846435547 48.31541442871094 69.64598846435547 Z" stroke="none" fill="#9cc023"/>
    </g>
    <g id="패스_66177" data-name="패스 66177" transform="translate(1299.933 214.459)" fill="none" stroke-linecap="round" stroke-linejoin="round">
      <path d="M58.067,66.762a4.759,4.759,0,0,0-4.761-4.757,4.454,4.454,0,0,0-.912.09c0-.033,0-.061,0-.09A5.887,5.887,0,0,0,41.18,59.5a5.608,5.608,0,0,0-.378,1.044,4.837,4.837,0,0,0-1.441-.222,4.175,4.175,0,0,0-.647.047C36.636,60.649,58.067,69.393,58.067,66.762Z" stroke="none"/>
      <path d="M 57.07183456420898 67.25469970703125 C 57.70237350463867 67.25479888916016 58.0670166015625 67.10517883300781 58.0670166015625 66.76168060302734 C 58.0670166015625 64.13536834716797 55.93671417236328 62.00503158569336 53.30572509765625 62.00503158569336 C 52.99396514892578 62.00503158569336 52.68693542480469 62.03337097167969 52.39408493041992 62.09477996826172 C 52.39408493041992 62.06172180175781 52.3988037109375 62.03337097167969 52.3988037109375 62.00503158569336 C 52.3988037109375 58.75048065185547 49.75836563110352 56.11000061035156 46.50387573242188 56.11000061035156 C 44.14684677124023 56.11000061035156 42.11574554443359 57.49874114990234 41.18048477172852 59.50153350830078 C 41.0198860168457 59.83218002319336 40.89707565307617 60.18173217773438 40.80260467529297 60.54545211791992 C 40.34915542602539 60.40373229980469 39.86262512207031 60.32344055175781 39.36193466186523 60.32344055175781 C 39.13993453979492 60.32344055175781 38.92737579345703 60.33761215209961 38.71481704711914 60.37067031860352 C 36.90781021118164 60.61298751831055 52.87264633178711 67.25403594970703 57.07183456420898 67.25469970703125 M 57.07246398925781 71.75469970703125 C 57.07222747802734 71.75469970703125 57.07135391235352 71.75469970703125 57.07112503051758 71.75469970703125 C 56.19207382202148 71.75456237792969 54.63053512573242 71.63760375976563 51.23337554931641 70.62789154052734 C 48.81829452514648 69.91007995605469 46.36731719970703 69.00955963134766 44.73646545410156 68.38052368164063 C 42.59568405151367 67.55480194091797 40.55908584594727 66.69345092773438 39.00181579589844 65.95515441894531 C 38.13010406494141 65.5418701171875 37.44735717773438 65.18632507324219 36.91456604003906 64.86817932128906 C 36.25563430786133 64.4747314453125 34.25043487548828 63.27741241455078 34.08300399780273 60.76606369018555 C 33.9763069152832 59.16570281982422 34.73256683349609 57.60627365112305 36.05665588378906 56.69631195068359 C 36.65118789672852 56.28772735595703 37.32331848144531 56.02643966674805 38.05521011352539 55.91922378540039 C 38.0673942565918 55.91737747192383 38.07957077026367 55.91555786132813 38.09175491333008 55.91376495361328 C 38.83903884887695 54.87820053100586 39.77426910400391 53.98519515991211 40.85662460327148 53.28169250488281 C 42.53917694091797 52.18806076049805 44.49196624755859 51.61000061035156 46.50387573242188 51.61000061035156 C 50.78801727294922 51.61000061035156 54.47505187988281 54.21490859985352 56.06424713134766 57.92424392700195 C 59.82793426513672 59.10040664672852 62.5670166015625 62.61737823486328 62.5670166015625 66.76168060302734 C 62.5670166015625 69.24288940429688 60.6796760559082 71.75469970703125 57.07246398925781 71.75469970703125 Z" stroke="none" fill="#eff1f5"/>
    </g>
    <g id="패스_66179" data-name="패스 66179" transform="translate(1299.933 214.459)" fill="#eff1f5" stroke-linecap="round" stroke-linejoin="round">
      <path d="M 53.30572891235352 73.02305603027344 L 36.65063858032227 73.02305603027344 L 36.55685043334961 73.02305603027344 L 36.46379089355469 73.01137542724609 C 35.33929061889648 72.87020111083984 33.20603942871094 72.10578918457031 32.34336853027344 70.13623809814453 C 32.09299087524414 69.55963134765625 31.96701049804688 68.93112182617188 31.96701049804688 68.26377868652344 C 31.96701049804688 67.13151550292969 32.37306213378906 66.05712890625 33.10227203369141 65.21309661865234 C 33.1011848449707 65.17002868652344 33.10063934326172 65.12725830078125 33.10063934326172 65.08481597900391 C 33.10063934326172 64.74275970458984 33.12797164916992 64.41140747070313 33.18188858032227 64.09961700439453 C 33.60361480712891 61.39765930175781 35.78704833984375 59.25708389282227 38.49973297119141 58.8861198425293 C 38.7762565612793 58.84394836425781 39.05849838256836 58.82343673706055 39.3619384765625 58.82343673706055 C 39.51924133300781 58.82343673706055 39.67649459838867 58.82940673828125 39.83337783813477 58.8412971496582 C 40.41920471191406 57.59919357299805 41.3379020690918 56.54689788818359 42.49155044555664 55.79703903198242 C 43.68630981445313 55.02046966552734 45.07374954223633 54.6099967956543 46.50387954711914 54.6099967956543 C 50.0732536315918 54.6099967956543 53.0600471496582 57.15178298950195 53.74912261962891 60.52054977416992 C 56.99560928344727 60.74847412109375 59.56700897216797 63.46062088012695 59.56700897216797 66.76168060302734 C 59.56700897216797 70.21421813964844 56.75820922851563 73.02305603027344 53.30572891235352 73.02305603027344 Z" stroke="none"/>
      <path d="M 53.30572891235352 71.52305603027344 C 55.93671035766602 71.52305603027344 58.06700897216797 69.39273071289063 58.06700897216797 66.76168060302734 C 58.06700897216797 64.13536834716797 55.93671035766602 62.00502777099609 53.30572891235352 62.00502777099609 C 52.99396896362305 62.00502777099609 52.68693923950195 62.03336715698242 52.39408874511719 62.09477996826172 C 52.39408874511719 62.06171798706055 52.39881134033203 62.03336715698242 52.39881134033203 62.00502777099609 C 52.39881134033203 58.7504768371582 49.75836944580078 56.1099967956543 46.50387954711914 56.1099967956543 C 44.1468505859375 56.1099967956543 42.11573791503906 57.49873733520508 41.18048858642578 59.50152969360352 C 41.01988983154297 59.83218765258789 40.89707946777344 60.18172836303711 40.80260848999023 60.54544830322266 C 40.34915161132813 60.40372848510742 39.86262893676758 60.32343673706055 39.3619384765625 60.32343673706055 C 39.13993072509766 60.32343673706055 38.9273681640625 60.33761978149414 38.71482086181641 60.37067794799805 C 36.63647842407227 60.64936828613281 34.97851943969727 62.27899932861328 34.66204833984375 64.34320831298828 C 34.61954116821289 64.58412170410156 34.60063934326172 64.83445739746094 34.60063934326172 65.08481597900391 C 34.60063934326172 65.32099151611328 34.62425994873047 65.55716705322266 34.66204833984375 65.78389739990234 C 33.93463134765625 66.36962890625 33.46701049804688 67.26237487792969 33.46701049804688 68.26377868652344 C 33.46701049804688 68.75503540039063 33.56147003173828 69.17543029785156 33.71735000610352 69.53443145751953 C 34.46837997436523 71.24909210205078 36.65063858032227 71.52305603027344 36.65063858032227 71.52305603027344 L 53.30572891235352 71.52305603027344 M 53.30572891235352 74.52305603027344 L 36.65063858032227 74.52305603027344 C 36.52571105957031 74.52305603027344 36.40089797973633 74.5152587890625 36.27693939208984 74.49968719482422 C 35.88053131103516 74.44992828369141 32.3637809753418 73.92155456542969 30.96938896179199 70.73804473876953 C 30.96810913085938 70.73513031005859 30.96682929992676 70.73220062255859 30.9655590057373 70.72927093505859 C 30.63475036621094 69.96739196777344 30.46701049804688 69.13787841796875 30.46701049804688 68.26377868652344 C 30.46701049804688 66.96240234375 30.87232398986816 65.71944427490234 31.61090850830078 64.68489837646484 C 31.62559509277344 64.40116882324219 31.65599250793457 64.12363433837891 31.70179557800293 63.8558235168457 C 31.95804405212402 62.23227310180664 32.74739074707031 60.70285034179688 33.9268684387207 59.5457878112793 C 35.10727310180664 58.38783264160156 36.65396499633789 57.6270866394043 38.28534317016602 57.4014778137207 C 38.50238037109375 57.3687629699707 38.72105407714844 57.34651947021484 38.94598770141602 57.33439636230469 C 39.63418960571289 56.21592330932617 40.56367492675781 55.2611083984375 41.67409133911133 54.53936004638672 C 43.11275100708008 53.60426712036133 44.78285980224609 53.1099967956543 46.50387954711914 53.1099967956543 C 50.42067718505859 53.1099967956543 53.7542724609375 55.65463638305664 54.93827056884766 59.17766189575195 C 58.4367561340332 59.92897415161133 61.06700897216797 63.04407501220703 61.06700897216797 66.76168060302734 C 61.06700897216797 71.04132080078125 57.58530807495117 74.52305603027344 53.30572891235352 74.52305603027344 Z" stroke="none" fill="#5a514c"/>
    </g>
  </g>
</svg>
