<svg xmlns="http://www.w3.org/2000/svg" width="34.057" height="38.071" viewBox="0 0 34.057 38.071">
  <g id="icon_소나기" transform="translate(-1330.4 -391.177)">
    <g id="그룹_66735" data-name="그룹 66735" transform="translate(-69 135)">
      <g id="그룹_66719" data-name="그룹 66719" transform="matrix(0.996, -0.087, 0.087, 0.996, 1414.467, 258.44)">
        <line id="선_307" data-name="선 307" x1="1.597" y1="1.597" transform="matrix(0.985, -0.174, 0.174, 0.985, 14.269, 12.488)" fill="none" stroke="#9cc023" stroke-linecap="round" stroke-linejoin="round" stroke-width="2"/>
        <line id="선_308" data-name="선 308" x1="2.181" y2="0.584" transform="matrix(0.985, -0.174, 0.174, 0.985, 14.275, 5.455)" fill="none" stroke="#9cc023" stroke-linecap="round" stroke-linejoin="round" stroke-width="2"/>
        <line id="선_309" data-name="선 309" x1="0.584" y2="2.181" transform="matrix(0.985, -0.174, 0.174, 0.985, 8.173, 0.101)" fill="none" stroke="#9cc023" stroke-linecap="round" stroke-linejoin="round" stroke-width="2"/>
        <line id="선_310" data-name="선 310" x2="1.597" y2="1.597" transform="matrix(0.985, -0.174, 0.174, 0.985, 0, 3.396)" fill="none" stroke="#9cc023" stroke-linecap="round" stroke-linejoin="round" stroke-width="2"/>
        <path id="교차_1" data-name="교차 1" d="M4.492,8.491.22,6.26a4.82,4.82,0,1,1,5.11,3.355Z" transform="translate(2.724 4.656)" fill="none" stroke="#9cc023" stroke-width="2"/>
      </g>
      <path id="패스_66173" data-name="패스 66173" d="M0,.16A2.08,2.08,0,0,1,2.954,2.173" transform="translate(1422.039 265.067) rotate(7)" fill="none" stroke="#9cc023" stroke-linecap="round" stroke-width="1.5"/>
      <circle id="타원_592" data-name="타원 592" cx="9" cy="9" r="9" transform="translate(1407 265)" fill="#eff1f5"/>
      <g id="패스_66174" data-name="패스 66174" transform="translate(1368.933 213.459)" fill="none" stroke-linecap="round" stroke-linejoin="round">
        <path d="M33.467,67.264a3.155,3.155,0,0,0,.25,1.271,3.956,3.956,0,0,0,2.933,1.989H53.306a4.76,4.76,0,0,0,4.761-4.761c0-2.626-2.13-3.757-4.761-3.757a4.454,4.454,0,0,0-.912.09c0-.033,0-.061,0-.09A5.887,5.887,0,0,0,41.18,59.5a5.608,5.608,0,0,0-.378,1.044,4.722,4.722,0,0,0-1.376-.458,9.166,9.166,0,0,0-.953,0c-2.078.279-3.495,1.192-3.811,3.256a4.252,4.252,0,0,0,0,1.441A3.178,3.178,0,0,0,33.467,67.264Z" stroke="none"/>
        <path d="M 53.30572891235352 70.52305603027344 C 55.93671035766602 70.52305603027344 58.06700897216797 68.39271545410156 58.06700897216797 65.76168060302734 C 58.06700897216797 63.13536834716797 55.93671035766602 62.00502777099609 53.30572891235352 62.00502777099609 C 52.99396896362305 62.00502777099609 52.68693923950195 62.03336715698242 52.39408874511719 62.09477996826172 C 52.39408874511719 62.06171798706055 52.39881134033203 62.03336715698242 52.39881134033203 62.00502777099609 C 52.39881134033203 58.7504768371582 49.75836944580078 56.1099967956543 46.50387954711914 56.1099967956543 C 44.1468505859375 56.1099967956543 42.11573791503906 57.49873733520508 41.18048858642578 59.50152969360352 C 41.01988983154297 59.83218765258789 40.89707946777344 60.18172836303711 40.80260848999023 60.54544830322266 C 40.34915161132813 60.40372848510742 39.92708969116211 60.08739852905273 39.4263916015625 60.08739852905273 C 39.27840042114258 60.08739852905273 38.99857330322266 60.07270812988281 38.76550674438477 60.07270812988281 C 38.64895629882813 60.07270812988281 38.54412841796875 60.07638168334961 38.47327041625977 60.08739852905273 C 36.39492797851563 60.36609649658203 34.97851943969727 61.27899932861328 34.66204833984375 63.34320831298828 C 34.61954116821289 63.5841178894043 34.60063934326172 63.83445739746094 34.60063934326172 64.08481597900391 C 34.60063934326172 64.32099151611328 34.62425994873047 64.55716705322266 34.66204833984375 64.78389739990234 C 33.93463134765625 65.36962890625 33.46701049804688 66.26237487792969 33.46701049804688 67.26377868652344 C 33.46701049804688 67.75503540039063 33.56147003173828 68.17543029785156 33.71735000610352 68.53443145751953 C 34.46837997436523 70.24909210205078 36.65063858032227 70.52305603027344 36.65063858032227 70.52305603027344 L 53.30572891235352 70.52305603027344 M 53.30572891235352 73.52305603027344 L 36.65063858032227 73.52305603027344 C 36.52571105957031 73.52305603027344 36.40089797973633 73.5152587890625 36.27693939208984 73.49968719482422 C 35.88053131103516 73.44992828369141 32.3637809753418 72.92155456542969 30.96938896179199 69.73804473876953 C 30.96810913085938 69.73513031005859 30.96682929992676 69.73220062255859 30.9655590057373 69.72927093505859 C 30.63475036621094 68.96739196777344 30.46701049804688 68.13787841796875 30.46701049804688 67.26377868652344 C 30.46701049804688 65.96240234375 30.87232398986816 64.71944427490234 31.61090850830078 63.68489837646484 C 31.6255931854248 63.40119171142578 31.65597534179688 63.12374877929688 31.70177268981934 62.85596466064453 C 31.99798583984375 60.97819519042969 33.22013473510742 57.77394866943359 38.05331420898438 57.11687469482422 C 38.26462936401367 57.08639144897461 38.48647689819336 57.07270812988281 38.76551055908203 57.07270812988281 C 38.8836784362793 57.07270812988281 39.00188446044922 57.07519912719727 39.1097412109375 57.07818984985352 C 39.77884292602539 56.06984710693359 40.64945983886719 55.20534896850586 41.67409133911133 54.53936004638672 C 43.11275100708008 53.60426712036133 44.78285980224609 53.1099967956543 46.50387954711914 53.1099967956543 C 50.39912414550781 53.1099967956543 53.71771240234375 55.62713623046875 54.91867446899414 59.12001800537109 C 56.25812149047852 59.31787490844727 57.44532012939453 59.7684326171875 58.40832901000977 60.45132827758789 C 60.12281036376953 61.66710662841797 61.06700897216797 63.55302810668945 61.06700897216797 65.76168060302734 C 61.06700897216797 70.04132080078125 57.58530807495117 73.52305603027344 53.30572891235352 73.52305603027344 Z" stroke="none" fill="#5a514c"/>
      </g>
    </g>
    <g id="그룹_66736" data-name="그룹 66736" transform="translate(1331 417.855)">
      <path id="패스_66183" data-name="패스 66183" d="M424.092,1169.614a.9.9,0,0,0-1.111-.426.748.748,0,0,0-.475,1l2.007,4.464a.9.9,0,0,0,1.111.426.748.748,0,0,0,.475-1l-2.007-4.465Z" transform="translate(-415.922 -1163.74)" fill="#8d8785"/>
      <path id="패스_66184" data-name="패스 66184" d="M388.279,1169.614a.9.9,0,0,0-1.111-.426.748.748,0,0,0-.475,1l2.007,4.464a.9.9,0,0,0,1.111.426.747.747,0,0,0,.475-1l-2.007-4.465Z" transform="translate(-364.729 -1163.74)" fill="#8d8785"/>
      <path id="패스_66186" data-name="패스 66186" d="M406.185,1169.614a.9.9,0,0,0-1.111-.426.748.748,0,0,0-.475,1l2.007,4.464a.9.9,0,0,0,1.111.426.748.748,0,0,0,.475-1l-2.007-4.465Z" transform="translate(-390.325 -1163.74)" fill="#8d8785"/>
    </g>
  </g>
</svg>
