<svg xmlns="http://www.w3.org/2000/svg" width="22.677" height="25.46" viewBox="0 0 22.677 25.46">
  <g id="icon_수도" transform="translate(0.5)">
    <g id="그룹_66444" data-name="그룹 66444" transform="translate(0 0)">
      <g id="그룹_66435" data-name="그룹 66435" transform="translate(1.471 4.593)">
        <path id="패스_66090" data-name="패스 66090" d="M861.3,802.9h4.68a.5.5,0,0,0,.5-.5v-3.677h5.016V802.4a.5.5,0,0,0,1,0V798.22a.5.5,0,0,0-.5-.5h-6.019a.5.5,0,0,0-.5.5V801.9H861.3a.5.5,0,0,0,0,1Z" transform="translate(-860.794 -797.718)" fill="#5a514c" stroke="#5a514c" stroke-width="1"/>
      </g>
      <g id="그룹_66436" data-name="그룹 66436" transform="translate(1.471 8.929)">
        <path id="패스_66091" data-name="패스 66091" d="M855.2,818.088h4.1a.5.5,0,0,0,.5-.5v-.334a12.883,12.883,0,0,0-.661-5.021,5.577,5.577,0,0,0-2.971-3.059,9.612,9.612,0,0,0-3.634-.647H850.8a.5.5,0,1,0,0,1h1.738a8.616,8.616,0,0,1,3.243.568,4.594,4.594,0,0,1,2.439,2.527,11.524,11.524,0,0,1,.583,4.463h-3.089c.024-1.455,0-3.366-1.827-4.181a2.831,2.831,0,0,0-3.452.729,3.727,3.727,0,0,1-2.7,1.352h-.013a4.671,4.671,0,0,1-2.977-1.355.5.5,0,0,0-.363-.156H840.1a.5.5,0,1,0,0,1h4.077a5.55,5.55,0,0,0,3.543,1.511h.017a4.684,4.684,0,0,0,3.429-1.67,1.838,1.838,0,0,1,2.311-.5c1.189.532,1.26,1.743,1.23,3.4l-.005.367a.5.5,0,0,0,.5.506Z" transform="translate(-839.599 -808.525)" fill="#5a514c" stroke="#5a514c" stroke-width="1"/>
      </g>
      <g id="그룹_66437" data-name="그룹 66437" transform="translate(9.228 1.573)">
        <path id="패스_66092" data-name="패스 66092" d="M868.63,794.215a.5.5,0,0,0,.5-.5v-3.02a.5.5,0,1,0-1,0v3.02A.5.5,0,0,0,868.63,794.215Z" transform="translate(-868.128 -790.192)" fill="#5a514c" stroke="#5a514c" stroke-width="1"/>
      </g>
      <g id="그룹_66439" data-name="그룹 66439" transform="translate(0 6.082)">
        <path id="패스_66094" data-name="패스 66094" d="M891.517,810.2a.424.424,0,0,0,.389-.453v-11.1a.394.394,0,1,0-.778,0v11.1A.425.425,0,0,0,891.517,810.2Z" transform="translate(-891.128 -798.192)" fill="#5a514c" stroke="#5a514c" stroke-width="1"/>
      </g>
      <g id="사각형_18210" data-name="사각형 18210" transform="translate(4.484 0)" fill="#5a514c" stroke="#5a514c" stroke-linecap="round" stroke-width="1">
        <rect width="10.799" height="2.541" rx="1.271" stroke="none"/>
        <rect x="0.5" y="0.5" width="9.799" height="1.541" rx="0.771" fill="none"/>
      </g>
    </g>
    <path id="패스_66095" data-name="패스 66095" d="M2.186-1.969S4.513.594,4.513,1.876A2.29,2.29,0,0,1,2.256,4.2,2.29,2.29,0,0,1,0,1.876C0,.594,2.186-1.969,2.186-1.969Z" transform="translate(17.165 21.262)" fill="#9cc023"/>
  </g>
</svg>
