<svg xmlns="http://www.w3.org/2000/svg" width="26.263" height="26" viewBox="0 0 26.263 26">
  <g id="icon_관리비" transform="translate(-38.629 -232.4)">
    <g id="mail" transform="translate(40 233.4)">
      <path id="패스_437" data-name="패스 437" d="M4.352,4H23.169a2.275,2.275,0,0,1,2.352,2.175v13.05A2.275,2.275,0,0,1,23.169,21.4H4.352A2.275,2.275,0,0,1,2,19.225V6.175A2.275,2.275,0,0,1,4.352,4Z" transform="translate(-2 2.6)" fill="none" stroke="#5a514c" stroke-linecap="round" stroke-linejoin="round" stroke-width="2"/>
      <path id="패스_438" data-name="패스 438" d="M25.521,6,13.761,13,2,6" transform="translate(-2 2.6)" fill="none" stroke="#5a514c" stroke-linecap="round" stroke-linejoin="round" stroke-width="2"/>
      <path id="패스_552" data-name="패스 552" d="M2,10.787V.75H19.516v9.81" transform="translate(1 -0.75)" fill="#eff1f5" stroke="#5a514c" stroke-linecap="round" stroke-width="2"/>
    </g>
    <path id="패스_65847" data-name="패스 65847" d="M5.326-7.21a.806.806,0,0,1,.456.135.767.767,0,0,1,.291.465l.615,2.38H7.842l.626-2.55a.5.5,0,0,1,.291-.365.773.773,0,0,1,.467-.045.629.629,0,0,1,.4.23.5.5,0,0,1,.06.46L9.062-4.23h.879a.28.28,0,0,1,.242.105.42.42,0,0,1,.077.255.4.4,0,0,1-.077.245.28.28,0,0,1-.242.1H8.875l-.8,2.94a.746.746,0,0,1-.3.465A.824.824,0,0,1,7.326.02a.824.824,0,0,1-.445-.135.76.76,0,0,1-.3-.485L5.831-3.52H4.776L3.963-.58a.737.737,0,0,1-.308.465A.851.851,0,0,1,3.205.02.824.824,0,0,1,2.76-.115a.753.753,0,0,1-.3-.475l-.8-2.93H.579a.28.28,0,0,1-.242-.1A.4.4,0,0,1,.26-3.87a.42.42,0,0,1,.077-.255A.28.28,0,0,1,.579-4.23h.89L.853-6.5a.5.5,0,0,1,.06-.46.638.638,0,0,1,.412-.23.836.836,0,0,1,.473.035.505.505,0,0,1,.3.375l.626,2.55h1.2l.659-2.38a.791.791,0,0,1,.28-.465A.792.792,0,0,1,5.326-7.21ZM3.282-1.94l.44-1.58H2.9Zm4-.01.385-1.57H6.875ZM4.974-4.23h.67L5.326-5.49Z" transform="translate(46.47 244.304)" fill="#9cc023"/>
  </g>
</svg>
