<svg xmlns="http://www.w3.org/2000/svg" width="14.5" height="18" viewBox="0 0 14.5 18">
  <g id="icon_locate" transform="translate(2 2)">
    <g id="Op_component_1" data-name="Op component 1" transform="translate(-785 -3167.999)" fill="none" stroke-linejoin="round">
      <path d="M795.5,3173.032c0,3-3.315,7.133-4.672,8.708a.766.766,0,0,1-1.147,0c-1.365-1.576-4.68-5.71-4.68-8.708a5.255,5.255,0,0,1,10.5,0Z" stroke="none"/>
      <path d="M 790.249755859375 3167.999267578125 C 787.3472900390625 3167.999267578125 784.999755859375 3170.25 784.999755859375 3173.0322265625 C 784.999755859375 3176.0302734375 788.3148193359375 3180.1650390625 789.679931640625 3181.74072265625 C 789.8300170898438 3181.9130859375 790.0418701171875 3181.999267578125 790.2537231445313 3181.999267578125 C 790.4655151367188 3181.999267578125 790.6773071289063 3181.9130859375 790.8272705078125 3181.74072265625 C 792.1849365234375 3180.1650390625 795.499755859375 3176.0302734375 795.499755859375 3173.0322265625 C 795.499755859375 3170.25 793.1524658203125 3167.999267578125 790.249755859375 3167.999267578125 M 790.249755859375 3165.999267578125 C 792.1719360351563 3165.999267578125 793.9822998046875 3166.719970703125 795.3473510742188 3168.02880859375 C 796.7353515625 3169.359375 797.499755859375 3171.136474609375 797.499755859375 3173.0322265625 C 797.499755859375 3174.728515625 796.8034057617188 3176.6728515625 795.3709716796875 3178.97607421875 C 794.34521484375 3180.62548828125 793.1578369140625 3182.099853515625 792.3424072265625 3183.046142578125 C 792.34033203125 3183.048583984375 792.3381958007813 3183.051025390625 792.3361206054688 3183.053466796875 C 791.8131713867188 3183.654541015625 791.0541381835938 3183.999267578125 790.2537231445313 3183.999267578125 C 789.4535522460938 3183.999267578125 788.6946411132813 3183.65478515625 788.1715698242188 3183.05419921875 C 787.3539428710938 3182.1103515625 786.165771484375 3180.640625 785.1300659179688 3178.976806640625 C 783.6965942382813 3176.674072265625 782.999755859375 3174.729736328125 782.999755859375 3173.0322265625 C 782.999755859375 3171.136474609375 783.7642211914063 3169.359375 785.1522216796875 3168.02880859375 C 786.517333984375 3166.719970703125 788.32763671875 3165.999267578125 790.249755859375 3165.999267578125 Z" stroke="none" fill="#8d8785"/>
    </g>
    <circle id="Op_component_2" data-name="Op component 2" cx="1.75" cy="1.75" r="1.75" transform="translate(3.529 3.482)" fill="#8d8785"/>
  </g>
</svg>
