<svg id="_place" data-name=" place" xmlns="http://www.w3.org/2000/svg" width="21.209" height="22.198" viewBox="0 0 21.209 22.198">
  <rect id="Path" width="20.287" height="20.287" fill="rgba(0,0,0,0)"/>
  <g id="Op_component_1" data-name="Op component 1" transform="translate(-780.977 -3166.338)" fill="none">
    <path d="M797.6,3175.023c0,4.183-3.979,9.953-5.608,12.152a.838.838,0,0,1-1.377,0c-1.638-2.2-5.618-7.969-5.618-12.152,0-3.883,2.818-7.023,6.3-7.023S797.6,3171.141,797.6,3175.023Z" stroke="none"/>
    <path d="M 791.3015747070313 3168.000244140625 C 787.817626953125 3168.000244140625 784.9999389648438 3171.140625 784.9999389648438 3175.023193359375 C 784.9999389648438 3179.206298828125 788.9791259765625 3184.9765625 790.6175537109375 3187.1748046875 C 790.7977294921875 3187.415283203125 791.052001953125 3187.53564453125 791.3062744140625 3187.53564453125 C 791.5604858398438 3187.53564453125 791.8147583007813 3187.415283203125 791.9947509765625 3187.1748046875 C 793.6243896484375 3184.9765625 797.6032104492188 3179.206298828125 797.6032104492188 3175.023193359375 C 797.6032104492188 3171.140625 794.7855834960938 3168.000244140625 791.3015747070313 3168.000244140625 M 791.3015747070313 3167.000244140625 C 793.2743530273438 3167.000244140625 795.1216430664063 3167.84814453125 796.5032348632813 3169.387939453125 C 797.857421875 3170.897216796875 798.6032104492188 3172.8984375 798.6032104492188 3175.023193359375 C 798.6032104492188 3176.99462890625 797.8255615234375 3179.447998046875 796.2918701171875 3182.31494140625 C 795.1126708984375 3184.519287109375 793.7410278320313 3186.498291015625 792.798095703125 3187.770263671875 C 792.4330444335938 3188.258056640625 791.8903198242188 3188.53564453125 791.3062744140625 3188.53564453125 C 790.7222900390625 3188.53564453125 790.1795654296875 3188.258056640625 789.8171997070313 3187.7744140625 C 789.0452880859375 3186.73876953125 787.565673828125 3184.655029296875 786.312744140625 3182.3154296875 C 784.778076171875 3179.449462890625 783.9999389648438 3176.995849609375 783.9999389648438 3175.023193359375 C 783.9999389648438 3172.8984375 784.7457275390625 3170.897216796875 786.0999755859375 3169.387939453125 C 787.4815063476563 3167.84814453125 789.3287963867188 3167.000244140625 791.3015747070313 3167.000244140625 Z" stroke="none" fill="#483e37"/>
  </g>
  <ellipse id="Op_component_2" data-name="Op component 2" cx="2.474" cy="2.587" rx="2.474" ry="2.587" transform="translate(8.011 6.492)" fill="#483e37"/>
</svg>
